G75*
%MOIN*%
%OFA0B0*%
%FSLAX25Y25*%
%IPPOS*%
%LPD*%
%AMOC8*
5,1,8,0,0,1.08239X$1,22.5*
%
%ADD10C,0.00000*%
D10*
X0001500Y0011500D02*
X0001500Y0161500D01*
X0001503Y0161742D01*
X0001512Y0161983D01*
X0001526Y0162224D01*
X0001547Y0162465D01*
X0001573Y0162705D01*
X0001605Y0162945D01*
X0001643Y0163184D01*
X0001686Y0163421D01*
X0001736Y0163658D01*
X0001791Y0163893D01*
X0001851Y0164127D01*
X0001918Y0164359D01*
X0001989Y0164590D01*
X0002067Y0164819D01*
X0002150Y0165046D01*
X0002238Y0165271D01*
X0002332Y0165494D01*
X0002431Y0165714D01*
X0002536Y0165932D01*
X0002645Y0166147D01*
X0002760Y0166360D01*
X0002880Y0166570D01*
X0003005Y0166776D01*
X0003135Y0166980D01*
X0003270Y0167181D01*
X0003410Y0167378D01*
X0003554Y0167572D01*
X0003703Y0167762D01*
X0003857Y0167948D01*
X0004015Y0168131D01*
X0004177Y0168310D01*
X0004344Y0168485D01*
X0004515Y0168656D01*
X0004690Y0168823D01*
X0004869Y0168985D01*
X0005052Y0169143D01*
X0005238Y0169297D01*
X0005428Y0169446D01*
X0005622Y0169590D01*
X0005819Y0169730D01*
X0006020Y0169865D01*
X0006224Y0169995D01*
X0006430Y0170120D01*
X0006640Y0170240D01*
X0006853Y0170355D01*
X0007068Y0170464D01*
X0007286Y0170569D01*
X0007506Y0170668D01*
X0007729Y0170762D01*
X0007954Y0170850D01*
X0008181Y0170933D01*
X0008410Y0171011D01*
X0008641Y0171082D01*
X0008873Y0171149D01*
X0009107Y0171209D01*
X0009342Y0171264D01*
X0009579Y0171314D01*
X0009816Y0171357D01*
X0010055Y0171395D01*
X0010295Y0171427D01*
X0010535Y0171453D01*
X0010776Y0171474D01*
X0011017Y0171488D01*
X0011258Y0171497D01*
X0011500Y0171500D01*
X0191500Y0171500D01*
X0191742Y0171497D01*
X0191983Y0171488D01*
X0192224Y0171474D01*
X0192465Y0171453D01*
X0192705Y0171427D01*
X0192945Y0171395D01*
X0193184Y0171357D01*
X0193421Y0171314D01*
X0193658Y0171264D01*
X0193893Y0171209D01*
X0194127Y0171149D01*
X0194359Y0171082D01*
X0194590Y0171011D01*
X0194819Y0170933D01*
X0195046Y0170850D01*
X0195271Y0170762D01*
X0195494Y0170668D01*
X0195714Y0170569D01*
X0195932Y0170464D01*
X0196147Y0170355D01*
X0196360Y0170240D01*
X0196570Y0170120D01*
X0196776Y0169995D01*
X0196980Y0169865D01*
X0197181Y0169730D01*
X0197378Y0169590D01*
X0197572Y0169446D01*
X0197762Y0169297D01*
X0197948Y0169143D01*
X0198131Y0168985D01*
X0198310Y0168823D01*
X0198485Y0168656D01*
X0198656Y0168485D01*
X0198823Y0168310D01*
X0198985Y0168131D01*
X0199143Y0167948D01*
X0199297Y0167762D01*
X0199446Y0167572D01*
X0199590Y0167378D01*
X0199730Y0167181D01*
X0199865Y0166980D01*
X0199995Y0166776D01*
X0200120Y0166570D01*
X0200240Y0166360D01*
X0200355Y0166147D01*
X0200464Y0165932D01*
X0200569Y0165714D01*
X0200668Y0165494D01*
X0200762Y0165271D01*
X0200850Y0165046D01*
X0200933Y0164819D01*
X0201011Y0164590D01*
X0201082Y0164359D01*
X0201149Y0164127D01*
X0201209Y0163893D01*
X0201264Y0163658D01*
X0201314Y0163421D01*
X0201357Y0163184D01*
X0201395Y0162945D01*
X0201427Y0162705D01*
X0201453Y0162465D01*
X0201474Y0162224D01*
X0201488Y0161983D01*
X0201497Y0161742D01*
X0201500Y0161500D01*
X0201500Y0011500D01*
X0201497Y0011258D01*
X0201488Y0011017D01*
X0201474Y0010776D01*
X0201453Y0010535D01*
X0201427Y0010295D01*
X0201395Y0010055D01*
X0201357Y0009816D01*
X0201314Y0009579D01*
X0201264Y0009342D01*
X0201209Y0009107D01*
X0201149Y0008873D01*
X0201082Y0008641D01*
X0201011Y0008410D01*
X0200933Y0008181D01*
X0200850Y0007954D01*
X0200762Y0007729D01*
X0200668Y0007506D01*
X0200569Y0007286D01*
X0200464Y0007068D01*
X0200355Y0006853D01*
X0200240Y0006640D01*
X0200120Y0006430D01*
X0199995Y0006224D01*
X0199865Y0006020D01*
X0199730Y0005819D01*
X0199590Y0005622D01*
X0199446Y0005428D01*
X0199297Y0005238D01*
X0199143Y0005052D01*
X0198985Y0004869D01*
X0198823Y0004690D01*
X0198656Y0004515D01*
X0198485Y0004344D01*
X0198310Y0004177D01*
X0198131Y0004015D01*
X0197948Y0003857D01*
X0197762Y0003703D01*
X0197572Y0003554D01*
X0197378Y0003410D01*
X0197181Y0003270D01*
X0196980Y0003135D01*
X0196776Y0003005D01*
X0196570Y0002880D01*
X0196360Y0002760D01*
X0196147Y0002645D01*
X0195932Y0002536D01*
X0195714Y0002431D01*
X0195494Y0002332D01*
X0195271Y0002238D01*
X0195046Y0002150D01*
X0194819Y0002067D01*
X0194590Y0001989D01*
X0194359Y0001918D01*
X0194127Y0001851D01*
X0193893Y0001791D01*
X0193658Y0001736D01*
X0193421Y0001686D01*
X0193184Y0001643D01*
X0192945Y0001605D01*
X0192705Y0001573D01*
X0192465Y0001547D01*
X0192224Y0001526D01*
X0191983Y0001512D01*
X0191742Y0001503D01*
X0191500Y0001500D01*
X0011500Y0001500D01*
X0011258Y0001503D01*
X0011017Y0001512D01*
X0010776Y0001526D01*
X0010535Y0001547D01*
X0010295Y0001573D01*
X0010055Y0001605D01*
X0009816Y0001643D01*
X0009579Y0001686D01*
X0009342Y0001736D01*
X0009107Y0001791D01*
X0008873Y0001851D01*
X0008641Y0001918D01*
X0008410Y0001989D01*
X0008181Y0002067D01*
X0007954Y0002150D01*
X0007729Y0002238D01*
X0007506Y0002332D01*
X0007286Y0002431D01*
X0007068Y0002536D01*
X0006853Y0002645D01*
X0006640Y0002760D01*
X0006430Y0002880D01*
X0006224Y0003005D01*
X0006020Y0003135D01*
X0005819Y0003270D01*
X0005622Y0003410D01*
X0005428Y0003554D01*
X0005238Y0003703D01*
X0005052Y0003857D01*
X0004869Y0004015D01*
X0004690Y0004177D01*
X0004515Y0004344D01*
X0004344Y0004515D01*
X0004177Y0004690D01*
X0004015Y0004869D01*
X0003857Y0005052D01*
X0003703Y0005238D01*
X0003554Y0005428D01*
X0003410Y0005622D01*
X0003270Y0005819D01*
X0003135Y0006020D01*
X0003005Y0006224D01*
X0002880Y0006430D01*
X0002760Y0006640D01*
X0002645Y0006853D01*
X0002536Y0007068D01*
X0002431Y0007286D01*
X0002332Y0007506D01*
X0002238Y0007729D01*
X0002150Y0007954D01*
X0002067Y0008181D01*
X0001989Y0008410D01*
X0001918Y0008641D01*
X0001851Y0008873D01*
X0001791Y0009107D01*
X0001736Y0009342D01*
X0001686Y0009579D01*
X0001643Y0009816D01*
X0001605Y0010055D01*
X0001573Y0010295D01*
X0001547Y0010535D01*
X0001526Y0010776D01*
X0001512Y0011017D01*
X0001503Y0011258D01*
X0001500Y0011500D01*
X0025201Y0026500D02*
X0025203Y0026658D01*
X0025209Y0026816D01*
X0025219Y0026974D01*
X0025233Y0027132D01*
X0025251Y0027289D01*
X0025272Y0027446D01*
X0025298Y0027602D01*
X0025328Y0027758D01*
X0025361Y0027913D01*
X0025399Y0028066D01*
X0025440Y0028219D01*
X0025485Y0028371D01*
X0025534Y0028522D01*
X0025587Y0028671D01*
X0025643Y0028819D01*
X0025703Y0028965D01*
X0025767Y0029110D01*
X0025835Y0029253D01*
X0025906Y0029395D01*
X0025980Y0029535D01*
X0026058Y0029672D01*
X0026140Y0029808D01*
X0026224Y0029942D01*
X0026313Y0030073D01*
X0026404Y0030202D01*
X0026499Y0030329D01*
X0026596Y0030454D01*
X0026697Y0030576D01*
X0026801Y0030695D01*
X0026908Y0030812D01*
X0027018Y0030926D01*
X0027131Y0031037D01*
X0027246Y0031146D01*
X0027364Y0031251D01*
X0027485Y0031353D01*
X0027608Y0031453D01*
X0027734Y0031549D01*
X0027862Y0031642D01*
X0027992Y0031732D01*
X0028125Y0031818D01*
X0028260Y0031902D01*
X0028396Y0031981D01*
X0028535Y0032058D01*
X0028676Y0032130D01*
X0028818Y0032200D01*
X0028962Y0032265D01*
X0029108Y0032327D01*
X0029255Y0032385D01*
X0029404Y0032440D01*
X0029554Y0032491D01*
X0029705Y0032538D01*
X0029857Y0032581D01*
X0030010Y0032620D01*
X0030165Y0032656D01*
X0030320Y0032687D01*
X0030476Y0032715D01*
X0030632Y0032739D01*
X0030789Y0032759D01*
X0030947Y0032775D01*
X0031104Y0032787D01*
X0031263Y0032795D01*
X0031421Y0032799D01*
X0031579Y0032799D01*
X0031737Y0032795D01*
X0031896Y0032787D01*
X0032053Y0032775D01*
X0032211Y0032759D01*
X0032368Y0032739D01*
X0032524Y0032715D01*
X0032680Y0032687D01*
X0032835Y0032656D01*
X0032990Y0032620D01*
X0033143Y0032581D01*
X0033295Y0032538D01*
X0033446Y0032491D01*
X0033596Y0032440D01*
X0033745Y0032385D01*
X0033892Y0032327D01*
X0034038Y0032265D01*
X0034182Y0032200D01*
X0034324Y0032130D01*
X0034465Y0032058D01*
X0034604Y0031981D01*
X0034740Y0031902D01*
X0034875Y0031818D01*
X0035008Y0031732D01*
X0035138Y0031642D01*
X0035266Y0031549D01*
X0035392Y0031453D01*
X0035515Y0031353D01*
X0035636Y0031251D01*
X0035754Y0031146D01*
X0035869Y0031037D01*
X0035982Y0030926D01*
X0036092Y0030812D01*
X0036199Y0030695D01*
X0036303Y0030576D01*
X0036404Y0030454D01*
X0036501Y0030329D01*
X0036596Y0030202D01*
X0036687Y0030073D01*
X0036776Y0029942D01*
X0036860Y0029808D01*
X0036942Y0029672D01*
X0037020Y0029535D01*
X0037094Y0029395D01*
X0037165Y0029253D01*
X0037233Y0029110D01*
X0037297Y0028965D01*
X0037357Y0028819D01*
X0037413Y0028671D01*
X0037466Y0028522D01*
X0037515Y0028371D01*
X0037560Y0028219D01*
X0037601Y0028066D01*
X0037639Y0027913D01*
X0037672Y0027758D01*
X0037702Y0027602D01*
X0037728Y0027446D01*
X0037749Y0027289D01*
X0037767Y0027132D01*
X0037781Y0026974D01*
X0037791Y0026816D01*
X0037797Y0026658D01*
X0037799Y0026500D01*
X0037797Y0026342D01*
X0037791Y0026184D01*
X0037781Y0026026D01*
X0037767Y0025868D01*
X0037749Y0025711D01*
X0037728Y0025554D01*
X0037702Y0025398D01*
X0037672Y0025242D01*
X0037639Y0025087D01*
X0037601Y0024934D01*
X0037560Y0024781D01*
X0037515Y0024629D01*
X0037466Y0024478D01*
X0037413Y0024329D01*
X0037357Y0024181D01*
X0037297Y0024035D01*
X0037233Y0023890D01*
X0037165Y0023747D01*
X0037094Y0023605D01*
X0037020Y0023465D01*
X0036942Y0023328D01*
X0036860Y0023192D01*
X0036776Y0023058D01*
X0036687Y0022927D01*
X0036596Y0022798D01*
X0036501Y0022671D01*
X0036404Y0022546D01*
X0036303Y0022424D01*
X0036199Y0022305D01*
X0036092Y0022188D01*
X0035982Y0022074D01*
X0035869Y0021963D01*
X0035754Y0021854D01*
X0035636Y0021749D01*
X0035515Y0021647D01*
X0035392Y0021547D01*
X0035266Y0021451D01*
X0035138Y0021358D01*
X0035008Y0021268D01*
X0034875Y0021182D01*
X0034740Y0021098D01*
X0034604Y0021019D01*
X0034465Y0020942D01*
X0034324Y0020870D01*
X0034182Y0020800D01*
X0034038Y0020735D01*
X0033892Y0020673D01*
X0033745Y0020615D01*
X0033596Y0020560D01*
X0033446Y0020509D01*
X0033295Y0020462D01*
X0033143Y0020419D01*
X0032990Y0020380D01*
X0032835Y0020344D01*
X0032680Y0020313D01*
X0032524Y0020285D01*
X0032368Y0020261D01*
X0032211Y0020241D01*
X0032053Y0020225D01*
X0031896Y0020213D01*
X0031737Y0020205D01*
X0031579Y0020201D01*
X0031421Y0020201D01*
X0031263Y0020205D01*
X0031104Y0020213D01*
X0030947Y0020225D01*
X0030789Y0020241D01*
X0030632Y0020261D01*
X0030476Y0020285D01*
X0030320Y0020313D01*
X0030165Y0020344D01*
X0030010Y0020380D01*
X0029857Y0020419D01*
X0029705Y0020462D01*
X0029554Y0020509D01*
X0029404Y0020560D01*
X0029255Y0020615D01*
X0029108Y0020673D01*
X0028962Y0020735D01*
X0028818Y0020800D01*
X0028676Y0020870D01*
X0028535Y0020942D01*
X0028396Y0021019D01*
X0028260Y0021098D01*
X0028125Y0021182D01*
X0027992Y0021268D01*
X0027862Y0021358D01*
X0027734Y0021451D01*
X0027608Y0021547D01*
X0027485Y0021647D01*
X0027364Y0021749D01*
X0027246Y0021854D01*
X0027131Y0021963D01*
X0027018Y0022074D01*
X0026908Y0022188D01*
X0026801Y0022305D01*
X0026697Y0022424D01*
X0026596Y0022546D01*
X0026499Y0022671D01*
X0026404Y0022798D01*
X0026313Y0022927D01*
X0026224Y0023058D01*
X0026140Y0023192D01*
X0026058Y0023328D01*
X0025980Y0023465D01*
X0025906Y0023605D01*
X0025835Y0023747D01*
X0025767Y0023890D01*
X0025703Y0024035D01*
X0025643Y0024181D01*
X0025587Y0024329D01*
X0025534Y0024478D01*
X0025485Y0024629D01*
X0025440Y0024781D01*
X0025399Y0024934D01*
X0025361Y0025087D01*
X0025328Y0025242D01*
X0025298Y0025398D01*
X0025272Y0025554D01*
X0025251Y0025711D01*
X0025233Y0025868D01*
X0025219Y0026026D01*
X0025209Y0026184D01*
X0025203Y0026342D01*
X0025201Y0026500D01*
X0033571Y0046929D02*
X0019429Y0061071D01*
X0016500Y0070642D02*
X0016500Y0102358D01*
X0019429Y0111929D02*
X0033571Y0126071D01*
X0048142Y0131500D02*
X0162358Y0131500D01*
X0169429Y0128571D02*
X0176071Y0121929D01*
X0179000Y0114858D02*
X0179000Y0058142D01*
X0176071Y0051071D02*
X0171500Y0046500D01*
X0169429Y0044429D01*
X0162358Y0041500D02*
X0151500Y0041500D01*
X0048142Y0041500D01*
X0047659Y0041489D01*
X0047175Y0041488D01*
X0046692Y0041500D01*
X0046209Y0041523D01*
X0045727Y0041557D01*
X0045245Y0041603D01*
X0044765Y0041660D01*
X0044287Y0041729D01*
X0043810Y0041809D01*
X0043335Y0041900D01*
X0042863Y0042002D01*
X0042393Y0042116D01*
X0041926Y0042241D01*
X0041462Y0042377D01*
X0041001Y0042524D01*
X0040544Y0042682D01*
X0040091Y0042851D01*
X0039642Y0043031D01*
X0039197Y0043221D01*
X0038758Y0043422D01*
X0038323Y0043633D01*
X0037893Y0043854D01*
X0037468Y0044086D01*
X0037049Y0044327D01*
X0036637Y0044579D01*
X0036230Y0044840D01*
X0035829Y0045111D01*
X0035435Y0045391D01*
X0035048Y0045681D01*
X0034668Y0045980D01*
X0034295Y0046287D01*
X0033929Y0046604D01*
X0033571Y0046929D01*
X0019429Y0061071D02*
X0019234Y0061313D01*
X0019044Y0061560D01*
X0018861Y0061812D01*
X0018684Y0062067D01*
X0018512Y0062327D01*
X0018347Y0062591D01*
X0018189Y0062859D01*
X0018036Y0063130D01*
X0017891Y0063405D01*
X0017751Y0063684D01*
X0017619Y0063965D01*
X0017493Y0064250D01*
X0017374Y0064538D01*
X0017262Y0064828D01*
X0017157Y0065121D01*
X0017059Y0065417D01*
X0016968Y0065714D01*
X0016884Y0066014D01*
X0016807Y0066315D01*
X0016737Y0066619D01*
X0016675Y0066924D01*
X0016620Y0067230D01*
X0016572Y0067538D01*
X0016532Y0067846D01*
X0016499Y0068156D01*
X0016473Y0068466D01*
X0016454Y0068777D01*
X0016444Y0069088D01*
X0016440Y0069399D01*
X0016444Y0069710D01*
X0016455Y0070021D01*
X0016474Y0070332D01*
X0016500Y0070642D01*
X0016500Y0102358D02*
X0016474Y0102668D01*
X0016455Y0102979D01*
X0016444Y0103290D01*
X0016440Y0103601D01*
X0016444Y0103912D01*
X0016454Y0104223D01*
X0016473Y0104534D01*
X0016499Y0104844D01*
X0016532Y0105154D01*
X0016572Y0105462D01*
X0016620Y0105770D01*
X0016675Y0106076D01*
X0016737Y0106381D01*
X0016807Y0106685D01*
X0016884Y0106986D01*
X0016968Y0107286D01*
X0017059Y0107583D01*
X0017157Y0107879D01*
X0017262Y0108172D01*
X0017374Y0108462D01*
X0017493Y0108750D01*
X0017619Y0109035D01*
X0017751Y0109316D01*
X0017891Y0109595D01*
X0018036Y0109870D01*
X0018189Y0110141D01*
X0018347Y0110409D01*
X0018512Y0110673D01*
X0018684Y0110933D01*
X0018861Y0111188D01*
X0019044Y0111440D01*
X0019234Y0111687D01*
X0019429Y0111929D01*
X0033571Y0126071D02*
X0033929Y0126396D01*
X0034295Y0126713D01*
X0034668Y0127020D01*
X0035048Y0127319D01*
X0035435Y0127609D01*
X0035829Y0127889D01*
X0036230Y0128160D01*
X0036637Y0128421D01*
X0037049Y0128673D01*
X0037468Y0128914D01*
X0037893Y0129146D01*
X0038323Y0129367D01*
X0038758Y0129578D01*
X0039197Y0129779D01*
X0039642Y0129969D01*
X0040091Y0130149D01*
X0040544Y0130318D01*
X0041001Y0130476D01*
X0041462Y0130623D01*
X0041926Y0130759D01*
X0042393Y0130884D01*
X0042863Y0130998D01*
X0043335Y0131100D01*
X0043810Y0131191D01*
X0044287Y0131271D01*
X0044765Y0131340D01*
X0045245Y0131397D01*
X0045727Y0131443D01*
X0046209Y0131477D01*
X0046692Y0131500D01*
X0047175Y0131512D01*
X0047659Y0131511D01*
X0048142Y0131500D01*
X0025201Y0146500D02*
X0025203Y0146658D01*
X0025209Y0146816D01*
X0025219Y0146974D01*
X0025233Y0147132D01*
X0025251Y0147289D01*
X0025272Y0147446D01*
X0025298Y0147602D01*
X0025328Y0147758D01*
X0025361Y0147913D01*
X0025399Y0148066D01*
X0025440Y0148219D01*
X0025485Y0148371D01*
X0025534Y0148522D01*
X0025587Y0148671D01*
X0025643Y0148819D01*
X0025703Y0148965D01*
X0025767Y0149110D01*
X0025835Y0149253D01*
X0025906Y0149395D01*
X0025980Y0149535D01*
X0026058Y0149672D01*
X0026140Y0149808D01*
X0026224Y0149942D01*
X0026313Y0150073D01*
X0026404Y0150202D01*
X0026499Y0150329D01*
X0026596Y0150454D01*
X0026697Y0150576D01*
X0026801Y0150695D01*
X0026908Y0150812D01*
X0027018Y0150926D01*
X0027131Y0151037D01*
X0027246Y0151146D01*
X0027364Y0151251D01*
X0027485Y0151353D01*
X0027608Y0151453D01*
X0027734Y0151549D01*
X0027862Y0151642D01*
X0027992Y0151732D01*
X0028125Y0151818D01*
X0028260Y0151902D01*
X0028396Y0151981D01*
X0028535Y0152058D01*
X0028676Y0152130D01*
X0028818Y0152200D01*
X0028962Y0152265D01*
X0029108Y0152327D01*
X0029255Y0152385D01*
X0029404Y0152440D01*
X0029554Y0152491D01*
X0029705Y0152538D01*
X0029857Y0152581D01*
X0030010Y0152620D01*
X0030165Y0152656D01*
X0030320Y0152687D01*
X0030476Y0152715D01*
X0030632Y0152739D01*
X0030789Y0152759D01*
X0030947Y0152775D01*
X0031104Y0152787D01*
X0031263Y0152795D01*
X0031421Y0152799D01*
X0031579Y0152799D01*
X0031737Y0152795D01*
X0031896Y0152787D01*
X0032053Y0152775D01*
X0032211Y0152759D01*
X0032368Y0152739D01*
X0032524Y0152715D01*
X0032680Y0152687D01*
X0032835Y0152656D01*
X0032990Y0152620D01*
X0033143Y0152581D01*
X0033295Y0152538D01*
X0033446Y0152491D01*
X0033596Y0152440D01*
X0033745Y0152385D01*
X0033892Y0152327D01*
X0034038Y0152265D01*
X0034182Y0152200D01*
X0034324Y0152130D01*
X0034465Y0152058D01*
X0034604Y0151981D01*
X0034740Y0151902D01*
X0034875Y0151818D01*
X0035008Y0151732D01*
X0035138Y0151642D01*
X0035266Y0151549D01*
X0035392Y0151453D01*
X0035515Y0151353D01*
X0035636Y0151251D01*
X0035754Y0151146D01*
X0035869Y0151037D01*
X0035982Y0150926D01*
X0036092Y0150812D01*
X0036199Y0150695D01*
X0036303Y0150576D01*
X0036404Y0150454D01*
X0036501Y0150329D01*
X0036596Y0150202D01*
X0036687Y0150073D01*
X0036776Y0149942D01*
X0036860Y0149808D01*
X0036942Y0149672D01*
X0037020Y0149535D01*
X0037094Y0149395D01*
X0037165Y0149253D01*
X0037233Y0149110D01*
X0037297Y0148965D01*
X0037357Y0148819D01*
X0037413Y0148671D01*
X0037466Y0148522D01*
X0037515Y0148371D01*
X0037560Y0148219D01*
X0037601Y0148066D01*
X0037639Y0147913D01*
X0037672Y0147758D01*
X0037702Y0147602D01*
X0037728Y0147446D01*
X0037749Y0147289D01*
X0037767Y0147132D01*
X0037781Y0146974D01*
X0037791Y0146816D01*
X0037797Y0146658D01*
X0037799Y0146500D01*
X0037797Y0146342D01*
X0037791Y0146184D01*
X0037781Y0146026D01*
X0037767Y0145868D01*
X0037749Y0145711D01*
X0037728Y0145554D01*
X0037702Y0145398D01*
X0037672Y0145242D01*
X0037639Y0145087D01*
X0037601Y0144934D01*
X0037560Y0144781D01*
X0037515Y0144629D01*
X0037466Y0144478D01*
X0037413Y0144329D01*
X0037357Y0144181D01*
X0037297Y0144035D01*
X0037233Y0143890D01*
X0037165Y0143747D01*
X0037094Y0143605D01*
X0037020Y0143465D01*
X0036942Y0143328D01*
X0036860Y0143192D01*
X0036776Y0143058D01*
X0036687Y0142927D01*
X0036596Y0142798D01*
X0036501Y0142671D01*
X0036404Y0142546D01*
X0036303Y0142424D01*
X0036199Y0142305D01*
X0036092Y0142188D01*
X0035982Y0142074D01*
X0035869Y0141963D01*
X0035754Y0141854D01*
X0035636Y0141749D01*
X0035515Y0141647D01*
X0035392Y0141547D01*
X0035266Y0141451D01*
X0035138Y0141358D01*
X0035008Y0141268D01*
X0034875Y0141182D01*
X0034740Y0141098D01*
X0034604Y0141019D01*
X0034465Y0140942D01*
X0034324Y0140870D01*
X0034182Y0140800D01*
X0034038Y0140735D01*
X0033892Y0140673D01*
X0033745Y0140615D01*
X0033596Y0140560D01*
X0033446Y0140509D01*
X0033295Y0140462D01*
X0033143Y0140419D01*
X0032990Y0140380D01*
X0032835Y0140344D01*
X0032680Y0140313D01*
X0032524Y0140285D01*
X0032368Y0140261D01*
X0032211Y0140241D01*
X0032053Y0140225D01*
X0031896Y0140213D01*
X0031737Y0140205D01*
X0031579Y0140201D01*
X0031421Y0140201D01*
X0031263Y0140205D01*
X0031104Y0140213D01*
X0030947Y0140225D01*
X0030789Y0140241D01*
X0030632Y0140261D01*
X0030476Y0140285D01*
X0030320Y0140313D01*
X0030165Y0140344D01*
X0030010Y0140380D01*
X0029857Y0140419D01*
X0029705Y0140462D01*
X0029554Y0140509D01*
X0029404Y0140560D01*
X0029255Y0140615D01*
X0029108Y0140673D01*
X0028962Y0140735D01*
X0028818Y0140800D01*
X0028676Y0140870D01*
X0028535Y0140942D01*
X0028396Y0141019D01*
X0028260Y0141098D01*
X0028125Y0141182D01*
X0027992Y0141268D01*
X0027862Y0141358D01*
X0027734Y0141451D01*
X0027608Y0141547D01*
X0027485Y0141647D01*
X0027364Y0141749D01*
X0027246Y0141854D01*
X0027131Y0141963D01*
X0027018Y0142074D01*
X0026908Y0142188D01*
X0026801Y0142305D01*
X0026697Y0142424D01*
X0026596Y0142546D01*
X0026499Y0142671D01*
X0026404Y0142798D01*
X0026313Y0142927D01*
X0026224Y0143058D01*
X0026140Y0143192D01*
X0026058Y0143328D01*
X0025980Y0143465D01*
X0025906Y0143605D01*
X0025835Y0143747D01*
X0025767Y0143890D01*
X0025703Y0144035D01*
X0025643Y0144181D01*
X0025587Y0144329D01*
X0025534Y0144478D01*
X0025485Y0144629D01*
X0025440Y0144781D01*
X0025399Y0144934D01*
X0025361Y0145087D01*
X0025328Y0145242D01*
X0025298Y0145398D01*
X0025272Y0145554D01*
X0025251Y0145711D01*
X0025233Y0145868D01*
X0025219Y0146026D01*
X0025209Y0146184D01*
X0025203Y0146342D01*
X0025201Y0146500D01*
X0162358Y0131500D02*
X0162596Y0131497D01*
X0162834Y0131489D01*
X0163071Y0131475D01*
X0163309Y0131455D01*
X0163545Y0131429D01*
X0163781Y0131398D01*
X0164016Y0131362D01*
X0164251Y0131319D01*
X0164484Y0131271D01*
X0164716Y0131218D01*
X0164946Y0131159D01*
X0165175Y0131095D01*
X0165403Y0131025D01*
X0165629Y0130950D01*
X0165853Y0130869D01*
X0166075Y0130784D01*
X0166295Y0130693D01*
X0166512Y0130596D01*
X0166727Y0130495D01*
X0166940Y0130388D01*
X0167150Y0130277D01*
X0167358Y0130160D01*
X0167563Y0130039D01*
X0167764Y0129913D01*
X0167963Y0129781D01*
X0168159Y0129646D01*
X0168351Y0129505D01*
X0168540Y0129361D01*
X0168725Y0129211D01*
X0168907Y0129057D01*
X0169085Y0128900D01*
X0169259Y0128737D01*
X0169429Y0128571D01*
X0176071Y0121929D02*
X0176237Y0121759D01*
X0176400Y0121585D01*
X0176557Y0121407D01*
X0176711Y0121225D01*
X0176861Y0121040D01*
X0177005Y0120851D01*
X0177146Y0120659D01*
X0177281Y0120463D01*
X0177413Y0120264D01*
X0177539Y0120063D01*
X0177660Y0119858D01*
X0177777Y0119650D01*
X0177888Y0119440D01*
X0177995Y0119227D01*
X0178096Y0119012D01*
X0178193Y0118795D01*
X0178284Y0118575D01*
X0178369Y0118353D01*
X0178450Y0118129D01*
X0178525Y0117903D01*
X0178595Y0117675D01*
X0178659Y0117446D01*
X0178718Y0117216D01*
X0178771Y0116984D01*
X0178819Y0116751D01*
X0178862Y0116516D01*
X0178898Y0116281D01*
X0178929Y0116045D01*
X0178955Y0115809D01*
X0178975Y0115571D01*
X0178989Y0115334D01*
X0178997Y0115096D01*
X0179000Y0114858D01*
X0165201Y0146500D02*
X0165203Y0146658D01*
X0165209Y0146816D01*
X0165219Y0146974D01*
X0165233Y0147132D01*
X0165251Y0147289D01*
X0165272Y0147446D01*
X0165298Y0147602D01*
X0165328Y0147758D01*
X0165361Y0147913D01*
X0165399Y0148066D01*
X0165440Y0148219D01*
X0165485Y0148371D01*
X0165534Y0148522D01*
X0165587Y0148671D01*
X0165643Y0148819D01*
X0165703Y0148965D01*
X0165767Y0149110D01*
X0165835Y0149253D01*
X0165906Y0149395D01*
X0165980Y0149535D01*
X0166058Y0149672D01*
X0166140Y0149808D01*
X0166224Y0149942D01*
X0166313Y0150073D01*
X0166404Y0150202D01*
X0166499Y0150329D01*
X0166596Y0150454D01*
X0166697Y0150576D01*
X0166801Y0150695D01*
X0166908Y0150812D01*
X0167018Y0150926D01*
X0167131Y0151037D01*
X0167246Y0151146D01*
X0167364Y0151251D01*
X0167485Y0151353D01*
X0167608Y0151453D01*
X0167734Y0151549D01*
X0167862Y0151642D01*
X0167992Y0151732D01*
X0168125Y0151818D01*
X0168260Y0151902D01*
X0168396Y0151981D01*
X0168535Y0152058D01*
X0168676Y0152130D01*
X0168818Y0152200D01*
X0168962Y0152265D01*
X0169108Y0152327D01*
X0169255Y0152385D01*
X0169404Y0152440D01*
X0169554Y0152491D01*
X0169705Y0152538D01*
X0169857Y0152581D01*
X0170010Y0152620D01*
X0170165Y0152656D01*
X0170320Y0152687D01*
X0170476Y0152715D01*
X0170632Y0152739D01*
X0170789Y0152759D01*
X0170947Y0152775D01*
X0171104Y0152787D01*
X0171263Y0152795D01*
X0171421Y0152799D01*
X0171579Y0152799D01*
X0171737Y0152795D01*
X0171896Y0152787D01*
X0172053Y0152775D01*
X0172211Y0152759D01*
X0172368Y0152739D01*
X0172524Y0152715D01*
X0172680Y0152687D01*
X0172835Y0152656D01*
X0172990Y0152620D01*
X0173143Y0152581D01*
X0173295Y0152538D01*
X0173446Y0152491D01*
X0173596Y0152440D01*
X0173745Y0152385D01*
X0173892Y0152327D01*
X0174038Y0152265D01*
X0174182Y0152200D01*
X0174324Y0152130D01*
X0174465Y0152058D01*
X0174604Y0151981D01*
X0174740Y0151902D01*
X0174875Y0151818D01*
X0175008Y0151732D01*
X0175138Y0151642D01*
X0175266Y0151549D01*
X0175392Y0151453D01*
X0175515Y0151353D01*
X0175636Y0151251D01*
X0175754Y0151146D01*
X0175869Y0151037D01*
X0175982Y0150926D01*
X0176092Y0150812D01*
X0176199Y0150695D01*
X0176303Y0150576D01*
X0176404Y0150454D01*
X0176501Y0150329D01*
X0176596Y0150202D01*
X0176687Y0150073D01*
X0176776Y0149942D01*
X0176860Y0149808D01*
X0176942Y0149672D01*
X0177020Y0149535D01*
X0177094Y0149395D01*
X0177165Y0149253D01*
X0177233Y0149110D01*
X0177297Y0148965D01*
X0177357Y0148819D01*
X0177413Y0148671D01*
X0177466Y0148522D01*
X0177515Y0148371D01*
X0177560Y0148219D01*
X0177601Y0148066D01*
X0177639Y0147913D01*
X0177672Y0147758D01*
X0177702Y0147602D01*
X0177728Y0147446D01*
X0177749Y0147289D01*
X0177767Y0147132D01*
X0177781Y0146974D01*
X0177791Y0146816D01*
X0177797Y0146658D01*
X0177799Y0146500D01*
X0177797Y0146342D01*
X0177791Y0146184D01*
X0177781Y0146026D01*
X0177767Y0145868D01*
X0177749Y0145711D01*
X0177728Y0145554D01*
X0177702Y0145398D01*
X0177672Y0145242D01*
X0177639Y0145087D01*
X0177601Y0144934D01*
X0177560Y0144781D01*
X0177515Y0144629D01*
X0177466Y0144478D01*
X0177413Y0144329D01*
X0177357Y0144181D01*
X0177297Y0144035D01*
X0177233Y0143890D01*
X0177165Y0143747D01*
X0177094Y0143605D01*
X0177020Y0143465D01*
X0176942Y0143328D01*
X0176860Y0143192D01*
X0176776Y0143058D01*
X0176687Y0142927D01*
X0176596Y0142798D01*
X0176501Y0142671D01*
X0176404Y0142546D01*
X0176303Y0142424D01*
X0176199Y0142305D01*
X0176092Y0142188D01*
X0175982Y0142074D01*
X0175869Y0141963D01*
X0175754Y0141854D01*
X0175636Y0141749D01*
X0175515Y0141647D01*
X0175392Y0141547D01*
X0175266Y0141451D01*
X0175138Y0141358D01*
X0175008Y0141268D01*
X0174875Y0141182D01*
X0174740Y0141098D01*
X0174604Y0141019D01*
X0174465Y0140942D01*
X0174324Y0140870D01*
X0174182Y0140800D01*
X0174038Y0140735D01*
X0173892Y0140673D01*
X0173745Y0140615D01*
X0173596Y0140560D01*
X0173446Y0140509D01*
X0173295Y0140462D01*
X0173143Y0140419D01*
X0172990Y0140380D01*
X0172835Y0140344D01*
X0172680Y0140313D01*
X0172524Y0140285D01*
X0172368Y0140261D01*
X0172211Y0140241D01*
X0172053Y0140225D01*
X0171896Y0140213D01*
X0171737Y0140205D01*
X0171579Y0140201D01*
X0171421Y0140201D01*
X0171263Y0140205D01*
X0171104Y0140213D01*
X0170947Y0140225D01*
X0170789Y0140241D01*
X0170632Y0140261D01*
X0170476Y0140285D01*
X0170320Y0140313D01*
X0170165Y0140344D01*
X0170010Y0140380D01*
X0169857Y0140419D01*
X0169705Y0140462D01*
X0169554Y0140509D01*
X0169404Y0140560D01*
X0169255Y0140615D01*
X0169108Y0140673D01*
X0168962Y0140735D01*
X0168818Y0140800D01*
X0168676Y0140870D01*
X0168535Y0140942D01*
X0168396Y0141019D01*
X0168260Y0141098D01*
X0168125Y0141182D01*
X0167992Y0141268D01*
X0167862Y0141358D01*
X0167734Y0141451D01*
X0167608Y0141547D01*
X0167485Y0141647D01*
X0167364Y0141749D01*
X0167246Y0141854D01*
X0167131Y0141963D01*
X0167018Y0142074D01*
X0166908Y0142188D01*
X0166801Y0142305D01*
X0166697Y0142424D01*
X0166596Y0142546D01*
X0166499Y0142671D01*
X0166404Y0142798D01*
X0166313Y0142927D01*
X0166224Y0143058D01*
X0166140Y0143192D01*
X0166058Y0143328D01*
X0165980Y0143465D01*
X0165906Y0143605D01*
X0165835Y0143747D01*
X0165767Y0143890D01*
X0165703Y0144035D01*
X0165643Y0144181D01*
X0165587Y0144329D01*
X0165534Y0144478D01*
X0165485Y0144629D01*
X0165440Y0144781D01*
X0165399Y0144934D01*
X0165361Y0145087D01*
X0165328Y0145242D01*
X0165298Y0145398D01*
X0165272Y0145554D01*
X0165251Y0145711D01*
X0165233Y0145868D01*
X0165219Y0146026D01*
X0165209Y0146184D01*
X0165203Y0146342D01*
X0165201Y0146500D01*
X0179000Y0058142D02*
X0178997Y0057904D01*
X0178989Y0057666D01*
X0178975Y0057429D01*
X0178955Y0057191D01*
X0178929Y0056955D01*
X0178898Y0056719D01*
X0178862Y0056484D01*
X0178819Y0056249D01*
X0178771Y0056016D01*
X0178718Y0055784D01*
X0178659Y0055554D01*
X0178595Y0055325D01*
X0178525Y0055097D01*
X0178450Y0054871D01*
X0178369Y0054647D01*
X0178284Y0054425D01*
X0178193Y0054205D01*
X0178096Y0053988D01*
X0177995Y0053773D01*
X0177888Y0053560D01*
X0177777Y0053350D01*
X0177660Y0053142D01*
X0177539Y0052937D01*
X0177413Y0052736D01*
X0177281Y0052537D01*
X0177146Y0052341D01*
X0177005Y0052149D01*
X0176861Y0051960D01*
X0176711Y0051775D01*
X0176557Y0051593D01*
X0176400Y0051415D01*
X0176237Y0051241D01*
X0176071Y0051071D01*
X0169429Y0044429D02*
X0169259Y0044263D01*
X0169085Y0044100D01*
X0168907Y0043943D01*
X0168725Y0043789D01*
X0168540Y0043639D01*
X0168351Y0043495D01*
X0168159Y0043354D01*
X0167963Y0043219D01*
X0167764Y0043087D01*
X0167563Y0042961D01*
X0167358Y0042840D01*
X0167150Y0042723D01*
X0166940Y0042612D01*
X0166727Y0042505D01*
X0166512Y0042404D01*
X0166295Y0042307D01*
X0166075Y0042216D01*
X0165853Y0042131D01*
X0165629Y0042050D01*
X0165403Y0041975D01*
X0165175Y0041905D01*
X0164946Y0041841D01*
X0164716Y0041782D01*
X0164484Y0041729D01*
X0164251Y0041681D01*
X0164016Y0041638D01*
X0163781Y0041602D01*
X0163545Y0041571D01*
X0163309Y0041545D01*
X0163071Y0041525D01*
X0162834Y0041511D01*
X0162596Y0041503D01*
X0162358Y0041500D01*
X0165201Y0026500D02*
X0165203Y0026658D01*
X0165209Y0026816D01*
X0165219Y0026974D01*
X0165233Y0027132D01*
X0165251Y0027289D01*
X0165272Y0027446D01*
X0165298Y0027602D01*
X0165328Y0027758D01*
X0165361Y0027913D01*
X0165399Y0028066D01*
X0165440Y0028219D01*
X0165485Y0028371D01*
X0165534Y0028522D01*
X0165587Y0028671D01*
X0165643Y0028819D01*
X0165703Y0028965D01*
X0165767Y0029110D01*
X0165835Y0029253D01*
X0165906Y0029395D01*
X0165980Y0029535D01*
X0166058Y0029672D01*
X0166140Y0029808D01*
X0166224Y0029942D01*
X0166313Y0030073D01*
X0166404Y0030202D01*
X0166499Y0030329D01*
X0166596Y0030454D01*
X0166697Y0030576D01*
X0166801Y0030695D01*
X0166908Y0030812D01*
X0167018Y0030926D01*
X0167131Y0031037D01*
X0167246Y0031146D01*
X0167364Y0031251D01*
X0167485Y0031353D01*
X0167608Y0031453D01*
X0167734Y0031549D01*
X0167862Y0031642D01*
X0167992Y0031732D01*
X0168125Y0031818D01*
X0168260Y0031902D01*
X0168396Y0031981D01*
X0168535Y0032058D01*
X0168676Y0032130D01*
X0168818Y0032200D01*
X0168962Y0032265D01*
X0169108Y0032327D01*
X0169255Y0032385D01*
X0169404Y0032440D01*
X0169554Y0032491D01*
X0169705Y0032538D01*
X0169857Y0032581D01*
X0170010Y0032620D01*
X0170165Y0032656D01*
X0170320Y0032687D01*
X0170476Y0032715D01*
X0170632Y0032739D01*
X0170789Y0032759D01*
X0170947Y0032775D01*
X0171104Y0032787D01*
X0171263Y0032795D01*
X0171421Y0032799D01*
X0171579Y0032799D01*
X0171737Y0032795D01*
X0171896Y0032787D01*
X0172053Y0032775D01*
X0172211Y0032759D01*
X0172368Y0032739D01*
X0172524Y0032715D01*
X0172680Y0032687D01*
X0172835Y0032656D01*
X0172990Y0032620D01*
X0173143Y0032581D01*
X0173295Y0032538D01*
X0173446Y0032491D01*
X0173596Y0032440D01*
X0173745Y0032385D01*
X0173892Y0032327D01*
X0174038Y0032265D01*
X0174182Y0032200D01*
X0174324Y0032130D01*
X0174465Y0032058D01*
X0174604Y0031981D01*
X0174740Y0031902D01*
X0174875Y0031818D01*
X0175008Y0031732D01*
X0175138Y0031642D01*
X0175266Y0031549D01*
X0175392Y0031453D01*
X0175515Y0031353D01*
X0175636Y0031251D01*
X0175754Y0031146D01*
X0175869Y0031037D01*
X0175982Y0030926D01*
X0176092Y0030812D01*
X0176199Y0030695D01*
X0176303Y0030576D01*
X0176404Y0030454D01*
X0176501Y0030329D01*
X0176596Y0030202D01*
X0176687Y0030073D01*
X0176776Y0029942D01*
X0176860Y0029808D01*
X0176942Y0029672D01*
X0177020Y0029535D01*
X0177094Y0029395D01*
X0177165Y0029253D01*
X0177233Y0029110D01*
X0177297Y0028965D01*
X0177357Y0028819D01*
X0177413Y0028671D01*
X0177466Y0028522D01*
X0177515Y0028371D01*
X0177560Y0028219D01*
X0177601Y0028066D01*
X0177639Y0027913D01*
X0177672Y0027758D01*
X0177702Y0027602D01*
X0177728Y0027446D01*
X0177749Y0027289D01*
X0177767Y0027132D01*
X0177781Y0026974D01*
X0177791Y0026816D01*
X0177797Y0026658D01*
X0177799Y0026500D01*
X0177797Y0026342D01*
X0177791Y0026184D01*
X0177781Y0026026D01*
X0177767Y0025868D01*
X0177749Y0025711D01*
X0177728Y0025554D01*
X0177702Y0025398D01*
X0177672Y0025242D01*
X0177639Y0025087D01*
X0177601Y0024934D01*
X0177560Y0024781D01*
X0177515Y0024629D01*
X0177466Y0024478D01*
X0177413Y0024329D01*
X0177357Y0024181D01*
X0177297Y0024035D01*
X0177233Y0023890D01*
X0177165Y0023747D01*
X0177094Y0023605D01*
X0177020Y0023465D01*
X0176942Y0023328D01*
X0176860Y0023192D01*
X0176776Y0023058D01*
X0176687Y0022927D01*
X0176596Y0022798D01*
X0176501Y0022671D01*
X0176404Y0022546D01*
X0176303Y0022424D01*
X0176199Y0022305D01*
X0176092Y0022188D01*
X0175982Y0022074D01*
X0175869Y0021963D01*
X0175754Y0021854D01*
X0175636Y0021749D01*
X0175515Y0021647D01*
X0175392Y0021547D01*
X0175266Y0021451D01*
X0175138Y0021358D01*
X0175008Y0021268D01*
X0174875Y0021182D01*
X0174740Y0021098D01*
X0174604Y0021019D01*
X0174465Y0020942D01*
X0174324Y0020870D01*
X0174182Y0020800D01*
X0174038Y0020735D01*
X0173892Y0020673D01*
X0173745Y0020615D01*
X0173596Y0020560D01*
X0173446Y0020509D01*
X0173295Y0020462D01*
X0173143Y0020419D01*
X0172990Y0020380D01*
X0172835Y0020344D01*
X0172680Y0020313D01*
X0172524Y0020285D01*
X0172368Y0020261D01*
X0172211Y0020241D01*
X0172053Y0020225D01*
X0171896Y0020213D01*
X0171737Y0020205D01*
X0171579Y0020201D01*
X0171421Y0020201D01*
X0171263Y0020205D01*
X0171104Y0020213D01*
X0170947Y0020225D01*
X0170789Y0020241D01*
X0170632Y0020261D01*
X0170476Y0020285D01*
X0170320Y0020313D01*
X0170165Y0020344D01*
X0170010Y0020380D01*
X0169857Y0020419D01*
X0169705Y0020462D01*
X0169554Y0020509D01*
X0169404Y0020560D01*
X0169255Y0020615D01*
X0169108Y0020673D01*
X0168962Y0020735D01*
X0168818Y0020800D01*
X0168676Y0020870D01*
X0168535Y0020942D01*
X0168396Y0021019D01*
X0168260Y0021098D01*
X0168125Y0021182D01*
X0167992Y0021268D01*
X0167862Y0021358D01*
X0167734Y0021451D01*
X0167608Y0021547D01*
X0167485Y0021647D01*
X0167364Y0021749D01*
X0167246Y0021854D01*
X0167131Y0021963D01*
X0167018Y0022074D01*
X0166908Y0022188D01*
X0166801Y0022305D01*
X0166697Y0022424D01*
X0166596Y0022546D01*
X0166499Y0022671D01*
X0166404Y0022798D01*
X0166313Y0022927D01*
X0166224Y0023058D01*
X0166140Y0023192D01*
X0166058Y0023328D01*
X0165980Y0023465D01*
X0165906Y0023605D01*
X0165835Y0023747D01*
X0165767Y0023890D01*
X0165703Y0024035D01*
X0165643Y0024181D01*
X0165587Y0024329D01*
X0165534Y0024478D01*
X0165485Y0024629D01*
X0165440Y0024781D01*
X0165399Y0024934D01*
X0165361Y0025087D01*
X0165328Y0025242D01*
X0165298Y0025398D01*
X0165272Y0025554D01*
X0165251Y0025711D01*
X0165233Y0025868D01*
X0165219Y0026026D01*
X0165209Y0026184D01*
X0165203Y0026342D01*
X0165201Y0026500D01*
M02*
