G75*
%MOIN*%
%OFA0B0*%
%FSLAX25Y25*%
%IPPOS*%
%LPD*%
%AMOC8*
5,1,8,0,0,1.08239X$1,22.5*
%
%ADD10C,0.01000*%
D10*
X0007797Y0007491D02*
X0195203Y0007491D01*
X0194848Y0007137D02*
X0195863Y0008152D01*
X0196581Y0009395D01*
X0196953Y0010782D01*
X0197000Y0011500D01*
X0197000Y0161500D01*
X0196953Y0162218D01*
X0196581Y0163605D01*
X0195863Y0164848D01*
X0194848Y0165863D01*
X0193605Y0166581D01*
X0192218Y0166953D01*
X0191500Y0167000D01*
X0011500Y0167000D01*
X0010782Y0166953D01*
X0009395Y0166581D01*
X0008152Y0165863D01*
X0007137Y0164848D01*
X0006419Y0163605D01*
X0006047Y0162218D01*
X0006000Y0161500D01*
X0006000Y0011500D01*
X0006047Y0010782D01*
X0006419Y0009395D01*
X0007137Y0008152D01*
X0008152Y0007137D01*
X0009395Y0006419D01*
X0009395Y0006419D01*
X0010782Y0006047D01*
X0011500Y0006000D01*
X0191500Y0006000D01*
X0192218Y0006047D01*
X0193605Y0006419D01*
X0194848Y0007137D01*
X0193733Y0006493D02*
X0009267Y0006493D01*
X0006942Y0008490D02*
X0196058Y0008490D01*
X0196606Y0009488D02*
X0006394Y0009488D01*
X0006126Y0010487D02*
X0196874Y0010487D01*
X0196999Y0011485D02*
X0006001Y0011485D01*
X0006000Y0012484D02*
X0197000Y0012484D01*
X0197000Y0013482D02*
X0006000Y0013482D01*
X0006000Y0014481D02*
X0197000Y0014481D01*
X0197000Y0015479D02*
X0006000Y0015479D01*
X0006000Y0016478D02*
X0027261Y0016478D01*
X0027332Y0016437D02*
X0030078Y0015701D01*
X0032922Y0015701D01*
X0035668Y0016437D01*
X0038131Y0017858D01*
X0040142Y0019869D01*
X0041563Y0022332D01*
X0042299Y0025078D01*
X0042299Y0027922D01*
X0041563Y0030668D01*
X0040142Y0033131D01*
X0038131Y0035142D01*
X0035668Y0036563D01*
X0032922Y0037299D01*
X0030078Y0037299D01*
X0027332Y0036563D01*
X0024869Y0035142D01*
X0022858Y0033131D01*
X0021437Y0030668D01*
X0020701Y0027922D01*
X0020701Y0025078D01*
X0021437Y0022332D01*
X0022858Y0019869D01*
X0024869Y0017858D01*
X0027332Y0016437D01*
X0025531Y0017476D02*
X0006000Y0017476D01*
X0006000Y0018475D02*
X0024253Y0018475D01*
X0023254Y0019473D02*
X0006000Y0019473D01*
X0006000Y0020472D02*
X0022511Y0020472D01*
X0021934Y0021470D02*
X0006000Y0021470D01*
X0006000Y0022469D02*
X0021400Y0022469D01*
X0021132Y0023467D02*
X0006000Y0023467D01*
X0006000Y0024466D02*
X0020865Y0024466D01*
X0020701Y0025464D02*
X0006000Y0025464D01*
X0006000Y0026463D02*
X0020701Y0026463D01*
X0020701Y0027461D02*
X0006000Y0027461D01*
X0006000Y0028460D02*
X0020845Y0028460D01*
X0021113Y0029458D02*
X0006000Y0029458D01*
X0006000Y0030457D02*
X0021380Y0030457D01*
X0021891Y0031455D02*
X0006000Y0031455D01*
X0006000Y0032454D02*
X0022468Y0032454D01*
X0023180Y0033452D02*
X0006000Y0033452D01*
X0006000Y0034451D02*
X0024178Y0034451D01*
X0025402Y0035449D02*
X0006000Y0035449D01*
X0006000Y0036448D02*
X0027132Y0036448D01*
X0035868Y0036448D02*
X0167132Y0036448D01*
X0167332Y0036563D02*
X0164869Y0035142D01*
X0162858Y0033131D01*
X0161437Y0030668D01*
X0160701Y0027922D01*
X0160701Y0025078D01*
X0161437Y0022332D01*
X0162858Y0019869D01*
X0164869Y0017858D01*
X0167332Y0016437D01*
X0170078Y0015701D01*
X0172922Y0015701D01*
X0175668Y0016437D01*
X0178131Y0017858D01*
X0180142Y0019869D01*
X0181563Y0022332D01*
X0182299Y0025078D01*
X0182299Y0027922D01*
X0181563Y0030668D01*
X0180142Y0033131D01*
X0178131Y0035142D01*
X0175668Y0036563D01*
X0172922Y0037299D01*
X0170078Y0037299D01*
X0167332Y0036563D01*
X0165402Y0035449D02*
X0037598Y0035449D01*
X0038822Y0034451D02*
X0164178Y0034451D01*
X0163180Y0033452D02*
X0039820Y0033452D01*
X0040532Y0032454D02*
X0162468Y0032454D01*
X0161891Y0031455D02*
X0041109Y0031455D01*
X0041620Y0030457D02*
X0161380Y0030457D01*
X0161113Y0029458D02*
X0041887Y0029458D01*
X0042155Y0028460D02*
X0160845Y0028460D01*
X0160701Y0027461D02*
X0042299Y0027461D01*
X0042299Y0026463D02*
X0160701Y0026463D01*
X0160701Y0025464D02*
X0042299Y0025464D01*
X0042135Y0024466D02*
X0160865Y0024466D01*
X0161132Y0023467D02*
X0041868Y0023467D01*
X0041600Y0022469D02*
X0161400Y0022469D01*
X0161934Y0021470D02*
X0041066Y0021470D01*
X0040489Y0020472D02*
X0162511Y0020472D01*
X0163254Y0019473D02*
X0039746Y0019473D01*
X0038747Y0018475D02*
X0164253Y0018475D01*
X0165531Y0017476D02*
X0037469Y0017476D01*
X0035739Y0016478D02*
X0167261Y0016478D01*
X0175739Y0016478D02*
X0197000Y0016478D01*
X0197000Y0017476D02*
X0177469Y0017476D01*
X0178747Y0018475D02*
X0197000Y0018475D01*
X0197000Y0019473D02*
X0179746Y0019473D01*
X0180489Y0020472D02*
X0197000Y0020472D01*
X0197000Y0021470D02*
X0181066Y0021470D01*
X0181600Y0022469D02*
X0197000Y0022469D01*
X0197000Y0023467D02*
X0181868Y0023467D01*
X0182135Y0024466D02*
X0197000Y0024466D01*
X0197000Y0025464D02*
X0182299Y0025464D01*
X0182299Y0026463D02*
X0197000Y0026463D01*
X0197000Y0027461D02*
X0182299Y0027461D01*
X0182155Y0028460D02*
X0197000Y0028460D01*
X0197000Y0029458D02*
X0181887Y0029458D01*
X0181620Y0030457D02*
X0197000Y0030457D01*
X0197000Y0031455D02*
X0181109Y0031455D01*
X0180532Y0032454D02*
X0197000Y0032454D01*
X0197000Y0033452D02*
X0179820Y0033452D01*
X0178822Y0034451D02*
X0197000Y0034451D01*
X0197000Y0035449D02*
X0177598Y0035449D01*
X0175868Y0036448D02*
X0197000Y0036448D01*
X0197000Y0037446D02*
X0006000Y0037446D01*
X0006000Y0038445D02*
X0197000Y0038445D01*
X0197000Y0039443D02*
X0006000Y0039443D01*
X0006000Y0040442D02*
X0197000Y0040442D01*
X0197000Y0041440D02*
X0006000Y0041440D01*
X0006000Y0042439D02*
X0197000Y0042439D01*
X0197000Y0043437D02*
X0006000Y0043437D01*
X0006000Y0044436D02*
X0197000Y0044436D01*
X0197000Y0045434D02*
X0006000Y0045434D01*
X0006000Y0046433D02*
X0197000Y0046433D01*
X0197000Y0047432D02*
X0006000Y0047432D01*
X0006000Y0048430D02*
X0197000Y0048430D01*
X0197000Y0049429D02*
X0006000Y0049429D01*
X0006000Y0050427D02*
X0197000Y0050427D01*
X0197000Y0051426D02*
X0006000Y0051426D01*
X0006000Y0052424D02*
X0197000Y0052424D01*
X0197000Y0053423D02*
X0006000Y0053423D01*
X0006000Y0054421D02*
X0197000Y0054421D01*
X0197000Y0055420D02*
X0006000Y0055420D01*
X0006000Y0056418D02*
X0197000Y0056418D01*
X0197000Y0057417D02*
X0006000Y0057417D01*
X0006000Y0058415D02*
X0197000Y0058415D01*
X0197000Y0059414D02*
X0006000Y0059414D01*
X0006000Y0060412D02*
X0197000Y0060412D01*
X0197000Y0061411D02*
X0006000Y0061411D01*
X0006000Y0062409D02*
X0197000Y0062409D01*
X0197000Y0063408D02*
X0006000Y0063408D01*
X0006000Y0064406D02*
X0197000Y0064406D01*
X0197000Y0065405D02*
X0006000Y0065405D01*
X0006000Y0066403D02*
X0197000Y0066403D01*
X0197000Y0067402D02*
X0006000Y0067402D01*
X0006000Y0068400D02*
X0197000Y0068400D01*
X0197000Y0069399D02*
X0006000Y0069399D01*
X0006000Y0070397D02*
X0197000Y0070397D01*
X0197000Y0071396D02*
X0006000Y0071396D01*
X0006000Y0072394D02*
X0197000Y0072394D01*
X0197000Y0073393D02*
X0006000Y0073393D01*
X0006000Y0074391D02*
X0197000Y0074391D01*
X0197000Y0075390D02*
X0006000Y0075390D01*
X0006000Y0076388D02*
X0197000Y0076388D01*
X0197000Y0077387D02*
X0006000Y0077387D01*
X0006000Y0078385D02*
X0197000Y0078385D01*
X0197000Y0079384D02*
X0006000Y0079384D01*
X0006000Y0080382D02*
X0197000Y0080382D01*
X0197000Y0081381D02*
X0006000Y0081381D01*
X0006000Y0082379D02*
X0197000Y0082379D01*
X0197000Y0083378D02*
X0006000Y0083378D01*
X0006000Y0084376D02*
X0197000Y0084376D01*
X0197000Y0085375D02*
X0006000Y0085375D01*
X0006000Y0086373D02*
X0197000Y0086373D01*
X0197000Y0087372D02*
X0006000Y0087372D01*
X0006000Y0088370D02*
X0197000Y0088370D01*
X0197000Y0089369D02*
X0006000Y0089369D01*
X0006000Y0090368D02*
X0197000Y0090368D01*
X0197000Y0091366D02*
X0006000Y0091366D01*
X0006000Y0092365D02*
X0197000Y0092365D01*
X0197000Y0093363D02*
X0006000Y0093363D01*
X0006000Y0094362D02*
X0197000Y0094362D01*
X0197000Y0095360D02*
X0006000Y0095360D01*
X0006000Y0096359D02*
X0197000Y0096359D01*
X0197000Y0097357D02*
X0006000Y0097357D01*
X0006000Y0098356D02*
X0197000Y0098356D01*
X0197000Y0099354D02*
X0006000Y0099354D01*
X0006000Y0100353D02*
X0197000Y0100353D01*
X0197000Y0101351D02*
X0006000Y0101351D01*
X0006000Y0102350D02*
X0197000Y0102350D01*
X0197000Y0103348D02*
X0006000Y0103348D01*
X0006000Y0104347D02*
X0197000Y0104347D01*
X0197000Y0105345D02*
X0006000Y0105345D01*
X0006000Y0106344D02*
X0197000Y0106344D01*
X0197000Y0107342D02*
X0006000Y0107342D01*
X0006000Y0108341D02*
X0197000Y0108341D01*
X0197000Y0109339D02*
X0006000Y0109339D01*
X0006000Y0110338D02*
X0197000Y0110338D01*
X0197000Y0111336D02*
X0006000Y0111336D01*
X0006000Y0112335D02*
X0197000Y0112335D01*
X0197000Y0113333D02*
X0006000Y0113333D01*
X0006000Y0114332D02*
X0197000Y0114332D01*
X0197000Y0115330D02*
X0006000Y0115330D01*
X0006000Y0116329D02*
X0197000Y0116329D01*
X0197000Y0117327D02*
X0006000Y0117327D01*
X0006000Y0118326D02*
X0197000Y0118326D01*
X0197000Y0119324D02*
X0006000Y0119324D01*
X0006000Y0120323D02*
X0197000Y0120323D01*
X0197000Y0121321D02*
X0006000Y0121321D01*
X0006000Y0122320D02*
X0197000Y0122320D01*
X0197000Y0123318D02*
X0006000Y0123318D01*
X0006000Y0124317D02*
X0197000Y0124317D01*
X0197000Y0125315D02*
X0006000Y0125315D01*
X0006000Y0126314D02*
X0197000Y0126314D01*
X0197000Y0127312D02*
X0006000Y0127312D01*
X0006000Y0128311D02*
X0197000Y0128311D01*
X0197000Y0129309D02*
X0006000Y0129309D01*
X0006000Y0130308D02*
X0197000Y0130308D01*
X0197000Y0131306D02*
X0006000Y0131306D01*
X0006000Y0132305D02*
X0197000Y0132305D01*
X0197000Y0133303D02*
X0006000Y0133303D01*
X0006000Y0134302D02*
X0197000Y0134302D01*
X0197000Y0135301D02*
X0006000Y0135301D01*
X0006000Y0136299D02*
X0027846Y0136299D01*
X0027332Y0136437D02*
X0030078Y0135701D01*
X0032922Y0135701D01*
X0035668Y0136437D01*
X0038131Y0137858D01*
X0040142Y0139869D01*
X0041563Y0142332D01*
X0042299Y0145078D01*
X0042299Y0147922D01*
X0041563Y0150668D01*
X0040142Y0153131D01*
X0038131Y0155142D01*
X0035668Y0156563D01*
X0032922Y0157299D01*
X0030078Y0157299D01*
X0027332Y0156563D01*
X0024869Y0155142D01*
X0022858Y0153131D01*
X0021437Y0150668D01*
X0020701Y0147922D01*
X0020701Y0145078D01*
X0021437Y0142332D01*
X0022858Y0139869D01*
X0024869Y0137858D01*
X0027332Y0136437D01*
X0025841Y0137298D02*
X0006000Y0137298D01*
X0006000Y0138296D02*
X0024432Y0138296D01*
X0023433Y0139295D02*
X0006000Y0139295D01*
X0006000Y0140293D02*
X0022614Y0140293D01*
X0022037Y0141292D02*
X0006000Y0141292D01*
X0006000Y0142290D02*
X0021461Y0142290D01*
X0021180Y0143289D02*
X0006000Y0143289D01*
X0006000Y0144287D02*
X0020913Y0144287D01*
X0020701Y0145286D02*
X0006000Y0145286D01*
X0006000Y0146284D02*
X0020701Y0146284D01*
X0020701Y0147283D02*
X0006000Y0147283D01*
X0006000Y0148281D02*
X0020797Y0148281D01*
X0021065Y0149280D02*
X0006000Y0149280D01*
X0006000Y0150278D02*
X0021332Y0150278D01*
X0021788Y0151277D02*
X0006000Y0151277D01*
X0006000Y0152275D02*
X0022364Y0152275D01*
X0023001Y0153274D02*
X0006000Y0153274D01*
X0006000Y0154272D02*
X0024000Y0154272D01*
X0025093Y0155271D02*
X0006000Y0155271D01*
X0006000Y0156269D02*
X0026822Y0156269D01*
X0029961Y0157268D02*
X0006000Y0157268D01*
X0006000Y0158266D02*
X0197000Y0158266D01*
X0197000Y0157268D02*
X0173039Y0157268D01*
X0172922Y0157299D02*
X0170078Y0157299D01*
X0167332Y0156563D01*
X0164869Y0155142D01*
X0162858Y0153131D01*
X0161437Y0150668D01*
X0160701Y0147922D01*
X0160701Y0145078D01*
X0161437Y0142332D01*
X0162858Y0139869D01*
X0164869Y0137858D01*
X0167332Y0136437D01*
X0170078Y0135701D01*
X0172922Y0135701D01*
X0175668Y0136437D01*
X0178131Y0137858D01*
X0180142Y0139869D01*
X0181563Y0142332D01*
X0182299Y0145078D01*
X0182299Y0147922D01*
X0181563Y0150668D01*
X0180142Y0153131D01*
X0178131Y0155142D01*
X0175668Y0156563D01*
X0172922Y0157299D01*
X0176178Y0156269D02*
X0197000Y0156269D01*
X0197000Y0155271D02*
X0177907Y0155271D01*
X0179000Y0154272D02*
X0197000Y0154272D01*
X0197000Y0153274D02*
X0179999Y0153274D01*
X0180636Y0152275D02*
X0197000Y0152275D01*
X0197000Y0151277D02*
X0181212Y0151277D01*
X0181668Y0150278D02*
X0197000Y0150278D01*
X0197000Y0149280D02*
X0181935Y0149280D01*
X0182203Y0148281D02*
X0197000Y0148281D01*
X0197000Y0147283D02*
X0182299Y0147283D01*
X0182299Y0146284D02*
X0197000Y0146284D01*
X0197000Y0145286D02*
X0182299Y0145286D01*
X0182087Y0144287D02*
X0197000Y0144287D01*
X0197000Y0143289D02*
X0181820Y0143289D01*
X0181539Y0142290D02*
X0197000Y0142290D01*
X0197000Y0141292D02*
X0180963Y0141292D01*
X0180386Y0140293D02*
X0197000Y0140293D01*
X0197000Y0139295D02*
X0179567Y0139295D01*
X0178568Y0138296D02*
X0197000Y0138296D01*
X0197000Y0137298D02*
X0177159Y0137298D01*
X0175154Y0136299D02*
X0197000Y0136299D01*
X0197000Y0159265D02*
X0006000Y0159265D01*
X0006000Y0160263D02*
X0197000Y0160263D01*
X0197000Y0161262D02*
X0006000Y0161262D01*
X0006058Y0162260D02*
X0196942Y0162260D01*
X0196674Y0163259D02*
X0006326Y0163259D01*
X0006795Y0164257D02*
X0196205Y0164257D01*
X0195456Y0165256D02*
X0007544Y0165256D01*
X0008829Y0166254D02*
X0194171Y0166254D01*
X0169961Y0157268D02*
X0033039Y0157268D01*
X0036178Y0156269D02*
X0166822Y0156269D01*
X0165093Y0155271D02*
X0037907Y0155271D01*
X0039000Y0154272D02*
X0164000Y0154272D01*
X0163001Y0153274D02*
X0039999Y0153274D01*
X0040636Y0152275D02*
X0162364Y0152275D01*
X0161788Y0151277D02*
X0041212Y0151277D01*
X0041668Y0150278D02*
X0161332Y0150278D01*
X0161065Y0149280D02*
X0041935Y0149280D01*
X0042203Y0148281D02*
X0160797Y0148281D01*
X0160701Y0147283D02*
X0042299Y0147283D01*
X0042299Y0146284D02*
X0160701Y0146284D01*
X0160701Y0145286D02*
X0042299Y0145286D01*
X0042087Y0144287D02*
X0160913Y0144287D01*
X0161180Y0143289D02*
X0041820Y0143289D01*
X0041539Y0142290D02*
X0161461Y0142290D01*
X0162037Y0141292D02*
X0040963Y0141292D01*
X0040386Y0140293D02*
X0162614Y0140293D01*
X0163433Y0139295D02*
X0039567Y0139295D01*
X0038568Y0138296D02*
X0164432Y0138296D01*
X0165841Y0137298D02*
X0037159Y0137298D01*
X0035154Y0136299D02*
X0167846Y0136299D01*
M02*
