M48
; DRILL file {KiCad 9.0.9-9.0.9~ubuntu24.04.1} date 2026-06-11T16:07:43+0200
; FORMAT={-:-/ absolute / metric / decimal}
; #@! TF.CreationDate,2026-06-11T16:07:43+02:00
; #@! TF.GenerationSoftware,Kicad,Pcbnew,9.0.9-9.0.9~ubuntu24.04.1
; #@! TF.FileFunction,Plated,1,2,PTH
FMAT,2
METRIC
; #@! TA.AperFunction,Plated,PTH,ComponentDrill
T1C0.813
; #@! TA.AperFunction,Plated,PTH,ComponentDrill
T2C0.914
; #@! TA.AperFunction,Plated,PTH,ComponentDrill
T3C1.016
%
G90
G05
T1
X35.231Y-37.004
X35.231Y-45.894
X35.231Y-48.434
X35.231Y-57.324
X35.231Y-91.614
X35.231Y-94.154
X36.501Y-97.964
X36.501Y-100.504
X37.771Y-37.004
X37.771Y-45.894
X37.771Y-48.434
X37.771Y-57.324
X37.771Y-91.614
X37.771Y-94.154
X40.311Y-37.004
X40.311Y-45.894
X40.311Y-48.434
X40.311Y-57.324
X40.311Y-91.614
X40.311Y-94.154
X41.581Y-87.804
X42.851Y-37.004
X42.851Y-45.894
X42.851Y-48.434
X42.851Y-57.324
X42.851Y-91.614
X42.851Y-94.154
X44.121Y-97.964
X44.121Y-100.504
X45.391Y-37.004
X45.391Y-45.894
X45.391Y-48.434
X45.391Y-57.324
X45.391Y-91.614
X45.391Y-94.154
X46.661Y-97.964
X46.661Y-100.504
X47.931Y-37.004
X47.931Y-45.894
X47.931Y-48.434
X47.931Y-57.324
X47.931Y-91.614
X47.931Y-94.154
X49.201Y-87.804
X50.471Y-37.004
X50.471Y-45.894
X50.471Y-48.434
X50.471Y-57.324
X50.471Y-91.614
X50.471Y-94.154
X53.011Y-37.004
X53.011Y-45.894
X53.011Y-48.434
X53.011Y-57.324
X53.011Y-91.614
X53.011Y-94.154
X54.281Y-97.964
X54.281Y-100.504
X55.551Y-37.004
X55.551Y-45.894
X55.551Y-48.434
X55.551Y-57.324
X55.551Y-91.614
X55.551Y-94.154
X58.091Y-37.004
X58.091Y-57.324
T2
X63.171Y-45.894
X63.171Y-48.434
X63.171Y-91.614
X63.171Y-94.154
T3
X25.351Y-43.912
X25.351Y-50.415
X29.872Y-43.912
X29.872Y-50.415
X35.231Y-39.544
X35.231Y-54.784
X37.771Y-39.544
X37.771Y-54.784
X40.311Y-39.544
X40.311Y-54.784
X42.851Y-39.544
X42.851Y-54.784
X45.391Y-39.544
X45.391Y-54.784
X47.931Y-39.544
X47.931Y-54.784
X50.471Y-39.544
X50.471Y-54.784
X53.011Y-39.544
X53.011Y-54.784
X55.551Y-39.544
X55.551Y-54.784
X58.091Y-39.544
X58.091Y-54.784
X60.631Y-39.544
X60.631Y-54.784
X63.171Y-39.544
X63.171Y-54.784
M30
