M48
; DRILL file {KiCad 9.0.9-9.0.9~ubuntu24.04.1} date 2026-06-11T16:07:43+0200
; FORMAT={-:-/ absolute / metric / decimal}
; #@! TF.CreationDate,2026-06-11T16:07:43+02:00
; #@! TF.GenerationSoftware,Kicad,Pcbnew,9.0.9-9.0.9~ubuntu24.04.1
; #@! TF.FileFunction,NonPlated,1,2,NPTH
FMAT,2
METRIC
; #@! TA.AperFunction,NonPlated,NPTH,ComponentDrill
T1C0.700
; #@! TA.AperFunction,NonPlated,NPTH,ComponentDrill
T2C1.000
; #@! TA.AperFunction,NonPlated,NPTH,ComponentDrill
T3C1.016
; #@! TA.AperFunction,NonPlated,NPTH,ComponentDrill
T4C1.800
; #@! TA.AperFunction,NonPlated,NPTH,ComponentDrill
T5C3.000
; #@! TA.AperFunction,NonPlated,NPTH,ComponentDrill
T6C3.200
%
G90
G05
T1
X29.516Y-69.389
X29.516Y-70.659
X30.786Y-69.389
X30.786Y-70.659
X32.056Y-69.389
X32.056Y-70.659
X33.326Y-69.389
X33.326Y-70.659
X57.456Y-69.389
X57.456Y-70.659
X58.726Y-69.389
X58.726Y-70.659
X59.996Y-69.389
X59.996Y-70.659
X61.266Y-69.389
X61.266Y-70.659
X71.426Y-37.639
X71.426Y-38.909
X71.426Y-40.179
X71.426Y-41.449
X71.426Y-99.869
X71.426Y-101.139
X71.426Y-102.409
X71.426Y-103.679
X72.696Y-37.639
X72.696Y-38.909
X72.696Y-40.179
X72.696Y-41.449
X72.696Y-99.869
X72.696Y-101.139
X72.696Y-102.409
X72.696Y-103.679
X82.856Y-69.389
X82.856Y-70.659
X84.126Y-69.389
X84.126Y-70.659
X85.396Y-69.389
X85.396Y-70.659
X86.666Y-69.389
X86.666Y-70.659
X110.796Y-69.389
X110.796Y-70.659
X112.066Y-69.389
X112.066Y-70.659
X113.336Y-69.389
X113.336Y-70.659
X114.606Y-69.389
X114.606Y-70.659
X124.565Y-44.755
X124.565Y-46.025
X124.565Y-47.295
X124.565Y-48.565
X124.765Y-91.155
X124.765Y-92.425
X124.765Y-93.695
X124.765Y-94.965
X125.835Y-44.755
X125.835Y-46.025
X125.835Y-47.295
X125.835Y-48.565
X126.035Y-91.155
X126.035Y-92.425
X126.035Y-93.695
X126.035Y-94.965
X177.565Y-43.555
X177.565Y-44.825
X177.565Y-46.095
X177.565Y-47.365
X177.765Y-90.755
X177.765Y-92.025
X177.765Y-93.295
X177.765Y-94.565
X178.835Y-43.555
X178.835Y-44.825
X178.835Y-46.095
X178.835Y-47.365
X179.035Y-90.755
X179.035Y-92.025
X179.035Y-93.295
X179.035Y-94.565
X202.355Y-69.165
X202.355Y-70.435
X203.625Y-69.165
X203.625Y-70.435
X204.895Y-69.165
X204.895Y-70.435
X206.165Y-69.165
X206.165Y-70.435
T2
X101.27Y-47.16
X101.27Y-92.88
T3
X25.35Y-89.63
X25.35Y-96.13
X29.87Y-89.63
X29.87Y-96.13
T4
X88.57Y-47.16
X88.57Y-92.88
X91.11Y-47.16
X91.11Y-92.88
X93.65Y-47.16
X93.65Y-92.88
X96.19Y-47.16
X96.19Y-92.88
X98.73Y-47.16
X98.73Y-92.88
X103.81Y-47.16
X103.81Y-92.88
X106.35Y-47.16
X106.35Y-92.88
X108.89Y-47.16
X108.89Y-92.88
T5
X27.611Y-31.924
X27.611Y-62.404
X27.611Y-77.644
X27.611Y-108.124
X63.171Y-31.924
X63.171Y-62.404
X63.171Y-77.644
X63.171Y-108.124
X80.951Y-31.924
X80.951Y-62.404
X80.951Y-77.644
X80.951Y-108.124
X116.511Y-31.924
X116.511Y-62.404
X116.511Y-77.644
X116.511Y-108.124
T6
X134.0Y-32.02
X134.0Y-62.5
X134.0Y-77.2
X134.0Y-107.68
X169.56Y-32.02
X169.56Y-62.5
X169.56Y-77.2
X169.56Y-107.68
X186.8Y-32.02
X186.8Y-62.5
X186.8Y-77.2
X186.8Y-107.68
X222.36Y-32.02
X222.36Y-62.5
X222.36Y-77.2
X222.36Y-107.68
M30
