%TF.GenerationSoftware,KiCad,Pcbnew,9.0.9-9.0.9~ubuntu24.04.1*%
%TF.CreationDate,2026-06-27T02:18:42+02:00*%
%TF.ProjectId,papertape_panel,70617065-7274-4617-9065-5f70616e656c,rev?*%
%TF.SameCoordinates,Original*%
%TF.FileFunction,Profile,NP*%
%FSLAX46Y46*%
G04 Gerber Fmt 4.6, Leading zero omitted, Abs format (unit mm)*
G04 Created by KiCad (PCBNEW 9.0.9-9.0.9~ubuntu24.04.1) date 2026-06-27 02:18:42*
%MOMM*%
%LPD*%
G01*
G04 APERTURE LIST*
%TA.AperFunction,Profile*%
%ADD10C,0.050000*%
%TD*%
G04 APERTURE END LIST*
D10*
X19991100Y-28113600D02*
G75*
G02*
X22531100Y-25573600I2540000J0D01*
G01*
X19991100Y-66213600D02*
X19991100Y-28113600D01*
X19991100Y-73833600D02*
X19991100Y-111933600D01*
X19991100Y-73833600D02*
G75*
G02*
X22531100Y-71293600I2540000J0D01*
G01*
X22531100Y-25573600D02*
X68251100Y-25573600D01*
X22531100Y-68753600D02*
G75*
G02*
X19991100Y-66213600I0J2540000D01*
G01*
X22531100Y-68753600D02*
X27611100Y-68753600D01*
X22531100Y-114473600D02*
G75*
G02*
X19991100Y-111933600I0J2540000D01*
G01*
X22531100Y-114473600D02*
X68251100Y-114473600D01*
X25350000Y-89630000D02*
X25350000Y-96130000D01*
X25350000Y-96130000D02*
X29870000Y-96130000D01*
X27611100Y-68753600D02*
G75*
G02*
X28881100Y-70023600I0J-1270000D01*
G01*
X27611100Y-71293600D02*
X22531100Y-71293600D01*
X28881100Y-70023600D02*
G75*
G02*
X27611100Y-71293600I-1270000J0D01*
G01*
X29870000Y-89630000D02*
X25350000Y-89630000D01*
X29870000Y-96130000D02*
X29870000Y-89630000D01*
X33961100Y-70023600D02*
G75*
G02*
X35231100Y-68753600I1270000J0D01*
G01*
X35231100Y-68753600D02*
X55551100Y-68753600D01*
X35231100Y-71293600D02*
G75*
G02*
X33961100Y-70023600I0J1270000D01*
G01*
X55551100Y-68753600D02*
G75*
G02*
X56821100Y-70023600I0J-1270000D01*
G01*
X55551100Y-71293600D02*
X35231100Y-71293600D01*
X56821100Y-70023600D02*
G75*
G02*
X55551100Y-71293600I-1270000J0D01*
G01*
X61901100Y-70023600D02*
G75*
G02*
X63171100Y-68753600I1270000J0D01*
G01*
X63171100Y-68753600D02*
X68251100Y-68753600D01*
X63171100Y-71293600D02*
G75*
G02*
X61901100Y-70023600I0J1270000D01*
G01*
X68251100Y-25573600D02*
G75*
G02*
X70791100Y-28113600I0J-2540000D01*
G01*
X68251100Y-71293600D02*
X63171100Y-71293600D01*
X68251100Y-71293600D02*
G75*
G02*
X70791100Y-73833600I0J-2540000D01*
G01*
X70791100Y-28113600D02*
X70791100Y-34463600D01*
X70791100Y-42083600D02*
G75*
G02*
X72061100Y-40813600I1270000J0D01*
G01*
X70791100Y-66213600D02*
G75*
G02*
X68251100Y-68753600I-2540000J0D01*
G01*
X70791100Y-66213600D02*
X70791100Y-42083600D01*
X70791100Y-96693600D02*
X70791100Y-73833600D01*
X70791100Y-104313600D02*
G75*
G02*
X72061100Y-103043600I1270000J0D01*
G01*
X70791100Y-111933600D02*
G75*
G02*
X68251100Y-114473600I-2540000J0D01*
G01*
X70791100Y-111933600D02*
X70791100Y-104313600D01*
X72061100Y-35733600D02*
G75*
G02*
X70791100Y-34463600I0J1270000D01*
G01*
X72061100Y-40813600D02*
G75*
G02*
X73331100Y-42083600I0J-1270000D01*
G01*
X72061100Y-97963600D02*
G75*
G02*
X70791100Y-96693600I0J1270000D01*
G01*
X72061100Y-103043600D02*
G75*
G02*
X73331100Y-104313600I0J-1270000D01*
G01*
X73331100Y-28113600D02*
X73331100Y-34463600D01*
X73331100Y-28113600D02*
G75*
G02*
X75871100Y-25573600I2540000J0D01*
G01*
X73331100Y-34463600D02*
G75*
G02*
X72061100Y-35733600I-1270000J0D01*
G01*
X73331100Y-66213600D02*
X73331100Y-42083600D01*
X73331100Y-73833600D02*
X73331100Y-96693600D01*
X73331100Y-73833600D02*
G75*
G02*
X75871100Y-71293600I2540000J0D01*
G01*
X73331100Y-96693600D02*
G75*
G02*
X72061100Y-97963600I-1270000J0D01*
G01*
X73331100Y-104313600D02*
X73331100Y-111933600D01*
X75871100Y-25573600D02*
X121591100Y-25573600D01*
X75871100Y-68753600D02*
G75*
G02*
X73331100Y-66213600I0J2540000D01*
G01*
X75871100Y-68753600D02*
X80951100Y-68753600D01*
X75871100Y-114473600D02*
G75*
G02*
X73331100Y-111933600I0J2540000D01*
G01*
X75871100Y-114473600D02*
X121591100Y-114473600D01*
X80951100Y-68753600D02*
G75*
G02*
X82221100Y-70023600I0J-1270000D01*
G01*
X80951100Y-71293600D02*
X75871100Y-71293600D01*
X82221100Y-70023600D02*
G75*
G02*
X80951100Y-71293600I-1270000J0D01*
G01*
X87301100Y-70023600D02*
G75*
G02*
X88571100Y-68753600I1270000J0D01*
G01*
X88571100Y-68753600D02*
X108891100Y-68753600D01*
X88571100Y-71293600D02*
G75*
G02*
X87301100Y-70023600I0J1270000D01*
G01*
X108891100Y-68753600D02*
G75*
G02*
X110161100Y-70023600I0J-1270000D01*
G01*
X108891100Y-71293600D02*
X88571100Y-71293600D01*
X110161100Y-70023600D02*
G75*
G02*
X108891100Y-71293600I-1270000J0D01*
G01*
X114606100Y-44623600D02*
G75*
G02*
X115241100Y-43988600I635000J0D01*
G01*
X114606100Y-49703600D02*
X114606100Y-44623600D01*
X114606100Y-90343600D02*
G75*
G02*
X115241100Y-89708600I635000J0D01*
G01*
X114606100Y-95423600D02*
X114606100Y-90343600D01*
X115241100Y-43988600D02*
X117781100Y-43988600D01*
X115241100Y-50338600D02*
G75*
G02*
X114606100Y-49703600I0J635000D01*
G01*
X115241100Y-70023600D02*
G75*
G02*
X116511100Y-68753600I1270000J0D01*
G01*
X115241100Y-89708600D02*
X117781100Y-89708600D01*
X115241100Y-96058600D02*
G75*
G02*
X114606100Y-95423600I0J635000D01*
G01*
X116511100Y-68753600D02*
X121591100Y-68753600D01*
X116511100Y-71293600D02*
G75*
G02*
X115241100Y-70023600I0J1270000D01*
G01*
X116511100Y-71293600D02*
X121591100Y-71293600D01*
X117781100Y-43988600D02*
G75*
G02*
X118416100Y-44623600I0J-635000D01*
G01*
X117781100Y-50338600D02*
X115241100Y-50338600D01*
X117781100Y-89708600D02*
G75*
G02*
X118416100Y-90343600I0J-635000D01*
G01*
X117781100Y-96058600D02*
X115241100Y-96058600D01*
X118416100Y-44623600D02*
X118416100Y-49703600D01*
X118416100Y-49703600D02*
G75*
G02*
X117781100Y-50338600I-635000J0D01*
G01*
X118416100Y-90343600D02*
X118416100Y-95423600D01*
X118416100Y-95423600D02*
G75*
G02*
X117781100Y-96058600I-635000J0D01*
G01*
X121591100Y-25573600D02*
G75*
G02*
X124131100Y-28113600I0J-2540000D01*
G01*
X121591100Y-71293600D02*
G75*
G02*
X124131100Y-73833600I0J-2540000D01*
G01*
X124131100Y-28113600D02*
X124131100Y-43200000D01*
X124131100Y-50200000D02*
X126400000Y-50200000D01*
X124131100Y-66213600D02*
G75*
G02*
X121591100Y-68753600I-2540000J0D01*
G01*
X124131100Y-66213600D02*
X124131100Y-50200000D01*
X124131100Y-73833600D02*
X124131100Y-89800000D01*
X124131100Y-89800000D02*
X126400000Y-89800000D01*
X124131100Y-111933600D02*
G75*
G02*
X121591100Y-114473600I-2540000J0D01*
G01*
X124131100Y-111933600D02*
X124131100Y-96400000D01*
X126380001Y-28210000D02*
X126380000Y-43200000D01*
X126380000Y-28210000D02*
G75*
G02*
X128920000Y-25670000I2539800J200D01*
G01*
X126380000Y-43200000D02*
X124131100Y-43200000D01*
X126380000Y-73390000D02*
G75*
G02*
X128920000Y-70850000I2539800J200D01*
G01*
X126380000Y-96400000D02*
X124131100Y-96400000D01*
X126380000Y-111490000D02*
X126380000Y-96400000D01*
X126400000Y-50200000D02*
X126380000Y-66310000D01*
X126400000Y-89800000D02*
X126380001Y-73390000D01*
X128920000Y-68850000D02*
G75*
G02*
X126380000Y-66310000I-200J2539800D01*
G01*
X128920000Y-68850000D02*
X149600000Y-68850000D01*
X128920000Y-114030000D02*
G75*
G02*
X126380000Y-111490000I-200J2539800D01*
G01*
X128920000Y-114030000D02*
X174640000Y-114030000D01*
X130174800Y-42916300D02*
X130175800Y-42995300D01*
X130174800Y-51603700D02*
X130175800Y-51682600D01*
X130174800Y-88096300D02*
X130175800Y-88175300D01*
X130174800Y-96783700D02*
X130175800Y-96862600D01*
X130175800Y-42837400D02*
X130174800Y-42916300D01*
X130175800Y-42995300D02*
X130178600Y-43074300D01*
X130175800Y-51524700D02*
X130174800Y-51603700D01*
X130175800Y-51682600D02*
X130178300Y-51761600D01*
X130175800Y-88017400D02*
X130174800Y-88096300D01*
X130175800Y-88175300D02*
X130178600Y-88254300D01*
X130175800Y-96704700D02*
X130174800Y-96783700D01*
X130175800Y-96862600D02*
X130178300Y-96941600D01*
X130178300Y-42758400D02*
X130175800Y-42837400D01*
X130178300Y-51761600D02*
X130183100Y-51840600D01*
X130178300Y-87938400D02*
X130175800Y-88017400D01*
X130178300Y-96941600D02*
X130183100Y-97020600D01*
X130178600Y-43074300D02*
X130183400Y-43153300D01*
X130178600Y-51445700D02*
X130175800Y-51524700D01*
X130178600Y-88254300D02*
X130183400Y-88333300D01*
X130178600Y-96625700D02*
X130175800Y-96704700D01*
X130183100Y-42679400D02*
X130178300Y-42758400D01*
X130183100Y-51840600D02*
X130189700Y-51919400D01*
X130183100Y-87859400D02*
X130178300Y-87938400D01*
X130183100Y-97020600D02*
X130189700Y-97099400D01*
X130183400Y-43153300D02*
X130190000Y-43232100D01*
X130183400Y-51366700D02*
X130178600Y-51445700D01*
X130183400Y-88333300D02*
X130190000Y-88412100D01*
X130183400Y-96546700D02*
X130178600Y-96625700D01*
X130189700Y-42600600D02*
X130183100Y-42679400D01*
X130189700Y-51919400D02*
X130198100Y-51998100D01*
X130189700Y-87780600D02*
X130183100Y-87859400D01*
X130189700Y-97099400D02*
X130198100Y-97178100D01*
X130190000Y-43232100D02*
X130190000Y-51287900D01*
X130190000Y-51287900D02*
X130183400Y-51366700D01*
X130190000Y-88412100D02*
X130190000Y-96467900D01*
X130190000Y-96467900D02*
X130183400Y-96546700D01*
X130198100Y-42521900D02*
X130189700Y-42600600D01*
X130198100Y-51998100D02*
X130208300Y-52076300D01*
X130198100Y-87701900D02*
X130189700Y-87780600D01*
X130198100Y-97178100D02*
X130208300Y-97256300D01*
X130208300Y-42443700D02*
X130198100Y-42521900D01*
X130208300Y-52076300D02*
X130220500Y-52154600D01*
X130208300Y-87623700D02*
X130198100Y-87701900D01*
X130208300Y-97256300D02*
X130220500Y-97334600D01*
X130220500Y-42365400D02*
X130208300Y-42443700D01*
X130220500Y-52154600D02*
X130234400Y-52232300D01*
X130220500Y-87545400D02*
X130208300Y-87623700D01*
X130220500Y-97334600D02*
X130234400Y-97412300D01*
X130234400Y-42287700D02*
X130220500Y-42365400D01*
X130234400Y-52232300D02*
X130250200Y-52309800D01*
X130234400Y-87467700D02*
X130220500Y-87545400D01*
X130234400Y-97412300D02*
X130250200Y-97489800D01*
X130250200Y-42210200D02*
X130234400Y-42287700D01*
X130250200Y-52309800D02*
X130268000Y-52387000D01*
X130250200Y-87390200D02*
X130234400Y-87467700D01*
X130250200Y-97489800D02*
X130268000Y-97567000D01*
X130268000Y-42133000D02*
X130250200Y-42210200D01*
X130268000Y-52387000D02*
X130287500Y-52463400D01*
X130268000Y-87313000D02*
X130250200Y-87390200D01*
X130268000Y-97567000D02*
X130287500Y-97643400D01*
X130287500Y-42056600D02*
X130268000Y-42133000D01*
X130287500Y-52463400D02*
X130308900Y-52539600D01*
X130287500Y-87236600D02*
X130268000Y-87313000D01*
X130287500Y-97643400D02*
X130308900Y-97719600D01*
X130308900Y-41980400D02*
X130287500Y-42056600D01*
X130308900Y-52539600D02*
X130332000Y-52615100D01*
X130308900Y-87160400D02*
X130287500Y-87236600D01*
X130308900Y-97719600D02*
X130332000Y-97795100D01*
X130332000Y-41904900D02*
X130308900Y-41980400D01*
X130332000Y-52615100D02*
X130356900Y-52690300D01*
X130332000Y-87084900D02*
X130308900Y-87160400D01*
X130332000Y-97795100D02*
X130356900Y-97870300D01*
X130356900Y-41829700D02*
X130332000Y-41904900D01*
X130356900Y-52690300D02*
X130383500Y-52764700D01*
X130356900Y-87009700D02*
X130332000Y-87084900D01*
X130356900Y-97870300D02*
X130383500Y-97944700D01*
X130383500Y-41755300D02*
X130356900Y-41829700D01*
X130383500Y-52764700D02*
X130412000Y-52838300D01*
X130383500Y-86935300D02*
X130356900Y-87009700D01*
X130383500Y-97944700D02*
X130412000Y-98018300D01*
X130412000Y-41681700D02*
X130383500Y-41755300D01*
X130412000Y-52838300D02*
X130442200Y-52911500D01*
X130412000Y-86861700D02*
X130383500Y-86935300D01*
X130412000Y-98018300D02*
X130442200Y-98091500D01*
X130442200Y-41608500D02*
X130412000Y-41681700D01*
X130442200Y-52911500D02*
X130474200Y-52983900D01*
X130442200Y-86788500D02*
X130412000Y-86861700D01*
X130442200Y-98091500D02*
X130474200Y-98163900D01*
X130474200Y-41536100D02*
X130442200Y-41608500D01*
X130474200Y-52983900D02*
X130507800Y-53055300D01*
X130474200Y-86716100D02*
X130442200Y-86788500D01*
X130474200Y-98163900D02*
X130507800Y-98235300D01*
X130507800Y-41464700D02*
X130474200Y-41536100D01*
X130507800Y-53055300D02*
X130543300Y-53126100D01*
X130507800Y-86644700D02*
X130474200Y-86716100D01*
X130507800Y-98235300D02*
X130543300Y-98306100D01*
X130543300Y-41393900D02*
X130507800Y-41464700D01*
X130543300Y-53126100D02*
X130580100Y-53196000D01*
X130543300Y-86573900D02*
X130507800Y-86644700D01*
X130543300Y-98306100D02*
X130580100Y-98376000D01*
X130580100Y-41324000D02*
X130543300Y-41393900D01*
X130580100Y-53196000D02*
X130619000Y-53264800D01*
X130580100Y-86504000D02*
X130543300Y-86573900D01*
X130580100Y-98376000D02*
X130619000Y-98444800D01*
X130619000Y-41255200D02*
X130580100Y-41324000D01*
X130619000Y-53264800D02*
X130659100Y-53332900D01*
X130619000Y-86435200D02*
X130580100Y-86504000D01*
X130619000Y-98444800D02*
X130659100Y-98512900D01*
X130659100Y-41187100D02*
X130619000Y-41255200D01*
X130659100Y-53332900D02*
X130701000Y-53399900D01*
X130659100Y-86367100D02*
X130619000Y-86435200D01*
X130659100Y-98512900D02*
X130701000Y-98579900D01*
X130701000Y-41120100D02*
X130659100Y-41187100D01*
X130701000Y-53399900D02*
X130744700Y-53466000D01*
X130701000Y-86300100D02*
X130659100Y-86367100D01*
X130701000Y-98579900D02*
X130744700Y-98646000D01*
X130744700Y-41054000D02*
X130701000Y-41120100D01*
X130744700Y-53466000D02*
X130789700Y-53530800D01*
X130744700Y-86234000D02*
X130701000Y-86300100D01*
X130744700Y-98646000D02*
X130789700Y-98710800D01*
X130789700Y-40989200D02*
X130744700Y-41054000D01*
X130789700Y-53530800D02*
X130836200Y-53594800D01*
X130789700Y-86169200D02*
X130744700Y-86234000D01*
X130789700Y-98710800D02*
X130836200Y-98774800D01*
X130836200Y-40925200D02*
X130789700Y-40989200D01*
X130836200Y-53594800D02*
X130884400Y-53657500D01*
X130836200Y-86105200D02*
X130789700Y-86169200D01*
X130836200Y-98774800D02*
X130884400Y-98837500D01*
X130884400Y-40862500D02*
X130836200Y-40925200D01*
X130884400Y-53657500D02*
X130934000Y-53719000D01*
X130884400Y-86042500D02*
X130836200Y-86105200D01*
X130884400Y-98837500D02*
X130934000Y-98899000D01*
X130934000Y-40801000D02*
X130884400Y-40862500D01*
X130934000Y-53719000D02*
X134526000Y-57311000D01*
X130934000Y-85981000D02*
X130884400Y-86042500D01*
X130934000Y-98899000D02*
X134526000Y-102491000D01*
X134526000Y-37209000D02*
X130934000Y-40801000D01*
X134526000Y-57311000D02*
X134617000Y-57393600D01*
X134526000Y-82389000D02*
X130934000Y-85981000D01*
X134526000Y-102491000D02*
X134617000Y-102573600D01*
X134617000Y-37126400D02*
X134526000Y-37209000D01*
X134617000Y-57393600D02*
X134709900Y-57474100D01*
X134617000Y-82306400D02*
X134526000Y-82389000D01*
X134617000Y-102573600D02*
X134709900Y-102654100D01*
X134709900Y-37045900D02*
X134617000Y-37126400D01*
X134709900Y-57474100D02*
X134804700Y-57552100D01*
X134709900Y-82225900D02*
X134617000Y-82306400D01*
X134709900Y-102654100D02*
X134804700Y-102732100D01*
X134804700Y-36967900D02*
X134709900Y-37045900D01*
X134804700Y-57552100D02*
X134901200Y-57628000D01*
X134804700Y-82147900D02*
X134709900Y-82225900D01*
X134804700Y-102732100D02*
X134901200Y-102808000D01*
X134901200Y-36892000D02*
X134804700Y-36967900D01*
X134901200Y-57628000D02*
X134999500Y-57701700D01*
X134901200Y-82072000D02*
X134804700Y-82147900D01*
X134901200Y-102808000D02*
X134999500Y-102881700D01*
X134999500Y-36818300D02*
X134901200Y-36892000D01*
X134999500Y-57701700D02*
X135099600Y-57772800D01*
X134999500Y-81998300D02*
X134901200Y-82072000D01*
X134999500Y-102881700D02*
X135099600Y-102952800D01*
X135099600Y-36747200D02*
X134999500Y-36818300D01*
X135099600Y-57772800D02*
X135201400Y-57841600D01*
X135099600Y-81927200D02*
X134999500Y-81998300D01*
X135099600Y-102952800D02*
X135201400Y-103021600D01*
X135201400Y-36678400D02*
X135099600Y-36747200D01*
X135201400Y-57841600D02*
X135304800Y-57907900D01*
X135201400Y-81858400D02*
X135099600Y-81927200D01*
X135201400Y-103021600D02*
X135304800Y-103087900D01*
X135304800Y-36612100D02*
X135201400Y-36678400D01*
X135304800Y-57907900D02*
X135409400Y-57971900D01*
X135304800Y-81792100D02*
X135201400Y-81858400D01*
X135304800Y-103087900D02*
X135409400Y-103151900D01*
X135409400Y-36548100D02*
X135304800Y-36612100D01*
X135409400Y-57971900D02*
X135515900Y-58033200D01*
X135409400Y-81728100D02*
X135304800Y-81792100D01*
X135409400Y-103151900D02*
X135515900Y-103213200D01*
X135515900Y-36486800D02*
X135409400Y-36548100D01*
X135515900Y-58033200D02*
X135623800Y-58092100D01*
X135515900Y-81666800D02*
X135409400Y-81728100D01*
X135515900Y-103213200D02*
X135623800Y-103272100D01*
X135623800Y-36427900D02*
X135515900Y-36486800D01*
X135623800Y-58092100D02*
X135733000Y-58148200D01*
X135623800Y-81607900D02*
X135515900Y-81666800D01*
X135623800Y-103272100D02*
X135733000Y-103328200D01*
X135733000Y-36371800D02*
X135623800Y-36427900D01*
X135733000Y-58148200D02*
X135843500Y-58201800D01*
X135733000Y-81551800D02*
X135623800Y-81607900D01*
X135733000Y-103328200D02*
X135843500Y-103381800D01*
X135843500Y-36318200D02*
X135733000Y-36371800D01*
X135843500Y-58201800D02*
X135955000Y-58252900D01*
X135843500Y-81498200D02*
X135733000Y-81551800D01*
X135843500Y-103381800D02*
X135955000Y-103432900D01*
X135955000Y-36267100D02*
X135843500Y-36318200D01*
X135955000Y-58252900D02*
X136068100Y-58301100D01*
X135955000Y-81447100D02*
X135843500Y-81498200D01*
X135955000Y-103432900D02*
X136068100Y-103481100D01*
X136068100Y-36218900D02*
X135955000Y-36267100D01*
X136068100Y-58301100D02*
X136182100Y-58346800D01*
X136068100Y-81398900D02*
X135955000Y-81447100D01*
X136068100Y-103481100D02*
X136182100Y-103526800D01*
X136182100Y-36173200D02*
X136068100Y-36218900D01*
X136182100Y-58346800D02*
X136297200Y-58389800D01*
X136182100Y-81353200D02*
X136068100Y-81398900D01*
X136182100Y-103526800D02*
X136297200Y-103569800D01*
X136297200Y-36130200D02*
X136182100Y-36173200D01*
X136297200Y-58389800D02*
X136413300Y-58429900D01*
X136297200Y-81310200D02*
X136182100Y-81353200D01*
X136297200Y-103569800D02*
X136413300Y-103609900D01*
X136413300Y-36090100D02*
X136297200Y-36130200D01*
X136413300Y-58429900D02*
X136530300Y-58467200D01*
X136413300Y-81270100D02*
X136297200Y-81310200D01*
X136413300Y-103609900D02*
X136530300Y-103647200D01*
X136530300Y-36052800D02*
X136413300Y-36090100D01*
X136530300Y-58467200D02*
X136648200Y-58501800D01*
X136530300Y-81232800D02*
X136413300Y-81270100D01*
X136530300Y-103647200D02*
X136648200Y-103681800D01*
X136648200Y-36018200D02*
X136530300Y-36052800D01*
X136648200Y-58501800D02*
X136766800Y-58533500D01*
X136648200Y-81198200D02*
X136530300Y-81232800D01*
X136648200Y-103681800D02*
X136766800Y-103713500D01*
X136766800Y-35986500D02*
X136648200Y-36018200D01*
X136766800Y-58533500D02*
X136886200Y-58562500D01*
X136766800Y-81166500D02*
X136648200Y-81198200D01*
X136766800Y-103713500D02*
X136886200Y-103742500D01*
X136886200Y-35957500D02*
X136766800Y-35986500D01*
X136886200Y-58562500D02*
X137006100Y-58588400D01*
X136886200Y-81137500D02*
X136766800Y-81166500D01*
X136886200Y-103742500D02*
X137006100Y-103768400D01*
X137006100Y-35931600D02*
X136886200Y-35957500D01*
X137006100Y-58588400D02*
X137126700Y-58611500D01*
X137006100Y-81111600D02*
X136886200Y-81137500D01*
X137006100Y-103768400D02*
X137126700Y-103791500D01*
X137126700Y-35908500D02*
X137006100Y-35931600D01*
X137126700Y-58611500D02*
X137247900Y-58631800D01*
X137126700Y-81088500D02*
X137006100Y-81111600D01*
X137126700Y-103791500D02*
X137247900Y-103811800D01*
X137247900Y-35888200D02*
X137126700Y-35908500D01*
X137247900Y-58631800D02*
X137369300Y-58649400D01*
X137247900Y-81068200D02*
X137126700Y-81088500D01*
X137247900Y-103811800D02*
X137369300Y-103829400D01*
X137369300Y-35870600D02*
X137247900Y-35888200D01*
X137369300Y-58649400D02*
X137491200Y-58663800D01*
X137369300Y-81050600D02*
X137247900Y-81068200D01*
X137369300Y-103829400D02*
X137491200Y-103843800D01*
X137491200Y-35856200D02*
X137369300Y-35870600D01*
X137491200Y-58663800D02*
X137613700Y-58675500D01*
X137491200Y-81036200D02*
X137369300Y-81050600D01*
X137491200Y-103843800D02*
X137613700Y-103855500D01*
X137613700Y-35844500D02*
X137491200Y-35856200D01*
X137613700Y-58675500D02*
X137736100Y-58684200D01*
X137613700Y-81024500D02*
X137491200Y-81036200D01*
X137613700Y-103855500D02*
X137736100Y-103864200D01*
X137736100Y-35835800D02*
X137613700Y-35844500D01*
X137736100Y-58684200D02*
X137858800Y-58690000D01*
X137736100Y-81015800D02*
X137613700Y-81024500D01*
X137736100Y-103864200D02*
X137858800Y-103870000D01*
X137858800Y-35830000D02*
X137736100Y-35835800D01*
X137858800Y-58690000D02*
X137981500Y-58693000D01*
X137858800Y-81010000D02*
X137736100Y-81015800D01*
X137858800Y-103870000D02*
X137981500Y-103873000D01*
X137981500Y-35827000D02*
X137858800Y-35830000D01*
X137981500Y-58693000D02*
X138104400Y-58692800D01*
X137981500Y-81007000D02*
X137858800Y-81010000D01*
X137981500Y-103873000D02*
X138104400Y-103872800D01*
X138104400Y-35827200D02*
X137981500Y-35827000D01*
X138104400Y-58692800D02*
X138227100Y-58690000D01*
X138104400Y-81007200D02*
X137981500Y-81007000D01*
X138104400Y-103872800D02*
X138227100Y-103870000D01*
X138227100Y-35830000D02*
X138104400Y-35827200D01*
X138227100Y-58690000D02*
X167237900Y-58690000D01*
X138227100Y-81010000D02*
X138104400Y-81007200D01*
X138227100Y-103870000D02*
X167237900Y-103870000D01*
X149600000Y-68850000D02*
X149600000Y-70850000D01*
X149600000Y-70850000D02*
X128920000Y-70850000D01*
X153960000Y-68850000D02*
X174640000Y-68850000D01*
X153960000Y-70850000D02*
X153960000Y-68850000D01*
X164480000Y-35830000D02*
X138227100Y-35830000D01*
X164480000Y-81010000D02*
X138227100Y-81010000D01*
X167237900Y-35830000D02*
X164480000Y-35830000D01*
X167237900Y-58690000D02*
X167298400Y-58689200D01*
X167237900Y-81010000D02*
X164480000Y-81010000D01*
X167237900Y-103870000D02*
X167298400Y-103869200D01*
X167298400Y-35830800D02*
X167237900Y-35830000D01*
X167298400Y-58689200D02*
X167358800Y-58687200D01*
X167298400Y-81010800D02*
X167237900Y-81010000D01*
X167298400Y-103869200D02*
X167358800Y-103867200D01*
X167358800Y-35832800D02*
X167298400Y-35830800D01*
X167358800Y-58687200D02*
X167419000Y-58683700D01*
X167358800Y-81012800D02*
X167298400Y-81010800D01*
X167358800Y-103867200D02*
X167419000Y-103863700D01*
X167419000Y-35836300D02*
X167358800Y-35832800D01*
X167419000Y-58683700D02*
X167479500Y-58678600D01*
X167419000Y-81016300D02*
X167358800Y-81012800D01*
X167419000Y-103863700D02*
X167479500Y-103858600D01*
X167479500Y-35841400D02*
X167419000Y-35836300D01*
X167479500Y-58678600D02*
X167539400Y-58672000D01*
X167479500Y-81021400D02*
X167419000Y-81016300D01*
X167479500Y-103858600D02*
X167539400Y-103852000D01*
X167539400Y-35848000D02*
X167479500Y-35841400D01*
X167539400Y-58672000D02*
X167599400Y-58664100D01*
X167539400Y-81028000D02*
X167479500Y-81021400D01*
X167539400Y-103852000D02*
X167599400Y-103844100D01*
X167599400Y-35855900D02*
X167539400Y-35848000D01*
X167599400Y-58664100D02*
X167659100Y-58654900D01*
X167599400Y-81035900D02*
X167539400Y-81028000D01*
X167599400Y-103844100D02*
X167659100Y-103834900D01*
X167659100Y-35865100D02*
X167599400Y-35855900D01*
X167659100Y-58654900D02*
X167718800Y-58644000D01*
X167659100Y-81045100D02*
X167599400Y-81035900D01*
X167659100Y-103834900D02*
X167718800Y-103824000D01*
X167718800Y-35876000D02*
X167659100Y-35865100D01*
X167718800Y-58644000D02*
X167777900Y-58631800D01*
X167718800Y-81056000D02*
X167659100Y-81045100D01*
X167718800Y-103824000D02*
X167777900Y-103811800D01*
X167777900Y-35888200D02*
X167718800Y-35876000D01*
X167777900Y-58631800D02*
X167836900Y-58618400D01*
X167777900Y-81068200D02*
X167718800Y-81056000D01*
X167777900Y-103811800D02*
X167836900Y-103798400D01*
X167836900Y-35901600D02*
X167777900Y-35888200D01*
X167836900Y-58618400D02*
X167895300Y-58603400D01*
X167836900Y-81081600D02*
X167777900Y-81068200D01*
X167836900Y-103798400D02*
X167895300Y-103783400D01*
X167895300Y-35916600D02*
X167836900Y-35901600D01*
X167895300Y-58603400D02*
X167953400Y-58587100D01*
X167895300Y-81096600D02*
X167836900Y-81081600D01*
X167895300Y-103783400D02*
X167953400Y-103767100D01*
X167953400Y-35932900D02*
X167895300Y-35916600D01*
X167953400Y-58587100D02*
X168011400Y-58569400D01*
X167953400Y-81112900D02*
X167895300Y-81096600D01*
X167953400Y-103767100D02*
X168011400Y-103749400D01*
X168011400Y-35950600D02*
X167953400Y-35932900D01*
X168011400Y-58569400D02*
X168068800Y-58550300D01*
X168011400Y-81130600D02*
X167953400Y-81112900D01*
X168011400Y-103749400D02*
X168068800Y-103730300D01*
X168068800Y-35969700D02*
X168011400Y-35950600D01*
X168068800Y-58550300D02*
X168125700Y-58529700D01*
X168068800Y-81149700D02*
X168011400Y-81130600D01*
X168068800Y-103730300D02*
X168125700Y-103709700D01*
X168125700Y-35990300D02*
X168068800Y-35969700D01*
X168125700Y-58529700D02*
X168182000Y-58508100D01*
X168125700Y-81170300D02*
X168068800Y-81149700D01*
X168125700Y-103709700D02*
X168182000Y-103688100D01*
X168182000Y-36011900D02*
X168125700Y-35990300D01*
X168182000Y-58508100D02*
X168237900Y-58485000D01*
X168182000Y-81191900D02*
X168125700Y-81170300D01*
X168182000Y-103688100D02*
X168237900Y-103665000D01*
X168237900Y-36035000D02*
X168182000Y-36011900D01*
X168237900Y-58485000D02*
X168293000Y-58460400D01*
X168237900Y-81215000D02*
X168182000Y-81191900D01*
X168237900Y-103665000D02*
X168293000Y-103640400D01*
X168293000Y-36059600D02*
X168237900Y-36035000D01*
X168293000Y-58460400D02*
X168347700Y-58434700D01*
X168293000Y-81239600D02*
X168237900Y-81215000D01*
X168293000Y-103640400D02*
X168347700Y-103614700D01*
X168347700Y-36085300D02*
X168293000Y-36059600D01*
X168347700Y-58434700D02*
X168401800Y-58407600D01*
X168347700Y-81265300D02*
X168293000Y-81239600D01*
X168347700Y-103614700D02*
X168401800Y-103587600D01*
X168401800Y-36112400D02*
X168347700Y-36085300D01*
X168401800Y-58407600D02*
X168455100Y-58379400D01*
X168401800Y-81292400D02*
X168347700Y-81265300D01*
X168401800Y-103587600D02*
X168455100Y-103559400D01*
X168455100Y-36140600D02*
X168401800Y-36112400D01*
X168455100Y-58379400D02*
X168507900Y-58349600D01*
X168455100Y-81320600D02*
X168401800Y-81292400D01*
X168455100Y-103559400D02*
X168507900Y-103529600D01*
X168507900Y-36170400D02*
X168455100Y-36140600D01*
X168507900Y-58349600D02*
X168560000Y-58318900D01*
X168507900Y-81350400D02*
X168455100Y-81320600D01*
X168507900Y-103529600D02*
X168560000Y-103498900D01*
X168560000Y-36201100D02*
X168507900Y-36170400D01*
X168560000Y-58318900D02*
X168611100Y-58286900D01*
X168560000Y-81381100D02*
X168507900Y-81350400D01*
X168560000Y-103498900D02*
X168611100Y-103466900D01*
X168611100Y-36233100D02*
X168560000Y-36201100D01*
X168611100Y-58286900D02*
X168661600Y-58253400D01*
X168611100Y-81413100D02*
X168560000Y-81381100D01*
X168611100Y-103466900D02*
X168661600Y-103433400D01*
X168661600Y-36266600D02*
X168611100Y-36233100D01*
X168661600Y-58253400D02*
X168711400Y-58219100D01*
X168661600Y-81446600D02*
X168611100Y-81413100D01*
X168661600Y-103433400D02*
X168711400Y-103399100D01*
X168711400Y-36300900D02*
X168661600Y-36266600D01*
X168711400Y-58219100D02*
X168760200Y-58183300D01*
X168711400Y-81480900D02*
X168661600Y-81446600D01*
X168711400Y-103399100D02*
X168760200Y-103363300D01*
X168760200Y-36336700D02*
X168711400Y-36300900D01*
X168760200Y-58183300D02*
X168808200Y-58146700D01*
X168760200Y-81516700D02*
X168711400Y-81480900D01*
X168760200Y-103363300D02*
X168808200Y-103326700D01*
X168808200Y-36373300D02*
X168760200Y-36336700D01*
X168808200Y-58146700D02*
X168855100Y-58108600D01*
X168808200Y-81553300D02*
X168760200Y-81516700D01*
X168808200Y-103326700D02*
X168855100Y-103288600D01*
X168855100Y-36411400D02*
X168808200Y-36373300D01*
X168855100Y-58108600D02*
X168901400Y-58069500D01*
X168855100Y-81591400D02*
X168808200Y-81553300D01*
X168855100Y-103288600D02*
X168901400Y-103249500D01*
X168901400Y-36450500D02*
X168855100Y-36411400D01*
X168901400Y-58069500D02*
X168946600Y-58029600D01*
X168901400Y-81630500D02*
X168855100Y-81591400D01*
X168901400Y-103249500D02*
X168946600Y-103209600D01*
X168946600Y-36490400D02*
X168901400Y-36450500D01*
X168946600Y-58029600D02*
X168990800Y-57988200D01*
X168946600Y-81670400D02*
X168901400Y-81630500D01*
X168946600Y-103209600D02*
X168990800Y-103168200D01*
X168990800Y-36531800D02*
X168946600Y-36490400D01*
X168990800Y-57988200D02*
X169034000Y-57946000D01*
X168990800Y-81711800D02*
X168946600Y-81670400D01*
X168990800Y-103168200D02*
X169034000Y-103126000D01*
X169034000Y-36574000D02*
X168990800Y-36531800D01*
X169034000Y-57946000D02*
X170721000Y-56259000D01*
X169034000Y-81754000D02*
X168990800Y-81711800D01*
X169034000Y-103126000D02*
X170721000Y-101439000D01*
X169560000Y-37100000D02*
X169034000Y-36574000D01*
X169560000Y-82280000D02*
X169034000Y-81754000D01*
X170721000Y-38261000D02*
X169560000Y-37100000D01*
X170721000Y-56259000D02*
X170763200Y-56215800D01*
X170721000Y-83441000D02*
X169560000Y-82280000D01*
X170721000Y-101439000D02*
X170763200Y-101395800D01*
X170763200Y-38304200D02*
X170721000Y-38261000D01*
X170763200Y-56215800D02*
X170804600Y-56171600D01*
X170763200Y-83484200D02*
X170721000Y-83441000D01*
X170763200Y-101395800D02*
X170804600Y-101351600D01*
X170804600Y-38348400D02*
X170763200Y-38304200D01*
X170804600Y-56171600D02*
X170844500Y-56126400D01*
X170804600Y-83528400D02*
X170763200Y-83484200D01*
X170804600Y-101351600D02*
X170844500Y-101306400D01*
X170844500Y-38393600D02*
X170804600Y-38348400D01*
X170844500Y-56126400D02*
X170883600Y-56080100D01*
X170844500Y-83573600D02*
X170804600Y-83528400D01*
X170844500Y-101306400D02*
X170883600Y-101260100D01*
X170883600Y-38439800D02*
X170844500Y-38393600D01*
X170883600Y-56080100D02*
X170921700Y-56033200D01*
X170883600Y-83619800D02*
X170844500Y-83573600D01*
X170883600Y-101260100D02*
X170921700Y-101213200D01*
X170921700Y-38486800D02*
X170883600Y-38439800D01*
X170921700Y-56033200D02*
X170958300Y-55985200D01*
X170921700Y-83666800D02*
X170883600Y-83619800D01*
X170921700Y-101213200D02*
X170958300Y-101165200D01*
X170958300Y-38534800D02*
X170921700Y-38486800D01*
X170958300Y-55985200D02*
X170994100Y-55936400D01*
X170958300Y-83714800D02*
X170921700Y-83666800D01*
X170958300Y-101165200D02*
X170994100Y-101116400D01*
X170994100Y-38583600D02*
X170958300Y-38534800D01*
X170994100Y-55936400D02*
X171028400Y-55886600D01*
X170994100Y-83763600D02*
X170958300Y-83714800D01*
X170994100Y-101116400D02*
X171028400Y-101066600D01*
X171028400Y-38633400D02*
X170994100Y-38583600D01*
X171028400Y-55886600D02*
X171061900Y-55836100D01*
X171028400Y-83813400D02*
X170994100Y-83763600D01*
X171028400Y-101066600D02*
X171061900Y-101016100D01*
X171061900Y-38683900D02*
X171028400Y-38633400D01*
X171061900Y-55836100D02*
X171093900Y-55785000D01*
X171061900Y-83863900D02*
X171028400Y-83813400D01*
X171061900Y-101016100D02*
X171093900Y-100965000D01*
X171093900Y-38735000D02*
X171061900Y-38683900D01*
X171093900Y-55785000D02*
X171124600Y-55732900D01*
X171093900Y-83915000D02*
X171061900Y-83863900D01*
X171093900Y-100965000D02*
X171124600Y-100912900D01*
X171124600Y-38787100D02*
X171093900Y-38735000D01*
X171124600Y-55732900D02*
X171154400Y-55680100D01*
X171124600Y-83967100D02*
X171093900Y-83915000D01*
X171124600Y-100912900D02*
X171154400Y-100860100D01*
X171154400Y-38839900D02*
X171124600Y-38787100D01*
X171154400Y-55680100D02*
X171182600Y-55626800D01*
X171154400Y-84019900D02*
X171124600Y-83967100D01*
X171154400Y-100860100D02*
X171182600Y-100806800D01*
X171182600Y-38893200D02*
X171154400Y-38839900D01*
X171182600Y-55626800D02*
X171209700Y-55572700D01*
X171182600Y-84073200D02*
X171154400Y-84019900D01*
X171182600Y-100806800D02*
X171209700Y-100752700D01*
X171209700Y-38947300D02*
X171182600Y-38893200D01*
X171209700Y-55572700D02*
X171235400Y-55518000D01*
X171209700Y-84127300D02*
X171182600Y-84073200D01*
X171209700Y-100752700D02*
X171235400Y-100698000D01*
X171235400Y-39002000D02*
X171209700Y-38947300D01*
X171235400Y-55518000D02*
X171260000Y-55462900D01*
X171235400Y-84182000D02*
X171209700Y-84127300D01*
X171235400Y-100698000D02*
X171260000Y-100642900D01*
X171260000Y-39057100D02*
X171235400Y-39002000D01*
X171260000Y-55462900D02*
X171283100Y-55407000D01*
X171260000Y-84237100D02*
X171235400Y-84182000D01*
X171260000Y-100642900D02*
X171283100Y-100587000D01*
X171283100Y-39112900D02*
X171260000Y-39057100D01*
X171283100Y-55407000D02*
X171304700Y-55350700D01*
X171283100Y-84292900D02*
X171260000Y-84237100D01*
X171283100Y-100587000D02*
X171304700Y-100530700D01*
X171304700Y-39169300D02*
X171283100Y-39112900D01*
X171304700Y-55350700D02*
X171325300Y-55293800D01*
X171304700Y-84349300D02*
X171283100Y-84292900D01*
X171304700Y-100530700D02*
X171325300Y-100473800D01*
X171325300Y-39226200D02*
X171304700Y-39169300D01*
X171325300Y-55293800D02*
X171344300Y-55236400D01*
X171325300Y-84406200D02*
X171304700Y-84349300D01*
X171325300Y-100473800D02*
X171344300Y-100416400D01*
X171344300Y-39283600D02*
X171325300Y-39226200D01*
X171344300Y-55236400D02*
X171362100Y-55178400D01*
X171344300Y-84463600D02*
X171325300Y-84406200D01*
X171344300Y-100416400D02*
X171362100Y-100358400D01*
X171362100Y-39341500D02*
X171344300Y-39283600D01*
X171362100Y-55178400D02*
X171378400Y-55120300D01*
X171362100Y-84521500D02*
X171344300Y-84463600D01*
X171362100Y-100358400D02*
X171378400Y-100300300D01*
X171378400Y-39399700D02*
X171362100Y-39341500D01*
X171378400Y-55120300D02*
X171393400Y-55061900D01*
X171378400Y-84579700D02*
X171362100Y-84521500D01*
X171378400Y-100300300D02*
X171393400Y-100241900D01*
X171393400Y-39458100D02*
X171378400Y-39399700D01*
X171393400Y-55061900D02*
X171406800Y-55002900D01*
X171393400Y-84638100D02*
X171378400Y-84579700D01*
X171393400Y-100241900D02*
X171406800Y-100182900D01*
X171406800Y-39517100D02*
X171393400Y-39458100D01*
X171406800Y-55002900D02*
X171419000Y-54943800D01*
X171406800Y-84697100D02*
X171393400Y-84638100D01*
X171406800Y-100182900D02*
X171419000Y-100123800D01*
X171419000Y-39576200D02*
X171406800Y-39517100D01*
X171419000Y-54943800D02*
X171429900Y-54884100D01*
X171419000Y-84756200D02*
X171406800Y-84697100D01*
X171419000Y-100123800D02*
X171429900Y-100064100D01*
X171429900Y-39635900D02*
X171419000Y-39576200D01*
X171429900Y-54884100D02*
X171439100Y-54824400D01*
X171429900Y-84815900D02*
X171419000Y-84756200D01*
X171429900Y-100064100D02*
X171439100Y-100004400D01*
X171439100Y-39695600D02*
X171429900Y-39635900D01*
X171439100Y-54824400D02*
X171447000Y-54764400D01*
X171439100Y-84875600D02*
X171429900Y-84815900D01*
X171439100Y-100004400D02*
X171447000Y-99944400D01*
X171447000Y-39755600D02*
X171439100Y-39695600D01*
X171447000Y-54764400D02*
X171453600Y-54704500D01*
X171447000Y-84935600D02*
X171439100Y-84875600D01*
X171447000Y-99944400D02*
X171453600Y-99884500D01*
X171453600Y-39815500D02*
X171447000Y-39755600D01*
X171453600Y-54704500D02*
X171458600Y-54644000D01*
X171453600Y-84995500D02*
X171447000Y-84935600D01*
X171453600Y-99884500D02*
X171458600Y-99824000D01*
X171458600Y-39876000D02*
X171453600Y-39815500D01*
X171458600Y-54644000D02*
X171462200Y-54583800D01*
X171458600Y-85056000D02*
X171453600Y-84995500D01*
X171458600Y-99824000D02*
X171462200Y-99763800D01*
X171462200Y-39936200D02*
X171458600Y-39876000D01*
X171462200Y-54583800D02*
X171464200Y-54523400D01*
X171462200Y-85116200D02*
X171458600Y-85056000D01*
X171462200Y-99763800D02*
X171464200Y-99703400D01*
X171464200Y-39996600D02*
X171462200Y-39936200D01*
X171464200Y-54523400D02*
X171465000Y-54462900D01*
X171464200Y-85176600D02*
X171462200Y-85116200D01*
X171464200Y-99703400D02*
X171465000Y-99642900D01*
X171465000Y-40057100D02*
X171464200Y-39996600D01*
X171465000Y-54462900D02*
X171465000Y-40057100D01*
X171465000Y-85237100D02*
X171464200Y-85176600D01*
X171465000Y-99642900D02*
X171465000Y-85237100D01*
X174640000Y-25670000D02*
X128920000Y-25670000D01*
X174640000Y-25670000D02*
G75*
G02*
X177180000Y-28210000I200J-2539800D01*
G01*
X174640000Y-70850000D02*
X153960000Y-70850000D01*
X174640000Y-70850000D02*
G75*
G02*
X177180000Y-73390000I200J-2539800D01*
G01*
X177180000Y-28210000D02*
X177180000Y-43400000D01*
X177180000Y-43400000D02*
X179180000Y-43400000D01*
X177180000Y-66310000D02*
G75*
G02*
X174640000Y-68850000I-2539800J-200D01*
G01*
X177180000Y-66310000D02*
X177200000Y-47800000D01*
X177180000Y-73390000D02*
X177180000Y-89400000D01*
X177180000Y-89400000D02*
X179219999Y-89400000D01*
X177180000Y-111490000D02*
G75*
G02*
X174640000Y-114030000I-2539800J-200D01*
G01*
X177180000Y-111490000D02*
X177180000Y-96000000D01*
X179180000Y-28210000D02*
G75*
G02*
X181720000Y-25670000I2539800J200D01*
G01*
X179180000Y-43400000D02*
X179180000Y-28210000D01*
X179180000Y-47800000D02*
X177200000Y-47800000D01*
X179180000Y-66310200D02*
X179180000Y-47800000D01*
X179180000Y-73390000D02*
G75*
G02*
X181720000Y-70850000I2539800J200D01*
G01*
X179180000Y-111490000D02*
X179200000Y-96000000D01*
X179200000Y-96000000D02*
X177180000Y-96000000D01*
X179219999Y-89400000D02*
X179180001Y-73390000D01*
X181719800Y-68850000D02*
X202300000Y-68800000D01*
X181720000Y-68850000D02*
G75*
G02*
X179180000Y-66310000I-200J2539800D01*
G01*
X181720000Y-114030000D02*
G75*
G02*
X179180000Y-111490000I-200J2539800D01*
G01*
X181720000Y-114030000D02*
X227440000Y-114030000D01*
X182974800Y-42916300D02*
X182975800Y-42995300D01*
X182974800Y-51603700D02*
X182975800Y-51682600D01*
X182974800Y-88096300D02*
X182975800Y-88175300D01*
X182974800Y-96783700D02*
X182975800Y-96862600D01*
X182975800Y-42837400D02*
X182974800Y-42916300D01*
X182975800Y-42995300D02*
X182978600Y-43074300D01*
X182975800Y-51524700D02*
X182974800Y-51603700D01*
X182975800Y-51682600D02*
X182978300Y-51761600D01*
X182975800Y-88017400D02*
X182974800Y-88096300D01*
X182975800Y-88175300D02*
X182978600Y-88254300D01*
X182975800Y-96704700D02*
X182974800Y-96783700D01*
X182975800Y-96862600D02*
X182978300Y-96941600D01*
X182978300Y-42758400D02*
X182975800Y-42837400D01*
X182978300Y-51761600D02*
X182983100Y-51840600D01*
X182978300Y-87938400D02*
X182975800Y-88017400D01*
X182978300Y-96941600D02*
X182983100Y-97020600D01*
X182978600Y-43074300D02*
X182983400Y-43153300D01*
X182978600Y-51445700D02*
X182975800Y-51524700D01*
X182978600Y-88254300D02*
X182983400Y-88333300D01*
X182978600Y-96625700D02*
X182975800Y-96704700D01*
X182983100Y-42679400D02*
X182978300Y-42758400D01*
X182983100Y-51840600D02*
X182989700Y-51919400D01*
X182983100Y-87859400D02*
X182978300Y-87938400D01*
X182983100Y-97020600D02*
X182989700Y-97099400D01*
X182983400Y-43153300D02*
X182990000Y-43232100D01*
X182983400Y-51366700D02*
X182978600Y-51445700D01*
X182983400Y-88333300D02*
X182990000Y-88412100D01*
X182983400Y-96546700D02*
X182978600Y-96625700D01*
X182989700Y-42600600D02*
X182983100Y-42679400D01*
X182989700Y-51919400D02*
X182998100Y-51998100D01*
X182989700Y-87780600D02*
X182983100Y-87859400D01*
X182989700Y-97099400D02*
X182998100Y-97178100D01*
X182990000Y-43232100D02*
X182990000Y-51287900D01*
X182990000Y-51287900D02*
X182983400Y-51366700D01*
X182990000Y-88412100D02*
X182990000Y-96467900D01*
X182990000Y-96467900D02*
X182983400Y-96546700D01*
X182998100Y-42521900D02*
X182989700Y-42600600D01*
X182998100Y-51998100D02*
X183008300Y-52076300D01*
X182998100Y-87701900D02*
X182989700Y-87780600D01*
X182998100Y-97178100D02*
X183008300Y-97256300D01*
X183008300Y-42443700D02*
X182998100Y-42521900D01*
X183008300Y-52076300D02*
X183020500Y-52154600D01*
X183008300Y-87623700D02*
X182998100Y-87701900D01*
X183008300Y-97256300D02*
X183020500Y-97334600D01*
X183020500Y-42365400D02*
X183008300Y-42443700D01*
X183020500Y-52154600D02*
X183034400Y-52232300D01*
X183020500Y-87545400D02*
X183008300Y-87623700D01*
X183020500Y-97334600D02*
X183034400Y-97412300D01*
X183034400Y-42287700D02*
X183020500Y-42365400D01*
X183034400Y-52232300D02*
X183050200Y-52309800D01*
X183034400Y-87467700D02*
X183020500Y-87545400D01*
X183034400Y-97412300D02*
X183050200Y-97489800D01*
X183050200Y-42210200D02*
X183034400Y-42287700D01*
X183050200Y-52309800D02*
X183068000Y-52387000D01*
X183050200Y-87390200D02*
X183034400Y-87467700D01*
X183050200Y-97489800D02*
X183068000Y-97567000D01*
X183068000Y-42133000D02*
X183050200Y-42210200D01*
X183068000Y-52387000D02*
X183087500Y-52463400D01*
X183068000Y-87313000D02*
X183050200Y-87390200D01*
X183068000Y-97567000D02*
X183087500Y-97643400D01*
X183087500Y-42056600D02*
X183068000Y-42133000D01*
X183087500Y-52463400D02*
X183108900Y-52539600D01*
X183087500Y-87236600D02*
X183068000Y-87313000D01*
X183087500Y-97643400D02*
X183108900Y-97719600D01*
X183108900Y-41980400D02*
X183087500Y-42056600D01*
X183108900Y-52539600D02*
X183132000Y-52615100D01*
X183108900Y-87160400D02*
X183087500Y-87236600D01*
X183108900Y-97719600D02*
X183132000Y-97795100D01*
X183132000Y-41904900D02*
X183108900Y-41980400D01*
X183132000Y-52615100D02*
X183156900Y-52690300D01*
X183132000Y-87084900D02*
X183108900Y-87160400D01*
X183132000Y-97795100D02*
X183156900Y-97870300D01*
X183156900Y-41829700D02*
X183132000Y-41904900D01*
X183156900Y-52690300D02*
X183183500Y-52764700D01*
X183156900Y-87009700D02*
X183132000Y-87084900D01*
X183156900Y-97870300D02*
X183183500Y-97944700D01*
X183183500Y-41755300D02*
X183156900Y-41829700D01*
X183183500Y-52764700D02*
X183212000Y-52838300D01*
X183183500Y-86935300D02*
X183156900Y-87009700D01*
X183183500Y-97944700D02*
X183212000Y-98018300D01*
X183212000Y-41681700D02*
X183183500Y-41755300D01*
X183212000Y-52838300D02*
X183242200Y-52911500D01*
X183212000Y-86861700D02*
X183183500Y-86935300D01*
X183212000Y-98018300D02*
X183242200Y-98091500D01*
X183242200Y-41608500D02*
X183212000Y-41681700D01*
X183242200Y-52911500D02*
X183274200Y-52983900D01*
X183242200Y-86788500D02*
X183212000Y-86861700D01*
X183242200Y-98091500D02*
X183274200Y-98163900D01*
X183274200Y-41536100D02*
X183242200Y-41608500D01*
X183274200Y-52983900D02*
X183307800Y-53055300D01*
X183274200Y-86716100D02*
X183242200Y-86788500D01*
X183274200Y-98163900D02*
X183307800Y-98235300D01*
X183307800Y-41464700D02*
X183274200Y-41536100D01*
X183307800Y-53055300D02*
X183343300Y-53126100D01*
X183307800Y-86644700D02*
X183274200Y-86716100D01*
X183307800Y-98235300D02*
X183343300Y-98306100D01*
X183343300Y-41393900D02*
X183307800Y-41464700D01*
X183343300Y-53126100D02*
X183380100Y-53196000D01*
X183343300Y-86573900D02*
X183307800Y-86644700D01*
X183343300Y-98306100D02*
X183380100Y-98376000D01*
X183380100Y-41324000D02*
X183343300Y-41393900D01*
X183380100Y-53196000D02*
X183419000Y-53264800D01*
X183380100Y-86504000D02*
X183343300Y-86573900D01*
X183380100Y-98376000D02*
X183419000Y-98444800D01*
X183419000Y-41255200D02*
X183380100Y-41324000D01*
X183419000Y-53264800D02*
X183459100Y-53332900D01*
X183419000Y-86435200D02*
X183380100Y-86504000D01*
X183419000Y-98444800D02*
X183459100Y-98512900D01*
X183459100Y-41187100D02*
X183419000Y-41255200D01*
X183459100Y-53332900D02*
X183501000Y-53399900D01*
X183459100Y-86367100D02*
X183419000Y-86435200D01*
X183459100Y-98512900D02*
X183501000Y-98579900D01*
X183501000Y-41120100D02*
X183459100Y-41187100D01*
X183501000Y-53399900D02*
X183544700Y-53466000D01*
X183501000Y-86300100D02*
X183459100Y-86367100D01*
X183501000Y-98579900D02*
X183544700Y-98646000D01*
X183544700Y-41054000D02*
X183501000Y-41120100D01*
X183544700Y-53466000D02*
X183589700Y-53530800D01*
X183544700Y-86234000D02*
X183501000Y-86300100D01*
X183544700Y-98646000D02*
X183589700Y-98710800D01*
X183589700Y-40989200D02*
X183544700Y-41054000D01*
X183589700Y-53530800D02*
X183636200Y-53594800D01*
X183589700Y-86169200D02*
X183544700Y-86234000D01*
X183589700Y-98710800D02*
X183636200Y-98774800D01*
X183636200Y-40925200D02*
X183589700Y-40989200D01*
X183636200Y-53594800D02*
X183684400Y-53657500D01*
X183636200Y-86105200D02*
X183589700Y-86169200D01*
X183636200Y-98774800D02*
X183684400Y-98837500D01*
X183684400Y-40862500D02*
X183636200Y-40925200D01*
X183684400Y-53657500D02*
X183734000Y-53719000D01*
X183684400Y-86042500D02*
X183636200Y-86105200D01*
X183684400Y-98837500D02*
X183734000Y-98899000D01*
X183734000Y-40801000D02*
X183684400Y-40862500D01*
X183734000Y-53719000D02*
X187326000Y-57311000D01*
X183734000Y-85981000D02*
X183684400Y-86042500D01*
X183734000Y-98899000D02*
X187326000Y-102491000D01*
X187326000Y-37209000D02*
X183734000Y-40801000D01*
X187326000Y-57311000D02*
X187417000Y-57393600D01*
X187326000Y-82389000D02*
X183734000Y-85981000D01*
X187326000Y-102491000D02*
X187417000Y-102573600D01*
X187417000Y-37126400D02*
X187326000Y-37209000D01*
X187417000Y-57393600D02*
X187509900Y-57474100D01*
X187417000Y-82306400D02*
X187326000Y-82389000D01*
X187417000Y-102573600D02*
X187509900Y-102654100D01*
X187509900Y-37045900D02*
X187417000Y-37126400D01*
X187509900Y-57474100D02*
X187604700Y-57552100D01*
X187509900Y-82225900D02*
X187417000Y-82306400D01*
X187509900Y-102654100D02*
X187604700Y-102732100D01*
X187604700Y-36967900D02*
X187509900Y-37045900D01*
X187604700Y-57552100D02*
X187701200Y-57628000D01*
X187604700Y-82147900D02*
X187509900Y-82225900D01*
X187604700Y-102732100D02*
X187701200Y-102808000D01*
X187701200Y-36892000D02*
X187604700Y-36967900D01*
X187701200Y-57628000D02*
X187799500Y-57701700D01*
X187701200Y-82072000D02*
X187604700Y-82147900D01*
X187701200Y-102808000D02*
X187799500Y-102881700D01*
X187799500Y-36818300D02*
X187701200Y-36892000D01*
X187799500Y-57701700D02*
X187899600Y-57772800D01*
X187799500Y-81998300D02*
X187701200Y-82072000D01*
X187799500Y-102881700D02*
X187899600Y-102952800D01*
X187899600Y-36747200D02*
X187799500Y-36818300D01*
X187899600Y-57772800D02*
X188001400Y-57841600D01*
X187899600Y-81927200D02*
X187799500Y-81998300D01*
X187899600Y-102952800D02*
X188001400Y-103021600D01*
X188001400Y-36678400D02*
X187899600Y-36747200D01*
X188001400Y-57841600D02*
X188104800Y-57907900D01*
X188001400Y-81858400D02*
X187899600Y-81927200D01*
X188001400Y-103021600D02*
X188104800Y-103087900D01*
X188104800Y-36612100D02*
X188001400Y-36678400D01*
X188104800Y-57907900D02*
X188209400Y-57971900D01*
X188104800Y-81792100D02*
X188001400Y-81858400D01*
X188104800Y-103087900D02*
X188209400Y-103151900D01*
X188209400Y-36548100D02*
X188104800Y-36612100D01*
X188209400Y-57971900D02*
X188315900Y-58033200D01*
X188209400Y-81728100D02*
X188104800Y-81792100D01*
X188209400Y-103151900D02*
X188315900Y-103213200D01*
X188315900Y-36486800D02*
X188209400Y-36548100D01*
X188315900Y-58033200D02*
X188423800Y-58092100D01*
X188315900Y-81666800D02*
X188209400Y-81728100D01*
X188315900Y-103213200D02*
X188423800Y-103272100D01*
X188423800Y-36427900D02*
X188315900Y-36486800D01*
X188423800Y-58092100D02*
X188533000Y-58148200D01*
X188423800Y-81607900D02*
X188315900Y-81666800D01*
X188423800Y-103272100D02*
X188533000Y-103328200D01*
X188533000Y-36371800D02*
X188423800Y-36427900D01*
X188533000Y-58148200D02*
X188643500Y-58201800D01*
X188533000Y-81551800D02*
X188423800Y-81607900D01*
X188533000Y-103328200D02*
X188643500Y-103381800D01*
X188643500Y-36318200D02*
X188533000Y-36371800D01*
X188643500Y-58201800D02*
X188755000Y-58252900D01*
X188643500Y-81498200D02*
X188533000Y-81551800D01*
X188643500Y-103381800D02*
X188755000Y-103432900D01*
X188755000Y-36267100D02*
X188643500Y-36318200D01*
X188755000Y-58252900D02*
X188868100Y-58301100D01*
X188755000Y-81447100D02*
X188643500Y-81498200D01*
X188755000Y-103432900D02*
X188868100Y-103481100D01*
X188868100Y-36218900D02*
X188755000Y-36267100D01*
X188868100Y-58301100D02*
X188982100Y-58346800D01*
X188868100Y-81398900D02*
X188755000Y-81447100D01*
X188868100Y-103481100D02*
X188982100Y-103526800D01*
X188982100Y-36173200D02*
X188868100Y-36218900D01*
X188982100Y-58346800D02*
X189097200Y-58389800D01*
X188982100Y-81353200D02*
X188868100Y-81398900D01*
X188982100Y-103526800D02*
X189097200Y-103569800D01*
X189097200Y-36130200D02*
X188982100Y-36173200D01*
X189097200Y-58389800D02*
X189213300Y-58429900D01*
X189097200Y-81310200D02*
X188982100Y-81353200D01*
X189097200Y-103569800D02*
X189213300Y-103609900D01*
X189213300Y-36090100D02*
X189097200Y-36130200D01*
X189213300Y-58429900D02*
X189330300Y-58467200D01*
X189213300Y-81270100D02*
X189097200Y-81310200D01*
X189213300Y-103609900D02*
X189330300Y-103647200D01*
X189330300Y-36052800D02*
X189213300Y-36090100D01*
X189330300Y-58467200D02*
X189448200Y-58501800D01*
X189330300Y-81232800D02*
X189213300Y-81270100D01*
X189330300Y-103647200D02*
X189448200Y-103681800D01*
X189448200Y-36018200D02*
X189330300Y-36052800D01*
X189448200Y-58501800D02*
X189566800Y-58533500D01*
X189448200Y-81198200D02*
X189330300Y-81232800D01*
X189448200Y-103681800D02*
X189566800Y-103713500D01*
X189566800Y-35986500D02*
X189448200Y-36018200D01*
X189566800Y-58533500D02*
X189686200Y-58562500D01*
X189566800Y-81166500D02*
X189448200Y-81198200D01*
X189566800Y-103713500D02*
X189686200Y-103742500D01*
X189686200Y-35957500D02*
X189566800Y-35986500D01*
X189686200Y-58562500D02*
X189806100Y-58588400D01*
X189686200Y-81137500D02*
X189566800Y-81166500D01*
X189686200Y-103742500D02*
X189806100Y-103768400D01*
X189806100Y-35931600D02*
X189686200Y-35957500D01*
X189806100Y-58588400D02*
X189926700Y-58611500D01*
X189806100Y-81111600D02*
X189686200Y-81137500D01*
X189806100Y-103768400D02*
X189926700Y-103791500D01*
X189926700Y-35908500D02*
X189806100Y-35931600D01*
X189926700Y-58611500D02*
X190047900Y-58631800D01*
X189926700Y-81088500D02*
X189806100Y-81111600D01*
X189926700Y-103791500D02*
X190047900Y-103811800D01*
X190047900Y-35888200D02*
X189926700Y-35908500D01*
X190047900Y-58631800D02*
X190169300Y-58649400D01*
X190047900Y-81068200D02*
X189926700Y-81088500D01*
X190047900Y-103811800D02*
X190169300Y-103829400D01*
X190169300Y-35870600D02*
X190047900Y-35888200D01*
X190169300Y-58649400D02*
X190291200Y-58663800D01*
X190169300Y-81050600D02*
X190047900Y-81068200D01*
X190169300Y-103829400D02*
X190291200Y-103843800D01*
X190291200Y-35856200D02*
X190169300Y-35870600D01*
X190291200Y-58663800D02*
X190413700Y-58675500D01*
X190291200Y-81036200D02*
X190169300Y-81050600D01*
X190291200Y-103843800D02*
X190413700Y-103855500D01*
X190413700Y-35844500D02*
X190291200Y-35856200D01*
X190413700Y-58675500D02*
X190536100Y-58684200D01*
X190413700Y-81024500D02*
X190291200Y-81036200D01*
X190413700Y-103855500D02*
X190536100Y-103864200D01*
X190536100Y-35835800D02*
X190413700Y-35844500D01*
X190536100Y-58684200D02*
X190658800Y-58690000D01*
X190536100Y-81015800D02*
X190413700Y-81024500D01*
X190536100Y-103864200D02*
X190658800Y-103870000D01*
X190658800Y-35830000D02*
X190536100Y-35835800D01*
X190658800Y-58690000D02*
X190781500Y-58693000D01*
X190658800Y-81010000D02*
X190536100Y-81015800D01*
X190658800Y-103870000D02*
X190781500Y-103873000D01*
X190781500Y-35827000D02*
X190658800Y-35830000D01*
X190781500Y-58693000D02*
X190904400Y-58692800D01*
X190781500Y-81007000D02*
X190658800Y-81010000D01*
X190781500Y-103873000D02*
X190904400Y-103872800D01*
X190904400Y-35827200D02*
X190781500Y-35827000D01*
X190904400Y-58692800D02*
X191027100Y-58690000D01*
X190904400Y-81007200D02*
X190781500Y-81007000D01*
X190904400Y-103872800D02*
X191027100Y-103870000D01*
X191027100Y-35830000D02*
X190904400Y-35827200D01*
X191027100Y-58690000D02*
X220037900Y-58690000D01*
X191027100Y-81010000D02*
X190904400Y-81007200D01*
X191027100Y-103870000D02*
X220037900Y-103870000D01*
X202300000Y-68800000D02*
X202300000Y-70800000D01*
X202300000Y-70800000D02*
X181719800Y-70850000D01*
X206660000Y-68800000D02*
X227340000Y-68800000D01*
X206660000Y-70800000D02*
X206660000Y-68800000D01*
X217280000Y-35830000D02*
X191027100Y-35830000D01*
X217280000Y-81010000D02*
X191027100Y-81010000D01*
X220037900Y-35830000D02*
X217280000Y-35830000D01*
X220037900Y-58690000D02*
X220098400Y-58689200D01*
X220037900Y-81010000D02*
X217280000Y-81010000D01*
X220037900Y-103870000D02*
X220098400Y-103869200D01*
X220098400Y-35830800D02*
X220037900Y-35830000D01*
X220098400Y-58689200D02*
X220158800Y-58687200D01*
X220098400Y-81010800D02*
X220037900Y-81010000D01*
X220098400Y-103869200D02*
X220158800Y-103867200D01*
X220158800Y-35832800D02*
X220098400Y-35830800D01*
X220158800Y-58687200D02*
X220219000Y-58683700D01*
X220158800Y-81012800D02*
X220098400Y-81010800D01*
X220158800Y-103867200D02*
X220219000Y-103863700D01*
X220219000Y-35836300D02*
X220158800Y-35832800D01*
X220219000Y-58683700D02*
X220279500Y-58678600D01*
X220219000Y-81016300D02*
X220158800Y-81012800D01*
X220219000Y-103863700D02*
X220279500Y-103858600D01*
X220279500Y-35841400D02*
X220219000Y-35836300D01*
X220279500Y-58678600D02*
X220339400Y-58672000D01*
X220279500Y-81021400D02*
X220219000Y-81016300D01*
X220279500Y-103858600D02*
X220339400Y-103852000D01*
X220339400Y-35848000D02*
X220279500Y-35841400D01*
X220339400Y-58672000D02*
X220399400Y-58664100D01*
X220339400Y-81028000D02*
X220279500Y-81021400D01*
X220339400Y-103852000D02*
X220399400Y-103844100D01*
X220399400Y-35855900D02*
X220339400Y-35848000D01*
X220399400Y-58664100D02*
X220459100Y-58654900D01*
X220399400Y-81035900D02*
X220339400Y-81028000D01*
X220399400Y-103844100D02*
X220459100Y-103834900D01*
X220459100Y-35865100D02*
X220399400Y-35855900D01*
X220459100Y-58654900D02*
X220518800Y-58644000D01*
X220459100Y-81045100D02*
X220399400Y-81035900D01*
X220459100Y-103834900D02*
X220518800Y-103824000D01*
X220518800Y-35876000D02*
X220459100Y-35865100D01*
X220518800Y-58644000D02*
X220577900Y-58631800D01*
X220518800Y-81056000D02*
X220459100Y-81045100D01*
X220518800Y-103824000D02*
X220577900Y-103811800D01*
X220577900Y-35888200D02*
X220518800Y-35876000D01*
X220577900Y-58631800D02*
X220636900Y-58618400D01*
X220577900Y-81068200D02*
X220518800Y-81056000D01*
X220577900Y-103811800D02*
X220636900Y-103798400D01*
X220636900Y-35901600D02*
X220577900Y-35888200D01*
X220636900Y-58618400D02*
X220695300Y-58603400D01*
X220636900Y-81081600D02*
X220577900Y-81068200D01*
X220636900Y-103798400D02*
X220695300Y-103783400D01*
X220695300Y-35916600D02*
X220636900Y-35901600D01*
X220695300Y-58603400D02*
X220753400Y-58587100D01*
X220695300Y-81096600D02*
X220636900Y-81081600D01*
X220695300Y-103783400D02*
X220753400Y-103767100D01*
X220753400Y-35932900D02*
X220695300Y-35916600D01*
X220753400Y-58587100D02*
X220811400Y-58569400D01*
X220753400Y-81112900D02*
X220695300Y-81096600D01*
X220753400Y-103767100D02*
X220811400Y-103749400D01*
X220811400Y-35950600D02*
X220753400Y-35932900D01*
X220811400Y-58569400D02*
X220868800Y-58550300D01*
X220811400Y-81130600D02*
X220753400Y-81112900D01*
X220811400Y-103749400D02*
X220868800Y-103730300D01*
X220868800Y-35969700D02*
X220811400Y-35950600D01*
X220868800Y-58550300D02*
X220925700Y-58529700D01*
X220868800Y-81149700D02*
X220811400Y-81130600D01*
X220868800Y-103730300D02*
X220925700Y-103709700D01*
X220925700Y-35990300D02*
X220868800Y-35969700D01*
X220925700Y-58529700D02*
X220982000Y-58508100D01*
X220925700Y-81170300D02*
X220868800Y-81149700D01*
X220925700Y-103709700D02*
X220982000Y-103688100D01*
X220982000Y-36011900D02*
X220925700Y-35990300D01*
X220982000Y-58508100D02*
X221037900Y-58485000D01*
X220982000Y-81191900D02*
X220925700Y-81170300D01*
X220982000Y-103688100D02*
X221037900Y-103665000D01*
X221037900Y-36035000D02*
X220982000Y-36011900D01*
X221037900Y-58485000D02*
X221093000Y-58460400D01*
X221037900Y-81215000D02*
X220982000Y-81191900D01*
X221037900Y-103665000D02*
X221093000Y-103640400D01*
X221093000Y-36059600D02*
X221037900Y-36035000D01*
X221093000Y-58460400D02*
X221147700Y-58434700D01*
X221093000Y-81239600D02*
X221037900Y-81215000D01*
X221093000Y-103640400D02*
X221147700Y-103614700D01*
X221147700Y-36085300D02*
X221093000Y-36059600D01*
X221147700Y-58434700D02*
X221201800Y-58407600D01*
X221147700Y-81265300D02*
X221093000Y-81239600D01*
X221147700Y-103614700D02*
X221201800Y-103587600D01*
X221201800Y-36112400D02*
X221147700Y-36085300D01*
X221201800Y-58407600D02*
X221255100Y-58379400D01*
X221201800Y-81292400D02*
X221147700Y-81265300D01*
X221201800Y-103587600D02*
X221255100Y-103559400D01*
X221255100Y-36140600D02*
X221201800Y-36112400D01*
X221255100Y-58379400D02*
X221307900Y-58349600D01*
X221255100Y-81320600D02*
X221201800Y-81292400D01*
X221255100Y-103559400D02*
X221307900Y-103529600D01*
X221307900Y-36170400D02*
X221255100Y-36140600D01*
X221307900Y-58349600D02*
X221360000Y-58318900D01*
X221307900Y-81350400D02*
X221255100Y-81320600D01*
X221307900Y-103529600D02*
X221360000Y-103498900D01*
X221360000Y-36201100D02*
X221307900Y-36170400D01*
X221360000Y-58318900D02*
X221411100Y-58286900D01*
X221360000Y-81381100D02*
X221307900Y-81350400D01*
X221360000Y-103498900D02*
X221411100Y-103466900D01*
X221411100Y-36233100D02*
X221360000Y-36201100D01*
X221411100Y-58286900D02*
X221461600Y-58253400D01*
X221411100Y-81413100D02*
X221360000Y-81381100D01*
X221411100Y-103466900D02*
X221461600Y-103433400D01*
X221461600Y-36266600D02*
X221411100Y-36233100D01*
X221461600Y-58253400D02*
X221511400Y-58219100D01*
X221461600Y-81446600D02*
X221411100Y-81413100D01*
X221461600Y-103433400D02*
X221511400Y-103399100D01*
X221511400Y-36300900D02*
X221461600Y-36266600D01*
X221511400Y-58219100D02*
X221560200Y-58183300D01*
X221511400Y-81480900D02*
X221461600Y-81446600D01*
X221511400Y-103399100D02*
X221560200Y-103363300D01*
X221560200Y-36336700D02*
X221511400Y-36300900D01*
X221560200Y-58183300D02*
X221608200Y-58146700D01*
X221560200Y-81516700D02*
X221511400Y-81480900D01*
X221560200Y-103363300D02*
X221608200Y-103326700D01*
X221608200Y-36373300D02*
X221560200Y-36336700D01*
X221608200Y-58146700D02*
X221655100Y-58108600D01*
X221608200Y-81553300D02*
X221560200Y-81516700D01*
X221608200Y-103326700D02*
X221655100Y-103288600D01*
X221655100Y-36411400D02*
X221608200Y-36373300D01*
X221655100Y-58108600D02*
X221701400Y-58069500D01*
X221655100Y-81591400D02*
X221608200Y-81553300D01*
X221655100Y-103288600D02*
X221701400Y-103249500D01*
X221701400Y-36450500D02*
X221655100Y-36411400D01*
X221701400Y-58069500D02*
X221746600Y-58029600D01*
X221701400Y-81630500D02*
X221655100Y-81591400D01*
X221701400Y-103249500D02*
X221746600Y-103209600D01*
X221746600Y-36490400D02*
X221701400Y-36450500D01*
X221746600Y-58029600D02*
X221790800Y-57988200D01*
X221746600Y-81670400D02*
X221701400Y-81630500D01*
X221746600Y-103209600D02*
X221790800Y-103168200D01*
X221790800Y-36531800D02*
X221746600Y-36490400D01*
X221790800Y-57988200D02*
X221834000Y-57946000D01*
X221790800Y-81711800D02*
X221746600Y-81670400D01*
X221790800Y-103168200D02*
X221834000Y-103126000D01*
X221834000Y-36574000D02*
X221790800Y-36531800D01*
X221834000Y-57946000D02*
X223521000Y-56259000D01*
X221834000Y-81754000D02*
X221790800Y-81711800D01*
X221834000Y-103126000D02*
X223521000Y-101439000D01*
X222360000Y-37100000D02*
X221834000Y-36574000D01*
X222360000Y-82280000D02*
X221834000Y-81754000D01*
X223521000Y-38261000D02*
X222360000Y-37100000D01*
X223521000Y-56259000D02*
X223563200Y-56215800D01*
X223521000Y-83441000D02*
X222360000Y-82280000D01*
X223521000Y-101439000D02*
X223563200Y-101395800D01*
X223563200Y-38304200D02*
X223521000Y-38261000D01*
X223563200Y-56215800D02*
X223604600Y-56171600D01*
X223563200Y-83484200D02*
X223521000Y-83441000D01*
X223563200Y-101395800D02*
X223604600Y-101351600D01*
X223604600Y-38348400D02*
X223563200Y-38304200D01*
X223604600Y-56171600D02*
X223644500Y-56126400D01*
X223604600Y-83528400D02*
X223563200Y-83484200D01*
X223604600Y-101351600D02*
X223644500Y-101306400D01*
X223644500Y-38393600D02*
X223604600Y-38348400D01*
X223644500Y-56126400D02*
X223683600Y-56080100D01*
X223644500Y-83573600D02*
X223604600Y-83528400D01*
X223644500Y-101306400D02*
X223683600Y-101260100D01*
X223683600Y-38439800D02*
X223644500Y-38393600D01*
X223683600Y-56080100D02*
X223721700Y-56033200D01*
X223683600Y-83619800D02*
X223644500Y-83573600D01*
X223683600Y-101260100D02*
X223721700Y-101213200D01*
X223721700Y-38486800D02*
X223683600Y-38439800D01*
X223721700Y-56033200D02*
X223758300Y-55985200D01*
X223721700Y-83666800D02*
X223683600Y-83619800D01*
X223721700Y-101213200D02*
X223758300Y-101165200D01*
X223758300Y-38534800D02*
X223721700Y-38486800D01*
X223758300Y-55985200D02*
X223794100Y-55936400D01*
X223758300Y-83714800D02*
X223721700Y-83666800D01*
X223758300Y-101165200D02*
X223794100Y-101116400D01*
X223794100Y-38583600D02*
X223758300Y-38534800D01*
X223794100Y-55936400D02*
X223828400Y-55886600D01*
X223794100Y-83763600D02*
X223758300Y-83714800D01*
X223794100Y-101116400D02*
X223828400Y-101066600D01*
X223828400Y-38633400D02*
X223794100Y-38583600D01*
X223828400Y-55886600D02*
X223861900Y-55836100D01*
X223828400Y-83813400D02*
X223794100Y-83763600D01*
X223828400Y-101066600D02*
X223861900Y-101016100D01*
X223861900Y-38683900D02*
X223828400Y-38633400D01*
X223861900Y-55836100D02*
X223893900Y-55785000D01*
X223861900Y-83863900D02*
X223828400Y-83813400D01*
X223861900Y-101016100D02*
X223893900Y-100965000D01*
X223893900Y-38735000D02*
X223861900Y-38683900D01*
X223893900Y-55785000D02*
X223924600Y-55732900D01*
X223893900Y-83915000D02*
X223861900Y-83863900D01*
X223893900Y-100965000D02*
X223924600Y-100912900D01*
X223924600Y-38787100D02*
X223893900Y-38735000D01*
X223924600Y-55732900D02*
X223954400Y-55680100D01*
X223924600Y-83967100D02*
X223893900Y-83915000D01*
X223924600Y-100912900D02*
X223954400Y-100860100D01*
X223954400Y-38839900D02*
X223924600Y-38787100D01*
X223954400Y-55680100D02*
X223982600Y-55626800D01*
X223954400Y-84019900D02*
X223924600Y-83967100D01*
X223954400Y-100860100D02*
X223982600Y-100806800D01*
X223982600Y-38893200D02*
X223954400Y-38839900D01*
X223982600Y-55626800D02*
X224009700Y-55572700D01*
X223982600Y-84073200D02*
X223954400Y-84019900D01*
X223982600Y-100806800D02*
X224009700Y-100752700D01*
X224009700Y-38947300D02*
X223982600Y-38893200D01*
X224009700Y-55572700D02*
X224035400Y-55518000D01*
X224009700Y-84127300D02*
X223982600Y-84073200D01*
X224009700Y-100752700D02*
X224035400Y-100698000D01*
X224035400Y-39002000D02*
X224009700Y-38947300D01*
X224035400Y-55518000D02*
X224060000Y-55462900D01*
X224035400Y-84182000D02*
X224009700Y-84127300D01*
X224035400Y-100698000D02*
X224060000Y-100642900D01*
X224060000Y-39057100D02*
X224035400Y-39002000D01*
X224060000Y-55462900D02*
X224083100Y-55407000D01*
X224060000Y-84237100D02*
X224035400Y-84182000D01*
X224060000Y-100642900D02*
X224083100Y-100587000D01*
X224083100Y-39112900D02*
X224060000Y-39057100D01*
X224083100Y-55407000D02*
X224104700Y-55350700D01*
X224083100Y-84292900D02*
X224060000Y-84237100D01*
X224083100Y-100587000D02*
X224104700Y-100530700D01*
X224104700Y-39169300D02*
X224083100Y-39112900D01*
X224104700Y-55350700D02*
X224125300Y-55293800D01*
X224104700Y-84349300D02*
X224083100Y-84292900D01*
X224104700Y-100530700D02*
X224125300Y-100473800D01*
X224125300Y-39226200D02*
X224104700Y-39169300D01*
X224125300Y-55293800D02*
X224144300Y-55236400D01*
X224125300Y-84406200D02*
X224104700Y-84349300D01*
X224125300Y-100473800D02*
X224144300Y-100416400D01*
X224144300Y-39283600D02*
X224125300Y-39226200D01*
X224144300Y-55236400D02*
X224162100Y-55178400D01*
X224144300Y-84463600D02*
X224125300Y-84406200D01*
X224144300Y-100416400D02*
X224162100Y-100358400D01*
X224162100Y-39341500D02*
X224144300Y-39283600D01*
X224162100Y-55178400D02*
X224178400Y-55120300D01*
X224162100Y-84521500D02*
X224144300Y-84463600D01*
X224162100Y-100358400D02*
X224178400Y-100300300D01*
X224178400Y-39399700D02*
X224162100Y-39341500D01*
X224178400Y-55120300D02*
X224193400Y-55061900D01*
X224178400Y-84579700D02*
X224162100Y-84521500D01*
X224178400Y-100300300D02*
X224193400Y-100241900D01*
X224193400Y-39458100D02*
X224178400Y-39399700D01*
X224193400Y-55061900D02*
X224206800Y-55002900D01*
X224193400Y-84638100D02*
X224178400Y-84579700D01*
X224193400Y-100241900D02*
X224206800Y-100182900D01*
X224206800Y-39517100D02*
X224193400Y-39458100D01*
X224206800Y-55002900D02*
X224219000Y-54943800D01*
X224206800Y-84697100D02*
X224193400Y-84638100D01*
X224206800Y-100182900D02*
X224219000Y-100123800D01*
X224219000Y-39576200D02*
X224206800Y-39517100D01*
X224219000Y-54943800D02*
X224229900Y-54884100D01*
X224219000Y-84756200D02*
X224206800Y-84697100D01*
X224219000Y-100123800D02*
X224229900Y-100064100D01*
X224229900Y-39635900D02*
X224219000Y-39576200D01*
X224229900Y-54884100D02*
X224239100Y-54824400D01*
X224229900Y-84815900D02*
X224219000Y-84756200D01*
X224229900Y-100064100D02*
X224239100Y-100004400D01*
X224239100Y-39695600D02*
X224229900Y-39635900D01*
X224239100Y-54824400D02*
X224247000Y-54764400D01*
X224239100Y-84875600D02*
X224229900Y-84815900D01*
X224239100Y-100004400D02*
X224247000Y-99944400D01*
X224247000Y-39755600D02*
X224239100Y-39695600D01*
X224247000Y-54764400D02*
X224253600Y-54704500D01*
X224247000Y-84935600D02*
X224239100Y-84875600D01*
X224247000Y-99944400D02*
X224253600Y-99884500D01*
X224253600Y-39815500D02*
X224247000Y-39755600D01*
X224253600Y-54704500D02*
X224258600Y-54644000D01*
X224253600Y-84995500D02*
X224247000Y-84935600D01*
X224253600Y-99884500D02*
X224258600Y-99824000D01*
X224258600Y-39876000D02*
X224253600Y-39815500D01*
X224258600Y-54644000D02*
X224262200Y-54583800D01*
X224258600Y-85056000D02*
X224253600Y-84995500D01*
X224258600Y-99824000D02*
X224262200Y-99763800D01*
X224262200Y-39936200D02*
X224258600Y-39876000D01*
X224262200Y-54583800D02*
X224264200Y-54523400D01*
X224262200Y-85116200D02*
X224258600Y-85056000D01*
X224262200Y-99763800D02*
X224264200Y-99703400D01*
X224264200Y-39996600D02*
X224262200Y-39936200D01*
X224264200Y-54523400D02*
X224265000Y-54462900D01*
X224264200Y-85176600D02*
X224262200Y-85116200D01*
X224264200Y-99703400D02*
X224265000Y-99642900D01*
X224265000Y-40057100D02*
X224264200Y-39996600D01*
X224265000Y-54462900D02*
X224265000Y-40057100D01*
X224265000Y-85237100D02*
X224264200Y-85176600D01*
X224265000Y-99642900D02*
X224265000Y-85237100D01*
X227340000Y-70800000D02*
X206660000Y-70800000D01*
X227340000Y-70800000D02*
G75*
G02*
X230031938Y-73390004I100200J-2589800D01*
G01*
X227440000Y-25670000D02*
X181720000Y-25670000D01*
X227440000Y-25670000D02*
G75*
G02*
X229980000Y-28210000I200J-2539800D01*
G01*
X229932015Y-66310200D02*
G75*
G02*
X227340000Y-68800000I-2491815J0D01*
G01*
X229980000Y-28210000D02*
X229932015Y-66310200D01*
X229980000Y-111490000D02*
G75*
G02*
X227440000Y-114030000I-2539800J-200D01*
G01*
X230031938Y-73389800D02*
X229980000Y-111490000D01*
M02*
