M48
; DRILL file {KiCad 9.0.9-9.0.9~ubuntu24.04.1} date 2026-06-11T15:59:33+0200
; FORMAT={-:-/ absolute / metric / decimal}
; #@! TF.CreationDate,2026-06-11T15:59:33+02:00
; #@! TF.GenerationSoftware,Kicad,Pcbnew,9.0.9-9.0.9~ubuntu24.04.1
; #@! TF.FileFunction,NonPlated,1,2,NPTH
FMAT,2
METRIC
; #@! TA.AperFunction,NonPlated,NPTH,ComponentDrill
T1C0.700
; #@! TA.AperFunction,NonPlated,NPTH,ComponentDrill
T2C1.000
; #@! TA.AperFunction,NonPlated,NPTH,ComponentDrill
T3C1.016
; #@! TA.AperFunction,NonPlated,NPTH,ComponentDrill
T4C1.800
; #@! TA.AperFunction,NonPlated,NPTH,ComponentDrill
T5C3.000
%
G90
G05
T1
X105.956Y-104.369
X105.956Y-105.639
X107.226Y-104.369
X107.226Y-105.639
X108.496Y-104.369
X108.496Y-105.639
X109.766Y-104.369
X109.766Y-105.639
X133.896Y-104.369
X133.896Y-105.639
X135.166Y-104.369
X135.166Y-105.639
X136.436Y-104.369
X136.436Y-105.639
X137.706Y-104.369
X137.706Y-105.639
X147.866Y-72.619
X147.866Y-73.889
X147.866Y-75.159
X147.866Y-76.429
X147.866Y-134.849
X147.866Y-136.119
X147.866Y-137.389
X147.866Y-138.659
X149.136Y-72.619
X149.136Y-73.889
X149.136Y-75.159
X149.136Y-76.429
X149.136Y-134.849
X149.136Y-136.119
X149.136Y-137.389
X149.136Y-138.659
X159.296Y-104.369
X159.296Y-105.639
X160.566Y-104.369
X160.566Y-105.639
X161.836Y-104.369
X161.836Y-105.639
X163.106Y-104.369
X163.106Y-105.639
X187.236Y-104.369
X187.236Y-105.639
X188.506Y-104.369
X188.506Y-105.639
X189.776Y-104.369
X189.776Y-105.639
X191.046Y-104.369
X191.046Y-105.639
T2
X177.71Y-82.14
X177.71Y-127.86
T3
X101.79Y-124.61
X101.79Y-131.11
X106.31Y-124.61
X106.31Y-131.11
T4
X165.01Y-82.14
X165.01Y-127.86
X167.55Y-82.14
X167.55Y-127.86
X170.09Y-82.14
X170.09Y-127.86
X172.63Y-82.14
X172.63Y-127.86
X175.17Y-82.14
X175.17Y-127.86
X180.25Y-82.14
X180.25Y-127.86
X182.79Y-82.14
X182.79Y-127.86
X185.33Y-82.14
X185.33Y-127.86
T5
X104.051Y-66.904
X104.051Y-97.384
X104.051Y-112.624
X104.051Y-143.104
X139.611Y-66.904
X139.611Y-97.384
X139.611Y-112.624
X139.611Y-143.104
X157.391Y-66.904
X157.391Y-97.384
X157.391Y-112.624
X157.391Y-143.104
X192.951Y-66.904
X192.951Y-97.384
X192.951Y-112.624
X192.951Y-143.104
M30
