G75*
%MOIN*%
%OFA0B0*%
%FSLAX25Y25*%
%IPPOS*%
%LPD*%
%AMOC8*
5,1,8,0,0,1.08239X$1,22.5*
%
%ADD10C,0.07874*%
%ADD11C,0.03556*%
%ADD12C,0.12611*%
%ADD13C,0.08200*%
%ADD14OC8,0.06000*%
%ADD15C,0.06000*%
%ADD16C,0.06800*%
%ADD17C,0.06400*%
%ADD18OC8,0.07100*%
%ADD19R,0.05918X0.06706*%
D10*
X0321000Y0266000D03*
D11*
X0358500Y0178500D03*
X0358500Y0173500D03*
X0363500Y0173500D03*
X0363500Y0178500D03*
X0368500Y0178500D03*
X0368500Y0173500D03*
X0373500Y0173500D03*
X0373500Y0178500D03*
X0263500Y0178500D03*
X0263500Y0173500D03*
X0258500Y0173500D03*
X0258500Y0178500D03*
X0253500Y0178500D03*
X0253500Y0173500D03*
X0248500Y0173500D03*
X0248500Y0178500D03*
X0163500Y0178500D03*
X0163500Y0173500D03*
X0158500Y0173500D03*
X0158500Y0178500D03*
X0153500Y0178500D03*
X0153500Y0173500D03*
X0148500Y0173500D03*
X0148500Y0178500D03*
X0053500Y0178500D03*
X0053500Y0173500D03*
X0048500Y0173500D03*
X0048500Y0178500D03*
X0043500Y0178500D03*
X0043500Y0173500D03*
X0038500Y0173500D03*
X0038500Y0178500D03*
X0203500Y0063500D03*
X0203500Y0058500D03*
X0203500Y0053500D03*
X0208500Y0053500D03*
X0208500Y0058500D03*
X0208500Y0063500D03*
X0208500Y0048500D03*
X0203500Y0048500D03*
X0203500Y0293500D03*
X0203500Y0298500D03*
X0203500Y0303500D03*
X0208500Y0303500D03*
X0208500Y0298500D03*
X0208500Y0293500D03*
X0208500Y0308500D03*
X0203500Y0308500D03*
D12*
X0031000Y0026000D03*
X0031000Y0146000D03*
X0031000Y0206000D03*
X0031000Y0326000D03*
X0171000Y0326000D03*
X0241000Y0326000D03*
X0241000Y0206000D03*
X0241000Y0146000D03*
X0171000Y0146000D03*
X0171000Y0206000D03*
X0171000Y0026000D03*
X0241000Y0026000D03*
X0381000Y0026000D03*
X0381000Y0146000D03*
X0381000Y0206000D03*
X0381000Y0326000D03*
D13*
X0171000Y0296000D03*
X0161000Y0296000D03*
X0151000Y0296000D03*
X0141000Y0296000D03*
X0131000Y0296000D03*
X0121000Y0296000D03*
X0111000Y0296000D03*
X0101000Y0296000D03*
X0091000Y0296000D03*
X0081000Y0296000D03*
X0071000Y0296000D03*
X0061000Y0296000D03*
X0061000Y0236000D03*
X0071000Y0236000D03*
X0081000Y0236000D03*
X0091000Y0236000D03*
X0101000Y0236000D03*
X0111000Y0236000D03*
X0121000Y0236000D03*
X0131000Y0236000D03*
X0141000Y0236000D03*
X0151000Y0236000D03*
X0161000Y0236000D03*
X0171000Y0236000D03*
D14*
X0071000Y0306000D03*
X0061000Y0306000D03*
X0086000Y0106000D03*
X0116000Y0106000D03*
X0106000Y0066000D03*
X0096000Y0066000D03*
X0096000Y0056000D03*
X0106000Y0056000D03*
X0136000Y0056000D03*
X0136000Y0066000D03*
X0066000Y0066000D03*
X0066000Y0056000D03*
D15*
X0061000Y0081000D03*
X0061000Y0091000D03*
X0071000Y0091000D03*
X0071000Y0081000D03*
X0081000Y0081000D03*
X0081000Y0091000D03*
X0091000Y0091000D03*
X0091000Y0081000D03*
X0101000Y0081000D03*
X0101000Y0091000D03*
X0111000Y0091000D03*
X0111000Y0081000D03*
X0121000Y0081000D03*
X0121000Y0091000D03*
X0131000Y0091000D03*
X0131000Y0081000D03*
X0141000Y0081000D03*
X0141000Y0091000D03*
X0141000Y0226000D03*
X0151000Y0226000D03*
X0131000Y0226000D03*
X0121000Y0226000D03*
X0111000Y0226000D03*
X0101000Y0226000D03*
X0091000Y0226000D03*
X0081000Y0226000D03*
X0071000Y0226000D03*
X0061000Y0226000D03*
X0061000Y0261000D03*
X0061000Y0271000D03*
X0071000Y0271000D03*
X0081000Y0271000D03*
X0081000Y0261000D03*
X0071000Y0261000D03*
X0091000Y0261000D03*
X0101000Y0261000D03*
X0111000Y0261000D03*
X0111000Y0271000D03*
X0101000Y0271000D03*
X0091000Y0271000D03*
X0121000Y0271000D03*
X0131000Y0271000D03*
X0131000Y0261000D03*
X0121000Y0261000D03*
X0141000Y0261000D03*
X0141000Y0271000D03*
D16*
X0039900Y0275800D02*
X0039900Y0281800D01*
X0022100Y0281800D02*
X0022100Y0275800D01*
X0022100Y0256200D02*
X0022100Y0250200D01*
X0039900Y0250200D02*
X0039900Y0256200D01*
D17*
X0168200Y0261000D02*
X0173800Y0261000D01*
X0173800Y0271000D02*
X0168200Y0271000D01*
X0168200Y0091000D02*
X0173800Y0091000D01*
X0173800Y0081000D02*
X0168200Y0081000D01*
D18*
X0151000Y0306000D03*
X0141000Y0306000D03*
X0131000Y0306000D03*
X0121000Y0306000D03*
X0111000Y0306000D03*
X0101000Y0306000D03*
X0091000Y0306000D03*
X0081000Y0306000D03*
D19*
X0097260Y0106000D03*
X0104740Y0106000D03*
X0117260Y0066000D03*
X0124740Y0066000D03*
X0124740Y0056000D03*
X0117260Y0056000D03*
X0084740Y0056000D03*
X0077260Y0056000D03*
X0077260Y0066000D03*
X0084740Y0066000D03*
M02*
