%
M48
M72
T01C0.02756
T02C0.03200
T03C0.03600
T04C0.04000
T05C0.11811
%
T01
X38500Y173500
X38500Y178500
X43500Y178500
X43500Y173500
X48500Y173500
X48500Y178500
X53500Y178500
X53500Y173500
X148500Y173500
X148500Y178500
X153500Y178500
X153500Y173500
X158500Y173500
X158500Y178500
X163500Y178500
X163500Y173500
X248500Y173500
X248500Y178500
X253500Y178500
X253500Y173500
X258500Y173500
X258500Y178500
X263500Y178500
X263500Y173500
X358500Y173500
X358500Y178500
X363500Y178500
X363500Y173500
X368500Y173500
X368500Y178500
X373500Y178500
X373500Y173500
X208500Y63500
X208500Y58500
X208500Y53500
X203500Y53500
X203500Y58500
X203500Y63500
X203500Y48500
X208500Y48500
X208500Y293500
X208500Y298500
X208500Y303500
X203500Y303500
X203500Y298500
X203500Y293500
X203500Y308500
X208500Y308500
T02
X151000Y306000
X141000Y306000
X131000Y306000
X121000Y306000
X111000Y306000
X101000Y306000
X91000Y306000
X81000Y306000
X71000Y306000
X61000Y306000
X61000Y271000
X61000Y261000
X71000Y261000
X81000Y261000
X81000Y271000
X71000Y271000
X91000Y271000
X101000Y271000
X111000Y271000
X111000Y261000
X101000Y261000
X91000Y261000
X121000Y261000
X131000Y261000
X131000Y271000
X121000Y271000
X141000Y271000
X141000Y261000
X141000Y226000
X151000Y226000
X131000Y226000
X121000Y226000
X111000Y226000
X101000Y226000
X91000Y226000
X81000Y226000
X71000Y226000
X61000Y226000
X86000Y106000
X81000Y91000
X81000Y81000
X71000Y81000
X71000Y91000
X61000Y91000
X61000Y81000
X66000Y66000
X66000Y56000
X96000Y56000
X106000Y56000
X106000Y66000
X96000Y66000
X91000Y81000
X91000Y91000
X101000Y91000
X101000Y81000
X111000Y81000
X111000Y91000
X121000Y91000
X121000Y81000
X131000Y81000
X131000Y91000
X141000Y91000
X141000Y81000
X136000Y66000
X136000Y56000
X116000Y106000
T03
X171000Y91000
X171000Y81000
X171000Y261000
X171000Y271000
T04
X171000Y296000
X161000Y296000
X151000Y296000
X141000Y296000
X131000Y296000
X121000Y296000
X111000Y296000
X101000Y296000
X91000Y296000
X81000Y296000
X71000Y296000
X61000Y296000
X39900Y278800
X22100Y278800
X22100Y253200
X39900Y253200
X61000Y236000
X71000Y236000
X81000Y236000
X91000Y236000
X101000Y236000
X111000Y236000
X121000Y236000
X131000Y236000
X141000Y236000
X151000Y236000
X161000Y236000
X171000Y236000
T05
X31000Y26000
X31000Y146000
X31000Y206000
X31000Y326000
X171000Y326000
X241000Y326000
X241000Y206000
X241000Y146000
X171000Y146000
X171000Y206000
X171000Y26000
X241000Y26000
X381000Y26000
X381000Y146000
X381000Y206000
X381000Y326000
M30
