%TF.GenerationSoftware,KiCad,Pcbnew,9.0.9-9.0.9~ubuntu24.04.1*%
%TF.CreationDate,2026-06-11T15:59:49+02:00*%
%TF.ProjectId,papertape_pcb,70617065-7274-4617-9065-5f7063622e6b,rev?*%
%TF.SameCoordinates,Original*%
%TF.FileFunction,Profile,NP*%
%FSLAX46Y46*%
G04 Gerber Fmt 4.6, Leading zero omitted, Abs format (unit mm)*
G04 Created by KiCad (PCBNEW 9.0.9-9.0.9~ubuntu24.04.1) date 2026-06-11 15:59:49*
%MOMM*%
%LPD*%
G01*
G04 APERTURE LIST*
%TA.AperFunction,Profile*%
%ADD10C,0.050000*%
%TD*%
G04 APERTURE END LIST*
D10*
X96431100Y-63093600D02*
G75*
G02*
X98971100Y-60553600I2540000J0D01*
G01*
X96431100Y-101193600D02*
X96431100Y-63093600D01*
X96431100Y-108813600D02*
X96431100Y-146913600D01*
X96431100Y-108813600D02*
G75*
G02*
X98971100Y-106273600I2540000J0D01*
G01*
X98971100Y-60553600D02*
X144691100Y-60553600D01*
X98971100Y-103733600D02*
G75*
G02*
X96431100Y-101193600I0J2540000D01*
G01*
X98971100Y-103733600D02*
X104051100Y-103733600D01*
X98971100Y-149453600D02*
G75*
G02*
X96431100Y-146913600I0J2540000D01*
G01*
X98971100Y-149453600D02*
X144691100Y-149453600D01*
X104051100Y-103733600D02*
G75*
G02*
X105321100Y-105003600I0J-1270000D01*
G01*
X104051100Y-106273600D02*
X98971100Y-106273600D01*
X105321100Y-105003600D02*
G75*
G02*
X104051100Y-106273600I-1270000J0D01*
G01*
X110401100Y-105003600D02*
G75*
G02*
X111671100Y-103733600I1270000J0D01*
G01*
X111671100Y-103733600D02*
X131991100Y-103733600D01*
X111671100Y-106273600D02*
G75*
G02*
X110401100Y-105003600I0J1270000D01*
G01*
X131991100Y-103733600D02*
G75*
G02*
X133261100Y-105003600I0J-1270000D01*
G01*
X131991100Y-106273600D02*
X111671100Y-106273600D01*
X133261100Y-105003600D02*
G75*
G02*
X131991100Y-106273600I-1270000J0D01*
G01*
X138341100Y-105003600D02*
G75*
G02*
X139611100Y-103733600I1270000J0D01*
G01*
X139611100Y-103733600D02*
X144691100Y-103733600D01*
X139611100Y-106273600D02*
G75*
G02*
X138341100Y-105003600I0J1270000D01*
G01*
X144691100Y-60553600D02*
G75*
G02*
X147231100Y-63093600I0J-2540000D01*
G01*
X144691100Y-106273600D02*
X139611100Y-106273600D01*
X144691100Y-106273600D02*
G75*
G02*
X147231100Y-108813600I0J-2540000D01*
G01*
X147231100Y-63093600D02*
X147231100Y-69443600D01*
X147231100Y-77063600D02*
G75*
G02*
X148501100Y-75793600I1270000J0D01*
G01*
X147231100Y-101193600D02*
G75*
G02*
X144691100Y-103733600I-2540000J0D01*
G01*
X147231100Y-101193600D02*
X147231100Y-77063600D01*
X147231100Y-131673600D02*
X147231100Y-108813600D01*
X147231100Y-139293600D02*
G75*
G02*
X148501100Y-138023600I1270000J0D01*
G01*
X147231100Y-146913600D02*
G75*
G02*
X144691100Y-149453600I-2540000J0D01*
G01*
X147231100Y-146913600D02*
X147231100Y-139293600D01*
X148501100Y-70713600D02*
G75*
G02*
X147231100Y-69443600I0J1270000D01*
G01*
X148501100Y-75793600D02*
G75*
G02*
X149771100Y-77063600I0J-1270000D01*
G01*
X148501100Y-132943600D02*
G75*
G02*
X147231100Y-131673600I0J1270000D01*
G01*
X148501100Y-138023600D02*
G75*
G02*
X149771100Y-139293600I0J-1270000D01*
G01*
X149771100Y-63093600D02*
X149771100Y-69443600D01*
X149771100Y-63093600D02*
G75*
G02*
X152311100Y-60553600I2540000J0D01*
G01*
X149771100Y-69443600D02*
G75*
G02*
X148501100Y-70713600I-1270000J0D01*
G01*
X149771100Y-101193600D02*
X149771100Y-77063600D01*
X149771100Y-108813600D02*
X149771100Y-131673600D01*
X149771100Y-108813600D02*
G75*
G02*
X152311100Y-106273600I2540000J0D01*
G01*
X149771100Y-131673600D02*
G75*
G02*
X148501100Y-132943600I-1270000J0D01*
G01*
X149771100Y-139293600D02*
X149771100Y-146913600D01*
X152311100Y-60553600D02*
X198031100Y-60553600D01*
X152311100Y-103733600D02*
G75*
G02*
X149771100Y-101193600I0J2540000D01*
G01*
X152311100Y-103733600D02*
X157391100Y-103733600D01*
X152311100Y-149453600D02*
G75*
G02*
X149771100Y-146913600I0J2540000D01*
G01*
X152311100Y-149453600D02*
X198031100Y-149453600D01*
X157391100Y-103733600D02*
G75*
G02*
X158661100Y-105003600I0J-1270000D01*
G01*
X157391100Y-106273600D02*
X152311100Y-106273600D01*
X158661100Y-105003600D02*
G75*
G02*
X157391100Y-106273600I-1270000J0D01*
G01*
X163741100Y-105003600D02*
G75*
G02*
X165011100Y-103733600I1270000J0D01*
G01*
X165011100Y-103733600D02*
X185331100Y-103733600D01*
X165011100Y-106273600D02*
G75*
G02*
X163741100Y-105003600I0J1270000D01*
G01*
X185331100Y-103733600D02*
G75*
G02*
X186601100Y-105003600I0J-1270000D01*
G01*
X185331100Y-106273600D02*
X165011100Y-106273600D01*
X186601100Y-105003600D02*
G75*
G02*
X185331100Y-106273600I-1270000J0D01*
G01*
X191046100Y-79603600D02*
G75*
G02*
X191681100Y-78968600I635000J0D01*
G01*
X191046100Y-84683600D02*
X191046100Y-79603600D01*
X191046100Y-125323600D02*
G75*
G02*
X191681100Y-124688600I635000J0D01*
G01*
X191046100Y-130403600D02*
X191046100Y-125323600D01*
X191681100Y-78968600D02*
X194221100Y-78968600D01*
X191681100Y-85318600D02*
G75*
G02*
X191046100Y-84683600I0J635000D01*
G01*
X191681100Y-105003600D02*
G75*
G02*
X192951100Y-103733600I1270000J0D01*
G01*
X191681100Y-124688600D02*
X194221100Y-124688600D01*
X191681100Y-131038600D02*
G75*
G02*
X191046100Y-130403600I0J635000D01*
G01*
X192951100Y-103733600D02*
X198031100Y-103733600D01*
X192951100Y-106273600D02*
G75*
G02*
X191681100Y-105003600I0J1270000D01*
G01*
X192951100Y-106273600D02*
X198031100Y-106273600D01*
X194221100Y-78968600D02*
G75*
G02*
X194856100Y-79603600I0J-635000D01*
G01*
X194221100Y-85318600D02*
X191681100Y-85318600D01*
X194221100Y-124688600D02*
G75*
G02*
X194856100Y-125323600I0J-635000D01*
G01*
X194221100Y-131038600D02*
X191681100Y-131038600D01*
X194856100Y-79603600D02*
X194856100Y-84683600D01*
X194856100Y-84683600D02*
G75*
G02*
X194221100Y-85318600I-635000J0D01*
G01*
X194856100Y-125323600D02*
X194856100Y-130403600D01*
X194856100Y-130403600D02*
G75*
G02*
X194221100Y-131038600I-635000J0D01*
G01*
X198031100Y-60553600D02*
G75*
G02*
X200571100Y-63093600I0J-2540000D01*
G01*
X198031100Y-106273600D02*
G75*
G02*
X200571100Y-108813600I0J-2540000D01*
G01*
X200571100Y-63093600D02*
X200571100Y-101193600D01*
X200571100Y-101193600D02*
G75*
G02*
X198031100Y-103733600I-2540000J0D01*
G01*
X200571100Y-108813600D02*
X200571100Y-146913600D01*
X200571100Y-146913600D02*
G75*
G02*
X198031100Y-149453600I-2540000J0D01*
G01*
X101790000Y-124610000D02*
X101790000Y-131110000D01*
X101790000Y-131110000D02*
X106310000Y-131110000D01*
X106310000Y-131110000D02*
X106310000Y-124610000D01*
X106310000Y-124610000D02*
X101790000Y-124610000D01*
M02*
