G75*
%MOIN*%
%OFA0B0*%
%FSLAX25Y25*%
%IPPOS*%
%LPD*%
%AMOC8*
5,1,8,0,0,1.08239X$1,22.5*
%
%ADD10C,0.01000*%
%ADD11C,0.00400*%
%ADD12C,0.00500*%
%ADD13C,0.00600*%
%ADD14C,0.03200*%
%ADD15C,0.00492*%
%ADD16C,0.01600*%
%ADD17C,0.01200*%
%ADD18R,0.01500X0.02000*%
%ADD19C,0.00200*%
D10*
X0151000Y0078500D02*
X0151000Y0083500D01*
X0154750Y0086000D02*
X0157250Y0088500D01*
X0156000Y0088500D01*
X0157250Y0088500D02*
X0157250Y0087250D01*
X0154750Y0089750D02*
X0157250Y0092250D01*
X0157250Y0091000D01*
X0157250Y0092250D02*
X0156000Y0092250D01*
X0153500Y0088500D02*
X0151000Y0088500D01*
X0151000Y0093500D01*
X0151000Y0088500D02*
X0148500Y0088500D01*
X0151000Y0186000D02*
X0151000Y0216000D01*
X0156000Y0301000D02*
X0076000Y0301000D01*
X0076000Y0311000D01*
X0156000Y0311000D01*
X0156000Y0301000D01*
X0151000Y0321000D02*
X0151000Y0346000D01*
X0051000Y0346000D02*
X0051000Y0311000D01*
X0051000Y0216000D02*
X0051000Y0186000D01*
X0261000Y0186000D02*
X0261000Y0346000D01*
X0321000Y0258500D02*
X0323500Y0256000D01*
X0321000Y0258500D02*
X0318500Y0256000D01*
X0321000Y0258500D02*
X0321000Y0251000D01*
X0361000Y0186000D02*
X0361000Y0346000D01*
D11*
X0054950Y0058404D02*
X0054950Y0053800D01*
X0054950Y0055335D02*
X0057252Y0055335D01*
X0058019Y0056102D01*
X0058019Y0057637D01*
X0057252Y0058404D01*
X0054950Y0058404D01*
X0056485Y0055335D02*
X0058019Y0053800D01*
X0059554Y0054567D02*
X0060321Y0053800D01*
X0061856Y0053800D01*
X0062623Y0054567D01*
X0062623Y0055335D01*
X0061856Y0056102D01*
X0061089Y0056102D01*
X0061856Y0056102D02*
X0062623Y0056869D01*
X0062623Y0057637D01*
X0061856Y0058404D01*
X0060321Y0058404D01*
X0059554Y0057637D01*
X0058019Y0063800D02*
X0056485Y0065335D01*
X0057252Y0065335D02*
X0054950Y0065335D01*
X0054950Y0063800D02*
X0054950Y0068404D01*
X0057252Y0068404D01*
X0058019Y0067637D01*
X0058019Y0066102D01*
X0057252Y0065335D01*
X0059554Y0066102D02*
X0062623Y0066102D01*
X0061856Y0068404D02*
X0059554Y0066102D01*
X0061856Y0063800D02*
X0061856Y0068404D01*
X0073700Y0103800D02*
X0073700Y0108404D01*
X0076002Y0108404D01*
X0076769Y0107637D01*
X0076769Y0106102D01*
X0076002Y0105335D01*
X0073700Y0105335D01*
X0075235Y0105335D02*
X0076769Y0103800D01*
X0078304Y0104567D02*
X0079071Y0103800D01*
X0080606Y0103800D01*
X0081373Y0104567D01*
X0081373Y0106102D01*
X0080606Y0106869D01*
X0079839Y0106869D01*
X0078304Y0106102D01*
X0078304Y0108404D01*
X0081373Y0108404D01*
X0082800Y0118700D02*
X0078196Y0118700D01*
X0078196Y0123304D02*
X0082800Y0123304D01*
X0082800Y0126373D01*
X0082800Y0127908D02*
X0082800Y0130210D01*
X0082033Y0130977D01*
X0078963Y0130977D01*
X0078196Y0130210D01*
X0078196Y0127908D01*
X0082800Y0127908D01*
X0080498Y0124839D02*
X0080498Y0123304D01*
X0078196Y0123304D02*
X0078196Y0126373D01*
X0072800Y0126373D02*
X0072800Y0123304D01*
X0068196Y0123304D01*
X0068196Y0126373D01*
X0068196Y0127908D02*
X0068196Y0130210D01*
X0068963Y0130977D01*
X0072033Y0130977D01*
X0072800Y0130210D01*
X0072800Y0127908D01*
X0068196Y0127908D01*
X0070498Y0124839D02*
X0070498Y0123304D01*
X0072800Y0121769D02*
X0072800Y0118700D01*
X0068196Y0118700D01*
X0062800Y0118700D02*
X0062800Y0121769D01*
X0062800Y0123304D02*
X0062800Y0126373D01*
X0062800Y0127908D02*
X0062800Y0130210D01*
X0062033Y0130977D01*
X0058963Y0130977D01*
X0058196Y0130210D01*
X0058196Y0127908D01*
X0062800Y0127908D01*
X0060498Y0124839D02*
X0060498Y0123304D01*
X0058196Y0123304D02*
X0062800Y0123304D01*
X0058196Y0123304D02*
X0058196Y0126373D01*
X0058963Y0132512D02*
X0059731Y0132512D01*
X0060498Y0133279D01*
X0060498Y0135581D01*
X0058963Y0135581D02*
X0058196Y0134814D01*
X0058196Y0133279D01*
X0058963Y0132512D01*
X0058963Y0135581D02*
X0062033Y0135581D01*
X0062800Y0134814D01*
X0062800Y0133279D01*
X0062033Y0132512D01*
X0068196Y0133279D02*
X0068196Y0134814D01*
X0068963Y0135581D01*
X0069731Y0135581D01*
X0070498Y0134814D01*
X0070498Y0133279D01*
X0069731Y0132512D01*
X0068963Y0132512D01*
X0068196Y0133279D01*
X0070498Y0133279D02*
X0071265Y0132512D01*
X0072033Y0132512D01*
X0072800Y0133279D01*
X0072800Y0134814D01*
X0072033Y0135581D01*
X0071265Y0135581D01*
X0070498Y0134814D01*
X0078196Y0135581D02*
X0078196Y0132512D01*
X0078196Y0135581D02*
X0078963Y0135581D01*
X0082033Y0132512D01*
X0082800Y0132512D01*
X0088196Y0130210D02*
X0088196Y0127908D01*
X0092800Y0127908D01*
X0092800Y0130210D01*
X0092033Y0130977D01*
X0088963Y0130977D01*
X0088196Y0130210D01*
X0090498Y0132512D02*
X0090498Y0134814D01*
X0091265Y0135581D01*
X0092033Y0135581D01*
X0092800Y0134814D01*
X0092800Y0133279D01*
X0092033Y0132512D01*
X0090498Y0132512D01*
X0088963Y0134046D01*
X0088196Y0135581D01*
X0088196Y0126373D02*
X0088196Y0123304D01*
X0092800Y0123304D01*
X0092800Y0126373D01*
X0090498Y0124839D02*
X0090498Y0123304D01*
X0092800Y0121769D02*
X0092800Y0118700D01*
X0088196Y0118700D01*
X0082800Y0118700D02*
X0082800Y0121769D01*
X0098196Y0123304D02*
X0102800Y0123304D01*
X0102800Y0126373D01*
X0102800Y0127908D02*
X0102800Y0130210D01*
X0102033Y0130977D01*
X0098963Y0130977D01*
X0098196Y0130210D01*
X0098196Y0127908D01*
X0102800Y0127908D01*
X0100498Y0124839D02*
X0100498Y0123304D01*
X0098196Y0123304D02*
X0098196Y0126373D01*
X0098196Y0132512D02*
X0100498Y0132512D01*
X0099731Y0134046D01*
X0099731Y0134814D01*
X0100498Y0135581D01*
X0102033Y0135581D01*
X0102800Y0134814D01*
X0102800Y0133279D01*
X0102033Y0132512D01*
X0098196Y0132512D02*
X0098196Y0135581D01*
X0108196Y0134814D02*
X0110498Y0132512D01*
X0110498Y0135581D01*
X0112800Y0134814D02*
X0108196Y0134814D01*
X0108963Y0130977D02*
X0108196Y0130210D01*
X0108196Y0127908D01*
X0112800Y0127908D01*
X0112800Y0130210D01*
X0112033Y0130977D01*
X0108963Y0130977D01*
X0108196Y0126373D02*
X0108196Y0123304D01*
X0112800Y0123304D01*
X0112800Y0126373D01*
X0110498Y0124839D02*
X0110498Y0123304D01*
X0112800Y0121769D02*
X0112800Y0118700D01*
X0108196Y0118700D01*
X0102800Y0118700D02*
X0102800Y0121769D01*
X0102800Y0118700D02*
X0098196Y0118700D01*
X0118196Y0118700D02*
X0122800Y0118700D01*
X0122800Y0121769D01*
X0122800Y0123304D02*
X0122800Y0126373D01*
X0122800Y0127908D02*
X0122800Y0130210D01*
X0122033Y0130977D01*
X0118963Y0130977D01*
X0118196Y0130210D01*
X0118196Y0127908D01*
X0122800Y0127908D01*
X0120498Y0124839D02*
X0120498Y0123304D01*
X0118196Y0123304D02*
X0122800Y0123304D01*
X0118196Y0123304D02*
X0118196Y0126373D01*
X0118963Y0132512D02*
X0118196Y0133279D01*
X0118196Y0134814D01*
X0118963Y0135581D01*
X0119731Y0135581D01*
X0120498Y0134814D01*
X0121265Y0135581D01*
X0122033Y0135581D01*
X0122800Y0134814D01*
X0122800Y0133279D01*
X0122033Y0132512D01*
X0120498Y0134046D02*
X0120498Y0134814D01*
X0128196Y0134814D02*
X0128196Y0133279D01*
X0128963Y0132512D01*
X0128963Y0130977D02*
X0128196Y0130210D01*
X0128196Y0127908D01*
X0132800Y0127908D01*
X0132800Y0130210D01*
X0132033Y0130977D01*
X0128963Y0130977D01*
X0128196Y0134814D02*
X0128963Y0135581D01*
X0129731Y0135581D01*
X0132800Y0132512D01*
X0132800Y0135581D01*
X0138196Y0134046D02*
X0139731Y0132512D01*
X0138963Y0130977D02*
X0138196Y0130210D01*
X0138196Y0127908D01*
X0142800Y0127908D01*
X0142800Y0130210D01*
X0142033Y0130977D01*
X0138963Y0130977D01*
X0138196Y0134046D02*
X0142800Y0134046D01*
X0142800Y0132512D02*
X0142800Y0135581D01*
X0142800Y0126373D02*
X0142800Y0123304D01*
X0138196Y0123304D01*
X0138196Y0126373D01*
X0140498Y0124839D02*
X0140498Y0123304D01*
X0142800Y0121769D02*
X0142800Y0118700D01*
X0138196Y0118700D01*
X0132800Y0118700D02*
X0132800Y0121769D01*
X0132800Y0123304D02*
X0132800Y0126373D01*
X0130498Y0124839D02*
X0130498Y0123304D01*
X0128196Y0123304D02*
X0132800Y0123304D01*
X0128196Y0123304D02*
X0128196Y0126373D01*
X0128196Y0118700D02*
X0132800Y0118700D01*
X0168696Y0110210D02*
X0168696Y0107908D01*
X0173300Y0107908D01*
X0173300Y0110210D01*
X0172533Y0110977D01*
X0169463Y0110977D01*
X0168696Y0110210D01*
X0168696Y0106373D02*
X0173300Y0106373D01*
X0168696Y0103304D01*
X0173300Y0103304D01*
X0172533Y0101769D02*
X0170998Y0101769D01*
X0170998Y0100235D01*
X0169463Y0101769D02*
X0168696Y0101002D01*
X0168696Y0099467D01*
X0169463Y0098700D01*
X0172533Y0098700D01*
X0173300Y0099467D01*
X0173300Y0101002D01*
X0172533Y0101769D01*
X0180463Y0090977D02*
X0179696Y0090210D01*
X0179696Y0088675D01*
X0180463Y0087908D01*
X0180463Y0086373D02*
X0181998Y0086373D01*
X0182765Y0085606D01*
X0182765Y0083304D01*
X0184300Y0083304D02*
X0179696Y0083304D01*
X0179696Y0085606D01*
X0180463Y0086373D01*
X0184300Y0087908D02*
X0181231Y0090977D01*
X0180463Y0090977D01*
X0184300Y0090977D02*
X0184300Y0087908D01*
X0183533Y0081002D02*
X0179696Y0081002D01*
X0179696Y0080235D02*
X0179696Y0081769D01*
X0183533Y0081002D02*
X0184300Y0080235D01*
X0184300Y0079467D01*
X0183533Y0078700D01*
X0173300Y0071089D02*
X0171765Y0072623D01*
X0168696Y0072623D01*
X0168696Y0069554D02*
X0171765Y0069554D01*
X0173300Y0071089D01*
X0172533Y0068019D02*
X0173300Y0067252D01*
X0173300Y0065717D01*
X0172533Y0064950D01*
X0170998Y0064950D02*
X0170231Y0066485D01*
X0170231Y0067252D01*
X0170998Y0068019D01*
X0172533Y0068019D01*
X0170998Y0064950D02*
X0168696Y0064950D01*
X0168696Y0068019D01*
X0147623Y0063800D02*
X0144554Y0063800D01*
X0146089Y0063800D02*
X0146089Y0068404D01*
X0144554Y0066869D01*
X0143019Y0066102D02*
X0142252Y0065335D01*
X0139950Y0065335D01*
X0141485Y0065335D02*
X0143019Y0063800D01*
X0143019Y0066102D02*
X0143019Y0067637D01*
X0142252Y0068404D01*
X0139950Y0068404D01*
X0139950Y0063800D01*
X0139950Y0058404D02*
X0142252Y0058404D01*
X0143019Y0057637D01*
X0143019Y0056102D01*
X0142252Y0055335D01*
X0139950Y0055335D01*
X0141485Y0055335D02*
X0143019Y0053800D01*
X0144554Y0053800D02*
X0147623Y0056869D01*
X0147623Y0057637D01*
X0146856Y0058404D01*
X0145321Y0058404D01*
X0144554Y0057637D01*
X0144554Y0053800D02*
X0147623Y0053800D01*
X0139950Y0053800D02*
X0139950Y0058404D01*
X0062800Y0118700D02*
X0058196Y0118700D01*
X0058696Y0199096D02*
X0058696Y0202165D01*
X0059463Y0202165D01*
X0062533Y0199096D01*
X0063300Y0199096D01*
X0068696Y0202165D02*
X0069463Y0200631D01*
X0070998Y0199096D01*
X0070998Y0201398D01*
X0071765Y0202165D01*
X0072533Y0202165D01*
X0073300Y0201398D01*
X0073300Y0199863D01*
X0072533Y0199096D01*
X0070998Y0199096D01*
X0078696Y0199096D02*
X0080998Y0199096D01*
X0080231Y0200631D01*
X0080231Y0201398D01*
X0080998Y0202165D01*
X0082533Y0202165D01*
X0083300Y0201398D01*
X0083300Y0199863D01*
X0082533Y0199096D01*
X0078696Y0199096D02*
X0078696Y0202165D01*
X0088696Y0201398D02*
X0090998Y0199096D01*
X0090998Y0202165D01*
X0093300Y0201398D02*
X0088696Y0201398D01*
X0098696Y0201398D02*
X0099463Y0202165D01*
X0100231Y0202165D01*
X0100998Y0201398D01*
X0101765Y0202165D01*
X0102533Y0202165D01*
X0103300Y0201398D01*
X0103300Y0199863D01*
X0102533Y0199096D01*
X0100998Y0200631D02*
X0100998Y0201398D01*
X0098696Y0201398D02*
X0098696Y0199863D01*
X0099463Y0199096D01*
X0118696Y0199863D02*
X0119463Y0199096D01*
X0118696Y0199863D02*
X0118696Y0201398D01*
X0119463Y0202165D01*
X0120231Y0202165D01*
X0123300Y0199096D01*
X0123300Y0202165D01*
X0128696Y0200631D02*
X0133300Y0200631D01*
X0133300Y0202165D02*
X0133300Y0199096D01*
X0130231Y0199096D02*
X0128696Y0200631D01*
X0138696Y0201398D02*
X0139463Y0202165D01*
X0142533Y0199096D01*
X0143300Y0199863D01*
X0143300Y0201398D01*
X0142533Y0202165D01*
X0139463Y0202165D01*
X0138696Y0201398D02*
X0138696Y0199863D01*
X0139463Y0199096D01*
X0142533Y0199096D01*
X0163700Y0223700D02*
X0163700Y0228304D01*
X0166002Y0228304D01*
X0166769Y0227537D01*
X0166769Y0226002D01*
X0166002Y0225235D01*
X0163700Y0225235D01*
X0165235Y0225235D02*
X0166769Y0223700D01*
X0168304Y0223700D02*
X0168304Y0228304D01*
X0171373Y0223700D01*
X0171373Y0228304D01*
X0172908Y0226769D02*
X0174442Y0228304D01*
X0174442Y0223700D01*
X0172908Y0223700D02*
X0175977Y0223700D01*
X0152300Y0246250D02*
X0147696Y0246250D01*
X0147696Y0248552D01*
X0148463Y0249319D01*
X0149998Y0249319D01*
X0150765Y0248552D01*
X0150765Y0246250D01*
X0150765Y0250854D02*
X0150765Y0253155D01*
X0149998Y0253923D01*
X0148463Y0253923D01*
X0147696Y0253155D01*
X0147696Y0250854D01*
X0152300Y0250854D01*
X0150765Y0252388D02*
X0152300Y0253923D01*
X0151533Y0255457D02*
X0152300Y0256225D01*
X0152300Y0257759D01*
X0151533Y0258527D01*
X0148463Y0258527D01*
X0147696Y0257759D01*
X0147696Y0256225D01*
X0148463Y0255457D01*
X0151533Y0255457D01*
X0156196Y0255123D02*
X0159265Y0255123D01*
X0160800Y0253589D01*
X0159265Y0252054D01*
X0156196Y0252054D01*
X0156196Y0250519D02*
X0156196Y0247450D01*
X0158498Y0247450D01*
X0157731Y0248985D01*
X0157731Y0249752D01*
X0158498Y0250519D01*
X0160033Y0250519D01*
X0160800Y0249752D01*
X0160800Y0248217D01*
X0160033Y0247450D01*
X0160800Y0261262D02*
X0160800Y0264331D01*
X0160800Y0262796D02*
X0156196Y0262796D01*
X0157731Y0261262D01*
X0158498Y0265866D02*
X0158498Y0268168D01*
X0159265Y0268935D01*
X0160033Y0268935D01*
X0160800Y0268168D01*
X0160800Y0266633D01*
X0160033Y0265866D01*
X0158498Y0265866D01*
X0156963Y0267400D01*
X0156196Y0268935D01*
X0156196Y0270470D02*
X0157731Y0272004D01*
X0156196Y0273539D01*
X0160800Y0273539D01*
X0160800Y0275074D02*
X0156196Y0275074D01*
X0158498Y0275074D02*
X0158498Y0278143D01*
X0157731Y0279677D02*
X0157731Y0282747D01*
X0160800Y0279677D01*
X0160800Y0282747D01*
X0160800Y0278143D02*
X0156196Y0278143D01*
X0152300Y0276942D02*
X0147696Y0276942D01*
X0147696Y0279244D01*
X0148463Y0280012D01*
X0149998Y0280012D01*
X0150765Y0279244D01*
X0150765Y0276942D01*
X0150765Y0278477D02*
X0152300Y0280012D01*
X0151533Y0281546D02*
X0152300Y0282314D01*
X0152300Y0283848D01*
X0151533Y0284616D01*
X0148463Y0284616D01*
X0147696Y0283848D01*
X0147696Y0282314D01*
X0148463Y0281546D01*
X0151533Y0281546D01*
X0151533Y0275408D02*
X0152300Y0274640D01*
X0152300Y0273106D01*
X0151533Y0272339D01*
X0148463Y0272339D01*
X0147696Y0273106D01*
X0147696Y0274640D01*
X0148463Y0275408D01*
X0147696Y0270804D02*
X0147696Y0269269D01*
X0147696Y0270037D02*
X0152300Y0270037D01*
X0152300Y0270804D02*
X0152300Y0269269D01*
X0152300Y0267735D02*
X0147696Y0267735D01*
X0149231Y0266200D01*
X0147696Y0264665D01*
X0152300Y0264665D01*
X0153067Y0263131D02*
X0153067Y0260061D01*
X0156196Y0270470D02*
X0160800Y0270470D01*
X0177696Y0284096D02*
X0181533Y0284096D01*
X0182300Y0284863D01*
X0182300Y0286398D01*
X0181533Y0287165D01*
X0177696Y0287165D01*
X0179231Y0288700D02*
X0177696Y0290235D01*
X0182300Y0290235D01*
X0182300Y0291769D02*
X0182300Y0288700D01*
X0149665Y0313700D02*
X0146596Y0318304D01*
X0145061Y0318304D02*
X0141992Y0318304D01*
X0143527Y0318304D02*
X0143527Y0313700D01*
X0146596Y0313700D02*
X0149665Y0318304D01*
X0132165Y0318304D02*
X0129096Y0318304D01*
X0130631Y0318304D02*
X0130631Y0313700D01*
X0127561Y0314467D02*
X0126794Y0313700D01*
X0125259Y0313700D01*
X0124492Y0314467D01*
X0125259Y0316002D02*
X0126794Y0316002D01*
X0127561Y0315235D01*
X0127561Y0314467D01*
X0125259Y0316002D02*
X0124492Y0316769D01*
X0124492Y0317537D01*
X0125259Y0318304D01*
X0126794Y0318304D01*
X0127561Y0317537D01*
X0122957Y0318304D02*
X0119888Y0318304D01*
X0121423Y0318304D02*
X0121423Y0313700D01*
X0110790Y0314985D02*
X0110790Y0318054D01*
X0107721Y0318054D02*
X0107721Y0314985D01*
X0109256Y0313450D01*
X0110790Y0314985D01*
X0106186Y0313450D02*
X0106186Y0318054D01*
X0103117Y0318054D02*
X0106186Y0313450D01*
X0103117Y0313450D02*
X0103117Y0318054D01*
X0101582Y0318054D02*
X0100048Y0318054D01*
X0100815Y0318054D02*
X0100815Y0313450D01*
X0100048Y0313450D02*
X0101582Y0313450D01*
X0093415Y0318304D02*
X0090346Y0318304D01*
X0088811Y0318304D02*
X0087277Y0318304D01*
X0088044Y0318304D02*
X0088044Y0313700D01*
X0087277Y0313700D02*
X0088811Y0313700D01*
X0091881Y0313700D02*
X0091881Y0318304D01*
X0085742Y0317537D02*
X0085742Y0316769D01*
X0084975Y0316002D01*
X0082673Y0316002D01*
X0081138Y0316002D02*
X0081138Y0314467D01*
X0080371Y0313700D01*
X0078836Y0313700D01*
X0078069Y0314467D01*
X0078069Y0316002D02*
X0079604Y0316769D01*
X0080371Y0316769D01*
X0081138Y0316002D01*
X0081138Y0318304D02*
X0078069Y0318304D01*
X0078069Y0316002D01*
X0082673Y0313700D02*
X0082673Y0318304D01*
X0084975Y0318304D01*
X0085742Y0317537D01*
X0084975Y0316002D02*
X0085742Y0315235D01*
X0085742Y0314467D01*
X0084975Y0313700D01*
X0082673Y0313700D01*
X0069665Y0313700D02*
X0066596Y0313700D01*
X0068131Y0313700D02*
X0068131Y0318304D01*
X0066596Y0316769D01*
X0065061Y0317537D02*
X0064294Y0318304D01*
X0062759Y0318304D01*
X0061992Y0317537D01*
X0061992Y0314467D01*
X0062759Y0313700D01*
X0064294Y0313700D01*
X0065061Y0314467D01*
X0273700Y0245804D02*
X0273700Y0241200D01*
X0276002Y0241200D01*
X0276769Y0241967D01*
X0276769Y0242735D01*
X0276002Y0243502D01*
X0273700Y0243502D01*
X0273700Y0245804D02*
X0276002Y0245804D01*
X0276769Y0245037D01*
X0276769Y0244269D01*
X0276002Y0243502D01*
X0278304Y0245804D02*
X0279071Y0245804D01*
X0279071Y0241200D01*
X0278304Y0241200D02*
X0279839Y0241200D01*
X0281373Y0241200D02*
X0282908Y0241200D01*
X0282141Y0241200D02*
X0282141Y0244269D01*
X0281373Y0244269D01*
X0282141Y0245804D02*
X0282141Y0246571D01*
X0284442Y0244269D02*
X0284442Y0241200D01*
X0284442Y0244269D02*
X0286744Y0244269D01*
X0287512Y0243502D01*
X0287512Y0241200D01*
X0289046Y0241967D02*
X0289046Y0243502D01*
X0289814Y0244269D01*
X0292116Y0244269D01*
X0292116Y0245804D02*
X0292116Y0241200D01*
X0289814Y0241200D01*
X0289046Y0241967D01*
X0289814Y0236769D02*
X0292116Y0236769D01*
X0292883Y0236002D01*
X0292883Y0234467D01*
X0292116Y0233700D01*
X0289814Y0233700D01*
X0289814Y0232165D02*
X0289814Y0236769D01*
X0294418Y0236002D02*
X0295185Y0236769D01*
X0296720Y0236769D01*
X0297487Y0236002D01*
X0297487Y0233700D01*
X0299022Y0234467D02*
X0299789Y0233700D01*
X0301324Y0233700D01*
X0302091Y0234467D01*
X0302091Y0236002D01*
X0301324Y0236769D01*
X0299789Y0236769D01*
X0299022Y0236002D01*
X0299022Y0234467D01*
X0294418Y0233700D02*
X0294418Y0238304D01*
X0298254Y0241200D02*
X0298254Y0245804D01*
X0299022Y0244269D02*
X0300556Y0244269D01*
X0301324Y0243502D01*
X0301324Y0241200D01*
X0302858Y0241967D02*
X0303625Y0241200D01*
X0305160Y0241200D01*
X0305927Y0241967D01*
X0305927Y0243502D01*
X0305160Y0244269D01*
X0303625Y0244269D01*
X0302858Y0243502D01*
X0302858Y0241967D01*
X0299022Y0244269D02*
X0298254Y0243502D01*
X0304393Y0237537D02*
X0304393Y0234467D01*
X0305160Y0233700D01*
X0306695Y0234467D02*
X0307462Y0233700D01*
X0308997Y0233700D01*
X0309764Y0234467D01*
X0309764Y0236002D01*
X0308997Y0236769D01*
X0307462Y0236769D01*
X0306695Y0236002D01*
X0306695Y0234467D01*
X0305160Y0236769D02*
X0303626Y0236769D01*
X0307462Y0241200D02*
X0308997Y0241200D01*
X0308229Y0241200D02*
X0308229Y0245804D01*
X0307462Y0245804D01*
X0310531Y0243502D02*
X0310531Y0241967D01*
X0311299Y0241200D01*
X0312833Y0241200D01*
X0313601Y0242735D02*
X0310531Y0242735D01*
X0310531Y0243502D02*
X0311299Y0244269D01*
X0312833Y0244269D01*
X0313601Y0243502D01*
X0313601Y0242735D01*
X0312066Y0237537D02*
X0312066Y0234467D01*
X0312833Y0233700D01*
X0314368Y0233700D02*
X0314368Y0236769D01*
X0314368Y0235235D02*
X0315903Y0236769D01*
X0316670Y0236769D01*
X0318972Y0236769D02*
X0320507Y0236769D01*
X0321274Y0236002D01*
X0321274Y0233700D01*
X0318972Y0233700D01*
X0318205Y0234467D01*
X0318972Y0235235D01*
X0321274Y0235235D01*
X0322809Y0236769D02*
X0325110Y0236769D01*
X0325878Y0236002D01*
X0325878Y0233700D01*
X0327412Y0233700D02*
X0329714Y0233700D01*
X0330482Y0234467D01*
X0329714Y0235235D01*
X0328180Y0235235D01*
X0327412Y0236002D01*
X0328180Y0236769D01*
X0330482Y0236769D01*
X0332016Y0236769D02*
X0332784Y0236769D01*
X0332784Y0233700D01*
X0333551Y0233700D02*
X0332016Y0233700D01*
X0335086Y0233700D02*
X0337388Y0233700D01*
X0338155Y0234467D01*
X0337388Y0235235D01*
X0335853Y0235235D01*
X0335086Y0236002D01*
X0335853Y0236769D01*
X0338155Y0236769D01*
X0339690Y0236769D02*
X0341224Y0236769D01*
X0340457Y0237537D02*
X0340457Y0234467D01*
X0341224Y0233700D01*
X0342759Y0234467D02*
X0342759Y0236002D01*
X0343526Y0236769D01*
X0345061Y0236769D01*
X0345828Y0236002D01*
X0345828Y0234467D01*
X0345061Y0233700D01*
X0343526Y0233700D01*
X0342759Y0234467D01*
X0347363Y0233700D02*
X0347363Y0236769D01*
X0347363Y0235235D02*
X0348897Y0236769D01*
X0349665Y0236769D01*
X0338922Y0241200D02*
X0338922Y0243502D01*
X0338155Y0244269D01*
X0337388Y0243502D01*
X0337388Y0241200D01*
X0335853Y0241200D02*
X0335853Y0244269D01*
X0336620Y0244269D01*
X0337388Y0243502D01*
X0334318Y0243502D02*
X0334318Y0241200D01*
X0332784Y0241200D02*
X0332784Y0243502D01*
X0333551Y0244269D01*
X0334318Y0243502D01*
X0332784Y0243502D02*
X0332016Y0244269D01*
X0331249Y0244269D01*
X0331249Y0241200D01*
X0329714Y0241967D02*
X0328947Y0241200D01*
X0327412Y0241200D01*
X0326645Y0241967D01*
X0326645Y0242735D01*
X0327412Y0243502D01*
X0328947Y0243502D01*
X0329714Y0242735D01*
X0329714Y0241967D01*
X0328947Y0243502D02*
X0329714Y0244269D01*
X0329714Y0245037D01*
X0328947Y0245804D01*
X0327412Y0245804D01*
X0326645Y0245037D01*
X0326645Y0244269D01*
X0327412Y0243502D01*
X0325110Y0241967D02*
X0325110Y0241200D01*
X0324343Y0241200D01*
X0324343Y0241967D01*
X0325110Y0241967D01*
X0322809Y0241200D02*
X0319739Y0241200D01*
X0321274Y0241200D02*
X0321274Y0245804D01*
X0319739Y0244269D01*
X0322809Y0236769D02*
X0322809Y0233700D01*
X0332784Y0238304D02*
X0332784Y0239071D01*
X0312833Y0236769D02*
X0311299Y0236769D01*
X0283675Y0236769D02*
X0282908Y0236769D01*
X0281373Y0235235D01*
X0281373Y0236769D02*
X0281373Y0233700D01*
X0279839Y0234467D02*
X0279839Y0236002D01*
X0279071Y0236769D01*
X0277537Y0236769D01*
X0276769Y0236002D01*
X0276769Y0234467D01*
X0277537Y0233700D01*
X0279071Y0233700D01*
X0279839Y0234467D01*
X0275235Y0236002D02*
X0273700Y0236002D01*
X0274467Y0237537D02*
X0275235Y0238304D01*
X0274467Y0237537D02*
X0274467Y0233700D01*
X0287735Y0278700D02*
X0287735Y0283304D01*
X0289269Y0283304D02*
X0286200Y0283304D01*
X0290804Y0283304D02*
X0290804Y0278700D01*
X0290804Y0281002D02*
X0291571Y0281769D01*
X0293106Y0281769D01*
X0293873Y0281002D01*
X0293873Y0278700D01*
X0295408Y0278700D02*
X0296942Y0278700D01*
X0296175Y0278700D02*
X0296175Y0281769D01*
X0295408Y0281769D01*
X0296175Y0283304D02*
X0296175Y0284071D01*
X0298477Y0281002D02*
X0299244Y0281769D01*
X0301546Y0281769D01*
X0300779Y0280235D02*
X0299244Y0280235D01*
X0298477Y0281002D01*
X0298477Y0278700D02*
X0300779Y0278700D01*
X0301546Y0279467D01*
X0300779Y0280235D01*
X0307685Y0281002D02*
X0308452Y0281769D01*
X0310754Y0281769D01*
X0312289Y0281769D02*
X0313056Y0281769D01*
X0313056Y0278700D01*
X0312289Y0278700D02*
X0313824Y0278700D01*
X0315358Y0279467D02*
X0315358Y0281002D01*
X0316125Y0281769D01*
X0318427Y0281769D01*
X0318427Y0283304D02*
X0318427Y0278700D01*
X0316125Y0278700D01*
X0315358Y0279467D01*
X0313056Y0283304D02*
X0313056Y0284071D01*
X0309987Y0280235D02*
X0308452Y0280235D01*
X0307685Y0281002D01*
X0307685Y0278700D02*
X0309987Y0278700D01*
X0310754Y0279467D01*
X0309987Y0280235D01*
X0319962Y0280235D02*
X0323031Y0280235D01*
X0323031Y0281002D01*
X0322264Y0281769D01*
X0320729Y0281769D01*
X0319962Y0281002D01*
X0319962Y0279467D01*
X0320729Y0278700D01*
X0322264Y0278700D01*
X0329170Y0279467D02*
X0329170Y0283304D01*
X0332239Y0283304D02*
X0332239Y0279467D01*
X0331472Y0278700D01*
X0329937Y0278700D01*
X0329170Y0279467D01*
X0333774Y0278700D02*
X0333774Y0283304D01*
X0336076Y0283304D01*
X0336843Y0282537D01*
X0336843Y0281002D01*
X0336076Y0280235D01*
X0333774Y0280235D01*
D12*
X0191000Y0281000D02*
X0191000Y0251000D01*
X0186000Y0251000D01*
X0186000Y0231000D02*
X0186000Y0301000D01*
X0056000Y0301000D01*
X0056000Y0231000D01*
X0186000Y0231000D01*
X0158928Y0224350D02*
X0156659Y0224350D01*
X0157793Y0224350D02*
X0157793Y0227753D01*
X0156659Y0226619D01*
X0186000Y0281000D02*
X0191000Y0281000D01*
X0113500Y0332250D02*
X0098500Y0332250D01*
X0106000Y0326000D01*
X0113500Y0332250D01*
X0113214Y0332012D02*
X0098786Y0332012D01*
X0099384Y0331513D02*
X0112616Y0331513D01*
X0112017Y0331014D02*
X0099983Y0331014D01*
X0100581Y0330516D02*
X0111419Y0330516D01*
X0110821Y0330017D02*
X0101179Y0330017D01*
X0101777Y0329519D02*
X0110223Y0329519D01*
X0109625Y0329020D02*
X0102375Y0329020D01*
X0102974Y0328522D02*
X0109026Y0328522D01*
X0108428Y0328023D02*
X0103572Y0328023D01*
X0104170Y0327525D02*
X0107830Y0327525D01*
X0107232Y0327026D02*
X0104768Y0327026D01*
X0105367Y0326528D02*
X0106633Y0326528D01*
X0106035Y0326029D02*
X0105965Y0326029D01*
X0098500Y0336000D02*
X0106000Y0342250D01*
X0113500Y0336000D01*
X0098500Y0336000D01*
X0099098Y0336498D02*
X0112902Y0336498D01*
X0112304Y0336997D02*
X0099696Y0336997D01*
X0100294Y0337495D02*
X0111706Y0337495D01*
X0111108Y0337994D02*
X0100892Y0337994D01*
X0101491Y0338492D02*
X0110509Y0338492D01*
X0109911Y0338991D02*
X0102089Y0338991D01*
X0102687Y0339489D02*
X0109313Y0339489D01*
X0108715Y0339988D02*
X0103285Y0339988D01*
X0103883Y0340486D02*
X0108117Y0340486D01*
X0107518Y0340985D02*
X0104482Y0340985D01*
X0105080Y0341483D02*
X0106920Y0341483D01*
X0106322Y0341982D02*
X0105678Y0341982D01*
X0039091Y0297614D02*
X0037909Y0297614D01*
X0037577Y0297116D02*
X0039423Y0297116D01*
X0039755Y0296617D02*
X0037245Y0296617D01*
X0036912Y0296119D02*
X0040088Y0296119D01*
X0040420Y0295620D02*
X0036580Y0295620D01*
X0036248Y0295122D02*
X0040752Y0295122D01*
X0041000Y0294750D02*
X0036000Y0294750D01*
X0038500Y0298500D01*
X0041000Y0294750D01*
X0038758Y0298113D02*
X0038242Y0298113D01*
X0033537Y0270260D02*
X0033537Y0267257D01*
X0033537Y0268758D02*
X0029033Y0268758D01*
X0030534Y0267257D01*
X0029784Y0265656D02*
X0029033Y0264905D01*
X0029033Y0263404D01*
X0029784Y0262653D01*
X0030534Y0262653D01*
X0031285Y0263404D01*
X0031285Y0264905D01*
X0032036Y0265656D01*
X0032786Y0265656D01*
X0033537Y0264905D01*
X0033537Y0263404D01*
X0032786Y0262653D01*
X0038500Y0237250D02*
X0041000Y0233500D01*
X0036000Y0233500D01*
X0038500Y0237250D01*
X0038197Y0236796D02*
X0038803Y0236796D01*
X0039135Y0236297D02*
X0037865Y0236297D01*
X0037533Y0235799D02*
X0039467Y0235799D01*
X0039800Y0235300D02*
X0037200Y0235300D01*
X0036868Y0234802D02*
X0040132Y0234802D01*
X0040464Y0234303D02*
X0036536Y0234303D01*
X0036203Y0233805D02*
X0040797Y0233805D01*
X0151000Y0088500D02*
X0153500Y0083500D01*
X0148500Y0083500D01*
X0151000Y0088500D01*
X0150870Y0088239D02*
X0151130Y0088239D01*
X0151380Y0087741D02*
X0150620Y0087741D01*
X0150371Y0087242D02*
X0151629Y0087242D01*
X0151878Y0086744D02*
X0150122Y0086744D01*
X0149873Y0086245D02*
X0152127Y0086245D01*
X0152377Y0085747D02*
X0149623Y0085747D01*
X0149374Y0085248D02*
X0152626Y0085248D01*
X0152875Y0084750D02*
X0149125Y0084750D01*
X0148876Y0084251D02*
X0153124Y0084251D01*
X0153374Y0083753D02*
X0148626Y0083753D01*
X0145388Y0077887D02*
X0145277Y0077779D01*
X0145163Y0077674D01*
X0145047Y0077572D01*
X0144929Y0077472D01*
X0144808Y0077376D01*
X0144685Y0077282D01*
X0144559Y0077192D01*
X0144431Y0077105D01*
X0144301Y0077021D01*
X0144169Y0076940D01*
X0144035Y0076863D01*
X0143899Y0076789D01*
X0143762Y0076718D01*
X0143622Y0076651D01*
X0143481Y0076588D01*
X0143339Y0076528D01*
X0143195Y0076471D01*
X0143049Y0076418D01*
X0142903Y0076369D01*
X0142755Y0076323D01*
X0142606Y0076281D01*
X0142456Y0076243D01*
X0142305Y0076209D01*
X0142154Y0076178D01*
X0142001Y0076151D01*
X0141848Y0076128D01*
X0141695Y0076109D01*
X0141541Y0076094D01*
X0141387Y0076082D01*
X0141232Y0076074D01*
X0141077Y0076070D01*
X0140923Y0076070D01*
X0140768Y0076074D01*
X0140613Y0076082D01*
X0140459Y0076094D01*
X0140305Y0076109D01*
X0140152Y0076128D01*
X0139999Y0076151D01*
X0139846Y0076178D01*
X0139695Y0076209D01*
X0139544Y0076243D01*
X0139394Y0076281D01*
X0139245Y0076323D01*
X0139097Y0076369D01*
X0138951Y0076418D01*
X0138805Y0076471D01*
X0138661Y0076528D01*
X0138519Y0076588D01*
X0138378Y0076651D01*
X0138238Y0076718D01*
X0138101Y0076789D01*
X0137965Y0076863D01*
X0137831Y0076940D01*
X0137699Y0077021D01*
X0137569Y0077105D01*
X0137441Y0077192D01*
X0137315Y0077282D01*
X0137192Y0077376D01*
X0137071Y0077472D01*
X0136953Y0077572D01*
X0136837Y0077674D01*
X0136723Y0077779D01*
X0136612Y0077887D01*
X0135388Y0077887D02*
X0135277Y0077779D01*
X0135163Y0077674D01*
X0135047Y0077572D01*
X0134929Y0077472D01*
X0134808Y0077376D01*
X0134685Y0077282D01*
X0134559Y0077192D01*
X0134431Y0077105D01*
X0134301Y0077021D01*
X0134169Y0076940D01*
X0134035Y0076863D01*
X0133899Y0076789D01*
X0133762Y0076718D01*
X0133622Y0076651D01*
X0133481Y0076588D01*
X0133339Y0076528D01*
X0133195Y0076471D01*
X0133049Y0076418D01*
X0132903Y0076369D01*
X0132755Y0076323D01*
X0132606Y0076281D01*
X0132456Y0076243D01*
X0132305Y0076209D01*
X0132154Y0076178D01*
X0132001Y0076151D01*
X0131848Y0076128D01*
X0131695Y0076109D01*
X0131541Y0076094D01*
X0131387Y0076082D01*
X0131232Y0076074D01*
X0131077Y0076070D01*
X0130923Y0076070D01*
X0130768Y0076074D01*
X0130613Y0076082D01*
X0130459Y0076094D01*
X0130305Y0076109D01*
X0130152Y0076128D01*
X0129999Y0076151D01*
X0129846Y0076178D01*
X0129695Y0076209D01*
X0129544Y0076243D01*
X0129394Y0076281D01*
X0129245Y0076323D01*
X0129097Y0076369D01*
X0128951Y0076418D01*
X0128805Y0076471D01*
X0128661Y0076528D01*
X0128519Y0076588D01*
X0128378Y0076651D01*
X0128238Y0076718D01*
X0128101Y0076789D01*
X0127965Y0076863D01*
X0127831Y0076940D01*
X0127699Y0077021D01*
X0127569Y0077105D01*
X0127441Y0077192D01*
X0127315Y0077282D01*
X0127192Y0077376D01*
X0127071Y0077472D01*
X0126953Y0077572D01*
X0126837Y0077674D01*
X0126723Y0077779D01*
X0126612Y0077887D01*
X0125388Y0077887D02*
X0125277Y0077779D01*
X0125163Y0077674D01*
X0125047Y0077572D01*
X0124929Y0077472D01*
X0124808Y0077376D01*
X0124685Y0077282D01*
X0124559Y0077192D01*
X0124431Y0077105D01*
X0124301Y0077021D01*
X0124169Y0076940D01*
X0124035Y0076863D01*
X0123899Y0076789D01*
X0123762Y0076718D01*
X0123622Y0076651D01*
X0123481Y0076588D01*
X0123339Y0076528D01*
X0123195Y0076471D01*
X0123049Y0076418D01*
X0122903Y0076369D01*
X0122755Y0076323D01*
X0122606Y0076281D01*
X0122456Y0076243D01*
X0122305Y0076209D01*
X0122154Y0076178D01*
X0122001Y0076151D01*
X0121848Y0076128D01*
X0121695Y0076109D01*
X0121541Y0076094D01*
X0121387Y0076082D01*
X0121232Y0076074D01*
X0121077Y0076070D01*
X0120923Y0076070D01*
X0120768Y0076074D01*
X0120613Y0076082D01*
X0120459Y0076094D01*
X0120305Y0076109D01*
X0120152Y0076128D01*
X0119999Y0076151D01*
X0119846Y0076178D01*
X0119695Y0076209D01*
X0119544Y0076243D01*
X0119394Y0076281D01*
X0119245Y0076323D01*
X0119097Y0076369D01*
X0118951Y0076418D01*
X0118805Y0076471D01*
X0118661Y0076528D01*
X0118519Y0076588D01*
X0118378Y0076651D01*
X0118238Y0076718D01*
X0118101Y0076789D01*
X0117965Y0076863D01*
X0117831Y0076940D01*
X0117699Y0077021D01*
X0117569Y0077105D01*
X0117441Y0077192D01*
X0117315Y0077282D01*
X0117192Y0077376D01*
X0117071Y0077472D01*
X0116953Y0077572D01*
X0116837Y0077674D01*
X0116723Y0077779D01*
X0116612Y0077887D01*
X0115388Y0077887D02*
X0115277Y0077779D01*
X0115163Y0077674D01*
X0115047Y0077572D01*
X0114929Y0077472D01*
X0114808Y0077376D01*
X0114685Y0077282D01*
X0114559Y0077192D01*
X0114431Y0077105D01*
X0114301Y0077021D01*
X0114169Y0076940D01*
X0114035Y0076863D01*
X0113899Y0076789D01*
X0113762Y0076718D01*
X0113622Y0076651D01*
X0113481Y0076588D01*
X0113339Y0076528D01*
X0113195Y0076471D01*
X0113049Y0076418D01*
X0112903Y0076369D01*
X0112755Y0076323D01*
X0112606Y0076281D01*
X0112456Y0076243D01*
X0112305Y0076209D01*
X0112154Y0076178D01*
X0112001Y0076151D01*
X0111848Y0076128D01*
X0111695Y0076109D01*
X0111541Y0076094D01*
X0111387Y0076082D01*
X0111232Y0076074D01*
X0111077Y0076070D01*
X0110923Y0076070D01*
X0110768Y0076074D01*
X0110613Y0076082D01*
X0110459Y0076094D01*
X0110305Y0076109D01*
X0110152Y0076128D01*
X0109999Y0076151D01*
X0109846Y0076178D01*
X0109695Y0076209D01*
X0109544Y0076243D01*
X0109394Y0076281D01*
X0109245Y0076323D01*
X0109097Y0076369D01*
X0108951Y0076418D01*
X0108805Y0076471D01*
X0108661Y0076528D01*
X0108519Y0076588D01*
X0108378Y0076651D01*
X0108238Y0076718D01*
X0108101Y0076789D01*
X0107965Y0076863D01*
X0107831Y0076940D01*
X0107699Y0077021D01*
X0107569Y0077105D01*
X0107441Y0077192D01*
X0107315Y0077282D01*
X0107192Y0077376D01*
X0107071Y0077472D01*
X0106953Y0077572D01*
X0106837Y0077674D01*
X0106723Y0077779D01*
X0106612Y0077887D01*
X0105388Y0077887D02*
X0105277Y0077779D01*
X0105163Y0077674D01*
X0105047Y0077572D01*
X0104929Y0077472D01*
X0104808Y0077376D01*
X0104685Y0077282D01*
X0104559Y0077192D01*
X0104431Y0077105D01*
X0104301Y0077021D01*
X0104169Y0076940D01*
X0104035Y0076863D01*
X0103899Y0076789D01*
X0103762Y0076718D01*
X0103622Y0076651D01*
X0103481Y0076588D01*
X0103339Y0076528D01*
X0103195Y0076471D01*
X0103049Y0076418D01*
X0102903Y0076369D01*
X0102755Y0076323D01*
X0102606Y0076281D01*
X0102456Y0076243D01*
X0102305Y0076209D01*
X0102154Y0076178D01*
X0102001Y0076151D01*
X0101848Y0076128D01*
X0101695Y0076109D01*
X0101541Y0076094D01*
X0101387Y0076082D01*
X0101232Y0076074D01*
X0101077Y0076070D01*
X0100923Y0076070D01*
X0100768Y0076074D01*
X0100613Y0076082D01*
X0100459Y0076094D01*
X0100305Y0076109D01*
X0100152Y0076128D01*
X0099999Y0076151D01*
X0099846Y0076178D01*
X0099695Y0076209D01*
X0099544Y0076243D01*
X0099394Y0076281D01*
X0099245Y0076323D01*
X0099097Y0076369D01*
X0098951Y0076418D01*
X0098805Y0076471D01*
X0098661Y0076528D01*
X0098519Y0076588D01*
X0098378Y0076651D01*
X0098238Y0076718D01*
X0098101Y0076789D01*
X0097965Y0076863D01*
X0097831Y0076940D01*
X0097699Y0077021D01*
X0097569Y0077105D01*
X0097441Y0077192D01*
X0097315Y0077282D01*
X0097192Y0077376D01*
X0097071Y0077472D01*
X0096953Y0077572D01*
X0096837Y0077674D01*
X0096723Y0077779D01*
X0096612Y0077887D01*
X0095388Y0077887D02*
X0095277Y0077779D01*
X0095163Y0077674D01*
X0095047Y0077572D01*
X0094929Y0077472D01*
X0094808Y0077376D01*
X0094685Y0077282D01*
X0094559Y0077192D01*
X0094431Y0077105D01*
X0094301Y0077021D01*
X0094169Y0076940D01*
X0094035Y0076863D01*
X0093899Y0076789D01*
X0093762Y0076718D01*
X0093622Y0076651D01*
X0093481Y0076588D01*
X0093339Y0076528D01*
X0093195Y0076471D01*
X0093049Y0076418D01*
X0092903Y0076369D01*
X0092755Y0076323D01*
X0092606Y0076281D01*
X0092456Y0076243D01*
X0092305Y0076209D01*
X0092154Y0076178D01*
X0092001Y0076151D01*
X0091848Y0076128D01*
X0091695Y0076109D01*
X0091541Y0076094D01*
X0091387Y0076082D01*
X0091232Y0076074D01*
X0091077Y0076070D01*
X0090923Y0076070D01*
X0090768Y0076074D01*
X0090613Y0076082D01*
X0090459Y0076094D01*
X0090305Y0076109D01*
X0090152Y0076128D01*
X0089999Y0076151D01*
X0089846Y0076178D01*
X0089695Y0076209D01*
X0089544Y0076243D01*
X0089394Y0076281D01*
X0089245Y0076323D01*
X0089097Y0076369D01*
X0088951Y0076418D01*
X0088805Y0076471D01*
X0088661Y0076528D01*
X0088519Y0076588D01*
X0088378Y0076651D01*
X0088238Y0076718D01*
X0088101Y0076789D01*
X0087965Y0076863D01*
X0087831Y0076940D01*
X0087699Y0077021D01*
X0087569Y0077105D01*
X0087441Y0077192D01*
X0087315Y0077282D01*
X0087192Y0077376D01*
X0087071Y0077472D01*
X0086953Y0077572D01*
X0086837Y0077674D01*
X0086723Y0077779D01*
X0086612Y0077887D01*
X0085388Y0077887D02*
X0085277Y0077779D01*
X0085163Y0077674D01*
X0085047Y0077572D01*
X0084929Y0077472D01*
X0084808Y0077376D01*
X0084685Y0077282D01*
X0084559Y0077192D01*
X0084431Y0077105D01*
X0084301Y0077021D01*
X0084169Y0076940D01*
X0084035Y0076863D01*
X0083899Y0076789D01*
X0083762Y0076718D01*
X0083622Y0076651D01*
X0083481Y0076588D01*
X0083339Y0076528D01*
X0083195Y0076471D01*
X0083049Y0076418D01*
X0082903Y0076369D01*
X0082755Y0076323D01*
X0082606Y0076281D01*
X0082456Y0076243D01*
X0082305Y0076209D01*
X0082154Y0076178D01*
X0082001Y0076151D01*
X0081848Y0076128D01*
X0081695Y0076109D01*
X0081541Y0076094D01*
X0081387Y0076082D01*
X0081232Y0076074D01*
X0081077Y0076070D01*
X0080923Y0076070D01*
X0080768Y0076074D01*
X0080613Y0076082D01*
X0080459Y0076094D01*
X0080305Y0076109D01*
X0080152Y0076128D01*
X0079999Y0076151D01*
X0079846Y0076178D01*
X0079695Y0076209D01*
X0079544Y0076243D01*
X0079394Y0076281D01*
X0079245Y0076323D01*
X0079097Y0076369D01*
X0078951Y0076418D01*
X0078805Y0076471D01*
X0078661Y0076528D01*
X0078519Y0076588D01*
X0078378Y0076651D01*
X0078238Y0076718D01*
X0078101Y0076789D01*
X0077965Y0076863D01*
X0077831Y0076940D01*
X0077699Y0077021D01*
X0077569Y0077105D01*
X0077441Y0077192D01*
X0077315Y0077282D01*
X0077192Y0077376D01*
X0077071Y0077472D01*
X0076953Y0077572D01*
X0076837Y0077674D01*
X0076723Y0077779D01*
X0076612Y0077887D01*
X0075388Y0077887D02*
X0075277Y0077779D01*
X0075163Y0077674D01*
X0075047Y0077572D01*
X0074929Y0077472D01*
X0074808Y0077376D01*
X0074685Y0077282D01*
X0074559Y0077192D01*
X0074431Y0077105D01*
X0074301Y0077021D01*
X0074169Y0076940D01*
X0074035Y0076863D01*
X0073899Y0076789D01*
X0073762Y0076718D01*
X0073622Y0076651D01*
X0073481Y0076588D01*
X0073339Y0076528D01*
X0073195Y0076471D01*
X0073049Y0076418D01*
X0072903Y0076369D01*
X0072755Y0076323D01*
X0072606Y0076281D01*
X0072456Y0076243D01*
X0072305Y0076209D01*
X0072154Y0076178D01*
X0072001Y0076151D01*
X0071848Y0076128D01*
X0071695Y0076109D01*
X0071541Y0076094D01*
X0071387Y0076082D01*
X0071232Y0076074D01*
X0071077Y0076070D01*
X0070923Y0076070D01*
X0070768Y0076074D01*
X0070613Y0076082D01*
X0070459Y0076094D01*
X0070305Y0076109D01*
X0070152Y0076128D01*
X0069999Y0076151D01*
X0069846Y0076178D01*
X0069695Y0076209D01*
X0069544Y0076243D01*
X0069394Y0076281D01*
X0069245Y0076323D01*
X0069097Y0076369D01*
X0068951Y0076418D01*
X0068805Y0076471D01*
X0068661Y0076528D01*
X0068519Y0076588D01*
X0068378Y0076651D01*
X0068238Y0076718D01*
X0068101Y0076789D01*
X0067965Y0076863D01*
X0067831Y0076940D01*
X0067699Y0077021D01*
X0067569Y0077105D01*
X0067441Y0077192D01*
X0067315Y0077282D01*
X0067192Y0077376D01*
X0067071Y0077472D01*
X0066953Y0077572D01*
X0066837Y0077674D01*
X0066723Y0077779D01*
X0066612Y0077887D01*
X0065388Y0077887D02*
X0065277Y0077779D01*
X0065163Y0077674D01*
X0065047Y0077572D01*
X0064929Y0077472D01*
X0064808Y0077376D01*
X0064685Y0077282D01*
X0064559Y0077192D01*
X0064431Y0077105D01*
X0064301Y0077021D01*
X0064169Y0076940D01*
X0064035Y0076863D01*
X0063899Y0076789D01*
X0063762Y0076718D01*
X0063622Y0076651D01*
X0063481Y0076588D01*
X0063339Y0076528D01*
X0063195Y0076471D01*
X0063049Y0076418D01*
X0062903Y0076369D01*
X0062755Y0076323D01*
X0062606Y0076281D01*
X0062456Y0076243D01*
X0062305Y0076209D01*
X0062154Y0076178D01*
X0062001Y0076151D01*
X0061848Y0076128D01*
X0061695Y0076109D01*
X0061541Y0076094D01*
X0061387Y0076082D01*
X0061232Y0076074D01*
X0061077Y0076070D01*
X0060923Y0076070D01*
X0060768Y0076074D01*
X0060613Y0076082D01*
X0060459Y0076094D01*
X0060305Y0076109D01*
X0060152Y0076128D01*
X0059999Y0076151D01*
X0059846Y0076178D01*
X0059695Y0076209D01*
X0059544Y0076243D01*
X0059394Y0076281D01*
X0059245Y0076323D01*
X0059097Y0076369D01*
X0058951Y0076418D01*
X0058805Y0076471D01*
X0058661Y0076528D01*
X0058519Y0076588D01*
X0058378Y0076651D01*
X0058238Y0076718D01*
X0058101Y0076789D01*
X0057965Y0076863D01*
X0057831Y0076940D01*
X0057699Y0077021D01*
X0057569Y0077105D01*
X0057441Y0077192D01*
X0057315Y0077282D01*
X0057192Y0077376D01*
X0057071Y0077472D01*
X0056953Y0077572D01*
X0056837Y0077674D01*
X0056723Y0077779D01*
X0056612Y0077887D01*
D13*
X0056612Y0077888D02*
X0056612Y0096000D01*
X0065387Y0096000D01*
X0065387Y0077888D01*
X0066613Y0077888D02*
X0066613Y0096000D01*
X0075388Y0096000D01*
X0075388Y0077888D01*
X0076613Y0077888D02*
X0076613Y0096000D01*
X0085388Y0096000D01*
X0085388Y0077888D01*
X0086612Y0077888D02*
X0086612Y0096000D01*
X0095387Y0096000D01*
X0095387Y0077888D01*
X0096612Y0077888D02*
X0096612Y0096000D01*
X0105387Y0096000D01*
X0105387Y0077888D01*
X0106612Y0077888D02*
X0106612Y0096000D01*
X0115387Y0096000D01*
X0115387Y0077888D01*
X0116612Y0077888D02*
X0116612Y0096000D01*
X0125387Y0096000D01*
X0125387Y0077888D01*
X0126612Y0077888D02*
X0126612Y0096000D01*
X0135388Y0096000D01*
X0135388Y0077888D01*
X0136613Y0077888D02*
X0136613Y0096000D01*
X0145388Y0096000D01*
X0145388Y0077888D01*
X0131000Y0069000D02*
X0131000Y0063000D01*
X0130998Y0062940D01*
X0130993Y0062879D01*
X0130984Y0062820D01*
X0130971Y0062761D01*
X0130955Y0062702D01*
X0130935Y0062645D01*
X0130912Y0062590D01*
X0130885Y0062535D01*
X0130856Y0062483D01*
X0130823Y0062432D01*
X0130787Y0062383D01*
X0130749Y0062337D01*
X0130707Y0062293D01*
X0130663Y0062251D01*
X0130617Y0062213D01*
X0130568Y0062177D01*
X0130517Y0062144D01*
X0130465Y0062115D01*
X0130410Y0062088D01*
X0130355Y0062065D01*
X0130298Y0062045D01*
X0130239Y0062029D01*
X0130180Y0062016D01*
X0130121Y0062007D01*
X0130060Y0062002D01*
X0130000Y0062000D01*
X0128500Y0062000D01*
X0128000Y0062500D01*
X0114000Y0062500D01*
X0113500Y0062000D01*
X0112000Y0062000D01*
X0111940Y0062002D01*
X0111879Y0062007D01*
X0111820Y0062016D01*
X0111761Y0062029D01*
X0111702Y0062045D01*
X0111645Y0062065D01*
X0111590Y0062088D01*
X0111535Y0062115D01*
X0111483Y0062144D01*
X0111432Y0062177D01*
X0111383Y0062213D01*
X0111337Y0062251D01*
X0111293Y0062293D01*
X0111251Y0062337D01*
X0111213Y0062383D01*
X0111177Y0062432D01*
X0111144Y0062483D01*
X0111115Y0062535D01*
X0111088Y0062590D01*
X0111065Y0062645D01*
X0111045Y0062702D01*
X0111029Y0062761D01*
X0111016Y0062820D01*
X0111007Y0062879D01*
X0111002Y0062940D01*
X0111000Y0063000D01*
X0111000Y0069000D01*
X0111002Y0069060D01*
X0111007Y0069121D01*
X0111016Y0069180D01*
X0111029Y0069239D01*
X0111045Y0069298D01*
X0111065Y0069355D01*
X0111088Y0069410D01*
X0111115Y0069465D01*
X0111144Y0069517D01*
X0111177Y0069568D01*
X0111213Y0069617D01*
X0111251Y0069663D01*
X0111293Y0069707D01*
X0111337Y0069749D01*
X0111383Y0069787D01*
X0111432Y0069823D01*
X0111483Y0069856D01*
X0111535Y0069885D01*
X0111590Y0069912D01*
X0111645Y0069935D01*
X0111702Y0069955D01*
X0111761Y0069971D01*
X0111820Y0069984D01*
X0111879Y0069993D01*
X0111940Y0069998D01*
X0112000Y0070000D01*
X0113500Y0070000D01*
X0114000Y0069500D01*
X0128000Y0069500D01*
X0128500Y0070000D01*
X0130000Y0070000D01*
X0130060Y0069998D01*
X0130121Y0069993D01*
X0130180Y0069984D01*
X0130239Y0069971D01*
X0130298Y0069955D01*
X0130355Y0069935D01*
X0130410Y0069912D01*
X0130465Y0069885D01*
X0130517Y0069856D01*
X0130568Y0069823D01*
X0130617Y0069787D01*
X0130663Y0069749D01*
X0130707Y0069707D01*
X0130749Y0069663D01*
X0130787Y0069617D01*
X0130823Y0069568D01*
X0130856Y0069517D01*
X0130885Y0069465D01*
X0130912Y0069410D01*
X0130935Y0069355D01*
X0130955Y0069298D01*
X0130971Y0069239D01*
X0130984Y0069180D01*
X0130993Y0069121D01*
X0130998Y0069060D01*
X0131000Y0069000D01*
X0130000Y0060000D02*
X0128500Y0060000D01*
X0128000Y0059500D01*
X0114000Y0059500D01*
X0113500Y0060000D01*
X0112000Y0060000D01*
X0111940Y0059998D01*
X0111879Y0059993D01*
X0111820Y0059984D01*
X0111761Y0059971D01*
X0111702Y0059955D01*
X0111645Y0059935D01*
X0111590Y0059912D01*
X0111535Y0059885D01*
X0111483Y0059856D01*
X0111432Y0059823D01*
X0111383Y0059787D01*
X0111337Y0059749D01*
X0111293Y0059707D01*
X0111251Y0059663D01*
X0111213Y0059617D01*
X0111177Y0059568D01*
X0111144Y0059517D01*
X0111115Y0059465D01*
X0111088Y0059410D01*
X0111065Y0059355D01*
X0111045Y0059298D01*
X0111029Y0059239D01*
X0111016Y0059180D01*
X0111007Y0059121D01*
X0111002Y0059060D01*
X0111000Y0059000D01*
X0111000Y0053000D01*
X0111002Y0052940D01*
X0111007Y0052879D01*
X0111016Y0052820D01*
X0111029Y0052761D01*
X0111045Y0052702D01*
X0111065Y0052645D01*
X0111088Y0052590D01*
X0111115Y0052535D01*
X0111144Y0052483D01*
X0111177Y0052432D01*
X0111213Y0052383D01*
X0111251Y0052337D01*
X0111293Y0052293D01*
X0111337Y0052251D01*
X0111383Y0052213D01*
X0111432Y0052177D01*
X0111483Y0052144D01*
X0111535Y0052115D01*
X0111590Y0052088D01*
X0111645Y0052065D01*
X0111702Y0052045D01*
X0111761Y0052029D01*
X0111820Y0052016D01*
X0111879Y0052007D01*
X0111940Y0052002D01*
X0112000Y0052000D01*
X0113500Y0052000D01*
X0114000Y0052500D01*
X0128000Y0052500D01*
X0128500Y0052000D01*
X0130000Y0052000D01*
X0130060Y0052002D01*
X0130121Y0052007D01*
X0130180Y0052016D01*
X0130239Y0052029D01*
X0130298Y0052045D01*
X0130355Y0052065D01*
X0130410Y0052088D01*
X0130465Y0052115D01*
X0130517Y0052144D01*
X0130568Y0052177D01*
X0130617Y0052213D01*
X0130663Y0052251D01*
X0130707Y0052293D01*
X0130749Y0052337D01*
X0130787Y0052383D01*
X0130823Y0052432D01*
X0130856Y0052483D01*
X0130885Y0052535D01*
X0130912Y0052590D01*
X0130935Y0052645D01*
X0130955Y0052702D01*
X0130971Y0052761D01*
X0130984Y0052820D01*
X0130993Y0052879D01*
X0130998Y0052940D01*
X0131000Y0053000D01*
X0131000Y0059000D01*
X0130998Y0059060D01*
X0130993Y0059121D01*
X0130984Y0059180D01*
X0130971Y0059239D01*
X0130955Y0059298D01*
X0130935Y0059355D01*
X0130912Y0059410D01*
X0130885Y0059465D01*
X0130856Y0059517D01*
X0130823Y0059568D01*
X0130787Y0059617D01*
X0130749Y0059663D01*
X0130707Y0059707D01*
X0130663Y0059749D01*
X0130617Y0059787D01*
X0130568Y0059823D01*
X0130517Y0059856D01*
X0130465Y0059885D01*
X0130410Y0059912D01*
X0130355Y0059935D01*
X0130298Y0059955D01*
X0130239Y0059971D01*
X0130180Y0059984D01*
X0130121Y0059993D01*
X0130060Y0059998D01*
X0130000Y0060000D01*
X0091000Y0059000D02*
X0091000Y0053000D01*
X0090998Y0052940D01*
X0090993Y0052879D01*
X0090984Y0052820D01*
X0090971Y0052761D01*
X0090955Y0052702D01*
X0090935Y0052645D01*
X0090912Y0052590D01*
X0090885Y0052535D01*
X0090856Y0052483D01*
X0090823Y0052432D01*
X0090787Y0052383D01*
X0090749Y0052337D01*
X0090707Y0052293D01*
X0090663Y0052251D01*
X0090617Y0052213D01*
X0090568Y0052177D01*
X0090517Y0052144D01*
X0090465Y0052115D01*
X0090410Y0052088D01*
X0090355Y0052065D01*
X0090298Y0052045D01*
X0090239Y0052029D01*
X0090180Y0052016D01*
X0090121Y0052007D01*
X0090060Y0052002D01*
X0090000Y0052000D01*
X0088500Y0052000D01*
X0088000Y0052500D01*
X0074000Y0052500D01*
X0073500Y0052000D01*
X0072000Y0052000D01*
X0071940Y0052002D01*
X0071879Y0052007D01*
X0071820Y0052016D01*
X0071761Y0052029D01*
X0071702Y0052045D01*
X0071645Y0052065D01*
X0071590Y0052088D01*
X0071535Y0052115D01*
X0071483Y0052144D01*
X0071432Y0052177D01*
X0071383Y0052213D01*
X0071337Y0052251D01*
X0071293Y0052293D01*
X0071251Y0052337D01*
X0071213Y0052383D01*
X0071177Y0052432D01*
X0071144Y0052483D01*
X0071115Y0052535D01*
X0071088Y0052590D01*
X0071065Y0052645D01*
X0071045Y0052702D01*
X0071029Y0052761D01*
X0071016Y0052820D01*
X0071007Y0052879D01*
X0071002Y0052940D01*
X0071000Y0053000D01*
X0071000Y0059000D01*
X0071002Y0059060D01*
X0071007Y0059121D01*
X0071016Y0059180D01*
X0071029Y0059239D01*
X0071045Y0059298D01*
X0071065Y0059355D01*
X0071088Y0059410D01*
X0071115Y0059465D01*
X0071144Y0059517D01*
X0071177Y0059568D01*
X0071213Y0059617D01*
X0071251Y0059663D01*
X0071293Y0059707D01*
X0071337Y0059749D01*
X0071383Y0059787D01*
X0071432Y0059823D01*
X0071483Y0059856D01*
X0071535Y0059885D01*
X0071590Y0059912D01*
X0071645Y0059935D01*
X0071702Y0059955D01*
X0071761Y0059971D01*
X0071820Y0059984D01*
X0071879Y0059993D01*
X0071940Y0059998D01*
X0072000Y0060000D01*
X0073500Y0060000D01*
X0074000Y0059500D01*
X0088000Y0059500D01*
X0088500Y0060000D01*
X0090000Y0060000D01*
X0090060Y0059998D01*
X0090121Y0059993D01*
X0090180Y0059984D01*
X0090239Y0059971D01*
X0090298Y0059955D01*
X0090355Y0059935D01*
X0090410Y0059912D01*
X0090465Y0059885D01*
X0090517Y0059856D01*
X0090568Y0059823D01*
X0090617Y0059787D01*
X0090663Y0059749D01*
X0090707Y0059707D01*
X0090749Y0059663D01*
X0090787Y0059617D01*
X0090823Y0059568D01*
X0090856Y0059517D01*
X0090885Y0059465D01*
X0090912Y0059410D01*
X0090935Y0059355D01*
X0090955Y0059298D01*
X0090971Y0059239D01*
X0090984Y0059180D01*
X0090993Y0059121D01*
X0090998Y0059060D01*
X0091000Y0059000D01*
X0090000Y0062000D02*
X0088500Y0062000D01*
X0088000Y0062500D01*
X0074000Y0062500D01*
X0073500Y0062000D01*
X0072000Y0062000D01*
X0071940Y0062002D01*
X0071879Y0062007D01*
X0071820Y0062016D01*
X0071761Y0062029D01*
X0071702Y0062045D01*
X0071645Y0062065D01*
X0071590Y0062088D01*
X0071535Y0062115D01*
X0071483Y0062144D01*
X0071432Y0062177D01*
X0071383Y0062213D01*
X0071337Y0062251D01*
X0071293Y0062293D01*
X0071251Y0062337D01*
X0071213Y0062383D01*
X0071177Y0062432D01*
X0071144Y0062483D01*
X0071115Y0062535D01*
X0071088Y0062590D01*
X0071065Y0062645D01*
X0071045Y0062702D01*
X0071029Y0062761D01*
X0071016Y0062820D01*
X0071007Y0062879D01*
X0071002Y0062940D01*
X0071000Y0063000D01*
X0071000Y0069000D01*
X0071002Y0069060D01*
X0071007Y0069121D01*
X0071016Y0069180D01*
X0071029Y0069239D01*
X0071045Y0069298D01*
X0071065Y0069355D01*
X0071088Y0069410D01*
X0071115Y0069465D01*
X0071144Y0069517D01*
X0071177Y0069568D01*
X0071213Y0069617D01*
X0071251Y0069663D01*
X0071293Y0069707D01*
X0071337Y0069749D01*
X0071383Y0069787D01*
X0071432Y0069823D01*
X0071483Y0069856D01*
X0071535Y0069885D01*
X0071590Y0069912D01*
X0071645Y0069935D01*
X0071702Y0069955D01*
X0071761Y0069971D01*
X0071820Y0069984D01*
X0071879Y0069993D01*
X0071940Y0069998D01*
X0072000Y0070000D01*
X0073500Y0070000D01*
X0074000Y0069500D01*
X0088000Y0069500D01*
X0088500Y0070000D01*
X0090000Y0070000D01*
X0090060Y0069998D01*
X0090121Y0069993D01*
X0090180Y0069984D01*
X0090239Y0069971D01*
X0090298Y0069955D01*
X0090355Y0069935D01*
X0090410Y0069912D01*
X0090465Y0069885D01*
X0090517Y0069856D01*
X0090568Y0069823D01*
X0090617Y0069787D01*
X0090663Y0069749D01*
X0090707Y0069707D01*
X0090749Y0069663D01*
X0090787Y0069617D01*
X0090823Y0069568D01*
X0090856Y0069517D01*
X0090885Y0069465D01*
X0090912Y0069410D01*
X0090935Y0069355D01*
X0090955Y0069298D01*
X0090971Y0069239D01*
X0090984Y0069180D01*
X0090993Y0069121D01*
X0090998Y0069060D01*
X0091000Y0069000D01*
X0091000Y0063000D01*
X0090998Y0062940D01*
X0090993Y0062879D01*
X0090984Y0062820D01*
X0090971Y0062761D01*
X0090955Y0062702D01*
X0090935Y0062645D01*
X0090912Y0062590D01*
X0090885Y0062535D01*
X0090856Y0062483D01*
X0090823Y0062432D01*
X0090787Y0062383D01*
X0090749Y0062337D01*
X0090707Y0062293D01*
X0090663Y0062251D01*
X0090617Y0062213D01*
X0090568Y0062177D01*
X0090517Y0062144D01*
X0090465Y0062115D01*
X0090410Y0062088D01*
X0090355Y0062065D01*
X0090298Y0062045D01*
X0090239Y0062029D01*
X0090180Y0062016D01*
X0090121Y0062007D01*
X0090060Y0062002D01*
X0090000Y0062000D01*
X0092000Y0102000D02*
X0093500Y0102000D01*
X0094000Y0102500D01*
X0108000Y0102500D01*
X0108500Y0102000D01*
X0110000Y0102000D01*
X0110060Y0102002D01*
X0110121Y0102007D01*
X0110180Y0102016D01*
X0110239Y0102029D01*
X0110298Y0102045D01*
X0110355Y0102065D01*
X0110410Y0102088D01*
X0110465Y0102115D01*
X0110517Y0102144D01*
X0110568Y0102177D01*
X0110617Y0102213D01*
X0110663Y0102251D01*
X0110707Y0102293D01*
X0110749Y0102337D01*
X0110787Y0102383D01*
X0110823Y0102432D01*
X0110856Y0102483D01*
X0110885Y0102535D01*
X0110912Y0102590D01*
X0110935Y0102645D01*
X0110955Y0102702D01*
X0110971Y0102761D01*
X0110984Y0102820D01*
X0110993Y0102879D01*
X0110998Y0102940D01*
X0111000Y0103000D01*
X0111000Y0109000D01*
X0110998Y0109060D01*
X0110993Y0109121D01*
X0110984Y0109180D01*
X0110971Y0109239D01*
X0110955Y0109298D01*
X0110935Y0109355D01*
X0110912Y0109410D01*
X0110885Y0109465D01*
X0110856Y0109517D01*
X0110823Y0109568D01*
X0110787Y0109617D01*
X0110749Y0109663D01*
X0110707Y0109707D01*
X0110663Y0109749D01*
X0110617Y0109787D01*
X0110568Y0109823D01*
X0110517Y0109856D01*
X0110465Y0109885D01*
X0110410Y0109912D01*
X0110355Y0109935D01*
X0110298Y0109955D01*
X0110239Y0109971D01*
X0110180Y0109984D01*
X0110121Y0109993D01*
X0110060Y0109998D01*
X0110000Y0110000D01*
X0108500Y0110000D01*
X0108000Y0109500D01*
X0094000Y0109500D01*
X0093500Y0110000D01*
X0092000Y0110000D01*
X0091940Y0109998D01*
X0091879Y0109993D01*
X0091820Y0109984D01*
X0091761Y0109971D01*
X0091702Y0109955D01*
X0091645Y0109935D01*
X0091590Y0109912D01*
X0091535Y0109885D01*
X0091483Y0109856D01*
X0091432Y0109823D01*
X0091383Y0109787D01*
X0091337Y0109749D01*
X0091293Y0109707D01*
X0091251Y0109663D01*
X0091213Y0109617D01*
X0091177Y0109568D01*
X0091144Y0109517D01*
X0091115Y0109465D01*
X0091088Y0109410D01*
X0091065Y0109355D01*
X0091045Y0109298D01*
X0091029Y0109239D01*
X0091016Y0109180D01*
X0091007Y0109121D01*
X0091002Y0109060D01*
X0091000Y0109000D01*
X0091000Y0103000D01*
X0091002Y0102940D01*
X0091007Y0102879D01*
X0091016Y0102820D01*
X0091029Y0102761D01*
X0091045Y0102702D01*
X0091065Y0102645D01*
X0091088Y0102590D01*
X0091115Y0102535D01*
X0091144Y0102483D01*
X0091177Y0102432D01*
X0091213Y0102383D01*
X0091251Y0102337D01*
X0091293Y0102293D01*
X0091337Y0102251D01*
X0091383Y0102213D01*
X0091432Y0102177D01*
X0091483Y0102144D01*
X0091535Y0102115D01*
X0091590Y0102088D01*
X0091645Y0102065D01*
X0091702Y0102045D01*
X0091761Y0102029D01*
X0091820Y0102016D01*
X0091879Y0102007D01*
X0091940Y0102002D01*
X0092000Y0102000D01*
X0166000Y0095000D02*
X0166000Y0087000D01*
X0167000Y0086000D01*
X0166000Y0085000D01*
X0166000Y0077000D01*
X0167000Y0076000D01*
X0175000Y0076000D01*
X0176000Y0077000D01*
X0176000Y0085000D01*
X0175000Y0086000D01*
X0176000Y0087000D01*
X0176000Y0095000D01*
X0175000Y0096000D01*
X0167000Y0096000D01*
X0166000Y0095000D01*
X0154000Y0222000D02*
X0058000Y0222000D01*
X0057913Y0222002D01*
X0057826Y0222008D01*
X0057739Y0222017D01*
X0057653Y0222030D01*
X0057567Y0222047D01*
X0057482Y0222068D01*
X0057399Y0222093D01*
X0057316Y0222121D01*
X0057235Y0222152D01*
X0057155Y0222187D01*
X0057077Y0222226D01*
X0057000Y0222268D01*
X0056925Y0222313D01*
X0056853Y0222362D01*
X0056782Y0222413D01*
X0056714Y0222468D01*
X0056649Y0222525D01*
X0056586Y0222586D01*
X0056525Y0222649D01*
X0056468Y0222714D01*
X0056413Y0222782D01*
X0056362Y0222853D01*
X0056313Y0222925D01*
X0056268Y0223000D01*
X0056226Y0223077D01*
X0056187Y0223155D01*
X0056152Y0223235D01*
X0056121Y0223316D01*
X0056093Y0223399D01*
X0056068Y0223482D01*
X0056047Y0223567D01*
X0056030Y0223653D01*
X0056017Y0223739D01*
X0056008Y0223826D01*
X0056002Y0223913D01*
X0056000Y0224000D01*
X0056000Y0228000D01*
X0056002Y0228087D01*
X0056008Y0228174D01*
X0056017Y0228261D01*
X0056030Y0228347D01*
X0056047Y0228433D01*
X0056068Y0228518D01*
X0056093Y0228601D01*
X0056121Y0228684D01*
X0056152Y0228765D01*
X0056187Y0228845D01*
X0056226Y0228923D01*
X0056268Y0229000D01*
X0056313Y0229075D01*
X0056362Y0229147D01*
X0056413Y0229218D01*
X0056468Y0229286D01*
X0056525Y0229351D01*
X0056586Y0229414D01*
X0056649Y0229475D01*
X0056714Y0229532D01*
X0056782Y0229587D01*
X0056853Y0229638D01*
X0056925Y0229687D01*
X0057000Y0229732D01*
X0057077Y0229774D01*
X0057155Y0229813D01*
X0057235Y0229848D01*
X0057316Y0229879D01*
X0057399Y0229907D01*
X0057482Y0229932D01*
X0057567Y0229953D01*
X0057653Y0229970D01*
X0057739Y0229983D01*
X0057826Y0229992D01*
X0057913Y0229998D01*
X0058000Y0230000D01*
X0154000Y0230000D01*
X0154500Y0229500D02*
X0154500Y0222500D01*
X0147500Y0222500D01*
X0147500Y0229500D01*
X0154500Y0229500D01*
X0154000Y0230000D02*
X0154087Y0229998D01*
X0154174Y0229992D01*
X0154261Y0229983D01*
X0154347Y0229970D01*
X0154433Y0229953D01*
X0154518Y0229932D01*
X0154601Y0229907D01*
X0154684Y0229879D01*
X0154765Y0229848D01*
X0154845Y0229813D01*
X0154923Y0229774D01*
X0155000Y0229732D01*
X0155075Y0229687D01*
X0155147Y0229638D01*
X0155218Y0229587D01*
X0155286Y0229532D01*
X0155351Y0229475D01*
X0155414Y0229414D01*
X0155475Y0229351D01*
X0155532Y0229286D01*
X0155587Y0229218D01*
X0155638Y0229147D01*
X0155687Y0229075D01*
X0155732Y0229000D01*
X0155774Y0228923D01*
X0155813Y0228845D01*
X0155848Y0228765D01*
X0155879Y0228684D01*
X0155907Y0228601D01*
X0155932Y0228518D01*
X0155953Y0228433D01*
X0155970Y0228347D01*
X0155983Y0228261D01*
X0155992Y0228174D01*
X0155998Y0228087D01*
X0156000Y0228000D01*
X0156000Y0224000D01*
X0155998Y0223913D01*
X0155992Y0223826D01*
X0155983Y0223739D01*
X0155970Y0223653D01*
X0155953Y0223567D01*
X0155932Y0223482D01*
X0155907Y0223399D01*
X0155879Y0223316D01*
X0155848Y0223235D01*
X0155813Y0223155D01*
X0155774Y0223077D01*
X0155732Y0223000D01*
X0155687Y0222925D01*
X0155638Y0222853D01*
X0155587Y0222782D01*
X0155532Y0222714D01*
X0155475Y0222649D01*
X0155414Y0222586D01*
X0155351Y0222525D01*
X0155286Y0222468D01*
X0155218Y0222413D01*
X0155147Y0222362D01*
X0155075Y0222313D01*
X0155000Y0222268D01*
X0154923Y0222226D01*
X0154845Y0222187D01*
X0154765Y0222152D01*
X0154684Y0222121D01*
X0154601Y0222093D01*
X0154518Y0222068D01*
X0154433Y0222047D01*
X0154347Y0222030D01*
X0154261Y0222017D01*
X0154174Y0222008D01*
X0154087Y0222002D01*
X0154000Y0222000D01*
X0154000Y0303000D02*
X0153000Y0303000D01*
X0154000Y0303000D02*
X0154000Y0304000D01*
X0154000Y0308000D02*
X0154000Y0309000D01*
X0153000Y0309000D01*
X0149000Y0309000D02*
X0148000Y0309000D01*
X0148000Y0308000D01*
X0144000Y0308000D02*
X0144000Y0309000D01*
X0143000Y0309000D01*
X0139000Y0309000D02*
X0138000Y0309000D01*
X0138000Y0308000D01*
X0134000Y0308000D02*
X0134000Y0309000D01*
X0133000Y0309000D01*
X0129000Y0309000D02*
X0128000Y0309000D01*
X0128000Y0308000D01*
X0124000Y0308000D02*
X0124000Y0309000D01*
X0123000Y0309000D01*
X0119000Y0309000D02*
X0118000Y0309000D01*
X0118000Y0308000D01*
X0114000Y0308000D02*
X0114000Y0309000D01*
X0113000Y0309000D01*
X0109000Y0309000D02*
X0108000Y0309000D01*
X0108000Y0308000D01*
X0104000Y0308000D02*
X0104000Y0309000D01*
X0103000Y0309000D01*
X0099000Y0309000D02*
X0098000Y0309000D01*
X0098000Y0308000D01*
X0094000Y0308000D02*
X0094000Y0309000D01*
X0093000Y0309000D01*
X0089000Y0309000D02*
X0088000Y0309000D01*
X0088000Y0308000D01*
X0084000Y0308000D02*
X0084000Y0309000D01*
X0083000Y0309000D01*
X0079000Y0309000D02*
X0078000Y0309000D01*
X0078000Y0308000D01*
X0074500Y0308500D02*
X0074500Y0303500D01*
X0074498Y0303413D01*
X0074492Y0303326D01*
X0074483Y0303239D01*
X0074470Y0303153D01*
X0074453Y0303067D01*
X0074432Y0302982D01*
X0074407Y0302899D01*
X0074379Y0302816D01*
X0074348Y0302735D01*
X0074313Y0302655D01*
X0074274Y0302577D01*
X0074232Y0302500D01*
X0074187Y0302425D01*
X0074138Y0302353D01*
X0074087Y0302282D01*
X0074032Y0302214D01*
X0073975Y0302149D01*
X0073914Y0302086D01*
X0073851Y0302025D01*
X0073786Y0301968D01*
X0073718Y0301913D01*
X0073647Y0301862D01*
X0073575Y0301813D01*
X0073500Y0301768D01*
X0073423Y0301726D01*
X0073345Y0301687D01*
X0073265Y0301652D01*
X0073184Y0301621D01*
X0073101Y0301593D01*
X0073018Y0301568D01*
X0072933Y0301547D01*
X0072847Y0301530D01*
X0072761Y0301517D01*
X0072674Y0301508D01*
X0072587Y0301502D01*
X0072500Y0301500D01*
X0059500Y0301500D01*
X0059413Y0301502D01*
X0059326Y0301508D01*
X0059239Y0301517D01*
X0059153Y0301530D01*
X0059067Y0301547D01*
X0058982Y0301568D01*
X0058899Y0301593D01*
X0058816Y0301621D01*
X0058735Y0301652D01*
X0058655Y0301687D01*
X0058577Y0301726D01*
X0058500Y0301768D01*
X0058425Y0301813D01*
X0058353Y0301862D01*
X0058282Y0301913D01*
X0058214Y0301968D01*
X0058149Y0302025D01*
X0058086Y0302086D01*
X0058025Y0302149D01*
X0057968Y0302214D01*
X0057913Y0302282D01*
X0057862Y0302353D01*
X0057813Y0302425D01*
X0057768Y0302500D01*
X0057726Y0302577D01*
X0057687Y0302655D01*
X0057652Y0302735D01*
X0057621Y0302816D01*
X0057593Y0302899D01*
X0057568Y0302982D01*
X0057547Y0303067D01*
X0057530Y0303153D01*
X0057517Y0303239D01*
X0057508Y0303326D01*
X0057502Y0303413D01*
X0057500Y0303500D01*
X0057500Y0308500D01*
X0057502Y0308587D01*
X0057508Y0308674D01*
X0057517Y0308761D01*
X0057530Y0308847D01*
X0057547Y0308933D01*
X0057568Y0309018D01*
X0057593Y0309101D01*
X0057621Y0309184D01*
X0057652Y0309265D01*
X0057687Y0309345D01*
X0057726Y0309423D01*
X0057768Y0309500D01*
X0057813Y0309575D01*
X0057862Y0309647D01*
X0057913Y0309718D01*
X0057968Y0309786D01*
X0058025Y0309851D01*
X0058086Y0309914D01*
X0058149Y0309975D01*
X0058214Y0310032D01*
X0058282Y0310087D01*
X0058353Y0310138D01*
X0058425Y0310187D01*
X0058500Y0310232D01*
X0058577Y0310274D01*
X0058655Y0310313D01*
X0058735Y0310348D01*
X0058816Y0310379D01*
X0058899Y0310407D01*
X0058982Y0310432D01*
X0059067Y0310453D01*
X0059153Y0310470D01*
X0059239Y0310483D01*
X0059326Y0310492D01*
X0059413Y0310498D01*
X0059500Y0310500D01*
X0072500Y0310500D01*
X0072587Y0310498D01*
X0072674Y0310492D01*
X0072761Y0310483D01*
X0072847Y0310470D01*
X0072933Y0310453D01*
X0073018Y0310432D01*
X0073101Y0310407D01*
X0073184Y0310379D01*
X0073265Y0310348D01*
X0073345Y0310313D01*
X0073423Y0310274D01*
X0073500Y0310232D01*
X0073575Y0310187D01*
X0073647Y0310138D01*
X0073718Y0310087D01*
X0073786Y0310032D01*
X0073851Y0309975D01*
X0073914Y0309914D01*
X0073975Y0309851D01*
X0074032Y0309786D01*
X0074087Y0309718D01*
X0074138Y0309647D01*
X0074187Y0309575D01*
X0074232Y0309500D01*
X0074274Y0309423D01*
X0074313Y0309345D01*
X0074348Y0309265D01*
X0074379Y0309184D01*
X0074407Y0309101D01*
X0074432Y0309018D01*
X0074453Y0308933D01*
X0074470Y0308847D01*
X0074483Y0308761D01*
X0074492Y0308674D01*
X0074498Y0308587D01*
X0074500Y0308500D01*
X0078000Y0304000D02*
X0078000Y0303000D01*
X0079000Y0303000D01*
X0083000Y0303000D02*
X0084000Y0303000D01*
X0084000Y0304000D01*
X0088000Y0304000D02*
X0088000Y0303000D01*
X0089000Y0303000D01*
X0093000Y0303000D02*
X0094000Y0303000D01*
X0094000Y0304000D01*
X0098000Y0304000D02*
X0098000Y0303000D01*
X0099000Y0303000D01*
X0103000Y0303000D02*
X0104000Y0303000D01*
X0104000Y0304000D01*
X0108000Y0304000D02*
X0108000Y0303000D01*
X0109000Y0303000D01*
X0113000Y0303000D02*
X0114000Y0303000D01*
X0114000Y0304000D01*
X0118000Y0304000D02*
X0118000Y0303000D01*
X0119000Y0303000D01*
X0123000Y0303000D02*
X0124000Y0303000D01*
X0124000Y0304000D01*
X0128000Y0304000D02*
X0128000Y0303000D01*
X0129000Y0303000D01*
X0133000Y0303000D02*
X0134000Y0303000D01*
X0134000Y0304000D01*
X0138000Y0304000D02*
X0138000Y0303000D01*
X0139000Y0303000D01*
X0143000Y0303000D02*
X0144000Y0303000D01*
X0144000Y0304000D01*
X0148000Y0304000D02*
X0148000Y0303000D01*
X0149000Y0303000D01*
X0050700Y0302016D02*
X0050700Y0298813D01*
X0049632Y0297745D01*
X0048565Y0298813D01*
X0048565Y0302016D01*
X0047497Y0302016D02*
X0050700Y0302016D01*
X0050700Y0304191D02*
X0050700Y0306326D01*
X0050700Y0305259D02*
X0044295Y0305259D01*
X0044295Y0304191D01*
X0047497Y0302016D02*
X0046430Y0300948D01*
X0046430Y0298813D01*
X0045362Y0295570D02*
X0044295Y0294503D01*
X0044295Y0292368D01*
X0045362Y0291300D01*
X0049632Y0291300D01*
X0050700Y0292368D01*
X0050700Y0294503D01*
X0049632Y0295570D01*
X0034000Y0279000D02*
X0028000Y0279000D01*
X0028000Y0278000D01*
X0027000Y0278000D01*
X0034000Y0278000D02*
X0035000Y0278000D01*
X0034000Y0278000D02*
X0034000Y0279000D01*
X0043000Y0274500D02*
X0043000Y0270500D01*
X0043000Y0261000D01*
X0043000Y0257500D01*
X0035000Y0254000D02*
X0034000Y0254000D01*
X0034000Y0253000D01*
X0028000Y0253000D01*
X0028000Y0254000D01*
X0027000Y0254000D01*
X0019000Y0257500D02*
X0019000Y0261000D01*
X0019000Y0271000D01*
X0019000Y0274500D01*
X0014950Y0277419D02*
X0014950Y0280622D01*
X0011747Y0280622D01*
X0010680Y0279554D01*
X0010680Y0277419D01*
X0012815Y0277419D02*
X0012815Y0280622D01*
X0010680Y0282797D02*
X0010680Y0284932D01*
X0009612Y0283865D02*
X0013882Y0283865D01*
X0014950Y0284932D01*
X0013882Y0287094D02*
X0011747Y0287094D01*
X0010680Y0288162D01*
X0010680Y0290297D01*
X0011747Y0291365D01*
X0012815Y0291365D01*
X0012815Y0287094D01*
X0013882Y0287094D02*
X0014950Y0288162D01*
X0014950Y0290297D01*
X0014950Y0277419D02*
X0013882Y0276352D01*
X0012815Y0277419D01*
X0010680Y0274183D02*
X0010680Y0273116D01*
X0012815Y0270980D01*
X0014950Y0270980D02*
X0010680Y0270980D01*
X0011747Y0268805D02*
X0010680Y0267738D01*
X0010680Y0264535D01*
X0008545Y0264535D02*
X0014950Y0264535D01*
X0014950Y0267738D01*
X0013882Y0268805D01*
X0011747Y0268805D01*
X0014950Y0262373D02*
X0014950Y0260238D01*
X0014950Y0261306D02*
X0010680Y0261306D01*
X0010680Y0260238D01*
X0008545Y0261306D02*
X0007477Y0261306D01*
X0008545Y0257009D02*
X0014950Y0257009D01*
X0014950Y0258076D02*
X0014950Y0255941D01*
X0014950Y0253766D02*
X0011747Y0253766D01*
X0010680Y0252698D01*
X0010680Y0250563D01*
X0012815Y0250563D02*
X0012815Y0253766D01*
X0014950Y0253766D02*
X0014950Y0250563D01*
X0013882Y0249495D01*
X0012815Y0250563D01*
X0013882Y0247320D02*
X0014950Y0246253D01*
X0014950Y0244118D01*
X0013882Y0243050D01*
X0009612Y0243050D01*
X0008545Y0244118D01*
X0008545Y0246253D01*
X0009612Y0247320D01*
X0008545Y0255941D02*
X0008545Y0257009D01*
X0030000Y0266000D02*
X0030002Y0266063D01*
X0030008Y0266125D01*
X0030018Y0266187D01*
X0030031Y0266249D01*
X0030049Y0266309D01*
X0030070Y0266368D01*
X0030095Y0266426D01*
X0030124Y0266482D01*
X0030156Y0266536D01*
X0030191Y0266588D01*
X0030229Y0266637D01*
X0030271Y0266685D01*
X0030315Y0266729D01*
X0030363Y0266771D01*
X0030412Y0266809D01*
X0030464Y0266844D01*
X0030518Y0266876D01*
X0030574Y0266905D01*
X0030632Y0266930D01*
X0030691Y0266951D01*
X0030751Y0266969D01*
X0030813Y0266982D01*
X0030875Y0266992D01*
X0030937Y0266998D01*
X0031000Y0267000D01*
X0031063Y0266998D01*
X0031125Y0266992D01*
X0031187Y0266982D01*
X0031249Y0266969D01*
X0031309Y0266951D01*
X0031368Y0266930D01*
X0031426Y0266905D01*
X0031482Y0266876D01*
X0031536Y0266844D01*
X0031588Y0266809D01*
X0031637Y0266771D01*
X0031685Y0266729D01*
X0031729Y0266685D01*
X0031771Y0266637D01*
X0031809Y0266588D01*
X0031844Y0266536D01*
X0031876Y0266482D01*
X0031905Y0266426D01*
X0031930Y0266368D01*
X0031951Y0266309D01*
X0031969Y0266249D01*
X0031982Y0266187D01*
X0031992Y0266125D01*
X0031998Y0266063D01*
X0032000Y0266000D01*
X0031998Y0265937D01*
X0031992Y0265875D01*
X0031982Y0265813D01*
X0031969Y0265751D01*
X0031951Y0265691D01*
X0031930Y0265632D01*
X0031905Y0265574D01*
X0031876Y0265518D01*
X0031844Y0265464D01*
X0031809Y0265412D01*
X0031771Y0265363D01*
X0031729Y0265315D01*
X0031685Y0265271D01*
X0031637Y0265229D01*
X0031588Y0265191D01*
X0031536Y0265156D01*
X0031482Y0265124D01*
X0031426Y0265095D01*
X0031368Y0265070D01*
X0031309Y0265049D01*
X0031249Y0265031D01*
X0031187Y0265018D01*
X0031125Y0265008D01*
X0031063Y0265002D01*
X0031000Y0265000D01*
X0030937Y0265002D01*
X0030875Y0265008D01*
X0030813Y0265018D01*
X0030751Y0265031D01*
X0030691Y0265049D01*
X0030632Y0265070D01*
X0030574Y0265095D01*
X0030518Y0265124D01*
X0030464Y0265156D01*
X0030412Y0265191D01*
X0030363Y0265229D01*
X0030315Y0265271D01*
X0030271Y0265315D01*
X0030229Y0265363D01*
X0030191Y0265412D01*
X0030156Y0265464D01*
X0030124Y0265518D01*
X0030095Y0265574D01*
X0030070Y0265632D01*
X0030049Y0265691D01*
X0030031Y0265751D01*
X0030018Y0265813D01*
X0030008Y0265875D01*
X0030002Y0265937D01*
X0030000Y0266000D01*
X0024000Y0266000D02*
X0024002Y0266172D01*
X0024008Y0266343D01*
X0024019Y0266515D01*
X0024034Y0266686D01*
X0024053Y0266857D01*
X0024076Y0267027D01*
X0024103Y0267197D01*
X0024135Y0267366D01*
X0024170Y0267534D01*
X0024210Y0267701D01*
X0024254Y0267867D01*
X0024301Y0268032D01*
X0024353Y0268196D01*
X0024409Y0268358D01*
X0024469Y0268519D01*
X0024533Y0268679D01*
X0024601Y0268837D01*
X0024672Y0268993D01*
X0024747Y0269147D01*
X0024827Y0269300D01*
X0024909Y0269450D01*
X0024996Y0269599D01*
X0025086Y0269745D01*
X0025180Y0269889D01*
X0025277Y0270031D01*
X0025378Y0270170D01*
X0025482Y0270307D01*
X0025589Y0270441D01*
X0025700Y0270572D01*
X0025813Y0270701D01*
X0025930Y0270827D01*
X0026050Y0270950D01*
X0026173Y0271070D01*
X0026299Y0271187D01*
X0026428Y0271300D01*
X0026559Y0271411D01*
X0026693Y0271518D01*
X0026830Y0271622D01*
X0026969Y0271723D01*
X0027111Y0271820D01*
X0027255Y0271914D01*
X0027401Y0272004D01*
X0027550Y0272091D01*
X0027700Y0272173D01*
X0027853Y0272253D01*
X0028007Y0272328D01*
X0028163Y0272399D01*
X0028321Y0272467D01*
X0028481Y0272531D01*
X0028642Y0272591D01*
X0028804Y0272647D01*
X0028968Y0272699D01*
X0029133Y0272746D01*
X0029299Y0272790D01*
X0029466Y0272830D01*
X0029634Y0272865D01*
X0029803Y0272897D01*
X0029973Y0272924D01*
X0030143Y0272947D01*
X0030314Y0272966D01*
X0030485Y0272981D01*
X0030657Y0272992D01*
X0030828Y0272998D01*
X0031000Y0273000D01*
X0031172Y0272998D01*
X0031343Y0272992D01*
X0031515Y0272981D01*
X0031686Y0272966D01*
X0031857Y0272947D01*
X0032027Y0272924D01*
X0032197Y0272897D01*
X0032366Y0272865D01*
X0032534Y0272830D01*
X0032701Y0272790D01*
X0032867Y0272746D01*
X0033032Y0272699D01*
X0033196Y0272647D01*
X0033358Y0272591D01*
X0033519Y0272531D01*
X0033679Y0272467D01*
X0033837Y0272399D01*
X0033993Y0272328D01*
X0034147Y0272253D01*
X0034300Y0272173D01*
X0034450Y0272091D01*
X0034599Y0272004D01*
X0034745Y0271914D01*
X0034889Y0271820D01*
X0035031Y0271723D01*
X0035170Y0271622D01*
X0035307Y0271518D01*
X0035441Y0271411D01*
X0035572Y0271300D01*
X0035701Y0271187D01*
X0035827Y0271070D01*
X0035950Y0270950D01*
X0036070Y0270827D01*
X0036187Y0270701D01*
X0036300Y0270572D01*
X0036411Y0270441D01*
X0036518Y0270307D01*
X0036622Y0270170D01*
X0036723Y0270031D01*
X0036820Y0269889D01*
X0036914Y0269745D01*
X0037004Y0269599D01*
X0037091Y0269450D01*
X0037173Y0269300D01*
X0037253Y0269147D01*
X0037328Y0268993D01*
X0037399Y0268837D01*
X0037467Y0268679D01*
X0037531Y0268519D01*
X0037591Y0268358D01*
X0037647Y0268196D01*
X0037699Y0268032D01*
X0037746Y0267867D01*
X0037790Y0267701D01*
X0037830Y0267534D01*
X0037865Y0267366D01*
X0037897Y0267197D01*
X0037924Y0267027D01*
X0037947Y0266857D01*
X0037966Y0266686D01*
X0037981Y0266515D01*
X0037992Y0266343D01*
X0037998Y0266172D01*
X0038000Y0266000D01*
X0037998Y0265828D01*
X0037992Y0265657D01*
X0037981Y0265485D01*
X0037966Y0265314D01*
X0037947Y0265143D01*
X0037924Y0264973D01*
X0037897Y0264803D01*
X0037865Y0264634D01*
X0037830Y0264466D01*
X0037790Y0264299D01*
X0037746Y0264133D01*
X0037699Y0263968D01*
X0037647Y0263804D01*
X0037591Y0263642D01*
X0037531Y0263481D01*
X0037467Y0263321D01*
X0037399Y0263163D01*
X0037328Y0263007D01*
X0037253Y0262853D01*
X0037173Y0262700D01*
X0037091Y0262550D01*
X0037004Y0262401D01*
X0036914Y0262255D01*
X0036820Y0262111D01*
X0036723Y0261969D01*
X0036622Y0261830D01*
X0036518Y0261693D01*
X0036411Y0261559D01*
X0036300Y0261428D01*
X0036187Y0261299D01*
X0036070Y0261173D01*
X0035950Y0261050D01*
X0035827Y0260930D01*
X0035701Y0260813D01*
X0035572Y0260700D01*
X0035441Y0260589D01*
X0035307Y0260482D01*
X0035170Y0260378D01*
X0035031Y0260277D01*
X0034889Y0260180D01*
X0034745Y0260086D01*
X0034599Y0259996D01*
X0034450Y0259909D01*
X0034300Y0259827D01*
X0034147Y0259747D01*
X0033993Y0259672D01*
X0033837Y0259601D01*
X0033679Y0259533D01*
X0033519Y0259469D01*
X0033358Y0259409D01*
X0033196Y0259353D01*
X0033032Y0259301D01*
X0032867Y0259254D01*
X0032701Y0259210D01*
X0032534Y0259170D01*
X0032366Y0259135D01*
X0032197Y0259103D01*
X0032027Y0259076D01*
X0031857Y0259053D01*
X0031686Y0259034D01*
X0031515Y0259019D01*
X0031343Y0259008D01*
X0031172Y0259002D01*
X0031000Y0259000D01*
X0030828Y0259002D01*
X0030657Y0259008D01*
X0030485Y0259019D01*
X0030314Y0259034D01*
X0030143Y0259053D01*
X0029973Y0259076D01*
X0029803Y0259103D01*
X0029634Y0259135D01*
X0029466Y0259170D01*
X0029299Y0259210D01*
X0029133Y0259254D01*
X0028968Y0259301D01*
X0028804Y0259353D01*
X0028642Y0259409D01*
X0028481Y0259469D01*
X0028321Y0259533D01*
X0028163Y0259601D01*
X0028007Y0259672D01*
X0027853Y0259747D01*
X0027700Y0259827D01*
X0027550Y0259909D01*
X0027401Y0259996D01*
X0027255Y0260086D01*
X0027111Y0260180D01*
X0026969Y0260277D01*
X0026830Y0260378D01*
X0026693Y0260482D01*
X0026559Y0260589D01*
X0026428Y0260700D01*
X0026299Y0260813D01*
X0026173Y0260930D01*
X0026050Y0261050D01*
X0025930Y0261173D01*
X0025813Y0261299D01*
X0025700Y0261428D01*
X0025589Y0261559D01*
X0025482Y0261693D01*
X0025378Y0261830D01*
X0025277Y0261969D01*
X0025180Y0262111D01*
X0025086Y0262255D01*
X0024996Y0262401D01*
X0024909Y0262550D01*
X0024827Y0262700D01*
X0024747Y0262853D01*
X0024672Y0263007D01*
X0024601Y0263163D01*
X0024533Y0263321D01*
X0024469Y0263481D01*
X0024409Y0263642D01*
X0024353Y0263804D01*
X0024301Y0263968D01*
X0024254Y0264133D01*
X0024210Y0264299D01*
X0024170Y0264466D01*
X0024135Y0264634D01*
X0024103Y0264803D01*
X0024076Y0264973D01*
X0024053Y0265143D01*
X0024034Y0265314D01*
X0024019Y0265485D01*
X0024008Y0265657D01*
X0024002Y0265828D01*
X0024000Y0266000D01*
X0044295Y0246157D02*
X0050700Y0246157D01*
X0050700Y0242954D01*
X0049632Y0241886D01*
X0047497Y0241886D01*
X0046430Y0242954D01*
X0046430Y0246157D01*
X0047497Y0239711D02*
X0048565Y0239711D01*
X0048565Y0235441D01*
X0049632Y0235441D02*
X0047497Y0235441D01*
X0046430Y0236509D01*
X0046430Y0238644D01*
X0047497Y0239711D01*
X0050700Y0238644D02*
X0050700Y0236509D01*
X0049632Y0235441D01*
X0048565Y0233266D02*
X0048565Y0228995D01*
X0049632Y0228995D02*
X0047497Y0228995D01*
X0046430Y0230063D01*
X0046430Y0232198D01*
X0047497Y0233266D01*
X0048565Y0233266D01*
X0050700Y0232198D02*
X0050700Y0230063D01*
X0049632Y0228995D01*
X0047497Y0224685D02*
X0047497Y0222550D01*
X0044295Y0222550D02*
X0044295Y0226820D01*
X0044295Y0222550D02*
X0050700Y0222550D01*
D14*
X0059000Y0208500D02*
X0059002Y0208589D01*
X0059008Y0208678D01*
X0059018Y0208767D01*
X0059032Y0208855D01*
X0059049Y0208942D01*
X0059071Y0209028D01*
X0059097Y0209114D01*
X0059126Y0209198D01*
X0059159Y0209281D01*
X0059195Y0209362D01*
X0059236Y0209442D01*
X0059279Y0209519D01*
X0059326Y0209595D01*
X0059377Y0209668D01*
X0059430Y0209739D01*
X0059487Y0209808D01*
X0059547Y0209874D01*
X0059610Y0209938D01*
X0059675Y0209998D01*
X0059743Y0210056D01*
X0059814Y0210110D01*
X0059887Y0210161D01*
X0059962Y0210209D01*
X0060039Y0210254D01*
X0060118Y0210295D01*
X0060199Y0210332D01*
X0060281Y0210366D01*
X0060365Y0210397D01*
X0060450Y0210423D01*
X0060536Y0210446D01*
X0060623Y0210464D01*
X0060711Y0210479D01*
X0060800Y0210490D01*
X0060889Y0210497D01*
X0060978Y0210500D01*
X0061067Y0210499D01*
X0061156Y0210494D01*
X0061244Y0210485D01*
X0061333Y0210472D01*
X0061420Y0210455D01*
X0061507Y0210435D01*
X0061593Y0210410D01*
X0061677Y0210382D01*
X0061760Y0210350D01*
X0061842Y0210314D01*
X0061922Y0210275D01*
X0062000Y0210232D01*
X0062076Y0210186D01*
X0062150Y0210136D01*
X0062222Y0210083D01*
X0062291Y0210027D01*
X0062358Y0209968D01*
X0062422Y0209906D01*
X0062483Y0209842D01*
X0062542Y0209774D01*
X0062597Y0209704D01*
X0062649Y0209632D01*
X0062698Y0209557D01*
X0062743Y0209481D01*
X0062785Y0209402D01*
X0062823Y0209322D01*
X0062858Y0209240D01*
X0062889Y0209156D01*
X0062917Y0209071D01*
X0062940Y0208985D01*
X0062960Y0208898D01*
X0062976Y0208811D01*
X0062988Y0208722D01*
X0062996Y0208634D01*
X0063000Y0208545D01*
X0063000Y0208455D01*
X0062996Y0208366D01*
X0062988Y0208278D01*
X0062976Y0208189D01*
X0062960Y0208102D01*
X0062940Y0208015D01*
X0062917Y0207929D01*
X0062889Y0207844D01*
X0062858Y0207760D01*
X0062823Y0207678D01*
X0062785Y0207598D01*
X0062743Y0207519D01*
X0062698Y0207443D01*
X0062649Y0207368D01*
X0062597Y0207296D01*
X0062542Y0207226D01*
X0062483Y0207158D01*
X0062422Y0207094D01*
X0062358Y0207032D01*
X0062291Y0206973D01*
X0062222Y0206917D01*
X0062150Y0206864D01*
X0062076Y0206814D01*
X0062000Y0206768D01*
X0061922Y0206725D01*
X0061842Y0206686D01*
X0061760Y0206650D01*
X0061677Y0206618D01*
X0061593Y0206590D01*
X0061507Y0206565D01*
X0061420Y0206545D01*
X0061333Y0206528D01*
X0061244Y0206515D01*
X0061156Y0206506D01*
X0061067Y0206501D01*
X0060978Y0206500D01*
X0060889Y0206503D01*
X0060800Y0206510D01*
X0060711Y0206521D01*
X0060623Y0206536D01*
X0060536Y0206554D01*
X0060450Y0206577D01*
X0060365Y0206603D01*
X0060281Y0206634D01*
X0060199Y0206668D01*
X0060118Y0206705D01*
X0060039Y0206746D01*
X0059962Y0206791D01*
X0059887Y0206839D01*
X0059814Y0206890D01*
X0059743Y0206944D01*
X0059675Y0207002D01*
X0059610Y0207062D01*
X0059547Y0207126D01*
X0059487Y0207192D01*
X0059430Y0207261D01*
X0059377Y0207332D01*
X0059326Y0207405D01*
X0059279Y0207481D01*
X0059236Y0207558D01*
X0059195Y0207638D01*
X0059159Y0207719D01*
X0059126Y0207802D01*
X0059097Y0207886D01*
X0059071Y0207972D01*
X0059049Y0208058D01*
X0059032Y0208145D01*
X0059018Y0208233D01*
X0059008Y0208322D01*
X0059002Y0208411D01*
X0059000Y0208500D01*
X0069000Y0208500D02*
X0069002Y0208589D01*
X0069008Y0208678D01*
X0069018Y0208767D01*
X0069032Y0208855D01*
X0069049Y0208942D01*
X0069071Y0209028D01*
X0069097Y0209114D01*
X0069126Y0209198D01*
X0069159Y0209281D01*
X0069195Y0209362D01*
X0069236Y0209442D01*
X0069279Y0209519D01*
X0069326Y0209595D01*
X0069377Y0209668D01*
X0069430Y0209739D01*
X0069487Y0209808D01*
X0069547Y0209874D01*
X0069610Y0209938D01*
X0069675Y0209998D01*
X0069743Y0210056D01*
X0069814Y0210110D01*
X0069887Y0210161D01*
X0069962Y0210209D01*
X0070039Y0210254D01*
X0070118Y0210295D01*
X0070199Y0210332D01*
X0070281Y0210366D01*
X0070365Y0210397D01*
X0070450Y0210423D01*
X0070536Y0210446D01*
X0070623Y0210464D01*
X0070711Y0210479D01*
X0070800Y0210490D01*
X0070889Y0210497D01*
X0070978Y0210500D01*
X0071067Y0210499D01*
X0071156Y0210494D01*
X0071244Y0210485D01*
X0071333Y0210472D01*
X0071420Y0210455D01*
X0071507Y0210435D01*
X0071593Y0210410D01*
X0071677Y0210382D01*
X0071760Y0210350D01*
X0071842Y0210314D01*
X0071922Y0210275D01*
X0072000Y0210232D01*
X0072076Y0210186D01*
X0072150Y0210136D01*
X0072222Y0210083D01*
X0072291Y0210027D01*
X0072358Y0209968D01*
X0072422Y0209906D01*
X0072483Y0209842D01*
X0072542Y0209774D01*
X0072597Y0209704D01*
X0072649Y0209632D01*
X0072698Y0209557D01*
X0072743Y0209481D01*
X0072785Y0209402D01*
X0072823Y0209322D01*
X0072858Y0209240D01*
X0072889Y0209156D01*
X0072917Y0209071D01*
X0072940Y0208985D01*
X0072960Y0208898D01*
X0072976Y0208811D01*
X0072988Y0208722D01*
X0072996Y0208634D01*
X0073000Y0208545D01*
X0073000Y0208455D01*
X0072996Y0208366D01*
X0072988Y0208278D01*
X0072976Y0208189D01*
X0072960Y0208102D01*
X0072940Y0208015D01*
X0072917Y0207929D01*
X0072889Y0207844D01*
X0072858Y0207760D01*
X0072823Y0207678D01*
X0072785Y0207598D01*
X0072743Y0207519D01*
X0072698Y0207443D01*
X0072649Y0207368D01*
X0072597Y0207296D01*
X0072542Y0207226D01*
X0072483Y0207158D01*
X0072422Y0207094D01*
X0072358Y0207032D01*
X0072291Y0206973D01*
X0072222Y0206917D01*
X0072150Y0206864D01*
X0072076Y0206814D01*
X0072000Y0206768D01*
X0071922Y0206725D01*
X0071842Y0206686D01*
X0071760Y0206650D01*
X0071677Y0206618D01*
X0071593Y0206590D01*
X0071507Y0206565D01*
X0071420Y0206545D01*
X0071333Y0206528D01*
X0071244Y0206515D01*
X0071156Y0206506D01*
X0071067Y0206501D01*
X0070978Y0206500D01*
X0070889Y0206503D01*
X0070800Y0206510D01*
X0070711Y0206521D01*
X0070623Y0206536D01*
X0070536Y0206554D01*
X0070450Y0206577D01*
X0070365Y0206603D01*
X0070281Y0206634D01*
X0070199Y0206668D01*
X0070118Y0206705D01*
X0070039Y0206746D01*
X0069962Y0206791D01*
X0069887Y0206839D01*
X0069814Y0206890D01*
X0069743Y0206944D01*
X0069675Y0207002D01*
X0069610Y0207062D01*
X0069547Y0207126D01*
X0069487Y0207192D01*
X0069430Y0207261D01*
X0069377Y0207332D01*
X0069326Y0207405D01*
X0069279Y0207481D01*
X0069236Y0207558D01*
X0069195Y0207638D01*
X0069159Y0207719D01*
X0069126Y0207802D01*
X0069097Y0207886D01*
X0069071Y0207972D01*
X0069049Y0208058D01*
X0069032Y0208145D01*
X0069018Y0208233D01*
X0069008Y0208322D01*
X0069002Y0208411D01*
X0069000Y0208500D01*
X0079000Y0208500D02*
X0079002Y0208589D01*
X0079008Y0208678D01*
X0079018Y0208767D01*
X0079032Y0208855D01*
X0079049Y0208942D01*
X0079071Y0209028D01*
X0079097Y0209114D01*
X0079126Y0209198D01*
X0079159Y0209281D01*
X0079195Y0209362D01*
X0079236Y0209442D01*
X0079279Y0209519D01*
X0079326Y0209595D01*
X0079377Y0209668D01*
X0079430Y0209739D01*
X0079487Y0209808D01*
X0079547Y0209874D01*
X0079610Y0209938D01*
X0079675Y0209998D01*
X0079743Y0210056D01*
X0079814Y0210110D01*
X0079887Y0210161D01*
X0079962Y0210209D01*
X0080039Y0210254D01*
X0080118Y0210295D01*
X0080199Y0210332D01*
X0080281Y0210366D01*
X0080365Y0210397D01*
X0080450Y0210423D01*
X0080536Y0210446D01*
X0080623Y0210464D01*
X0080711Y0210479D01*
X0080800Y0210490D01*
X0080889Y0210497D01*
X0080978Y0210500D01*
X0081067Y0210499D01*
X0081156Y0210494D01*
X0081244Y0210485D01*
X0081333Y0210472D01*
X0081420Y0210455D01*
X0081507Y0210435D01*
X0081593Y0210410D01*
X0081677Y0210382D01*
X0081760Y0210350D01*
X0081842Y0210314D01*
X0081922Y0210275D01*
X0082000Y0210232D01*
X0082076Y0210186D01*
X0082150Y0210136D01*
X0082222Y0210083D01*
X0082291Y0210027D01*
X0082358Y0209968D01*
X0082422Y0209906D01*
X0082483Y0209842D01*
X0082542Y0209774D01*
X0082597Y0209704D01*
X0082649Y0209632D01*
X0082698Y0209557D01*
X0082743Y0209481D01*
X0082785Y0209402D01*
X0082823Y0209322D01*
X0082858Y0209240D01*
X0082889Y0209156D01*
X0082917Y0209071D01*
X0082940Y0208985D01*
X0082960Y0208898D01*
X0082976Y0208811D01*
X0082988Y0208722D01*
X0082996Y0208634D01*
X0083000Y0208545D01*
X0083000Y0208455D01*
X0082996Y0208366D01*
X0082988Y0208278D01*
X0082976Y0208189D01*
X0082960Y0208102D01*
X0082940Y0208015D01*
X0082917Y0207929D01*
X0082889Y0207844D01*
X0082858Y0207760D01*
X0082823Y0207678D01*
X0082785Y0207598D01*
X0082743Y0207519D01*
X0082698Y0207443D01*
X0082649Y0207368D01*
X0082597Y0207296D01*
X0082542Y0207226D01*
X0082483Y0207158D01*
X0082422Y0207094D01*
X0082358Y0207032D01*
X0082291Y0206973D01*
X0082222Y0206917D01*
X0082150Y0206864D01*
X0082076Y0206814D01*
X0082000Y0206768D01*
X0081922Y0206725D01*
X0081842Y0206686D01*
X0081760Y0206650D01*
X0081677Y0206618D01*
X0081593Y0206590D01*
X0081507Y0206565D01*
X0081420Y0206545D01*
X0081333Y0206528D01*
X0081244Y0206515D01*
X0081156Y0206506D01*
X0081067Y0206501D01*
X0080978Y0206500D01*
X0080889Y0206503D01*
X0080800Y0206510D01*
X0080711Y0206521D01*
X0080623Y0206536D01*
X0080536Y0206554D01*
X0080450Y0206577D01*
X0080365Y0206603D01*
X0080281Y0206634D01*
X0080199Y0206668D01*
X0080118Y0206705D01*
X0080039Y0206746D01*
X0079962Y0206791D01*
X0079887Y0206839D01*
X0079814Y0206890D01*
X0079743Y0206944D01*
X0079675Y0207002D01*
X0079610Y0207062D01*
X0079547Y0207126D01*
X0079487Y0207192D01*
X0079430Y0207261D01*
X0079377Y0207332D01*
X0079326Y0207405D01*
X0079279Y0207481D01*
X0079236Y0207558D01*
X0079195Y0207638D01*
X0079159Y0207719D01*
X0079126Y0207802D01*
X0079097Y0207886D01*
X0079071Y0207972D01*
X0079049Y0208058D01*
X0079032Y0208145D01*
X0079018Y0208233D01*
X0079008Y0208322D01*
X0079002Y0208411D01*
X0079000Y0208500D01*
X0089000Y0208500D02*
X0089002Y0208589D01*
X0089008Y0208678D01*
X0089018Y0208767D01*
X0089032Y0208855D01*
X0089049Y0208942D01*
X0089071Y0209028D01*
X0089097Y0209114D01*
X0089126Y0209198D01*
X0089159Y0209281D01*
X0089195Y0209362D01*
X0089236Y0209442D01*
X0089279Y0209519D01*
X0089326Y0209595D01*
X0089377Y0209668D01*
X0089430Y0209739D01*
X0089487Y0209808D01*
X0089547Y0209874D01*
X0089610Y0209938D01*
X0089675Y0209998D01*
X0089743Y0210056D01*
X0089814Y0210110D01*
X0089887Y0210161D01*
X0089962Y0210209D01*
X0090039Y0210254D01*
X0090118Y0210295D01*
X0090199Y0210332D01*
X0090281Y0210366D01*
X0090365Y0210397D01*
X0090450Y0210423D01*
X0090536Y0210446D01*
X0090623Y0210464D01*
X0090711Y0210479D01*
X0090800Y0210490D01*
X0090889Y0210497D01*
X0090978Y0210500D01*
X0091067Y0210499D01*
X0091156Y0210494D01*
X0091244Y0210485D01*
X0091333Y0210472D01*
X0091420Y0210455D01*
X0091507Y0210435D01*
X0091593Y0210410D01*
X0091677Y0210382D01*
X0091760Y0210350D01*
X0091842Y0210314D01*
X0091922Y0210275D01*
X0092000Y0210232D01*
X0092076Y0210186D01*
X0092150Y0210136D01*
X0092222Y0210083D01*
X0092291Y0210027D01*
X0092358Y0209968D01*
X0092422Y0209906D01*
X0092483Y0209842D01*
X0092542Y0209774D01*
X0092597Y0209704D01*
X0092649Y0209632D01*
X0092698Y0209557D01*
X0092743Y0209481D01*
X0092785Y0209402D01*
X0092823Y0209322D01*
X0092858Y0209240D01*
X0092889Y0209156D01*
X0092917Y0209071D01*
X0092940Y0208985D01*
X0092960Y0208898D01*
X0092976Y0208811D01*
X0092988Y0208722D01*
X0092996Y0208634D01*
X0093000Y0208545D01*
X0093000Y0208455D01*
X0092996Y0208366D01*
X0092988Y0208278D01*
X0092976Y0208189D01*
X0092960Y0208102D01*
X0092940Y0208015D01*
X0092917Y0207929D01*
X0092889Y0207844D01*
X0092858Y0207760D01*
X0092823Y0207678D01*
X0092785Y0207598D01*
X0092743Y0207519D01*
X0092698Y0207443D01*
X0092649Y0207368D01*
X0092597Y0207296D01*
X0092542Y0207226D01*
X0092483Y0207158D01*
X0092422Y0207094D01*
X0092358Y0207032D01*
X0092291Y0206973D01*
X0092222Y0206917D01*
X0092150Y0206864D01*
X0092076Y0206814D01*
X0092000Y0206768D01*
X0091922Y0206725D01*
X0091842Y0206686D01*
X0091760Y0206650D01*
X0091677Y0206618D01*
X0091593Y0206590D01*
X0091507Y0206565D01*
X0091420Y0206545D01*
X0091333Y0206528D01*
X0091244Y0206515D01*
X0091156Y0206506D01*
X0091067Y0206501D01*
X0090978Y0206500D01*
X0090889Y0206503D01*
X0090800Y0206510D01*
X0090711Y0206521D01*
X0090623Y0206536D01*
X0090536Y0206554D01*
X0090450Y0206577D01*
X0090365Y0206603D01*
X0090281Y0206634D01*
X0090199Y0206668D01*
X0090118Y0206705D01*
X0090039Y0206746D01*
X0089962Y0206791D01*
X0089887Y0206839D01*
X0089814Y0206890D01*
X0089743Y0206944D01*
X0089675Y0207002D01*
X0089610Y0207062D01*
X0089547Y0207126D01*
X0089487Y0207192D01*
X0089430Y0207261D01*
X0089377Y0207332D01*
X0089326Y0207405D01*
X0089279Y0207481D01*
X0089236Y0207558D01*
X0089195Y0207638D01*
X0089159Y0207719D01*
X0089126Y0207802D01*
X0089097Y0207886D01*
X0089071Y0207972D01*
X0089049Y0208058D01*
X0089032Y0208145D01*
X0089018Y0208233D01*
X0089008Y0208322D01*
X0089002Y0208411D01*
X0089000Y0208500D01*
X0099000Y0208500D02*
X0099002Y0208589D01*
X0099008Y0208678D01*
X0099018Y0208767D01*
X0099032Y0208855D01*
X0099049Y0208942D01*
X0099071Y0209028D01*
X0099097Y0209114D01*
X0099126Y0209198D01*
X0099159Y0209281D01*
X0099195Y0209362D01*
X0099236Y0209442D01*
X0099279Y0209519D01*
X0099326Y0209595D01*
X0099377Y0209668D01*
X0099430Y0209739D01*
X0099487Y0209808D01*
X0099547Y0209874D01*
X0099610Y0209938D01*
X0099675Y0209998D01*
X0099743Y0210056D01*
X0099814Y0210110D01*
X0099887Y0210161D01*
X0099962Y0210209D01*
X0100039Y0210254D01*
X0100118Y0210295D01*
X0100199Y0210332D01*
X0100281Y0210366D01*
X0100365Y0210397D01*
X0100450Y0210423D01*
X0100536Y0210446D01*
X0100623Y0210464D01*
X0100711Y0210479D01*
X0100800Y0210490D01*
X0100889Y0210497D01*
X0100978Y0210500D01*
X0101067Y0210499D01*
X0101156Y0210494D01*
X0101244Y0210485D01*
X0101333Y0210472D01*
X0101420Y0210455D01*
X0101507Y0210435D01*
X0101593Y0210410D01*
X0101677Y0210382D01*
X0101760Y0210350D01*
X0101842Y0210314D01*
X0101922Y0210275D01*
X0102000Y0210232D01*
X0102076Y0210186D01*
X0102150Y0210136D01*
X0102222Y0210083D01*
X0102291Y0210027D01*
X0102358Y0209968D01*
X0102422Y0209906D01*
X0102483Y0209842D01*
X0102542Y0209774D01*
X0102597Y0209704D01*
X0102649Y0209632D01*
X0102698Y0209557D01*
X0102743Y0209481D01*
X0102785Y0209402D01*
X0102823Y0209322D01*
X0102858Y0209240D01*
X0102889Y0209156D01*
X0102917Y0209071D01*
X0102940Y0208985D01*
X0102960Y0208898D01*
X0102976Y0208811D01*
X0102988Y0208722D01*
X0102996Y0208634D01*
X0103000Y0208545D01*
X0103000Y0208455D01*
X0102996Y0208366D01*
X0102988Y0208278D01*
X0102976Y0208189D01*
X0102960Y0208102D01*
X0102940Y0208015D01*
X0102917Y0207929D01*
X0102889Y0207844D01*
X0102858Y0207760D01*
X0102823Y0207678D01*
X0102785Y0207598D01*
X0102743Y0207519D01*
X0102698Y0207443D01*
X0102649Y0207368D01*
X0102597Y0207296D01*
X0102542Y0207226D01*
X0102483Y0207158D01*
X0102422Y0207094D01*
X0102358Y0207032D01*
X0102291Y0206973D01*
X0102222Y0206917D01*
X0102150Y0206864D01*
X0102076Y0206814D01*
X0102000Y0206768D01*
X0101922Y0206725D01*
X0101842Y0206686D01*
X0101760Y0206650D01*
X0101677Y0206618D01*
X0101593Y0206590D01*
X0101507Y0206565D01*
X0101420Y0206545D01*
X0101333Y0206528D01*
X0101244Y0206515D01*
X0101156Y0206506D01*
X0101067Y0206501D01*
X0100978Y0206500D01*
X0100889Y0206503D01*
X0100800Y0206510D01*
X0100711Y0206521D01*
X0100623Y0206536D01*
X0100536Y0206554D01*
X0100450Y0206577D01*
X0100365Y0206603D01*
X0100281Y0206634D01*
X0100199Y0206668D01*
X0100118Y0206705D01*
X0100039Y0206746D01*
X0099962Y0206791D01*
X0099887Y0206839D01*
X0099814Y0206890D01*
X0099743Y0206944D01*
X0099675Y0207002D01*
X0099610Y0207062D01*
X0099547Y0207126D01*
X0099487Y0207192D01*
X0099430Y0207261D01*
X0099377Y0207332D01*
X0099326Y0207405D01*
X0099279Y0207481D01*
X0099236Y0207558D01*
X0099195Y0207638D01*
X0099159Y0207719D01*
X0099126Y0207802D01*
X0099097Y0207886D01*
X0099071Y0207972D01*
X0099049Y0208058D01*
X0099032Y0208145D01*
X0099018Y0208233D01*
X0099008Y0208322D01*
X0099002Y0208411D01*
X0099000Y0208500D01*
X0119000Y0208500D02*
X0119002Y0208589D01*
X0119008Y0208678D01*
X0119018Y0208767D01*
X0119032Y0208855D01*
X0119049Y0208942D01*
X0119071Y0209028D01*
X0119097Y0209114D01*
X0119126Y0209198D01*
X0119159Y0209281D01*
X0119195Y0209362D01*
X0119236Y0209442D01*
X0119279Y0209519D01*
X0119326Y0209595D01*
X0119377Y0209668D01*
X0119430Y0209739D01*
X0119487Y0209808D01*
X0119547Y0209874D01*
X0119610Y0209938D01*
X0119675Y0209998D01*
X0119743Y0210056D01*
X0119814Y0210110D01*
X0119887Y0210161D01*
X0119962Y0210209D01*
X0120039Y0210254D01*
X0120118Y0210295D01*
X0120199Y0210332D01*
X0120281Y0210366D01*
X0120365Y0210397D01*
X0120450Y0210423D01*
X0120536Y0210446D01*
X0120623Y0210464D01*
X0120711Y0210479D01*
X0120800Y0210490D01*
X0120889Y0210497D01*
X0120978Y0210500D01*
X0121067Y0210499D01*
X0121156Y0210494D01*
X0121244Y0210485D01*
X0121333Y0210472D01*
X0121420Y0210455D01*
X0121507Y0210435D01*
X0121593Y0210410D01*
X0121677Y0210382D01*
X0121760Y0210350D01*
X0121842Y0210314D01*
X0121922Y0210275D01*
X0122000Y0210232D01*
X0122076Y0210186D01*
X0122150Y0210136D01*
X0122222Y0210083D01*
X0122291Y0210027D01*
X0122358Y0209968D01*
X0122422Y0209906D01*
X0122483Y0209842D01*
X0122542Y0209774D01*
X0122597Y0209704D01*
X0122649Y0209632D01*
X0122698Y0209557D01*
X0122743Y0209481D01*
X0122785Y0209402D01*
X0122823Y0209322D01*
X0122858Y0209240D01*
X0122889Y0209156D01*
X0122917Y0209071D01*
X0122940Y0208985D01*
X0122960Y0208898D01*
X0122976Y0208811D01*
X0122988Y0208722D01*
X0122996Y0208634D01*
X0123000Y0208545D01*
X0123000Y0208455D01*
X0122996Y0208366D01*
X0122988Y0208278D01*
X0122976Y0208189D01*
X0122960Y0208102D01*
X0122940Y0208015D01*
X0122917Y0207929D01*
X0122889Y0207844D01*
X0122858Y0207760D01*
X0122823Y0207678D01*
X0122785Y0207598D01*
X0122743Y0207519D01*
X0122698Y0207443D01*
X0122649Y0207368D01*
X0122597Y0207296D01*
X0122542Y0207226D01*
X0122483Y0207158D01*
X0122422Y0207094D01*
X0122358Y0207032D01*
X0122291Y0206973D01*
X0122222Y0206917D01*
X0122150Y0206864D01*
X0122076Y0206814D01*
X0122000Y0206768D01*
X0121922Y0206725D01*
X0121842Y0206686D01*
X0121760Y0206650D01*
X0121677Y0206618D01*
X0121593Y0206590D01*
X0121507Y0206565D01*
X0121420Y0206545D01*
X0121333Y0206528D01*
X0121244Y0206515D01*
X0121156Y0206506D01*
X0121067Y0206501D01*
X0120978Y0206500D01*
X0120889Y0206503D01*
X0120800Y0206510D01*
X0120711Y0206521D01*
X0120623Y0206536D01*
X0120536Y0206554D01*
X0120450Y0206577D01*
X0120365Y0206603D01*
X0120281Y0206634D01*
X0120199Y0206668D01*
X0120118Y0206705D01*
X0120039Y0206746D01*
X0119962Y0206791D01*
X0119887Y0206839D01*
X0119814Y0206890D01*
X0119743Y0206944D01*
X0119675Y0207002D01*
X0119610Y0207062D01*
X0119547Y0207126D01*
X0119487Y0207192D01*
X0119430Y0207261D01*
X0119377Y0207332D01*
X0119326Y0207405D01*
X0119279Y0207481D01*
X0119236Y0207558D01*
X0119195Y0207638D01*
X0119159Y0207719D01*
X0119126Y0207802D01*
X0119097Y0207886D01*
X0119071Y0207972D01*
X0119049Y0208058D01*
X0119032Y0208145D01*
X0119018Y0208233D01*
X0119008Y0208322D01*
X0119002Y0208411D01*
X0119000Y0208500D01*
X0129000Y0208500D02*
X0129002Y0208589D01*
X0129008Y0208678D01*
X0129018Y0208767D01*
X0129032Y0208855D01*
X0129049Y0208942D01*
X0129071Y0209028D01*
X0129097Y0209114D01*
X0129126Y0209198D01*
X0129159Y0209281D01*
X0129195Y0209362D01*
X0129236Y0209442D01*
X0129279Y0209519D01*
X0129326Y0209595D01*
X0129377Y0209668D01*
X0129430Y0209739D01*
X0129487Y0209808D01*
X0129547Y0209874D01*
X0129610Y0209938D01*
X0129675Y0209998D01*
X0129743Y0210056D01*
X0129814Y0210110D01*
X0129887Y0210161D01*
X0129962Y0210209D01*
X0130039Y0210254D01*
X0130118Y0210295D01*
X0130199Y0210332D01*
X0130281Y0210366D01*
X0130365Y0210397D01*
X0130450Y0210423D01*
X0130536Y0210446D01*
X0130623Y0210464D01*
X0130711Y0210479D01*
X0130800Y0210490D01*
X0130889Y0210497D01*
X0130978Y0210500D01*
X0131067Y0210499D01*
X0131156Y0210494D01*
X0131244Y0210485D01*
X0131333Y0210472D01*
X0131420Y0210455D01*
X0131507Y0210435D01*
X0131593Y0210410D01*
X0131677Y0210382D01*
X0131760Y0210350D01*
X0131842Y0210314D01*
X0131922Y0210275D01*
X0132000Y0210232D01*
X0132076Y0210186D01*
X0132150Y0210136D01*
X0132222Y0210083D01*
X0132291Y0210027D01*
X0132358Y0209968D01*
X0132422Y0209906D01*
X0132483Y0209842D01*
X0132542Y0209774D01*
X0132597Y0209704D01*
X0132649Y0209632D01*
X0132698Y0209557D01*
X0132743Y0209481D01*
X0132785Y0209402D01*
X0132823Y0209322D01*
X0132858Y0209240D01*
X0132889Y0209156D01*
X0132917Y0209071D01*
X0132940Y0208985D01*
X0132960Y0208898D01*
X0132976Y0208811D01*
X0132988Y0208722D01*
X0132996Y0208634D01*
X0133000Y0208545D01*
X0133000Y0208455D01*
X0132996Y0208366D01*
X0132988Y0208278D01*
X0132976Y0208189D01*
X0132960Y0208102D01*
X0132940Y0208015D01*
X0132917Y0207929D01*
X0132889Y0207844D01*
X0132858Y0207760D01*
X0132823Y0207678D01*
X0132785Y0207598D01*
X0132743Y0207519D01*
X0132698Y0207443D01*
X0132649Y0207368D01*
X0132597Y0207296D01*
X0132542Y0207226D01*
X0132483Y0207158D01*
X0132422Y0207094D01*
X0132358Y0207032D01*
X0132291Y0206973D01*
X0132222Y0206917D01*
X0132150Y0206864D01*
X0132076Y0206814D01*
X0132000Y0206768D01*
X0131922Y0206725D01*
X0131842Y0206686D01*
X0131760Y0206650D01*
X0131677Y0206618D01*
X0131593Y0206590D01*
X0131507Y0206565D01*
X0131420Y0206545D01*
X0131333Y0206528D01*
X0131244Y0206515D01*
X0131156Y0206506D01*
X0131067Y0206501D01*
X0130978Y0206500D01*
X0130889Y0206503D01*
X0130800Y0206510D01*
X0130711Y0206521D01*
X0130623Y0206536D01*
X0130536Y0206554D01*
X0130450Y0206577D01*
X0130365Y0206603D01*
X0130281Y0206634D01*
X0130199Y0206668D01*
X0130118Y0206705D01*
X0130039Y0206746D01*
X0129962Y0206791D01*
X0129887Y0206839D01*
X0129814Y0206890D01*
X0129743Y0206944D01*
X0129675Y0207002D01*
X0129610Y0207062D01*
X0129547Y0207126D01*
X0129487Y0207192D01*
X0129430Y0207261D01*
X0129377Y0207332D01*
X0129326Y0207405D01*
X0129279Y0207481D01*
X0129236Y0207558D01*
X0129195Y0207638D01*
X0129159Y0207719D01*
X0129126Y0207802D01*
X0129097Y0207886D01*
X0129071Y0207972D01*
X0129049Y0208058D01*
X0129032Y0208145D01*
X0129018Y0208233D01*
X0129008Y0208322D01*
X0129002Y0208411D01*
X0129000Y0208500D01*
X0139000Y0208500D02*
X0139002Y0208589D01*
X0139008Y0208678D01*
X0139018Y0208767D01*
X0139032Y0208855D01*
X0139049Y0208942D01*
X0139071Y0209028D01*
X0139097Y0209114D01*
X0139126Y0209198D01*
X0139159Y0209281D01*
X0139195Y0209362D01*
X0139236Y0209442D01*
X0139279Y0209519D01*
X0139326Y0209595D01*
X0139377Y0209668D01*
X0139430Y0209739D01*
X0139487Y0209808D01*
X0139547Y0209874D01*
X0139610Y0209938D01*
X0139675Y0209998D01*
X0139743Y0210056D01*
X0139814Y0210110D01*
X0139887Y0210161D01*
X0139962Y0210209D01*
X0140039Y0210254D01*
X0140118Y0210295D01*
X0140199Y0210332D01*
X0140281Y0210366D01*
X0140365Y0210397D01*
X0140450Y0210423D01*
X0140536Y0210446D01*
X0140623Y0210464D01*
X0140711Y0210479D01*
X0140800Y0210490D01*
X0140889Y0210497D01*
X0140978Y0210500D01*
X0141067Y0210499D01*
X0141156Y0210494D01*
X0141244Y0210485D01*
X0141333Y0210472D01*
X0141420Y0210455D01*
X0141507Y0210435D01*
X0141593Y0210410D01*
X0141677Y0210382D01*
X0141760Y0210350D01*
X0141842Y0210314D01*
X0141922Y0210275D01*
X0142000Y0210232D01*
X0142076Y0210186D01*
X0142150Y0210136D01*
X0142222Y0210083D01*
X0142291Y0210027D01*
X0142358Y0209968D01*
X0142422Y0209906D01*
X0142483Y0209842D01*
X0142542Y0209774D01*
X0142597Y0209704D01*
X0142649Y0209632D01*
X0142698Y0209557D01*
X0142743Y0209481D01*
X0142785Y0209402D01*
X0142823Y0209322D01*
X0142858Y0209240D01*
X0142889Y0209156D01*
X0142917Y0209071D01*
X0142940Y0208985D01*
X0142960Y0208898D01*
X0142976Y0208811D01*
X0142988Y0208722D01*
X0142996Y0208634D01*
X0143000Y0208545D01*
X0143000Y0208455D01*
X0142996Y0208366D01*
X0142988Y0208278D01*
X0142976Y0208189D01*
X0142960Y0208102D01*
X0142940Y0208015D01*
X0142917Y0207929D01*
X0142889Y0207844D01*
X0142858Y0207760D01*
X0142823Y0207678D01*
X0142785Y0207598D01*
X0142743Y0207519D01*
X0142698Y0207443D01*
X0142649Y0207368D01*
X0142597Y0207296D01*
X0142542Y0207226D01*
X0142483Y0207158D01*
X0142422Y0207094D01*
X0142358Y0207032D01*
X0142291Y0206973D01*
X0142222Y0206917D01*
X0142150Y0206864D01*
X0142076Y0206814D01*
X0142000Y0206768D01*
X0141922Y0206725D01*
X0141842Y0206686D01*
X0141760Y0206650D01*
X0141677Y0206618D01*
X0141593Y0206590D01*
X0141507Y0206565D01*
X0141420Y0206545D01*
X0141333Y0206528D01*
X0141244Y0206515D01*
X0141156Y0206506D01*
X0141067Y0206501D01*
X0140978Y0206500D01*
X0140889Y0206503D01*
X0140800Y0206510D01*
X0140711Y0206521D01*
X0140623Y0206536D01*
X0140536Y0206554D01*
X0140450Y0206577D01*
X0140365Y0206603D01*
X0140281Y0206634D01*
X0140199Y0206668D01*
X0140118Y0206705D01*
X0140039Y0206746D01*
X0139962Y0206791D01*
X0139887Y0206839D01*
X0139814Y0206890D01*
X0139743Y0206944D01*
X0139675Y0207002D01*
X0139610Y0207062D01*
X0139547Y0207126D01*
X0139487Y0207192D01*
X0139430Y0207261D01*
X0139377Y0207332D01*
X0139326Y0207405D01*
X0139279Y0207481D01*
X0139236Y0207558D01*
X0139195Y0207638D01*
X0139159Y0207719D01*
X0139126Y0207802D01*
X0139097Y0207886D01*
X0139071Y0207972D01*
X0139049Y0208058D01*
X0139032Y0208145D01*
X0139018Y0208233D01*
X0139008Y0208322D01*
X0139002Y0208411D01*
X0139000Y0208500D01*
D15*
X0041000Y0237250D02*
X0038500Y0237250D01*
X0038500Y0241000D01*
X0038500Y0237250D02*
X0036000Y0237250D01*
X0034125Y0237250D02*
X0031000Y0240375D01*
X0031000Y0239125D01*
X0031000Y0240375D02*
X0032250Y0240375D01*
X0032250Y0236000D02*
X0031000Y0236000D01*
X0031000Y0234750D01*
X0031000Y0236000D02*
X0034125Y0232875D01*
X0038500Y0233500D02*
X0038500Y0229750D01*
X0038500Y0291000D02*
X0038500Y0294750D01*
X0038500Y0298500D02*
X0036000Y0298500D01*
X0034125Y0298500D02*
X0031000Y0301625D01*
X0031000Y0300375D01*
X0031000Y0301625D02*
X0032250Y0301625D01*
X0032250Y0297250D02*
X0031000Y0297250D01*
X0031000Y0296000D01*
X0031000Y0297250D02*
X0034125Y0294125D01*
X0038500Y0298500D02*
X0038500Y0302250D01*
X0038500Y0298500D02*
X0041000Y0298500D01*
D16*
X0087250Y0302250D02*
X0087250Y0309750D01*
X0087875Y0309750D02*
X0094750Y0309750D01*
X0094750Y0302250D01*
X0087875Y0302250D01*
X0107250Y0302250D02*
X0107250Y0309750D01*
X0107875Y0309750D02*
X0114750Y0309750D01*
X0114750Y0302250D01*
X0107875Y0302250D01*
X0127250Y0302250D02*
X0127250Y0309750D01*
X0127875Y0309750D02*
X0134750Y0309750D01*
X0134750Y0302250D01*
X0127875Y0302250D01*
X0147250Y0302250D02*
X0147250Y0309750D01*
X0147875Y0309750D02*
X0154750Y0309750D01*
X0154750Y0302250D01*
X0155375Y0302250D01*
X0154750Y0302250D02*
X0147875Y0302250D01*
X0154750Y0309750D02*
X0155375Y0309750D01*
D17*
X0067300Y0309000D02*
X0067300Y0303000D01*
X0064800Y0303000D02*
X0064800Y0309000D01*
D18*
X0090250Y0106000D03*
X0111750Y0106000D03*
X0110250Y0066000D03*
X0110250Y0056000D03*
X0091750Y0056000D03*
X0091750Y0066000D03*
X0070250Y0066000D03*
X0070250Y0056000D03*
X0131750Y0056000D03*
X0131750Y0066000D03*
D19*
X0043000Y0261000D02*
X0042000Y0261000D01*
X0042000Y0270500D01*
X0043000Y0270500D01*
X0020000Y0271000D02*
X0020000Y0261000D01*
X0019000Y0261000D01*
X0019000Y0271000D02*
X0020000Y0271000D01*
M02*
