M48
; DRILL file {KiCad 9.0.9-9.0.9~ubuntu24.04.1} date 2026-06-11T15:59:33+0200
; FORMAT={-:-/ absolute / metric / decimal}
; #@! TF.CreationDate,2026-06-11T15:59:33+02:00
; #@! TF.GenerationSoftware,Kicad,Pcbnew,9.0.9-9.0.9~ubuntu24.04.1
; #@! TF.FileFunction,Plated,1,2,PTH
FMAT,2
METRIC
; #@! TA.AperFunction,Plated,PTH,ComponentDrill
T1C0.813
; #@! TA.AperFunction,Plated,PTH,ComponentDrill
T2C0.914
; #@! TA.AperFunction,Plated,PTH,ComponentDrill
T3C1.016
%
G90
G05
T1
X111.671Y-71.984
X111.671Y-80.874
X111.671Y-83.414
X111.671Y-92.304
X111.671Y-126.594
X111.671Y-129.134
X112.941Y-132.944
X112.941Y-135.484
X114.211Y-71.984
X114.211Y-80.874
X114.211Y-83.414
X114.211Y-92.304
X114.211Y-126.594
X114.211Y-129.134
X116.751Y-71.984
X116.751Y-80.874
X116.751Y-83.414
X116.751Y-92.304
X116.751Y-126.594
X116.751Y-129.134
X118.021Y-122.784
X119.291Y-71.984
X119.291Y-80.874
X119.291Y-83.414
X119.291Y-92.304
X119.291Y-126.594
X119.291Y-129.134
X120.561Y-132.944
X120.561Y-135.484
X121.831Y-71.984
X121.831Y-80.874
X121.831Y-83.414
X121.831Y-92.304
X121.831Y-126.594
X121.831Y-129.134
X123.101Y-132.944
X123.101Y-135.484
X124.371Y-71.984
X124.371Y-80.874
X124.371Y-83.414
X124.371Y-92.304
X124.371Y-126.594
X124.371Y-129.134
X125.641Y-122.784
X126.911Y-71.984
X126.911Y-80.874
X126.911Y-83.414
X126.911Y-92.304
X126.911Y-126.594
X126.911Y-129.134
X129.451Y-71.984
X129.451Y-80.874
X129.451Y-83.414
X129.451Y-92.304
X129.451Y-126.594
X129.451Y-129.134
X130.721Y-132.944
X130.721Y-135.484
X131.991Y-71.984
X131.991Y-80.874
X131.991Y-83.414
X131.991Y-92.304
X131.991Y-126.594
X131.991Y-129.134
X134.531Y-71.984
X134.531Y-92.304
T2
X139.611Y-80.874
X139.611Y-83.414
X139.611Y-126.594
X139.611Y-129.134
T3
X101.79Y-78.892
X101.79Y-85.395
X106.312Y-78.892
X106.312Y-85.395
X111.671Y-74.524
X111.671Y-89.764
X114.211Y-74.524
X114.211Y-89.764
X116.751Y-74.524
X116.751Y-89.764
X119.291Y-74.524
X119.291Y-89.764
X121.831Y-74.524
X121.831Y-89.764
X124.371Y-74.524
X124.371Y-89.764
X126.911Y-74.524
X126.911Y-89.764
X129.451Y-74.524
X129.451Y-89.764
X131.991Y-74.524
X131.991Y-89.764
X134.531Y-74.524
X134.531Y-89.764
X137.071Y-74.524
X137.071Y-89.764
X139.611Y-74.524
X139.611Y-89.764
M30
