%TF.GenerationSoftware,KiCad,Pcbnew,9.0.9-9.0.9~ubuntu24.04.1*%
%TF.CreationDate,2026-06-11T15:59:49+02:00*%
%TF.ProjectId,papertape_pcb,70617065-7274-4617-9065-5f7063622e6b,rev?*%
%TF.SameCoordinates,Original*%
%TF.FileFunction,Soldermask,Bot*%
%TF.FilePolarity,Negative*%
%FSLAX46Y46*%
G04 Gerber Fmt 4.6, Leading zero omitted, Abs format (unit mm)*
G04 Created by KiCad (PCBNEW 9.0.9-9.0.9~ubuntu24.04.1) date 2026-06-11 15:59:49*
%MOMM*%
%LPD*%
G01*
G04 APERTURE LIST*
G04 Aperture macros list*
%AMFreePoly0*
4,1,25,0.391131,0.882296,0.403254,0.871942,0.871942,0.403254,0.900449,0.347306,0.901700,0.331412,0.901700,-0.331412,0.882296,-0.391131,0.871942,-0.403254,0.403254,-0.871942,0.347306,-0.900449,0.331412,-0.901700,-0.331412,-0.901700,-0.391131,-0.882296,-0.403254,-0.871942,-0.871942,-0.403254,-0.900449,-0.347306,-0.901700,-0.331412,-0.901700,0.331412,-0.882296,0.391131,-0.871942,0.403254,
-0.403254,0.871942,-0.347306,0.900449,-0.331412,0.901700,0.331412,0.901700,0.391131,0.882296,0.391131,0.882296,$1*%
%AMFreePoly1*
4,1,25,0.333266,0.742596,0.345389,0.732242,0.732242,0.345389,0.760749,0.289441,0.762000,0.273547,0.762000,-0.273547,0.742596,-0.333266,0.732242,-0.345389,0.345389,-0.732242,0.289441,-0.760749,0.273547,-0.762000,-0.273547,-0.762000,-0.333266,-0.742596,-0.345389,-0.732242,-0.732242,-0.345389,-0.760749,-0.289441,-0.762000,-0.273547,-0.762000,0.273547,-0.742596,0.333266,-0.732242,0.345389,
-0.345389,0.732242,-0.289441,0.760749,-0.273547,0.762000,0.273547,0.762000,0.333266,0.742596,0.333266,0.742596,$1*%
G04 Aperture macros list end*
%ADD10C,0.100000*%
%ADD11C,1.016000*%
%ADD12C,1.800000*%
%ADD13C,0.700000*%
%ADD14C,3.000000*%
%ADD15FreePoly0,0.000000*%
%ADD16FreePoly0,90.000000*%
%ADD17FreePoly1,180.000000*%
%ADD18C,1.524000*%
%ADD19FreePoly1,0.000000*%
%ADD20O,3.048000X1.625600*%
%ADD21O,1.727200X3.251200*%
%ADD22C,2.082800*%
G04 APERTURE END LIST*
D10*
X178636100Y-127863600D02*
G75*
G02*
X176786100Y-127863600I-925000J0D01*
G01*
X176786100Y-127863600D02*
G75*
G02*
X178636100Y-127863600I925000J0D01*
G01*
D11*
%TO.C,UNK_HOLE_64*%
X101790000Y-124610000D03*
%TD*%
%TO.C,UNK_HOLE_65*%
X101790000Y-131110000D03*
%TD*%
%TO.C,UNK_HOLE_66*%
X106310000Y-124610000D03*
%TD*%
%TO.C,UNK_HOLE_67*%
X106310000Y-131110000D03*
%TD*%
D12*
%TO.C,UNK_HOLE_68*%
X165010000Y-82140000D03*
%TD*%
%TO.C,UNK_HOLE_69*%
X167550000Y-82140000D03*
%TD*%
%TO.C,UNK_HOLE_70*%
X170090000Y-82140000D03*
%TD*%
%TO.C,UNK_HOLE_71*%
X172630000Y-82140000D03*
%TD*%
%TO.C,UNK_HOLE_72*%
X175170000Y-82140000D03*
%TD*%
%TO.C,UNK_HOLE_74*%
X180250000Y-82140000D03*
%TD*%
%TO.C,UNK_HOLE_75*%
X182790000Y-82140000D03*
%TD*%
%TO.C,UNK_HOLE_76*%
X185330000Y-82140000D03*
%TD*%
%TO.C,UNK_HOLE_77*%
X165010000Y-127860000D03*
%TD*%
%TO.C,UNK_HOLE_78*%
X167550000Y-127860000D03*
%TD*%
%TO.C,UNK_HOLE_79*%
X170090000Y-127860000D03*
%TD*%
%TO.C,UNK_HOLE_80*%
X172630000Y-127860000D03*
%TD*%
%TO.C,UNK_HOLE_81*%
X175170000Y-127860000D03*
%TD*%
%TO.C,UNK_HOLE_83*%
X180250000Y-127860000D03*
%TD*%
%TO.C,UNK_HOLE_84*%
X182790000Y-127860000D03*
%TD*%
%TO.C,UNK_HOLE_85*%
X185330000Y-127860000D03*
%TD*%
D13*
%TO.C,UNK_HOLE_13*%
X188506100Y-104368600D03*
%TD*%
%TO.C,UNK_HOLE_3*%
X149136100Y-76428600D03*
%TD*%
%TO.C,UNK_HOLE_10*%
X189776100Y-105638600D03*
%TD*%
D14*
%TO.C,UNK_HOLE_57*%
X192951100Y-143103600D03*
%TD*%
D13*
%TO.C,UNK_HOLE_29*%
X160566100Y-104368600D03*
%TD*%
D14*
%TO.C,UNK_HOLE_62*%
X192951100Y-97383600D03*
%TD*%
D15*
%TO.C,GND4*%
X124371100Y-71983600D03*
%TD*%
D13*
%TO.C,UNK_HOLE_14*%
X191046100Y-104368600D03*
%TD*%
D16*
%TO.C,GND3*%
X119291100Y-71983600D03*
%TD*%
%TO.C,TX0*%
X131991100Y-71983600D03*
%TD*%
D13*
%TO.C,UNK_HOLE_39*%
X136436100Y-104368600D03*
%TD*%
%TO.C,UNK_HOLE_36*%
X137706100Y-105638600D03*
%TD*%
D17*
%TO.C,R1*%
X130721100Y-132943600D03*
X123101100Y-132943600D03*
%TD*%
D13*
%TO.C,UNK_HOLE_18*%
X147866100Y-136118600D03*
%TD*%
%TO.C,UNK_HOLE_46*%
X109766100Y-104368600D03*
%TD*%
%TO.C,UNK_HOLE_33*%
X133896100Y-105638600D03*
%TD*%
%TO.C,UNK_HOLE_28*%
X163106100Y-105638600D03*
%TD*%
%TO.C,UNK_HOLE_0*%
X147866100Y-72618600D03*
%TD*%
D14*
%TO.C,UNK_HOLE_48*%
X104051100Y-66903600D03*
%TD*%
%TO.C,UNK_HOLE_55*%
X139611100Y-143103600D03*
%TD*%
D13*
%TO.C,UNK_HOLE_31*%
X161836100Y-104368600D03*
%TD*%
%TO.C,UNK_HOLE_38*%
X137706100Y-104368600D03*
%TD*%
D14*
%TO.C,UNK_HOLE_58*%
X192951100Y-112623600D03*
%TD*%
D18*
%TO.C,LED6*%
X119291100Y-129133600D03*
X119291100Y-126593600D03*
%TD*%
D13*
%TO.C,UNK_HOLE_32*%
X135166100Y-105638600D03*
%TD*%
%TO.C,UNK_HOLE_45*%
X107226100Y-104368600D03*
%TD*%
%TO.C,UNK_HOLE_26*%
X161836100Y-105638600D03*
%TD*%
%TO.C,UNK_HOLE_25*%
X159296100Y-105638600D03*
%TD*%
D16*
%TO.C,GND2*%
X134531100Y-71983600D03*
%TD*%
D13*
%TO.C,UNK_HOLE_6*%
X149136100Y-75158600D03*
%TD*%
D14*
%TO.C,UNK_HOLE_56*%
X157391100Y-143103600D03*
%TD*%
D13*
%TO.C,UNK_HOLE_8*%
X188506100Y-105638600D03*
%TD*%
%TO.C,UNK_HOLE_30*%
X163106100Y-104368600D03*
%TD*%
D15*
%TO.C,INV0*%
X121831100Y-71983600D03*
%TD*%
D13*
%TO.C,UNK_HOLE_40*%
X107226100Y-105638600D03*
%TD*%
%TO.C,UNK_HOLE_17*%
X147866100Y-138658600D03*
%TD*%
D14*
%TO.C,UNK_HOLE_61*%
X157391100Y-97383600D03*
%TD*%
D13*
%TO.C,UNK_HOLE_1*%
X147866100Y-76428600D03*
%TD*%
D18*
%TO.C,LED4*%
X124371100Y-129133600D03*
X124371100Y-126593600D03*
%TD*%
%TO.C,LED7*%
X116751100Y-129133600D03*
X116751100Y-126593600D03*
%TD*%
D19*
%TO.C,R3*%
X112941100Y-135483600D03*
X120561100Y-135483600D03*
%TD*%
D16*
%TO.C,UNK5BIT0*%
X116751100Y-71983600D03*
%TD*%
D13*
%TO.C,UNK_HOLE_12*%
X191046100Y-105638600D03*
%TD*%
%TO.C,UNK_HOLE_23*%
X149136100Y-136118600D03*
%TD*%
D20*
%TO.C,JP2*%
X139611100Y-129133600D03*
X139611100Y-126593600D03*
%TD*%
D13*
%TO.C,UNK_HOLE_15*%
X189776100Y-104368600D03*
%TD*%
D18*
%TO.C,LED9*%
X111671100Y-129133600D03*
X111671100Y-126593600D03*
%TD*%
D17*
%TO.C,R5*%
X125641100Y-122783600D03*
X118021100Y-122783600D03*
%TD*%
D13*
%TO.C,UNK_HOLE_16*%
X147866100Y-134848600D03*
%TD*%
%TO.C,UNK_HOLE_11*%
X187236100Y-104368600D03*
%TD*%
%TO.C,UNK_HOLE_24*%
X160566100Y-105638600D03*
%TD*%
D19*
%TO.C,R4*%
X112941100Y-132943600D03*
X120561100Y-132943600D03*
%TD*%
D14*
%TO.C,UNK_HOLE_50*%
X139611100Y-97383600D03*
%TD*%
%TO.C,UNK_HOLE_60*%
X157391100Y-66903600D03*
%TD*%
D13*
%TO.C,UNK_HOLE_44*%
X109766100Y-105638600D03*
%TD*%
D17*
%TO.C,R2*%
X130721100Y-135483600D03*
X123101100Y-135483600D03*
%TD*%
D13*
%TO.C,UNK_HOLE_4*%
X147866100Y-75158600D03*
%TD*%
D16*
%TO.C,GND1*%
X129451100Y-71983600D03*
%TD*%
D13*
%TO.C,UNK_HOLE_35*%
X133896100Y-104368600D03*
%TD*%
D14*
%TO.C,UNK_HOLE_51*%
X104051100Y-97383600D03*
%TD*%
D18*
%TO.C,LED1*%
X131991100Y-129133600D03*
X131991100Y-126593600D03*
%TD*%
D13*
%TO.C,UNK_HOLE_19*%
X149136100Y-138658600D03*
%TD*%
D14*
%TO.C,UNK_HOLE_54*%
X104051100Y-143103600D03*
%TD*%
%TO.C,UNK_HOLE_49*%
X139611100Y-66903600D03*
%TD*%
D18*
%TO.C,LED5*%
X121831100Y-129133600D03*
X121831100Y-126593600D03*
%TD*%
D13*
%TO.C,UNK_HOLE_41*%
X105956100Y-105638600D03*
%TD*%
%TO.C,UNK_HOLE_9*%
X187236100Y-105638600D03*
%TD*%
%TO.C,UNK_HOLE_21*%
X149136100Y-134848600D03*
%TD*%
D14*
%TO.C,UNK_HOLE_52*%
X104051100Y-112623600D03*
%TD*%
D18*
%TO.C,LED8*%
X114211100Y-129133600D03*
X114211100Y-126593600D03*
%TD*%
D13*
%TO.C,UNK_HOLE_47*%
X108496100Y-104368600D03*
%TD*%
%TO.C,UNK_HOLE_27*%
X159296100Y-104368600D03*
%TD*%
D18*
%TO.C,RN1*%
X134531100Y-92303600D03*
X131991100Y-92303600D03*
X129451100Y-92303600D03*
X126911100Y-92303600D03*
X124371100Y-92303600D03*
X121831100Y-92303600D03*
X119291100Y-92303600D03*
X116751100Y-92303600D03*
X114211100Y-92303600D03*
X111671100Y-92303600D03*
%TD*%
D13*
%TO.C,UNK_HOLE_34*%
X136436100Y-105638600D03*
%TD*%
%TO.C,UNK_HOLE_2*%
X147866100Y-73888600D03*
%TD*%
%TO.C,UNK_HOLE_22*%
X149136100Y-137388600D03*
%TD*%
%TO.C,UNK_HOLE_20*%
X147866100Y-137388600D03*
%TD*%
D16*
%TO.C,TST0*%
X126911100Y-71983600D03*
%TD*%
D14*
%TO.C,UNK_HOLE_53*%
X139611100Y-112623600D03*
%TD*%
D13*
%TO.C,UNK_HOLE_43*%
X105956100Y-104368600D03*
%TD*%
D18*
%TO.C,LED2*%
X129451100Y-129133600D03*
X129451100Y-126593600D03*
%TD*%
D21*
%TO.C,S1*%
X101790500Y-85394800D03*
X101790500Y-78892400D03*
X106311700Y-85394800D03*
X106311700Y-78892400D03*
%TD*%
D14*
%TO.C,UNK_HOLE_63*%
X192951100Y-66903600D03*
%TD*%
D13*
%TO.C,UNK_HOLE_42*%
X108496100Y-105638600D03*
%TD*%
%TO.C,UNK_HOLE_7*%
X149136100Y-73888600D03*
%TD*%
D14*
%TO.C,UNK_HOLE_59*%
X157391100Y-112623600D03*
%TD*%
D22*
%TO.C,U1*%
X139611100Y-74523600D03*
X137071100Y-74523600D03*
X134531100Y-74523600D03*
X131991100Y-74523600D03*
X129451100Y-74523600D03*
X126911100Y-74523600D03*
X124371100Y-74523600D03*
X121831100Y-74523600D03*
X119291100Y-74523600D03*
X116751100Y-74523600D03*
X114211100Y-74523600D03*
X111671100Y-74523600D03*
X111671100Y-89763600D03*
X114211100Y-89763600D03*
X116751100Y-89763600D03*
X119291100Y-89763600D03*
X121831100Y-89763600D03*
X124371100Y-89763600D03*
X126911100Y-89763600D03*
X129451100Y-89763600D03*
X131991100Y-89763600D03*
X134531100Y-89763600D03*
X137071100Y-89763600D03*
X139611100Y-89763600D03*
%TD*%
D13*
%TO.C,UNK_HOLE_37*%
X135166100Y-104368600D03*
%TD*%
%TO.C,UNK_HOLE_5*%
X149136100Y-72618600D03*
%TD*%
D19*
%TO.C,C1*%
X111671100Y-71983600D03*
X114211100Y-71983600D03*
%TD*%
D18*
%TO.C,LED3*%
X126911100Y-129133600D03*
X126911100Y-126593600D03*
%TD*%
%TO.C,T6*%
X119291100Y-83413600D03*
X119291100Y-80873600D03*
%TD*%
%TO.C,T9*%
X111671100Y-83413600D03*
X111671100Y-80873600D03*
%TD*%
%TO.C,T7*%
X116751100Y-83413600D03*
X116751100Y-80873600D03*
%TD*%
%TO.C,T5*%
X121831100Y-83413600D03*
X121831100Y-80873600D03*
%TD*%
%TO.C,T3*%
X126911100Y-83413600D03*
X126911100Y-80873600D03*
%TD*%
%TO.C,T4*%
X124371100Y-83413600D03*
X124371100Y-80873600D03*
%TD*%
%TO.C,T1*%
X131991100Y-83413600D03*
X131991100Y-80873600D03*
%TD*%
%TO.C,T2*%
X129451100Y-83413600D03*
X129451100Y-80873600D03*
%TD*%
%TO.C,T8*%
X114211100Y-83413600D03*
X114211100Y-80873600D03*
%TD*%
D20*
%TO.C,JP1*%
X139611100Y-83413600D03*
X139611100Y-80873600D03*
%TD*%
M02*
