%TF.GenerationSoftware,KiCad,Pcbnew,9.0.9-9.0.9~ubuntu24.04.1*%
%TF.CreationDate,2026-06-11T15:59:49+02:00*%
%TF.ProjectId,papertape_pcb,70617065-7274-4617-9065-5f7063622e6b,rev?*%
%TF.SameCoordinates,Original*%
%TF.FileFunction,Legend,Bot*%
%TF.FilePolarity,Positive*%
%FSLAX46Y46*%
G04 Gerber Fmt 4.6, Leading zero omitted, Abs format (unit mm)*
G04 Created by KiCad (PCBNEW 9.0.9-9.0.9~ubuntu24.04.1) date 2026-06-11 15:59:49*
%MOMM*%
%LPD*%
G01*
G04 APERTURE LIST*
%ADD10C,0.254000*%
%ADD11C,0.812800*%
%ADD12C,0.101600*%
%ADD13C,0.113792*%
%ADD14C,0.091440*%
%ADD15C,0.152400*%
%ADD16C,0.127000*%
G04 APERTURE END LIST*
D10*
X106908600Y-82143600D02*
X107543600Y-81508600D01*
X106908600Y-83096100D02*
X107543600Y-82461100D01*
X107226100Y-81508600D02*
X107543600Y-81508600D01*
X107226100Y-82461100D02*
X107543600Y-82461100D01*
X107543600Y-81826100D02*
X107543600Y-81508600D01*
X107543600Y-82778600D02*
X107543600Y-82461100D01*
X108178600Y-81826100D02*
X108178600Y-80873600D01*
X108178600Y-81826100D02*
X109286675Y-80718025D01*
X108178600Y-82461100D02*
X108178600Y-81826100D01*
X108178600Y-82461100D02*
X109448600Y-83731100D01*
X108178600Y-83575525D02*
X108178600Y-82461100D01*
X109131100Y-107543600D02*
X109131100Y-148183600D01*
X109226350Y-81200625D02*
X108759625Y-80733900D01*
X109286675Y-80718025D02*
X108813600Y-80718025D01*
X109286675Y-81191100D02*
X109286675Y-80718025D01*
X109448600Y-80556100D02*
X109286675Y-80718025D01*
X109448600Y-80556100D02*
X109448600Y-79765525D01*
X109448600Y-84366100D02*
X109448600Y-83731100D01*
D11*
X112179100Y-77698600D02*
G75*
G02*
X111163100Y-77698600I-508000J0D01*
G01*
X111163100Y-77698600D02*
G75*
G02*
X112179100Y-77698600I508000J0D01*
G01*
X112179100Y-111353600D02*
G75*
G02*
X111163100Y-111353600I-508000J0D01*
G01*
X111163100Y-111353600D02*
G75*
G02*
X112179100Y-111353600I508000J0D01*
G01*
X114719100Y-77698600D02*
G75*
G02*
X113703100Y-77698600I-508000J0D01*
G01*
X113703100Y-77698600D02*
G75*
G02*
X114719100Y-77698600I508000J0D01*
G01*
X114719100Y-111353600D02*
G75*
G02*
X113703100Y-111353600I-508000J0D01*
G01*
X113703100Y-111353600D02*
G75*
G02*
X114719100Y-111353600I508000J0D01*
G01*
X117259100Y-77698600D02*
G75*
G02*
X116243100Y-77698600I-508000J0D01*
G01*
X116243100Y-77698600D02*
G75*
G02*
X117259100Y-77698600I508000J0D01*
G01*
X117259100Y-111353600D02*
G75*
G02*
X116243100Y-111353600I-508000J0D01*
G01*
X116243100Y-111353600D02*
G75*
G02*
X117259100Y-111353600I508000J0D01*
G01*
X119799100Y-77698600D02*
G75*
G02*
X118783100Y-77698600I-508000J0D01*
G01*
X118783100Y-77698600D02*
G75*
G02*
X119799100Y-77698600I508000J0D01*
G01*
X119799100Y-111353600D02*
G75*
G02*
X118783100Y-111353600I-508000J0D01*
G01*
X118783100Y-111353600D02*
G75*
G02*
X119799100Y-111353600I508000J0D01*
G01*
X122339100Y-77698600D02*
G75*
G02*
X121323100Y-77698600I-508000J0D01*
G01*
X121323100Y-77698600D02*
G75*
G02*
X122339100Y-77698600I508000J0D01*
G01*
X122339100Y-111353600D02*
G75*
G02*
X121323100Y-111353600I-508000J0D01*
G01*
X121323100Y-111353600D02*
G75*
G02*
X122339100Y-111353600I508000J0D01*
G01*
X127419100Y-77698600D02*
G75*
G02*
X126403100Y-77698600I-508000J0D01*
G01*
X126403100Y-77698600D02*
G75*
G02*
X127419100Y-77698600I508000J0D01*
G01*
X127419100Y-111353600D02*
G75*
G02*
X126403100Y-111353600I-508000J0D01*
G01*
X126403100Y-111353600D02*
G75*
G02*
X127419100Y-111353600I508000J0D01*
G01*
X129959100Y-77698600D02*
G75*
G02*
X128943100Y-77698600I-508000J0D01*
G01*
X128943100Y-77698600D02*
G75*
G02*
X129959100Y-77698600I508000J0D01*
G01*
X129959100Y-111353600D02*
G75*
G02*
X128943100Y-111353600I-508000J0D01*
G01*
X128943100Y-111353600D02*
G75*
G02*
X129959100Y-111353600I508000J0D01*
G01*
X132499100Y-77698600D02*
G75*
G02*
X131483100Y-77698600I-508000J0D01*
G01*
X131483100Y-77698600D02*
G75*
G02*
X132499100Y-77698600I508000J0D01*
G01*
X132499100Y-111353600D02*
G75*
G02*
X131483100Y-111353600I-508000J0D01*
G01*
X131483100Y-111353600D02*
G75*
G02*
X132499100Y-111353600I508000J0D01*
G01*
D10*
X134531100Y-107543600D02*
X134531100Y-148183600D01*
X162471100Y-107543600D02*
X162471100Y-148183600D01*
X177711100Y-129768600D02*
X177076100Y-130403600D01*
X177711100Y-129768600D02*
X178346100Y-130403600D01*
X177711100Y-131673600D02*
X177711100Y-129768600D01*
X187871100Y-107543600D02*
X187871100Y-148183600D01*
D12*
X140237135Y-78329048D02*
X140292773Y-78440324D01*
X140292773Y-78440324D02*
X140292773Y-78607238D01*
X140292773Y-78607238D02*
X140237135Y-78774153D01*
X140237135Y-78774153D02*
X140125859Y-78885429D01*
X140125859Y-78885429D02*
X140014583Y-78941067D01*
X140014583Y-78941067D02*
X139792031Y-78996705D01*
X139792031Y-78996705D02*
X139625116Y-78996705D01*
X139625116Y-78996705D02*
X139402564Y-78941067D01*
X139402564Y-78941067D02*
X139291288Y-78885429D01*
X139291288Y-78885429D02*
X139180012Y-78774153D01*
X139180012Y-78774153D02*
X139124373Y-78607238D01*
X139124373Y-78607238D02*
X139124373Y-78495962D01*
X139124373Y-78495962D02*
X139180012Y-78329048D01*
X139180012Y-78329048D02*
X139235650Y-78273410D01*
X139235650Y-78273410D02*
X139625116Y-78273410D01*
X139625116Y-78273410D02*
X139625116Y-78495962D01*
X139124373Y-77772667D02*
X140292773Y-77772667D01*
X140292773Y-77772667D02*
X139124373Y-77105010D01*
X139124373Y-77105010D02*
X140292773Y-77105010D01*
X139124373Y-76548629D02*
X140292773Y-76548629D01*
X140292773Y-76548629D02*
X140292773Y-76270439D01*
X140292773Y-76270439D02*
X140237135Y-76103524D01*
X140237135Y-76103524D02*
X140125859Y-75992248D01*
X140125859Y-75992248D02*
X140014583Y-75936610D01*
X140014583Y-75936610D02*
X139792031Y-75880972D01*
X139792031Y-75880972D02*
X139625116Y-75880972D01*
X139625116Y-75880972D02*
X139402564Y-75936610D01*
X139402564Y-75936610D02*
X139291288Y-75992248D01*
X139291288Y-75992248D02*
X139180012Y-76103524D01*
X139180012Y-76103524D02*
X139124373Y-76270439D01*
X139124373Y-76270439D02*
X139124373Y-76548629D01*
X140292773Y-86322186D02*
X140292773Y-86878567D01*
X140292773Y-86878567D02*
X139736392Y-86934205D01*
X139736392Y-86934205D02*
X139792031Y-86878567D01*
X139792031Y-86878567D02*
X139847669Y-86767291D01*
X139847669Y-86767291D02*
X139847669Y-86489100D01*
X139847669Y-86489100D02*
X139792031Y-86377824D01*
X139792031Y-86377824D02*
X139736392Y-86322186D01*
X139736392Y-86322186D02*
X139625116Y-86266548D01*
X139625116Y-86266548D02*
X139346926Y-86266548D01*
X139346926Y-86266548D02*
X139235650Y-86322186D01*
X139235650Y-86322186D02*
X139180012Y-86377824D01*
X139180012Y-86377824D02*
X139124373Y-86489100D01*
X139124373Y-86489100D02*
X139124373Y-86767291D01*
X139124373Y-86767291D02*
X139180012Y-86878567D01*
X139180012Y-86878567D02*
X139235650Y-86934205D01*
X140292773Y-85932719D02*
X139124373Y-85543253D01*
X139124373Y-85543253D02*
X140292773Y-85153786D01*
X182612981Y-123371926D02*
X181945324Y-123371926D01*
X182279153Y-124540326D02*
X182279153Y-123371926D01*
X181555857Y-124540326D02*
X181555857Y-123371926D01*
X181055114Y-124540326D02*
X181055114Y-123928307D01*
X181055114Y-123928307D02*
X181110752Y-123817030D01*
X181110752Y-123817030D02*
X181222028Y-123761392D01*
X181222028Y-123761392D02*
X181388943Y-123761392D01*
X181388943Y-123761392D02*
X181500219Y-123817030D01*
X181500219Y-123817030D02*
X181555857Y-123872668D01*
X180498733Y-124540326D02*
X180498733Y-123761392D01*
X180498733Y-123371926D02*
X180554371Y-123427564D01*
X180554371Y-123427564D02*
X180498733Y-123483202D01*
X180498733Y-123483202D02*
X180443095Y-123427564D01*
X180443095Y-123427564D02*
X180498733Y-123371926D01*
X180498733Y-123371926D02*
X180498733Y-123483202D01*
X179997990Y-124484688D02*
X179886714Y-124540326D01*
X179886714Y-124540326D02*
X179664162Y-124540326D01*
X179664162Y-124540326D02*
X179552885Y-124484688D01*
X179552885Y-124484688D02*
X179497247Y-124373411D01*
X179497247Y-124373411D02*
X179497247Y-124317773D01*
X179497247Y-124317773D02*
X179552885Y-124206497D01*
X179552885Y-124206497D02*
X179664162Y-124150859D01*
X179664162Y-124150859D02*
X179831076Y-124150859D01*
X179831076Y-124150859D02*
X179942352Y-124095221D01*
X179942352Y-124095221D02*
X179997990Y-123983945D01*
X179997990Y-123983945D02*
X179997990Y-123928307D01*
X179997990Y-123928307D02*
X179942352Y-123817030D01*
X179942352Y-123817030D02*
X179831076Y-123761392D01*
X179831076Y-123761392D02*
X179664162Y-123761392D01*
X179664162Y-123761392D02*
X179552885Y-123817030D01*
X178161932Y-124484688D02*
X178050656Y-124540326D01*
X178050656Y-124540326D02*
X177828104Y-124540326D01*
X177828104Y-124540326D02*
X177716827Y-124484688D01*
X177716827Y-124484688D02*
X177661189Y-124373411D01*
X177661189Y-124373411D02*
X177661189Y-124317773D01*
X177661189Y-124317773D02*
X177716827Y-124206497D01*
X177716827Y-124206497D02*
X177828104Y-124150859D01*
X177828104Y-124150859D02*
X177995018Y-124150859D01*
X177995018Y-124150859D02*
X178106294Y-124095221D01*
X178106294Y-124095221D02*
X178161932Y-123983945D01*
X178161932Y-123983945D02*
X178161932Y-123928307D01*
X178161932Y-123928307D02*
X178106294Y-123817030D01*
X178106294Y-123817030D02*
X177995018Y-123761392D01*
X177995018Y-123761392D02*
X177828104Y-123761392D01*
X177828104Y-123761392D02*
X177716827Y-123817030D01*
X177160446Y-124540326D02*
X177160446Y-123761392D01*
X177160446Y-123371926D02*
X177216084Y-123427564D01*
X177216084Y-123427564D02*
X177160446Y-123483202D01*
X177160446Y-123483202D02*
X177104808Y-123427564D01*
X177104808Y-123427564D02*
X177160446Y-123371926D01*
X177160446Y-123371926D02*
X177160446Y-123483202D01*
X176103322Y-124540326D02*
X176103322Y-123371926D01*
X176103322Y-124484688D02*
X176214598Y-124540326D01*
X176214598Y-124540326D02*
X176437151Y-124540326D01*
X176437151Y-124540326D02*
X176548427Y-124484688D01*
X176548427Y-124484688D02*
X176604065Y-124429049D01*
X176604065Y-124429049D02*
X176659703Y-124317773D01*
X176659703Y-124317773D02*
X176659703Y-123983945D01*
X176659703Y-123983945D02*
X176604065Y-123872668D01*
X176604065Y-123872668D02*
X176548427Y-123817030D01*
X176548427Y-123817030D02*
X176437151Y-123761392D01*
X176437151Y-123761392D02*
X176214598Y-123761392D01*
X176214598Y-123761392D02*
X176103322Y-123817030D01*
X175101836Y-124484688D02*
X175213112Y-124540326D01*
X175213112Y-124540326D02*
X175435665Y-124540326D01*
X175435665Y-124540326D02*
X175546941Y-124484688D01*
X175546941Y-124484688D02*
X175602579Y-124373411D01*
X175602579Y-124373411D02*
X175602579Y-123928307D01*
X175602579Y-123928307D02*
X175546941Y-123817030D01*
X175546941Y-123817030D02*
X175435665Y-123761392D01*
X175435665Y-123761392D02*
X175213112Y-123761392D01*
X175213112Y-123761392D02*
X175101836Y-123817030D01*
X175101836Y-123817030D02*
X175046198Y-123928307D01*
X175046198Y-123928307D02*
X175046198Y-124039583D01*
X175046198Y-124039583D02*
X175602579Y-124150859D01*
X173655245Y-124540326D02*
X173655245Y-123371926D01*
X173655245Y-123371926D02*
X173377055Y-123371926D01*
X173377055Y-123371926D02*
X173210140Y-123427564D01*
X173210140Y-123427564D02*
X173098864Y-123538840D01*
X173098864Y-123538840D02*
X173043226Y-123650116D01*
X173043226Y-123650116D02*
X172987588Y-123872668D01*
X172987588Y-123872668D02*
X172987588Y-124039583D01*
X172987588Y-124039583D02*
X173043226Y-124262135D01*
X173043226Y-124262135D02*
X173098864Y-124373411D01*
X173098864Y-124373411D02*
X173210140Y-124484688D01*
X173210140Y-124484688D02*
X173377055Y-124540326D01*
X173377055Y-124540326D02*
X173655245Y-124540326D01*
X172264293Y-123371926D02*
X172041740Y-123371926D01*
X172041740Y-123371926D02*
X171930464Y-123427564D01*
X171930464Y-123427564D02*
X171819188Y-123538840D01*
X171819188Y-123538840D02*
X171763550Y-123761392D01*
X171763550Y-123761392D02*
X171763550Y-124150859D01*
X171763550Y-124150859D02*
X171819188Y-124373411D01*
X171819188Y-124373411D02*
X171930464Y-124484688D01*
X171930464Y-124484688D02*
X172041740Y-124540326D01*
X172041740Y-124540326D02*
X172264293Y-124540326D01*
X172264293Y-124540326D02*
X172375569Y-124484688D01*
X172375569Y-124484688D02*
X172486845Y-124373411D01*
X172486845Y-124373411D02*
X172542483Y-124150859D01*
X172542483Y-124150859D02*
X172542483Y-123761392D01*
X172542483Y-123761392D02*
X172486845Y-123538840D01*
X172486845Y-123538840D02*
X172375569Y-123427564D01*
X172375569Y-123427564D02*
X172264293Y-123371926D01*
X171374083Y-123371926D02*
X171095893Y-124540326D01*
X171095893Y-124540326D02*
X170873340Y-123705754D01*
X170873340Y-123705754D02*
X170650788Y-124540326D01*
X170650788Y-124540326D02*
X170372598Y-123371926D01*
X169927493Y-124540326D02*
X169927493Y-123371926D01*
X169927493Y-123371926D02*
X169259836Y-124540326D01*
X169259836Y-124540326D02*
X169259836Y-123371926D01*
X182691600Y-133477248D02*
X182524686Y-133532886D01*
X182524686Y-133532886D02*
X182469048Y-133588524D01*
X182469048Y-133588524D02*
X182413410Y-133699800D01*
X182413410Y-133699800D02*
X182413410Y-133866714D01*
X182413410Y-133866714D02*
X182469048Y-133977990D01*
X182469048Y-133977990D02*
X182524686Y-134033629D01*
X182524686Y-134033629D02*
X182635962Y-134089267D01*
X182635962Y-134089267D02*
X183081067Y-134089267D01*
X183081067Y-134089267D02*
X183081067Y-132920867D01*
X183081067Y-132920867D02*
X182691600Y-132920867D01*
X182691600Y-132920867D02*
X182580324Y-132976505D01*
X182580324Y-132976505D02*
X182524686Y-133032143D01*
X182524686Y-133032143D02*
X182469048Y-133143419D01*
X182469048Y-133143419D02*
X182469048Y-133254695D01*
X182469048Y-133254695D02*
X182524686Y-133365971D01*
X182524686Y-133365971D02*
X182580324Y-133421609D01*
X182580324Y-133421609D02*
X182691600Y-133477248D01*
X182691600Y-133477248D02*
X183081067Y-133477248D01*
X181745753Y-134089267D02*
X181857029Y-134033629D01*
X181857029Y-134033629D02*
X181912667Y-133922352D01*
X181912667Y-133922352D02*
X181912667Y-132920867D01*
X181300648Y-134089267D02*
X181300648Y-133310333D01*
X181300648Y-132920867D02*
X181356286Y-132976505D01*
X181356286Y-132976505D02*
X181300648Y-133032143D01*
X181300648Y-133032143D02*
X181245010Y-132976505D01*
X181245010Y-132976505D02*
X181300648Y-132920867D01*
X181300648Y-132920867D02*
X181300648Y-133032143D01*
X180744267Y-133310333D02*
X180744267Y-134089267D01*
X180744267Y-133421609D02*
X180688629Y-133365971D01*
X180688629Y-133365971D02*
X180577353Y-133310333D01*
X180577353Y-133310333D02*
X180410438Y-133310333D01*
X180410438Y-133310333D02*
X180299162Y-133365971D01*
X180299162Y-133365971D02*
X180243524Y-133477248D01*
X180243524Y-133477248D02*
X180243524Y-134089267D01*
X179186400Y-134089267D02*
X179186400Y-132920867D01*
X179186400Y-134033629D02*
X179297676Y-134089267D01*
X179297676Y-134089267D02*
X179520229Y-134089267D01*
X179520229Y-134089267D02*
X179631505Y-134033629D01*
X179631505Y-134033629D02*
X179687143Y-133977990D01*
X179687143Y-133977990D02*
X179742781Y-133866714D01*
X179742781Y-133866714D02*
X179742781Y-133532886D01*
X179742781Y-133532886D02*
X179687143Y-133421609D01*
X179687143Y-133421609D02*
X179631505Y-133365971D01*
X179631505Y-133365971D02*
X179520229Y-133310333D01*
X179520229Y-133310333D02*
X179297676Y-133310333D01*
X179297676Y-133310333D02*
X179186400Y-133365971D01*
X177739809Y-134089267D02*
X177739809Y-132920867D01*
X177239066Y-134089267D02*
X177239066Y-133477248D01*
X177239066Y-133477248D02*
X177294704Y-133365971D01*
X177294704Y-133365971D02*
X177405980Y-133310333D01*
X177405980Y-133310333D02*
X177572895Y-133310333D01*
X177572895Y-133310333D02*
X177684171Y-133365971D01*
X177684171Y-133365971D02*
X177739809Y-133421609D01*
X176515771Y-134089267D02*
X176627047Y-134033629D01*
X176627047Y-134033629D02*
X176682685Y-133977990D01*
X176682685Y-133977990D02*
X176738323Y-133866714D01*
X176738323Y-133866714D02*
X176738323Y-133532886D01*
X176738323Y-133532886D02*
X176682685Y-133421609D01*
X176682685Y-133421609D02*
X176627047Y-133365971D01*
X176627047Y-133365971D02*
X176515771Y-133310333D01*
X176515771Y-133310333D02*
X176348856Y-133310333D01*
X176348856Y-133310333D02*
X176237580Y-133365971D01*
X176237580Y-133365971D02*
X176181942Y-133421609D01*
X176181942Y-133421609D02*
X176126304Y-133532886D01*
X176126304Y-133532886D02*
X176126304Y-133866714D01*
X176126304Y-133866714D02*
X176181942Y-133977990D01*
X176181942Y-133977990D02*
X176237580Y-134033629D01*
X176237580Y-134033629D02*
X176348856Y-134089267D01*
X176348856Y-134089267D02*
X176515771Y-134089267D01*
X175458647Y-134089267D02*
X175569923Y-134033629D01*
X175569923Y-134033629D02*
X175625561Y-133922352D01*
X175625561Y-133922352D02*
X175625561Y-132920867D01*
X174568437Y-134033629D02*
X174679713Y-134089267D01*
X174679713Y-134089267D02*
X174902266Y-134089267D01*
X174902266Y-134089267D02*
X175013542Y-134033629D01*
X175013542Y-134033629D02*
X175069180Y-133922352D01*
X175069180Y-133922352D02*
X175069180Y-133477248D01*
X175069180Y-133477248D02*
X175013542Y-133365971D01*
X175013542Y-133365971D02*
X174902266Y-133310333D01*
X174902266Y-133310333D02*
X174679713Y-133310333D01*
X174679713Y-133310333D02*
X174568437Y-133365971D01*
X174568437Y-133365971D02*
X174512799Y-133477248D01*
X174512799Y-133477248D02*
X174512799Y-133588524D01*
X174512799Y-133588524D02*
X175069180Y-133699800D01*
X172509827Y-134089267D02*
X173177484Y-134089267D01*
X172843656Y-134089267D02*
X172843656Y-132920867D01*
X172843656Y-132920867D02*
X172954932Y-133087781D01*
X172954932Y-133087781D02*
X173066208Y-133199057D01*
X173066208Y-133199057D02*
X173177484Y-133254695D01*
X172009084Y-133977990D02*
X171953446Y-134033629D01*
X171953446Y-134033629D02*
X172009084Y-134089267D01*
X172009084Y-134089267D02*
X172064722Y-134033629D01*
X172064722Y-134033629D02*
X172009084Y-133977990D01*
X172009084Y-133977990D02*
X172009084Y-134089267D01*
X171285789Y-133421609D02*
X171397065Y-133365971D01*
X171397065Y-133365971D02*
X171452703Y-133310333D01*
X171452703Y-133310333D02*
X171508341Y-133199057D01*
X171508341Y-133199057D02*
X171508341Y-133143419D01*
X171508341Y-133143419D02*
X171452703Y-133032143D01*
X171452703Y-133032143D02*
X171397065Y-132976505D01*
X171397065Y-132976505D02*
X171285789Y-132920867D01*
X171285789Y-132920867D02*
X171063236Y-132920867D01*
X171063236Y-132920867D02*
X170951960Y-132976505D01*
X170951960Y-132976505D02*
X170896322Y-133032143D01*
X170896322Y-133032143D02*
X170840684Y-133143419D01*
X170840684Y-133143419D02*
X170840684Y-133199057D01*
X170840684Y-133199057D02*
X170896322Y-133310333D01*
X170896322Y-133310333D02*
X170951960Y-133365971D01*
X170951960Y-133365971D02*
X171063236Y-133421609D01*
X171063236Y-133421609D02*
X171285789Y-133421609D01*
X171285789Y-133421609D02*
X171397065Y-133477248D01*
X171397065Y-133477248D02*
X171452703Y-133532886D01*
X171452703Y-133532886D02*
X171508341Y-133644162D01*
X171508341Y-133644162D02*
X171508341Y-133866714D01*
X171508341Y-133866714D02*
X171452703Y-133977990D01*
X171452703Y-133977990D02*
X171397065Y-134033629D01*
X171397065Y-134033629D02*
X171285789Y-134089267D01*
X171285789Y-134089267D02*
X171063236Y-134089267D01*
X171063236Y-134089267D02*
X170951960Y-134033629D01*
X170951960Y-134033629D02*
X170896322Y-133977990D01*
X170896322Y-133977990D02*
X170840684Y-133866714D01*
X170840684Y-133866714D02*
X170840684Y-133644162D01*
X170840684Y-133644162D02*
X170896322Y-133532886D01*
X170896322Y-133532886D02*
X170951960Y-133477248D01*
X170951960Y-133477248D02*
X171063236Y-133421609D01*
X170339941Y-134089267D02*
X170339941Y-133310333D01*
X170339941Y-133421609D02*
X170284303Y-133365971D01*
X170284303Y-133365971D02*
X170173027Y-133310333D01*
X170173027Y-133310333D02*
X170006112Y-133310333D01*
X170006112Y-133310333D02*
X169894836Y-133365971D01*
X169894836Y-133365971D02*
X169839198Y-133477248D01*
X169839198Y-133477248D02*
X169839198Y-134089267D01*
X169839198Y-133477248D02*
X169783560Y-133365971D01*
X169783560Y-133365971D02*
X169672284Y-133310333D01*
X169672284Y-133310333D02*
X169505370Y-133310333D01*
X169505370Y-133310333D02*
X169394093Y-133365971D01*
X169394093Y-133365971D02*
X169338455Y-133477248D01*
X169338455Y-133477248D02*
X169338455Y-134089267D01*
X168782074Y-134089267D02*
X168782074Y-133310333D01*
X168782074Y-133421609D02*
X168726436Y-133365971D01*
X168726436Y-133365971D02*
X168615160Y-133310333D01*
X168615160Y-133310333D02*
X168448245Y-133310333D01*
X168448245Y-133310333D02*
X168336969Y-133365971D01*
X168336969Y-133365971D02*
X168281331Y-133477248D01*
X168281331Y-133477248D02*
X168281331Y-134089267D01*
X168281331Y-133477248D02*
X168225693Y-133365971D01*
X168225693Y-133365971D02*
X168114417Y-133310333D01*
X168114417Y-133310333D02*
X167947503Y-133310333D01*
X167947503Y-133310333D02*
X167836226Y-133365971D01*
X167836226Y-133365971D02*
X167780588Y-133477248D01*
X167780588Y-133477248D02*
X167780588Y-134089267D01*
X183247981Y-135191392D02*
X182802877Y-135191392D01*
X183081067Y-135970326D02*
X183081067Y-134968840D01*
X183081067Y-134968840D02*
X183025429Y-134857564D01*
X183025429Y-134857564D02*
X182914153Y-134801926D01*
X182914153Y-134801926D02*
X182802877Y-134801926D01*
X182246496Y-135970326D02*
X182357772Y-135914688D01*
X182357772Y-135914688D02*
X182413410Y-135859049D01*
X182413410Y-135859049D02*
X182469048Y-135747773D01*
X182469048Y-135747773D02*
X182469048Y-135413945D01*
X182469048Y-135413945D02*
X182413410Y-135302668D01*
X182413410Y-135302668D02*
X182357772Y-135247030D01*
X182357772Y-135247030D02*
X182246496Y-135191392D01*
X182246496Y-135191392D02*
X182079581Y-135191392D01*
X182079581Y-135191392D02*
X181968305Y-135247030D01*
X181968305Y-135247030D02*
X181912667Y-135302668D01*
X181912667Y-135302668D02*
X181857029Y-135413945D01*
X181857029Y-135413945D02*
X181857029Y-135747773D01*
X181857029Y-135747773D02*
X181912667Y-135859049D01*
X181912667Y-135859049D02*
X181968305Y-135914688D01*
X181968305Y-135914688D02*
X182079581Y-135970326D01*
X182079581Y-135970326D02*
X182246496Y-135970326D01*
X181356286Y-135970326D02*
X181356286Y-135191392D01*
X181356286Y-135413945D02*
X181300648Y-135302668D01*
X181300648Y-135302668D02*
X181245010Y-135247030D01*
X181245010Y-135247030D02*
X181133734Y-135191392D01*
X181133734Y-135191392D02*
X181022457Y-135191392D01*
X179186400Y-135970326D02*
X179742781Y-135970326D01*
X179742781Y-135970326D02*
X179742781Y-134801926D01*
X178796933Y-135358307D02*
X178407466Y-135358307D01*
X178240552Y-135970326D02*
X178796933Y-135970326D01*
X178796933Y-135970326D02*
X178796933Y-134801926D01*
X178796933Y-134801926D02*
X178240552Y-134801926D01*
X177739809Y-135970326D02*
X177739809Y-134801926D01*
X177739809Y-134801926D02*
X177461619Y-134801926D01*
X177461619Y-134801926D02*
X177294704Y-134857564D01*
X177294704Y-134857564D02*
X177183428Y-134968840D01*
X177183428Y-134968840D02*
X177127790Y-135080116D01*
X177127790Y-135080116D02*
X177072152Y-135302668D01*
X177072152Y-135302668D02*
X177072152Y-135469583D01*
X177072152Y-135469583D02*
X177127790Y-135692135D01*
X177127790Y-135692135D02*
X177183428Y-135803411D01*
X177183428Y-135803411D02*
X177294704Y-135914688D01*
X177294704Y-135914688D02*
X177461619Y-135970326D01*
X177461619Y-135970326D02*
X177739809Y-135970326D01*
D13*
X132239663Y-140397533D02*
X132239663Y-139088925D01*
X132239663Y-139088925D02*
X131741146Y-139088925D01*
X131741146Y-139088925D02*
X131616517Y-139151240D01*
X131616517Y-139151240D02*
X131554202Y-139213555D01*
X131554202Y-139213555D02*
X131491887Y-139338184D01*
X131491887Y-139338184D02*
X131491887Y-139525128D01*
X131491887Y-139525128D02*
X131554202Y-139649757D01*
X131554202Y-139649757D02*
X131616517Y-139712072D01*
X131616517Y-139712072D02*
X131741146Y-139774387D01*
X131741146Y-139774387D02*
X132239663Y-139774387D01*
X130370223Y-140397533D02*
X130370223Y-139712072D01*
X130370223Y-139712072D02*
X130432538Y-139587443D01*
X130432538Y-139587443D02*
X130557167Y-139525128D01*
X130557167Y-139525128D02*
X130806426Y-139525128D01*
X130806426Y-139525128D02*
X130931055Y-139587443D01*
X130370223Y-140335219D02*
X130494853Y-140397533D01*
X130494853Y-140397533D02*
X130806426Y-140397533D01*
X130806426Y-140397533D02*
X130931055Y-140335219D01*
X130931055Y-140335219D02*
X130993370Y-140210589D01*
X130993370Y-140210589D02*
X130993370Y-140085960D01*
X130993370Y-140085960D02*
X130931055Y-139961331D01*
X130931055Y-139961331D02*
X130806426Y-139899016D01*
X130806426Y-139899016D02*
X130494853Y-139899016D01*
X130494853Y-139899016D02*
X130370223Y-139836701D01*
X129747076Y-139525128D02*
X129747076Y-140833736D01*
X129747076Y-139587443D02*
X129622447Y-139525128D01*
X129622447Y-139525128D02*
X129373188Y-139525128D01*
X129373188Y-139525128D02*
X129248559Y-139587443D01*
X129248559Y-139587443D02*
X129186244Y-139649757D01*
X129186244Y-139649757D02*
X129123930Y-139774387D01*
X129123930Y-139774387D02*
X129123930Y-140148275D01*
X129123930Y-140148275D02*
X129186244Y-140272904D01*
X129186244Y-140272904D02*
X129248559Y-140335219D01*
X129248559Y-140335219D02*
X129373188Y-140397533D01*
X129373188Y-140397533D02*
X129622447Y-140397533D01*
X129622447Y-140397533D02*
X129747076Y-140335219D01*
X128064580Y-140335219D02*
X128189209Y-140397533D01*
X128189209Y-140397533D02*
X128438468Y-140397533D01*
X128438468Y-140397533D02*
X128563097Y-140335219D01*
X128563097Y-140335219D02*
X128625412Y-140210589D01*
X128625412Y-140210589D02*
X128625412Y-139712072D01*
X128625412Y-139712072D02*
X128563097Y-139587443D01*
X128563097Y-139587443D02*
X128438468Y-139525128D01*
X128438468Y-139525128D02*
X128189209Y-139525128D01*
X128189209Y-139525128D02*
X128064580Y-139587443D01*
X128064580Y-139587443D02*
X128002265Y-139712072D01*
X128002265Y-139712072D02*
X128002265Y-139836701D01*
X128002265Y-139836701D02*
X128625412Y-139961331D01*
X127441433Y-140397533D02*
X127441433Y-139525128D01*
X127441433Y-139774387D02*
X127379119Y-139649757D01*
X127379119Y-139649757D02*
X127316804Y-139587443D01*
X127316804Y-139587443D02*
X127192175Y-139525128D01*
X127192175Y-139525128D02*
X127067545Y-139525128D01*
X125821251Y-139088925D02*
X125073475Y-139088925D01*
X125447363Y-140397533D02*
X125447363Y-139088925D01*
X124076440Y-140397533D02*
X124076440Y-139712072D01*
X124076440Y-139712072D02*
X124138755Y-139587443D01*
X124138755Y-139587443D02*
X124263384Y-139525128D01*
X124263384Y-139525128D02*
X124512643Y-139525128D01*
X124512643Y-139525128D02*
X124637272Y-139587443D01*
X124076440Y-140335219D02*
X124201070Y-140397533D01*
X124201070Y-140397533D02*
X124512643Y-140397533D01*
X124512643Y-140397533D02*
X124637272Y-140335219D01*
X124637272Y-140335219D02*
X124699587Y-140210589D01*
X124699587Y-140210589D02*
X124699587Y-140085960D01*
X124699587Y-140085960D02*
X124637272Y-139961331D01*
X124637272Y-139961331D02*
X124512643Y-139899016D01*
X124512643Y-139899016D02*
X124201070Y-139899016D01*
X124201070Y-139899016D02*
X124076440Y-139836701D01*
X123453293Y-139525128D02*
X123453293Y-140833736D01*
X123453293Y-139587443D02*
X123328664Y-139525128D01*
X123328664Y-139525128D02*
X123079405Y-139525128D01*
X123079405Y-139525128D02*
X122954776Y-139587443D01*
X122954776Y-139587443D02*
X122892461Y-139649757D01*
X122892461Y-139649757D02*
X122830147Y-139774387D01*
X122830147Y-139774387D02*
X122830147Y-140148275D01*
X122830147Y-140148275D02*
X122892461Y-140272904D01*
X122892461Y-140272904D02*
X122954776Y-140335219D01*
X122954776Y-140335219D02*
X123079405Y-140397533D01*
X123079405Y-140397533D02*
X123328664Y-140397533D01*
X123328664Y-140397533D02*
X123453293Y-140335219D01*
X121770797Y-140335219D02*
X121895426Y-140397533D01*
X121895426Y-140397533D02*
X122144685Y-140397533D01*
X122144685Y-140397533D02*
X122269314Y-140335219D01*
X122269314Y-140335219D02*
X122331629Y-140210589D01*
X122331629Y-140210589D02*
X122331629Y-139712072D01*
X122331629Y-139712072D02*
X122269314Y-139587443D01*
X122269314Y-139587443D02*
X122144685Y-139525128D01*
X122144685Y-139525128D02*
X121895426Y-139525128D01*
X121895426Y-139525128D02*
X121770797Y-139587443D01*
X121770797Y-139587443D02*
X121708482Y-139712072D01*
X121708482Y-139712072D02*
X121708482Y-139836701D01*
X121708482Y-139836701D02*
X122331629Y-139961331D01*
X119402839Y-140397533D02*
X119839042Y-139774387D01*
X120150615Y-140397533D02*
X120150615Y-139088925D01*
X120150615Y-139088925D02*
X119652098Y-139088925D01*
X119652098Y-139088925D02*
X119527469Y-139151240D01*
X119527469Y-139151240D02*
X119465154Y-139213555D01*
X119465154Y-139213555D02*
X119402839Y-139338184D01*
X119402839Y-139338184D02*
X119402839Y-139525128D01*
X119402839Y-139525128D02*
X119465154Y-139649757D01*
X119465154Y-139649757D02*
X119527469Y-139712072D01*
X119527469Y-139712072D02*
X119652098Y-139774387D01*
X119652098Y-139774387D02*
X120150615Y-139774387D01*
X118343490Y-140335219D02*
X118468119Y-140397533D01*
X118468119Y-140397533D02*
X118717378Y-140397533D01*
X118717378Y-140397533D02*
X118842007Y-140335219D01*
X118842007Y-140335219D02*
X118904322Y-140210589D01*
X118904322Y-140210589D02*
X118904322Y-139712072D01*
X118904322Y-139712072D02*
X118842007Y-139587443D01*
X118842007Y-139587443D02*
X118717378Y-139525128D01*
X118717378Y-139525128D02*
X118468119Y-139525128D01*
X118468119Y-139525128D02*
X118343490Y-139587443D01*
X118343490Y-139587443D02*
X118281175Y-139712072D01*
X118281175Y-139712072D02*
X118281175Y-139836701D01*
X118281175Y-139836701D02*
X118904322Y-139961331D01*
X117159511Y-140397533D02*
X117159511Y-139712072D01*
X117159511Y-139712072D02*
X117221826Y-139587443D01*
X117221826Y-139587443D02*
X117346455Y-139525128D01*
X117346455Y-139525128D02*
X117595714Y-139525128D01*
X117595714Y-139525128D02*
X117720343Y-139587443D01*
X117159511Y-140335219D02*
X117284141Y-140397533D01*
X117284141Y-140397533D02*
X117595714Y-140397533D01*
X117595714Y-140397533D02*
X117720343Y-140335219D01*
X117720343Y-140335219D02*
X117782658Y-140210589D01*
X117782658Y-140210589D02*
X117782658Y-140085960D01*
X117782658Y-140085960D02*
X117720343Y-139961331D01*
X117720343Y-139961331D02*
X117595714Y-139899016D01*
X117595714Y-139899016D02*
X117284141Y-139899016D01*
X117284141Y-139899016D02*
X117159511Y-139836701D01*
X115975532Y-140397533D02*
X115975532Y-139088925D01*
X115975532Y-140335219D02*
X116100162Y-140397533D01*
X116100162Y-140397533D02*
X116349420Y-140397533D01*
X116349420Y-140397533D02*
X116474050Y-140335219D01*
X116474050Y-140335219D02*
X116536364Y-140272904D01*
X116536364Y-140272904D02*
X116598679Y-140148275D01*
X116598679Y-140148275D02*
X116598679Y-139774387D01*
X116598679Y-139774387D02*
X116536364Y-139649757D01*
X116536364Y-139649757D02*
X116474050Y-139587443D01*
X116474050Y-139587443D02*
X116349420Y-139525128D01*
X116349420Y-139525128D02*
X116100162Y-139525128D01*
X116100162Y-139525128D02*
X115975532Y-139587443D01*
X114853868Y-140335219D02*
X114978497Y-140397533D01*
X114978497Y-140397533D02*
X115227756Y-140397533D01*
X115227756Y-140397533D02*
X115352385Y-140335219D01*
X115352385Y-140335219D02*
X115414700Y-140210589D01*
X115414700Y-140210589D02*
X115414700Y-139712072D01*
X115414700Y-139712072D02*
X115352385Y-139587443D01*
X115352385Y-139587443D02*
X115227756Y-139525128D01*
X115227756Y-139525128D02*
X114978497Y-139525128D01*
X114978497Y-139525128D02*
X114853868Y-139587443D01*
X114853868Y-139587443D02*
X114791553Y-139712072D01*
X114791553Y-139712072D02*
X114791553Y-139836701D01*
X114791553Y-139836701D02*
X115414700Y-139961331D01*
X114230721Y-140397533D02*
X114230721Y-139525128D01*
X114230721Y-139774387D02*
X114168407Y-139649757D01*
X114168407Y-139649757D02*
X114106092Y-139587443D01*
X114106092Y-139587443D02*
X113981463Y-139525128D01*
X113981463Y-139525128D02*
X113856833Y-139525128D01*
X132364293Y-143335128D02*
X132115034Y-144207533D01*
X132115034Y-144207533D02*
X131865775Y-143584387D01*
X131865775Y-143584387D02*
X131616517Y-144207533D01*
X131616517Y-144207533D02*
X131367258Y-143335128D01*
X130993370Y-143335128D02*
X130744111Y-144207533D01*
X130744111Y-144207533D02*
X130494852Y-143584387D01*
X130494852Y-143584387D02*
X130245594Y-144207533D01*
X130245594Y-144207533D02*
X129996335Y-143335128D01*
X129622447Y-143335128D02*
X129373188Y-144207533D01*
X129373188Y-144207533D02*
X129123929Y-143584387D01*
X129123929Y-143584387D02*
X128874671Y-144207533D01*
X128874671Y-144207533D02*
X128625412Y-143335128D01*
X128126894Y-144082904D02*
X128064580Y-144145219D01*
X128064580Y-144145219D02*
X128126894Y-144207533D01*
X128126894Y-144207533D02*
X128189209Y-144145219D01*
X128189209Y-144145219D02*
X128126894Y-144082904D01*
X128126894Y-144082904D02*
X128126894Y-144207533D01*
X127005230Y-144145219D02*
X127129859Y-144207533D01*
X127129859Y-144207533D02*
X127379118Y-144207533D01*
X127379118Y-144207533D02*
X127503747Y-144145219D01*
X127503747Y-144145219D02*
X127566062Y-144020589D01*
X127566062Y-144020589D02*
X127566062Y-143522072D01*
X127566062Y-143522072D02*
X127503747Y-143397443D01*
X127503747Y-143397443D02*
X127379118Y-143335128D01*
X127379118Y-143335128D02*
X127129859Y-143335128D01*
X127129859Y-143335128D02*
X127005230Y-143397443D01*
X127005230Y-143397443D02*
X126942915Y-143522072D01*
X126942915Y-143522072D02*
X126942915Y-143646701D01*
X126942915Y-143646701D02*
X127566062Y-143771331D01*
X126382083Y-143709016D02*
X125385049Y-143709016D01*
X124761902Y-144207533D02*
X124761902Y-142898925D01*
X124761902Y-143397443D02*
X124637273Y-143335128D01*
X124637273Y-143335128D02*
X124388014Y-143335128D01*
X124388014Y-143335128D02*
X124263385Y-143397443D01*
X124263385Y-143397443D02*
X124201070Y-143459757D01*
X124201070Y-143459757D02*
X124138756Y-143584387D01*
X124138756Y-143584387D02*
X124138756Y-143958275D01*
X124138756Y-143958275D02*
X124201070Y-144082904D01*
X124201070Y-144082904D02*
X124263385Y-144145219D01*
X124263385Y-144145219D02*
X124388014Y-144207533D01*
X124388014Y-144207533D02*
X124637273Y-144207533D01*
X124637273Y-144207533D02*
X124761902Y-144145219D01*
X123017091Y-144207533D02*
X123017091Y-143522072D01*
X123017091Y-143522072D02*
X123079406Y-143397443D01*
X123079406Y-143397443D02*
X123204035Y-143335128D01*
X123204035Y-143335128D02*
X123453294Y-143335128D01*
X123453294Y-143335128D02*
X123577923Y-143397443D01*
X123017091Y-144145219D02*
X123141721Y-144207533D01*
X123141721Y-144207533D02*
X123453294Y-144207533D01*
X123453294Y-144207533D02*
X123577923Y-144145219D01*
X123577923Y-144145219D02*
X123640238Y-144020589D01*
X123640238Y-144020589D02*
X123640238Y-143895960D01*
X123640238Y-143895960D02*
X123577923Y-143771331D01*
X123577923Y-143771331D02*
X123453294Y-143709016D01*
X123453294Y-143709016D02*
X123141721Y-143709016D01*
X123141721Y-143709016D02*
X123017091Y-143646701D01*
X122456259Y-144145219D02*
X122331630Y-144207533D01*
X122331630Y-144207533D02*
X122082371Y-144207533D01*
X122082371Y-144207533D02*
X121957742Y-144145219D01*
X121957742Y-144145219D02*
X121895427Y-144020589D01*
X121895427Y-144020589D02*
X121895427Y-143958275D01*
X121895427Y-143958275D02*
X121957742Y-143833645D01*
X121957742Y-143833645D02*
X122082371Y-143771331D01*
X122082371Y-143771331D02*
X122269315Y-143771331D01*
X122269315Y-143771331D02*
X122393944Y-143709016D01*
X122393944Y-143709016D02*
X122456259Y-143584387D01*
X122456259Y-143584387D02*
X122456259Y-143522072D01*
X122456259Y-143522072D02*
X122393944Y-143397443D01*
X122393944Y-143397443D02*
X122269315Y-143335128D01*
X122269315Y-143335128D02*
X122082371Y-143335128D01*
X122082371Y-143335128D02*
X121957742Y-143397443D01*
X121521539Y-143335128D02*
X121023022Y-143335128D01*
X121334595Y-142898925D02*
X121334595Y-144020589D01*
X121334595Y-144020589D02*
X121272281Y-144145219D01*
X121272281Y-144145219D02*
X121147651Y-144207533D01*
X121147651Y-144207533D02*
X121023022Y-144207533D01*
X120088302Y-144145219D02*
X120212931Y-144207533D01*
X120212931Y-144207533D02*
X120462190Y-144207533D01*
X120462190Y-144207533D02*
X120586819Y-144145219D01*
X120586819Y-144145219D02*
X120649134Y-144020589D01*
X120649134Y-144020589D02*
X120649134Y-143522072D01*
X120649134Y-143522072D02*
X120586819Y-143397443D01*
X120586819Y-143397443D02*
X120462190Y-143335128D01*
X120462190Y-143335128D02*
X120212931Y-143335128D01*
X120212931Y-143335128D02*
X120088302Y-143397443D01*
X120088302Y-143397443D02*
X120025987Y-143522072D01*
X120025987Y-143522072D02*
X120025987Y-143646701D01*
X120025987Y-143646701D02*
X120649134Y-143771331D01*
X119278211Y-144207533D02*
X119402841Y-144145219D01*
X119402841Y-144145219D02*
X119465155Y-144020589D01*
X119465155Y-144020589D02*
X119465155Y-142898925D01*
X118779694Y-143335128D02*
X118779694Y-144207533D01*
X118779694Y-143459757D02*
X118717380Y-143397443D01*
X118717380Y-143397443D02*
X118592750Y-143335128D01*
X118592750Y-143335128D02*
X118405806Y-143335128D01*
X118405806Y-143335128D02*
X118281177Y-143397443D01*
X118281177Y-143397443D02*
X118218862Y-143522072D01*
X118218862Y-143522072D02*
X118218862Y-144207533D01*
X117595715Y-144082904D02*
X117533401Y-144145219D01*
X117533401Y-144145219D02*
X117595715Y-144207533D01*
X117595715Y-144207533D02*
X117658030Y-144145219D01*
X117658030Y-144145219D02*
X117595715Y-144082904D01*
X117595715Y-144082904D02*
X117595715Y-144207533D01*
X116411736Y-144207533D02*
X116411736Y-142898925D01*
X116411736Y-144145219D02*
X116536366Y-144207533D01*
X116536366Y-144207533D02*
X116785624Y-144207533D01*
X116785624Y-144207533D02*
X116910254Y-144145219D01*
X116910254Y-144145219D02*
X116972568Y-144082904D01*
X116972568Y-144082904D02*
X117034883Y-143958275D01*
X117034883Y-143958275D02*
X117034883Y-143584387D01*
X117034883Y-143584387D02*
X116972568Y-143459757D01*
X116972568Y-143459757D02*
X116910254Y-143397443D01*
X116910254Y-143397443D02*
X116785624Y-143335128D01*
X116785624Y-143335128D02*
X116536366Y-143335128D01*
X116536366Y-143335128D02*
X116411736Y-143397443D01*
X115290072Y-144145219D02*
X115414701Y-144207533D01*
X115414701Y-144207533D02*
X115663960Y-144207533D01*
X115663960Y-144207533D02*
X115788589Y-144145219D01*
X115788589Y-144145219D02*
X115850904Y-144020589D01*
X115850904Y-144020589D02*
X115850904Y-143522072D01*
X115850904Y-143522072D02*
X115788589Y-143397443D01*
X115788589Y-143397443D02*
X115663960Y-143335128D01*
X115663960Y-143335128D02*
X115414701Y-143335128D01*
X115414701Y-143335128D02*
X115290072Y-143397443D01*
X115290072Y-143397443D02*
X115227757Y-143522072D01*
X115227757Y-143522072D02*
X115227757Y-143646701D01*
X115227757Y-143646701D02*
X115850904Y-143771331D01*
X132239663Y-145875128D02*
X132239663Y-146996792D01*
X132239663Y-146996792D02*
X132301978Y-147121421D01*
X132301978Y-147121421D02*
X132426607Y-147183736D01*
X132426607Y-147183736D02*
X132488922Y-147183736D01*
X132239663Y-145438925D02*
X132301978Y-145501240D01*
X132301978Y-145501240D02*
X132239663Y-145563555D01*
X132239663Y-145563555D02*
X132177349Y-145501240D01*
X132177349Y-145501240D02*
X132239663Y-145438925D01*
X132239663Y-145438925D02*
X132239663Y-145563555D01*
X131616516Y-146747533D02*
X131616516Y-145875128D01*
X131616516Y-145999757D02*
X131554202Y-145937443D01*
X131554202Y-145937443D02*
X131429572Y-145875128D01*
X131429572Y-145875128D02*
X131242628Y-145875128D01*
X131242628Y-145875128D02*
X131117999Y-145937443D01*
X131117999Y-145937443D02*
X131055684Y-146062072D01*
X131055684Y-146062072D02*
X131055684Y-146747533D01*
X131055684Y-146062072D02*
X130993370Y-145937443D01*
X130993370Y-145937443D02*
X130868740Y-145875128D01*
X130868740Y-145875128D02*
X130681796Y-145875128D01*
X130681796Y-145875128D02*
X130557167Y-145937443D01*
X130557167Y-145937443D02*
X130494852Y-146062072D01*
X130494852Y-146062072D02*
X130494852Y-146747533D01*
X128189209Y-146747533D02*
X128936985Y-146747533D01*
X128563097Y-146747533D02*
X128563097Y-145438925D01*
X128563097Y-145438925D02*
X128687726Y-145625869D01*
X128687726Y-145625869D02*
X128812356Y-145750499D01*
X128812356Y-145750499D02*
X128936985Y-145812813D01*
X127690692Y-145563555D02*
X127628377Y-145501240D01*
X127628377Y-145501240D02*
X127503748Y-145438925D01*
X127503748Y-145438925D02*
X127192175Y-145438925D01*
X127192175Y-145438925D02*
X127067545Y-145501240D01*
X127067545Y-145501240D02*
X127005231Y-145563555D01*
X127005231Y-145563555D02*
X126942916Y-145688184D01*
X126942916Y-145688184D02*
X126942916Y-145812813D01*
X126942916Y-145812813D02*
X127005231Y-145999757D01*
X127005231Y-145999757D02*
X127753007Y-146747533D01*
X127753007Y-146747533D02*
X126942916Y-146747533D01*
X125447364Y-145376611D02*
X126569028Y-147059107D01*
X125073476Y-145563555D02*
X125011161Y-145501240D01*
X125011161Y-145501240D02*
X124886532Y-145438925D01*
X124886532Y-145438925D02*
X124574959Y-145438925D01*
X124574959Y-145438925D02*
X124450329Y-145501240D01*
X124450329Y-145501240D02*
X124388015Y-145563555D01*
X124388015Y-145563555D02*
X124325700Y-145688184D01*
X124325700Y-145688184D02*
X124325700Y-145812813D01*
X124325700Y-145812813D02*
X124388015Y-145999757D01*
X124388015Y-145999757D02*
X125135791Y-146747533D01*
X125135791Y-146747533D02*
X124325700Y-146747533D01*
X123515610Y-145438925D02*
X123390980Y-145438925D01*
X123390980Y-145438925D02*
X123266351Y-145501240D01*
X123266351Y-145501240D02*
X123204036Y-145563555D01*
X123204036Y-145563555D02*
X123141722Y-145688184D01*
X123141722Y-145688184D02*
X123079407Y-145937443D01*
X123079407Y-145937443D02*
X123079407Y-146249016D01*
X123079407Y-146249016D02*
X123141722Y-146498275D01*
X123141722Y-146498275D02*
X123204036Y-146622904D01*
X123204036Y-146622904D02*
X123266351Y-146685219D01*
X123266351Y-146685219D02*
X123390980Y-146747533D01*
X123390980Y-146747533D02*
X123515610Y-146747533D01*
X123515610Y-146747533D02*
X123640239Y-146685219D01*
X123640239Y-146685219D02*
X123702554Y-146622904D01*
X123702554Y-146622904D02*
X123764868Y-146498275D01*
X123764868Y-146498275D02*
X123827183Y-146249016D01*
X123827183Y-146249016D02*
X123827183Y-145937443D01*
X123827183Y-145937443D02*
X123764868Y-145688184D01*
X123764868Y-145688184D02*
X123702554Y-145563555D01*
X123702554Y-145563555D02*
X123640239Y-145501240D01*
X123640239Y-145501240D02*
X123515610Y-145438925D01*
X122580890Y-145563555D02*
X122518575Y-145501240D01*
X122518575Y-145501240D02*
X122393946Y-145438925D01*
X122393946Y-145438925D02*
X122082373Y-145438925D01*
X122082373Y-145438925D02*
X121957743Y-145501240D01*
X121957743Y-145501240D02*
X121895429Y-145563555D01*
X121895429Y-145563555D02*
X121833114Y-145688184D01*
X121833114Y-145688184D02*
X121833114Y-145812813D01*
X121833114Y-145812813D02*
X121895429Y-145999757D01*
X121895429Y-145999757D02*
X122643205Y-146747533D01*
X122643205Y-146747533D02*
X121833114Y-146747533D01*
X121023024Y-145438925D02*
X120898394Y-145438925D01*
X120898394Y-145438925D02*
X120773765Y-145501240D01*
X120773765Y-145501240D02*
X120711450Y-145563555D01*
X120711450Y-145563555D02*
X120649136Y-145688184D01*
X120649136Y-145688184D02*
X120586821Y-145937443D01*
X120586821Y-145937443D02*
X120586821Y-146249016D01*
X120586821Y-146249016D02*
X120649136Y-146498275D01*
X120649136Y-146498275D02*
X120711450Y-146622904D01*
X120711450Y-146622904D02*
X120773765Y-146685219D01*
X120773765Y-146685219D02*
X120898394Y-146747533D01*
X120898394Y-146747533D02*
X121023024Y-146747533D01*
X121023024Y-146747533D02*
X121147653Y-146685219D01*
X121147653Y-146685219D02*
X121209968Y-146622904D01*
X121209968Y-146622904D02*
X121272282Y-146498275D01*
X121272282Y-146498275D02*
X121334597Y-146249016D01*
X121334597Y-146249016D02*
X121334597Y-145937443D01*
X121334597Y-145937443D02*
X121272282Y-145688184D01*
X121272282Y-145688184D02*
X121209968Y-145563555D01*
X121209968Y-145563555D02*
X121147653Y-145501240D01*
X121147653Y-145501240D02*
X121023024Y-145438925D01*
D14*
X119996348Y-86949599D02*
X119996348Y-86276136D01*
X118817788Y-86612867D02*
X119996348Y-86612867D01*
X119996348Y-85378186D02*
X119996348Y-85602673D01*
X119996348Y-85602673D02*
X119940226Y-85714917D01*
X119940226Y-85714917D02*
X119884104Y-85771039D01*
X119884104Y-85771039D02*
X119715738Y-85883283D01*
X119715738Y-85883283D02*
X119491250Y-85939405D01*
X119491250Y-85939405D02*
X119042275Y-85939405D01*
X119042275Y-85939405D02*
X118930031Y-85883283D01*
X118930031Y-85883283D02*
X118873910Y-85827161D01*
X118873910Y-85827161D02*
X118817788Y-85714917D01*
X118817788Y-85714917D02*
X118817788Y-85490430D01*
X118817788Y-85490430D02*
X118873910Y-85378186D01*
X118873910Y-85378186D02*
X118930031Y-85322064D01*
X118930031Y-85322064D02*
X119042275Y-85265942D01*
X119042275Y-85265942D02*
X119322885Y-85265942D01*
X119322885Y-85265942D02*
X119435129Y-85322064D01*
X119435129Y-85322064D02*
X119491250Y-85378186D01*
X119491250Y-85378186D02*
X119547372Y-85490430D01*
X119547372Y-85490430D02*
X119547372Y-85714917D01*
X119547372Y-85714917D02*
X119491250Y-85827161D01*
X119491250Y-85827161D02*
X119435129Y-85883283D01*
X119435129Y-85883283D02*
X119322885Y-85939405D01*
X112376348Y-86949599D02*
X112376348Y-86276136D01*
X111197788Y-86612867D02*
X112376348Y-86612867D01*
X111197788Y-85827161D02*
X111197788Y-85602673D01*
X111197788Y-85602673D02*
X111253910Y-85490430D01*
X111253910Y-85490430D02*
X111310031Y-85434308D01*
X111310031Y-85434308D02*
X111478397Y-85322064D01*
X111478397Y-85322064D02*
X111702885Y-85265942D01*
X111702885Y-85265942D02*
X112151860Y-85265942D01*
X112151860Y-85265942D02*
X112264104Y-85322064D01*
X112264104Y-85322064D02*
X112320226Y-85378186D01*
X112320226Y-85378186D02*
X112376348Y-85490430D01*
X112376348Y-85490430D02*
X112376348Y-85714917D01*
X112376348Y-85714917D02*
X112320226Y-85827161D01*
X112320226Y-85827161D02*
X112264104Y-85883283D01*
X112264104Y-85883283D02*
X112151860Y-85939405D01*
X112151860Y-85939405D02*
X111871250Y-85939405D01*
X111871250Y-85939405D02*
X111759007Y-85883283D01*
X111759007Y-85883283D02*
X111702885Y-85827161D01*
X111702885Y-85827161D02*
X111646763Y-85714917D01*
X111646763Y-85714917D02*
X111646763Y-85490430D01*
X111646763Y-85490430D02*
X111702885Y-85378186D01*
X111702885Y-85378186D02*
X111759007Y-85322064D01*
X111759007Y-85322064D02*
X111871250Y-85265942D01*
X117456348Y-86949599D02*
X117456348Y-86276136D01*
X116277788Y-86612867D02*
X117456348Y-86612867D01*
X117456348Y-85995527D02*
X117456348Y-85209820D01*
X117456348Y-85209820D02*
X116277788Y-85714917D01*
X122536348Y-86949599D02*
X122536348Y-86276136D01*
X121357788Y-86612867D02*
X122536348Y-86612867D01*
X122536348Y-85322064D02*
X122536348Y-85883283D01*
X122536348Y-85883283D02*
X121975129Y-85939405D01*
X121975129Y-85939405D02*
X122031250Y-85883283D01*
X122031250Y-85883283D02*
X122087372Y-85771039D01*
X122087372Y-85771039D02*
X122087372Y-85490430D01*
X122087372Y-85490430D02*
X122031250Y-85378186D01*
X122031250Y-85378186D02*
X121975129Y-85322064D01*
X121975129Y-85322064D02*
X121862885Y-85265942D01*
X121862885Y-85265942D02*
X121582275Y-85265942D01*
X121582275Y-85265942D02*
X121470031Y-85322064D01*
X121470031Y-85322064D02*
X121413910Y-85378186D01*
X121413910Y-85378186D02*
X121357788Y-85490430D01*
X121357788Y-85490430D02*
X121357788Y-85771039D01*
X121357788Y-85771039D02*
X121413910Y-85883283D01*
X121413910Y-85883283D02*
X121470031Y-85939405D01*
X127616348Y-86949599D02*
X127616348Y-86276136D01*
X126437788Y-86612867D02*
X127616348Y-86612867D01*
X127616348Y-85995527D02*
X127616348Y-85265942D01*
X127616348Y-85265942D02*
X127167372Y-85658795D01*
X127167372Y-85658795D02*
X127167372Y-85490430D01*
X127167372Y-85490430D02*
X127111250Y-85378186D01*
X127111250Y-85378186D02*
X127055129Y-85322064D01*
X127055129Y-85322064D02*
X126942885Y-85265942D01*
X126942885Y-85265942D02*
X126662275Y-85265942D01*
X126662275Y-85265942D02*
X126550031Y-85322064D01*
X126550031Y-85322064D02*
X126493910Y-85378186D01*
X126493910Y-85378186D02*
X126437788Y-85490430D01*
X126437788Y-85490430D02*
X126437788Y-85827161D01*
X126437788Y-85827161D02*
X126493910Y-85939405D01*
X126493910Y-85939405D02*
X126550031Y-85995527D01*
X125076348Y-86949599D02*
X125076348Y-86276136D01*
X123897788Y-86612867D02*
X125076348Y-86612867D01*
X124683494Y-85378186D02*
X123897788Y-85378186D01*
X125132470Y-85658795D02*
X124290641Y-85939405D01*
X124290641Y-85939405D02*
X124290641Y-85209820D01*
X132696348Y-86949599D02*
X132696348Y-86276136D01*
X131517788Y-86612867D02*
X132696348Y-86612867D01*
X131517788Y-85265942D02*
X131517788Y-85939405D01*
X131517788Y-85602673D02*
X132696348Y-85602673D01*
X132696348Y-85602673D02*
X132527982Y-85714917D01*
X132527982Y-85714917D02*
X132415738Y-85827161D01*
X132415738Y-85827161D02*
X132359616Y-85939405D01*
X130156348Y-86949599D02*
X130156348Y-86276136D01*
X128977788Y-86612867D02*
X130156348Y-86612867D01*
X130044104Y-85939405D02*
X130100226Y-85883283D01*
X130100226Y-85883283D02*
X130156348Y-85771039D01*
X130156348Y-85771039D02*
X130156348Y-85490430D01*
X130156348Y-85490430D02*
X130100226Y-85378186D01*
X130100226Y-85378186D02*
X130044104Y-85322064D01*
X130044104Y-85322064D02*
X129931860Y-85265942D01*
X129931860Y-85265942D02*
X129819616Y-85265942D01*
X129819616Y-85265942D02*
X129651250Y-85322064D01*
X129651250Y-85322064D02*
X128977788Y-85995527D01*
X128977788Y-85995527D02*
X128977788Y-85265942D01*
X114916348Y-86949599D02*
X114916348Y-86276136D01*
X113737788Y-86612867D02*
X114916348Y-86612867D01*
X114411250Y-85714917D02*
X114467372Y-85827161D01*
X114467372Y-85827161D02*
X114523494Y-85883283D01*
X114523494Y-85883283D02*
X114635738Y-85939405D01*
X114635738Y-85939405D02*
X114691860Y-85939405D01*
X114691860Y-85939405D02*
X114804104Y-85883283D01*
X114804104Y-85883283D02*
X114860226Y-85827161D01*
X114860226Y-85827161D02*
X114916348Y-85714917D01*
X114916348Y-85714917D02*
X114916348Y-85490430D01*
X114916348Y-85490430D02*
X114860226Y-85378186D01*
X114860226Y-85378186D02*
X114804104Y-85322064D01*
X114804104Y-85322064D02*
X114691860Y-85265942D01*
X114691860Y-85265942D02*
X114635738Y-85265942D01*
X114635738Y-85265942D02*
X114523494Y-85322064D01*
X114523494Y-85322064D02*
X114467372Y-85378186D01*
X114467372Y-85378186D02*
X114411250Y-85490430D01*
X114411250Y-85490430D02*
X114411250Y-85714917D01*
X114411250Y-85714917D02*
X114355129Y-85827161D01*
X114355129Y-85827161D02*
X114299007Y-85883283D01*
X114299007Y-85883283D02*
X114186763Y-85939405D01*
X114186763Y-85939405D02*
X113962275Y-85939405D01*
X113962275Y-85939405D02*
X113850031Y-85883283D01*
X113850031Y-85883283D02*
X113793910Y-85827161D01*
X113793910Y-85827161D02*
X113737788Y-85714917D01*
X113737788Y-85714917D02*
X113737788Y-85490430D01*
X113737788Y-85490430D02*
X113793910Y-85378186D01*
X113793910Y-85378186D02*
X113850031Y-85322064D01*
X113850031Y-85322064D02*
X113962275Y-85265942D01*
X113962275Y-85265942D02*
X114186763Y-85265942D01*
X114186763Y-85265942D02*
X114299007Y-85322064D01*
X114299007Y-85322064D02*
X114355129Y-85378186D01*
X114355129Y-85378186D02*
X114411250Y-85490430D01*
X143224648Y-83371102D02*
X142382819Y-83371102D01*
X142382819Y-83371102D02*
X142214453Y-83427223D01*
X142214453Y-83427223D02*
X142102210Y-83539467D01*
X142102210Y-83539467D02*
X142046088Y-83707833D01*
X142046088Y-83707833D02*
X142046088Y-83820077D01*
X142046088Y-82809883D02*
X143224648Y-82809883D01*
X143224648Y-82809883D02*
X143224648Y-82360908D01*
X143224648Y-82360908D02*
X143168526Y-82248664D01*
X143168526Y-82248664D02*
X143112404Y-82192542D01*
X143112404Y-82192542D02*
X143000160Y-82136420D01*
X143000160Y-82136420D02*
X142831794Y-82136420D01*
X142831794Y-82136420D02*
X142719550Y-82192542D01*
X142719550Y-82192542D02*
X142663429Y-82248664D01*
X142663429Y-82248664D02*
X142607307Y-82360908D01*
X142607307Y-82360908D02*
X142607307Y-82809883D01*
X142046088Y-81013982D02*
X142046088Y-81687445D01*
X142046088Y-81350713D02*
X143224648Y-81350713D01*
X143224648Y-81350713D02*
X143056282Y-81462957D01*
X143056282Y-81462957D02*
X142944038Y-81575201D01*
X142944038Y-81575201D02*
X142887916Y-81687445D01*
D15*
%TO.C,T6*%
X118176675Y-84372450D02*
X118176675Y-80232250D01*
X118176675Y-84372450D02*
X120405525Y-84372450D01*
X120405525Y-80232250D02*
X120405525Y-84372450D01*
D16*
X118176674Y-80232251D02*
G75*
G02*
X120405525Y-80232250I1114426J-1114424D01*
G01*
X120180100Y-82143600D02*
G75*
G02*
X118402100Y-82143600I-889000J0D01*
G01*
X118402100Y-82143600D02*
G75*
G02*
X120180100Y-82143600I889000J0D01*
G01*
D15*
%TO.C,T9*%
X110556675Y-84372450D02*
X110556675Y-80232250D01*
X110556675Y-84372450D02*
X112785525Y-84372450D01*
X112785525Y-80232250D02*
X112785525Y-84372450D01*
D16*
X110556674Y-80232251D02*
G75*
G02*
X112785525Y-80232250I1114426J-1114424D01*
G01*
X112560100Y-82143600D02*
G75*
G02*
X110782100Y-82143600I-889000J0D01*
G01*
X110782100Y-82143600D02*
G75*
G02*
X112560100Y-82143600I889000J0D01*
G01*
D15*
%TO.C,T7*%
X115636675Y-84372450D02*
X115636675Y-80232250D01*
X115636675Y-84372450D02*
X117865525Y-84372450D01*
X117865525Y-80232250D02*
X117865525Y-84372450D01*
D16*
X115636674Y-80232251D02*
G75*
G02*
X117865525Y-80232250I1114426J-1114424D01*
G01*
X117640100Y-82143600D02*
G75*
G02*
X115862100Y-82143600I-889000J0D01*
G01*
X115862100Y-82143600D02*
G75*
G02*
X117640100Y-82143600I889000J0D01*
G01*
D15*
%TO.C,T5*%
X120716675Y-84372450D02*
X120716675Y-80232250D01*
X120716675Y-84372450D02*
X122945525Y-84372450D01*
X122945525Y-80232250D02*
X122945525Y-84372450D01*
D16*
X120716674Y-80232251D02*
G75*
G02*
X122945525Y-80232250I1114426J-1114424D01*
G01*
X122720100Y-82143600D02*
G75*
G02*
X120942100Y-82143600I-889000J0D01*
G01*
X120942100Y-82143600D02*
G75*
G02*
X122720100Y-82143600I889000J0D01*
G01*
D15*
%TO.C,T3*%
X125796675Y-84372450D02*
X125796675Y-80232250D01*
X125796675Y-84372450D02*
X128025525Y-84372450D01*
X128025525Y-80232250D02*
X128025525Y-84372450D01*
D16*
X125796674Y-80232251D02*
G75*
G02*
X128025525Y-80232250I1114426J-1114424D01*
G01*
X127800100Y-82143600D02*
G75*
G02*
X126022100Y-82143600I-889000J0D01*
G01*
X126022100Y-82143600D02*
G75*
G02*
X127800100Y-82143600I889000J0D01*
G01*
D15*
%TO.C,T4*%
X123256675Y-84372450D02*
X123256675Y-80232250D01*
X123256675Y-84372450D02*
X125485525Y-84372450D01*
X125485525Y-80232250D02*
X125485525Y-84372450D01*
D16*
X123256674Y-80232251D02*
G75*
G02*
X125485525Y-80232250I1114426J-1114424D01*
G01*
X125260100Y-82143600D02*
G75*
G02*
X123482100Y-82143600I-889000J0D01*
G01*
X123482100Y-82143600D02*
G75*
G02*
X125260100Y-82143600I889000J0D01*
G01*
D15*
%TO.C,T1*%
X130876675Y-84372450D02*
X130876675Y-80232250D01*
X130876675Y-84372450D02*
X133105525Y-84372450D01*
X133105525Y-80232250D02*
X133105525Y-84372450D01*
D16*
X130876674Y-80232251D02*
G75*
G02*
X133105525Y-80232250I1114426J-1114424D01*
G01*
X132880100Y-82143600D02*
G75*
G02*
X131102100Y-82143600I-889000J0D01*
G01*
X131102100Y-82143600D02*
G75*
G02*
X132880100Y-82143600I889000J0D01*
G01*
D15*
%TO.C,T2*%
X128336675Y-84372450D02*
X128336675Y-80232250D01*
X128336675Y-84372450D02*
X130565525Y-84372450D01*
X130565525Y-80232250D02*
X130565525Y-84372450D01*
D16*
X128336674Y-80232251D02*
G75*
G02*
X130565525Y-80232250I1114426J-1114424D01*
G01*
X130340100Y-82143600D02*
G75*
G02*
X128562100Y-82143600I-889000J0D01*
G01*
X128562100Y-82143600D02*
G75*
G02*
X130340100Y-82143600I889000J0D01*
G01*
D15*
%TO.C,T8*%
X113096675Y-84372450D02*
X113096675Y-80232250D01*
X113096675Y-84372450D02*
X115325525Y-84372450D01*
X115325525Y-80232250D02*
X115325525Y-84372450D01*
D16*
X113096674Y-80232251D02*
G75*
G02*
X115325525Y-80232250I1114426J-1114424D01*
G01*
X115100100Y-82143600D02*
G75*
G02*
X113322100Y-82143600I-889000J0D01*
G01*
X113322100Y-82143600D02*
G75*
G02*
X115100100Y-82143600I889000J0D01*
G01*
D15*
%TO.C,JP1*%
X138341100Y-79857600D02*
X138341100Y-81889600D01*
X138341100Y-79857600D02*
X138595100Y-79603600D01*
X138341100Y-82397600D02*
X138341100Y-84429600D01*
X138595100Y-79603600D02*
X140627100Y-79603600D01*
X138595100Y-82143600D02*
X138341100Y-81889600D01*
X138595100Y-82143600D02*
X138341100Y-82397600D01*
X138595100Y-84683600D02*
X138341100Y-84429600D01*
X140627100Y-82143600D02*
X140881100Y-81889600D01*
X140627100Y-82143600D02*
X140881100Y-82397600D01*
X140627100Y-84683600D02*
X138595100Y-84683600D01*
X140627100Y-84683600D02*
X140881100Y-84429600D01*
X140881100Y-79857600D02*
X140627100Y-79603600D01*
X140881100Y-79857600D02*
X140881100Y-81889600D01*
X140881100Y-82397600D02*
X140881100Y-84429600D01*
%TD*%
G36*
X123848300Y-117649106D02*
G01*
X123857306Y-117670850D01*
X123848300Y-117692594D01*
X123846242Y-117694473D01*
X121850786Y-119357353D01*
X121828316Y-119364354D01*
X121811414Y-119357353D01*
X119815958Y-117694473D01*
X119805020Y-117673634D01*
X119812021Y-117651164D01*
X119832860Y-117640226D01*
X119835644Y-117640100D01*
X123826556Y-117640100D01*
X123848300Y-117649106D01*
G37*
G36*
X121850786Y-115097346D02*
G01*
X123846242Y-116760227D01*
X123857180Y-116781066D01*
X123850179Y-116803536D01*
X123829340Y-116814474D01*
X123826556Y-116814600D01*
X119835644Y-116814600D01*
X119813900Y-116805594D01*
X119804894Y-116783850D01*
X119813900Y-116762106D01*
X119815958Y-116760227D01*
X121811414Y-115097346D01*
X121833884Y-115090345D01*
X121850786Y-115097346D01*
G37*
M02*
